<?xml version="1.0" encoding="UTF-8"?>
<svg viewBox="0 0 800 600" xmlns="http://www.w3.org/2000/svg">
  <!-- Foster City sports victory celebration hibachi championship -->
  <defs>
    <linearGradient id="victorySky" x1="0%" y1="0%" x2="0%" y2="100%">
      <stop offset="0%" style="stop-color:#FFD700"/>
      <stop offset="50%" style="stop-color:#FF6347"/>
      <stop offset="100%" style="stop-color:#FF4500"/>
    </linearGradient>
    <linearGradient id="fosterCityBuilding" x1="0%" y1="0%" x2="0%" y2="100%">
      <stop offset="0%" style="stop-color:#4169E1"/>
      <stop offset="100%" style="stop-color:#000080"/>
    </linearGradient>
    <radialGradient id="championshipGlow" cx="50%" cy="50%" r="50%">
      <stop offset="0%" style="stop-color:#FFD700; opacity:0.9"/>
      <stop offset="100%" style="stop-color:transparent"/>
    </radialGradient>
  </defs>
  
  <!-- Championship victory sky -->
  <rect width="800" height="600" fill="url(#victorySky)"/>
  
  <!-- Victory fireworks -->
  <circle cx="120" cy="40" r="4" fill="#FFD700"/>
  <path d="M120,40 L125,35 M120,40 L115,35 M120,40 L125,45 M120,40 L115,45 M120,40 L120,30 M120,40 L120,50 M120,40 L130,40 M120,40 L110,40" stroke="#FFD700" stroke-width="2"/>
  
  <circle cx="280" cy="50" r="4" fill="#FF6347"/>
  <path d="M280,50 L285,45 M280,50 L275,45 M280,50 L285,55 M280,50 L275,55 M280,50 L280,40 M280,50 L280,60 M280,50 L290,50 M280,50 L270,50" stroke="#FF6347" stroke-width="2"/>
  
  <circle cx="520" cy="45" r="4" fill="#FFD700"/>
  <path d="M520,45 L525,40 M520,45 L515,40 M520,45 L525,50 M520,45 L515,50 M520,45 L520,35 M520,45 L520,55 M520,45 L530,45 M520,45 L510,45" stroke="#FFD700" stroke-width="2"/>
  
  <circle cx="680" cy="55" r="4" fill="#FF6347"/>
  <path d="M680,55 L685,50 M680,55 L675,50 M680,55 L685,60 M680,55 L675,60 M680,55 L680,45 M680,55 L680,65 M680,55 L690,55 M680,55 L670,55" stroke="#FF6347" stroke-width="2"/>
  
  <!-- Foster City sports complex -->
  <rect x="50" y="140" width="120" height="150" fill="url(#fosterCityBuilding)" rx="12"/>
  <rect x="190" y="120" width="140" height="170" fill="url(#fosterCityBuilding)" rx="12"/>
  <rect x="350" y="150" width="100" height="140" fill="url(#fosterCityBuilding)" rx="12"/>
  <rect x="470" y="130" width="130" height="160" fill="url(#fosterCityBuilding)" rx="12"/>
  <rect x="620" y="145" width="110" height="145" fill="url(#fosterCityBuilding)" rx="12"/>
  
  <!-- Sports stadium -->
  <ellipse cx="260" cy="100" rx="80" ry="30" fill="url(#fosterCityBuilding)"/>
  <rect x="240" y="85" width="40" height="20" fill="#FFD700"/> <!-- Scoreboard -->
  <text x="260" y="98" text-anchor="middle" fill="#000080" font-family="Arial, sans-serif" font-size="12" font-weight="bold">CHAMPIONS</text>
  
  <!-- Sports victory celebration venue -->
  <rect x="100" y="310" width="600" height="240" fill="#FFF8DC" opacity="0.95" rx="50"/>
  <text x="400" y="345" text-anchor="middle" fill="#FF4500" font-family="Arial, sans-serif" font-size="32" font-weight="bold">FOSTER CITY SPORTS VICTORY</text>
  <text x="400" y="375" text-anchor="middle" fill="#4169E1" font-family="Arial, sans-serif" font-size="26">CHAMPIONSHIP HIBACHI CELEBRATION</text>
  <text x="400" y="405" text-anchor="middle" fill="#FF4500" font-family="Arial, sans-serif" font-size="18">VICTORY PARTY DINING FOR CHAMPIONS</text>
  
  <!-- Championship hibachi setup -->
  <rect x="120" y="280" width="560" height="170" fill="#2F4F4F" rx="30"/>
  <rect x="130" y="275" width="540" height="45" fill="#FF4500"/>
  
  <!-- Victory hibachi arrangement -->
  <circle cx="150" cy="285" r="18" fill="#FFD700"/>
  <circle cx="190" cy="285" r="18" fill="#4169E1"/>
  <circle cx="230" cy="285" r="18" fill="#FFD700"/>
  <circle cx="270" cy="285" r="18" fill="#4169E1"/>
  <circle cx="310" cy="285" r="18" fill="#FFD700"/>
  <circle cx="350" cy="285" r="18" fill="#4169E1"/>
  <circle cx="390" cy="285" r="18" fill="#FFD700"/>
  <circle cx="430" cy="285" r="18" fill="#4169E1"/>
  <circle cx="470" cy="285" r="18" fill="#FFD700"/>
  <circle cx="510" cy="285" r="18" fill="#4169E1"/>
  <circle cx="550" cy="285" r="18" fill="#FFD700"/>
  <circle cx="590" cy="285" r="18" fill="#4169E1"/>
  <circle cx="630" cy="285" r="18" fill="#FFD700"/>
  <circle cx="670" cy="285" r="18" fill="#4169E1"/>
  
  <!-- Championship hibachi chef -->
  <circle cx="400" cy="205" r="26" fill="#FDBCB4"/>
  <rect x="379" y="231" width="42" height="44" fill="white"/>
  <rect x="374" y="275" width="52" height="52" fill="#FF4500"/> <!-- Victory orange outfit -->
  <rect x="378" y="327" width="18" height="36" fill="#FDBCB4"/>
  <rect x="404" y="327" width="18" height="36" fill="#FDBCB4"/>
  
  <!-- Championship chef hat -->
  <rect x="384" y="186" width="32" height="18" fill="white"/>
  <circle cx="400" cy="186" r="20" fill="white"/>
  <text x="400" y="190" text-anchor="middle" fill="#FF4500" font-family="Arial, sans-serif" font-size="12" font-weight="bold">MVP</text>
  <polygon points="395,181 405,181 400,176" fill="#FFD700"/> <!-- Trophy accent -->
  
  <!-- Winning team captain -->
  <circle cx="280" cy="440" r="24" fill="#FDBCB4"/>
  <rect x="261" y="464" width="38" height="44" fill="#4169E1"/> <!-- Team colors -->
  <rect x="263" y="508" width="34" height="38" fill="#4169E1"/>
  <rect x="265" y="546" width="30" height="28" fill="#FFD700"/> <!-- Gold cleats -->
  <!-- Championship trophy -->
  <rect x="320" y="475" width="8" height="12" fill="#8B4513"/>
  <ellipse cx="324" cy="475" rx="6" ry="4" fill="#FFD700"/>
  <rect x="322" y="470" width="4" height="8" fill="#FFD700"/>
  <polygon points="324,467 326,464 322,464" fill="#FFD700"/>
  <!-- Team jersey number -->
  <text x="280" y="485" text-anchor="middle" fill="#FFD700" font-family="Arial, sans-serif" font-size="14" font-weight="bold">1</text>
  
  <!-- Team player with medal -->
  <circle cx="380" cy="450" r="22" fill="#FDBCB4"/>
  <rect x="363" y="472" width="34" height="40" fill="#4169E1"/> <!-- Team uniform -->
  <rect x="365" y="512" width="30" height="34" fill="#4169E1"/>
  <rect x="367" y="546" width="26" height="24" fill="#FFFFFF"/> <!-- White sneakers -->
  <!-- Victory medal -->
  <circle cx="365" cy="480" r="4" fill="#FFD700"/>
  <text x="365" y="483" text-anchor="middle" fill="#FF4500" font-family="Arial, sans-serif" font-size="6" font-weight="bold">1st</text>
  <rect x="363" y="484" width="4" height="6" fill="#4169E1"/> <!-- Ribbon -->
  <!-- Sports equipment -->
  <circle cx="350" cy="495" r="6" fill="#FF6347"/> <!-- Ball -->
  <path d="M345,495 Q350,490 355,495 Q350,500 345,495" fill="#FFFFFF"/> <!-- Ball pattern -->
  
  <!-- Team player celebrating -->
  <circle cx="520" cy="450" r="22" fill="#FDBCB4"/>
  <rect x="503" y="472" width="34" height="40" fill="#4169E1"/> <!-- Team colors -->
  <rect x="505" y="512" width="30" height="34" fill="#4169E1"/>
  <rect x="507" y="546" width="26" height="24" fill="#FFD700"/>
  <!-- Victory gesture -->
  <circle cx="495" cy="485" r="4" fill="#FDBCB4"/> <!-- Raised fist -->
  <rect x="493" y="485" width="4" height="8" fill="#FDBCB4"/>
  <!-- Sports drink -->
  <rect x="540" y="485" width="6" height="14" fill="#4169E1"/>
  <circle cx="543" cy="485" r="2" fill="#FFD700"/>
  
  <!-- Coach with clipboard -->
  <circle cx="320" cy="470" r="20" fill="#FDBCB4"/>
  <rect x="305" y="490" width="30" height="36" fill="#000080"/> <!-- Coach outfit -->
  <rect x="307" y="526" width="26" height="30" fill="#000080"/>
  <rect x="309" y="556" width="22" height="22" fill="#000000"/>
  <!-- Coach clipboard -->
  <rect x="290" y="505" width="10" height="12" fill="#8B4513"/>
  <rect x="291" y="506" width="8" height="10" fill="white"/>
  <rect x="292" y="508" width="6" height="2" fill="#4169E1"/>
  <!-- Coach whistle -->
  <circle cx="315" cy="498" r="2" fill="#C0C0C0"/>
  
  <!-- Team fan with banner -->
  <circle cx="480" cy="470" r="20" fill="#FDBCB4"/>
  <rect x="465" y="490" width="30" height="36" fill="#FF6347"/> <!-- Fan outfit -->
  <rect x="467" y="526" width="26" height="30" fill="#4169E1"/>
  <rect x="469" y="556" width="22" height="22" fill="#FFFFFF"/>
  <!-- Victory banner -->
  <rect x="500" y="495" width="15" height="10" fill="#FFD700"/>
  <text x="507" y="502" text-anchor="middle" fill="#4169E1" font-family="Arial, sans-serif" font-size="6" font-weight="bold">WIN</text>
  <rect x="502" y="505" width="2" height="12" fill="#8B4513"/> <!-- Banner pole -->
  
  <!-- Championship dining table -->
  <ellipse cx="400" cy="585" rx="230" ry="70" fill="#8B4513"/>
  <ellipse cx="400" cy="580" rx="220" ry="65" fill="#FFD700" opacity="0.3"/>
  
  <!-- Victory place settings -->
  <circle cx="210" cy="580" r="20" fill="white"/>
  <circle cx="210" cy="580" r="16" fill="#FFD700"/>
  <circle cx="290" cy="580" r="20" fill="white"/>
  <circle cx="290" cy="580" r="16" fill="#4169E1"/>
  <circle cx="370" cy="580" r="20" fill="white"/>
  <circle cx="370" cy="580" r="16" fill="#FFD700"/>
  <circle cx="450" cy="580" r="20" fill="white"/>
  <circle cx="450" cy="580" r="16" fill="#4169E1"/>
  <circle cx="530" cy="580" r="20" fill="white"/>
  <circle cx="530" cy="580" r="16" fill="#FFD700"/>
  <circle cx="610" cy="580" r="20" fill="white"/>
  <circle cx="610" cy="580" r="16" fill="#4169E1"/>
  
  <!-- Victory beverages -->
  <rect x="202" y="566" width="8" height="20" fill="#FFD700"/> <!-- Victory champagne -->
  <rect x="282" y="566" width="8" height="20" fill="#4169E1"/> <!-- Sports drink -->
  <rect x="362" y="566" width="8" height="20" fill="#FF6347"/> <!-- Victory punch -->
  <rect x="442" y="566" width="8" height="20" fill="#FFD700"/> <!-- Champagne -->
  <rect x="522" y="566" width="8" height="20" fill="#32CD32"/> <!-- Energy drink -->
  <rect x="602" y="566" width="8" height="20" fill="#FF4500"/> <!-- Victory cola -->
  
  <!-- Victory title -->
  <text x="400" y="85" text-anchor="middle" fill="#FFD700" font-family="Arial, sans-serif" font-size="38" font-weight="bold">FOSTER CITY VICTORY</text>
  <text x="400" y="125" text-anchor="middle" fill="white" font-family="Arial, sans-serif" font-size="30">CHAMPIONSHIP HIBACHI</text>
  
  <!-- Sports zones -->
  <rect x="10" y="490" width="160" height="105" fill="#FF4500" opacity="0.8" rx="25"/>
  <text x="90" y="520" text-anchor="middle" fill="white" font-family="Arial, sans-serif" font-size="20" font-weight="bold">SPORTS</text>
  <text x="90" y="540" text-anchor="middle" fill="#FFD700" font-family="Arial, sans-serif" font-size="18">VICTORY</text>
  <text x="90" y="555" text-anchor="middle" fill="white" font-family="Arial, sans-serif" font-size="17">HIBACHI</text>
  <text x="90" y="570" text-anchor="middle" fill="#FFD700" font-family="Arial, sans-serif" font-size="16">CHAMPIONS</text>
  <text x="90" y="585" text-anchor="middle" fill="white" font-family="Arial, sans-serif" font-size="15">FOSTER CITY</text>
  
  <rect x="630" y="490" width="160" height="105" fill="#4169E1" opacity="0.8" rx="25"/>
  <text x="710" y="520" text-anchor="middle" fill="#FFD700" font-family="Arial, sans-serif" font-size="20" font-weight="bold">TEAM</text>
  <text x="710" y="540" text-anchor="middle" fill="white" font-family="Arial, sans-serif" font-size="18">CELEBRATION</text>
  <text x="710" y="555" text-anchor="middle" fill="#FFD700" font-family="Arial, sans-serif" font-size="17">VICTORY</text>
  <text x="710" y="570" text-anchor="middle" fill="white" font-family="Arial, sans-serif" font-size="16">PARTY</text>
  <text x="710" y="585" text-anchor="middle" fill="#FFD700" font-family="Arial, sans-serif" font-size="15">DINING</text>
  
  <!-- Championship hibachi specialties -->
  <ellipse cx="160" cy="283" rx="24" ry="16" fill="#FFD700"/>
  <ellipse cx="200" cy="283" rx="25" ry="16" fill="#4169E1"/>
  <ellipse cx="240" cy="283" rx="24" ry="16" fill="#FFD700"/>
  <ellipse cx="280" cy="283" rx="23" ry="15" fill="#4169E1"/>
  <ellipse cx="320" cy="283" rx="24" ry="16" fill="#FFD700"/>
  <ellipse cx="360" cy="283" rx="25" ry="16" fill="#4169E1"/>
  <ellipse cx="400" cy="283" rx="24" ry="16" fill="#FFD700"/>
  <ellipse cx="440" cy="283" rx="23" ry="15" fill="#4169E1"/>
  <ellipse cx="480" cy="283" rx="24" ry="16" fill="#FFD700"/>
  <ellipse cx="520" cy="283" rx="25" ry="16" fill="#4169E1"/>
  <ellipse cx="560" cy="283" rx="24" ry="16" fill="#FFD700"/>
  <ellipse cx="600" cy="283" rx="23" ry="15" fill="#4169E1"/>
  <ellipse cx="640" cy="283" rx="24" ry="16" fill="#FFD700"/>
  <ellipse cx="680" cy="283" rx="25" ry="16" fill="#4169E1"/>
  
  <!-- Victory flames -->
  <polygon points="160,283 170,268 150,268" fill="#FFD700" opacity="0.9"/>
  <polygon points="200,283 210,268 190,268" fill="#4169E1" opacity="0.9"/>
  <polygon points="240,283 250,268 230,268" fill="#FFD700" opacity="0.9"/>
  <polygon points="280,283 290,268 270,268" fill="#4169E1" opacity="0.9"/>
  <polygon points="320,283 330,268 310,268" fill="#FFD700" opacity="0.9"/>
  <polygon points="360,283 370,268 350,268" fill="#4169E1" opacity="0.9"/>
  <polygon points="400,283 410,268 390,268" fill="#FFD700" opacity="0.9"/>
  <polygon points="440,283 450,268 430,268" fill="#4169E1" opacity="0.9"/>
  <polygon points="480,283 490,268 470,268" fill="#FFD700" opacity="0.9"/>
  <polygon points="520,283 530,268 510,268" fill="#4169E1" opacity="0.9"/>
  <polygon points="560,283 570,268 550,268" fill="#FFD700" opacity="0.9"/>
  <polygon points="600,283 610,268 590,268" fill="#4169E1" opacity="0.9"/>
  <polygon points="640,283 650,268 630,268" fill="#FFD700" opacity="0.9"/>
  <polygon points="680,283 690,268 670,268" fill="#4169E1" opacity="0.9"/>
  
  <!-- Victory atmosphere -->
  <circle cx="400" cy="420" r="300" fill="url(#championshipGlow)"/>
  
  <!-- Sports equipment scattered -->
  <circle cx="70" cy="400" r="8" fill="#FF6347"/> <!-- Basketball -->
  <path d="M65,400 Q70,395 75,400 Q70,405 65,400" fill="#000000" stroke-width="1"/>
  <path d="M70,395 Q75,400 70,405 Q65,400 70,395" fill="#000000" stroke-width="1"/>
  
  <ellipse cx="730" cy="410" rx="10" ry="6" fill="#8B4513"/> <!-- Football -->
  <path d="M725,410 L735,410" stroke="white" stroke-width="2"/>
  
  <!-- Victory confetti -->
  <rect x="45" y="360" width="3" height="3" fill="#FFD700" transform="rotate(45 46.5 361.5)"/>
  <rect x="755" y="370" width="3" height="3" fill="#4169E1" transform="rotate(45 756.5 371.5)"/>
  <rect x="65" y="340" width="3" height="3" fill="#FF6347" transform="rotate(45 66.5 341.5)"/>
  <rect x="735" y="350" width="3" height="3" fill="#FFD700" transform="rotate(45 736.5 351.5)"/>
  
  <!-- Victory subtitle -->
  <text x="400" y="60" text-anchor="middle" fill="#4169E1" font-family="Arial, sans-serif" font-size="26" font-weight="bold">CHAMPIONSHIP STYLE VICTORY PARTIES FOR TEAMS AND FANS</text>
</svg>
