<svg width="400" height="300" viewBox="0 0 400 300" fill="none" xmlns="http://www.w3.org/2000/svg">
  <!-- Background -->
  <rect width="400" height="300" fill="url(#seafoodGradient)"/>
  
  <!-- Ocean Waves -->
  <g stroke="#4169E1" stroke-width="3" fill="none" opacity="0.4">
    <path d="M0 250 Q50 240 100 250 Q150 260 200 250 Q250 240 300 250 Q350 260 400 250"/>
    <path d="M0 260 Q50 250 100 260 Q150 270 200 260 Q250 250 300 260 Q350 270 400 260"/>
  </g>
  
  <!-- Seagulls -->
  <g stroke="#FFFFFF" stroke-width="2" fill="none">
    <path d="M80 80 Q90 75 100 80"/>
    <path d="M85 78 Q95 73 105 78"/>
    <path d="M280 70 Q290 65 300 70"/>
    <path d="M285 68 Q295 63 305 68"/>
  </g>
  
  <!-- Dock/Pier Setting -->
  <rect x="50" y="180" width="300" height="20" fill="#8B4513"/>
  <rect x="60" y="200" width="6" height="30" fill="#654321"/>
  <rect x="130" y="200" width="6" height="30" fill="#654321"/>
  <rect x="200" y="200" width="6" height="30" fill="#654321"/>
  <rect x="270" y="200" width="6" height="30" fill="#654321"/>
  <rect x="330" y="200" width="6" height="30" fill="#654321"/>
  
  <!-- Seafood Market Table -->
  <ellipse cx="200" cy="190" rx="100" ry="35" fill="#F5F5DC"/>
  <ellipse cx="200" cy="185" rx="95" ry="30" fill="#FFFFFF"/>
  
  <!-- Ice Display -->
  <ellipse cx="200" cy="185" rx="90" ry="28" fill="#E0FFFF" opacity="0.8"/>
  <g fill="#F0F8FF" opacity="0.6">
    <circle cx="150" cy="180" r="2"/>
    <circle cx="170" cy="185" r="1.5"/>
    <circle cx="190" cy="178" r="2"/>
    <circle cx="210" cy="182" r="1.5"/>
    <circle cx="230" cy="180" r="2"/>
    <circle cx="250" cy="185" r="1.5"/>
  </g>
  
  <!-- Hibachi Grill for Seafood -->
  <rect x="175" y="165" width="50" height="25" rx="6" fill="#1A1A1A"/>
  <rect x="182" y="172" width="36" height="14" rx="4" fill="#2D1810"/>
  
  <!-- Blue Flames for Seafood -->
  <ellipse cx="190" cy="175" rx="3" ry="6" fill="#0000FF" opacity="0.8"/>
  <ellipse cx="200" cy="173" rx="4" ry="8" fill="#4169E1" opacity="0.9"/>
  <ellipse cx="210" cy="175" rx="3" ry="6" fill="#1E90FF" opacity="0.8"/>
  
  <!-- Fresh Seafood Display -->
  <!-- Lobster -->
  <ellipse cx="140" cy="182" rx="8" ry="4" fill="#DC143C"/>
  <ellipse cx="145" cy="180" rx="3" ry="2" fill="#B22222"/>
  <circle cx="148" cy="179" r="1" fill="#000000"/>
  <path d="M132 180 Q130 175 135 175" stroke="#DC143C" stroke-width="2" fill="none"/>
  <path d="M132 184 Q130 189 135 189" stroke="#DC143C" stroke-width="2" fill="none"/>
  
  <!-- Salmon Fillet -->
  <ellipse cx="170" cy="180" rx="6" ry="3" fill="#FFA07A"/>
  <ellipse cx="170" cy="179" rx="5" ry="2" fill="#FF7F50"/>
  <g stroke="#8B0000" stroke-width="0.5" opacity="0.6">
    <line x1="166" y1="178" x2="174" y2="178"/>
    <line x1="166" y1="180" x2="174" y2="180"/>
    <line x1="166" y1="182" x2="174" y2="182"/>
  </g>
  
  <!-- Shrimp -->
  <ellipse cx="200" cy="178" rx="3" ry="6" fill="#FFB6C1" transform="rotate(30 200 178)"/>
  <ellipse cx="200" cy="178" rx="2" ry="5" fill="#FFC0CB" transform="rotate(30 200 178)"/>
  <circle cx="198" cy="175" r="0.5" fill="#000000"/>
  
  <ellipse cx="210" cy="180" rx="3" ry="6" fill="#FFB6C1" transform="rotate(-20 210 180)"/>
  <ellipse cx="210" cy="180" rx="2" ry="5" fill="#FFC0CB" transform="rotate(-20 210 180)"/>
  <circle cx="208" cy="177" r="0.5" fill="#000000"/>
  
  <!-- Scallops -->
  <circle cx="230" cy="182" r="3" fill="#F5DEB3"/>
  <circle cx="230" cy="182" r="2" fill="#FFFACD"/>
  <g stroke="#DEB887" stroke-width="0.5">
    <path d="M227 180 Q230 177 233 180"/>
    <path d="M227 182 Q230 179 233 182"/>
    <path d="M227 184 Q230 181 233 184"/>
  </g>
  
  <circle cx="240" cy="180" r="3" fill="#F5DEB3"/>
  <circle cx="240" cy="180" r="2" fill="#FFFACD"/>
  
  <!-- Crab -->
  <ellipse cx="260" cy="183" rx="5" ry="3" fill="#FF6347"/>
  <ellipse cx="260" cy="182" rx="4" ry="2" fill="#FF4500"/>
  <circle cx="258" cy="181" r="0.5" fill="#000000"/>
  <circle cx="262" cy="181" r="0.5" fill="#000000"/>
  <path d="M250 182 Q248 180 252 180" stroke="#FF6347" stroke-width="2" fill="none"/>
  <path d="M268 182 Q270 180 266 180" stroke="#FF6347" stroke-width="2" fill="none"/>
  <path d="M250 184 Q248 186 252 186" stroke="#FF6347" stroke-width="2" fill="none"/>
  <path d="M268 184 Q270 186 266 186" stroke="#FF6347" stroke-width="2" fill="none"/>
  
  <!-- Seafood Chef -->
  <circle cx="120" cy="130" r="16" fill="#F4C2A1"/>
  <rect x="110" y="144" width="20" height="30" fill="#FFFFFF"/>
  <rect x="112" y="146" width="16" height="3" fill="#000000"/>
  
  <!-- Sailor/Chef Hat -->
  <ellipse cx="120" cy="120" rx="10" ry="14" fill="#FFFFFF"/>
  <rect x="114" y="127" width="12" height="3" fill="#000000"/>
  <rect x="116" y="115" width="8" height="2" fill="#4169E1"/>
  
  <!-- Customer/Diner -->
  <circle cx="280" cy="135" r="14" fill="#F4C2A1"/>
  <rect x="272" y="147" width="16" height="26" fill="#87CEEB"/>
  <circle cx="278" cy="130" r="1" fill="#000000"/>
  <circle cx="282" cy="130" r="1" fill="#000000"/>
  
  <!-- Seafood Tools -->
  <!-- Shellfish Cracker -->
  <ellipse cx="150" cy="155" rx="3" ry="8" fill="#C0C0C0" transform="rotate(30 150 155)"/>
  <ellipse cx="155" cy="150" rx="3" ry="8" fill="#C0C0C0" transform="rotate(30 155 150)"/>
  
  <!-- Lemon Wedges -->
  <path d="M130 190 Q135 185 140 190 Q135 195 130 190" fill="#FFFF00"/>
  <path d="M132 190 L138 190" stroke="#228B22" stroke-width="1"/>
  
  <path d="M270 185 Q275 180 280 185 Q275 190 270 185" fill="#FFFF00"/>
  <path d="M272 185 L278 185" stroke="#228B22" stroke-width="1"/>
  
  <!-- Cocktail Sauce -->
  <circle cx="320" cy="185" r="3" fill="#8B0000"/>
  <circle cx="320" cy="184" r="2" fill="#DC143C"/>
  
  <!-- Fishing Net Decoration -->
  <g stroke="#8B4513" stroke-width="1" fill="none" opacity="0.4">
    <path d="M50 120 L70 130 L50 140 L70 150 L50 160"/>
    <path d="M60 115 L80 125 L60 135 L80 145 L60 155"/>
    <path d="M50 120 L60 115 L70 120 L80 125"/>
    <path d="M50 140 L60 135 L70 140 L80 145"/>
    <path d="M50 160 L60 155 L70 160"/>
    
    <path d="M330 120 L350 130 L330 140 L350 150 L330 160"/>
    <path d="M340 115 L360 125 L340 135 L360 145 L340 155"/>
    <path d="M330 120 L340 115 L350 120 L360 125"/>
    <path d="M330 140 L340 135 L350 140 L360 145"/>
    <path d="M330 160 L340 155 L350 160"/>
  </g>
  
  <!-- Lighthouse in Background -->
  <rect x="350" y="80" width="8" height="40" fill="#FFFFFF"/>
  <rect x="348" y="75" width="12" height="8" fill="#FF0000"/>
  <circle cx="354" cy="79" r="3" fill="#FFFF00"/>
  
  <!-- Steam from Grilled Seafood -->
  <g stroke="#E6E6FA" stroke-width="1.5" fill="none" opacity="0.7">
    <path d="M190 168 Q192 163 190 158 Q188 153 190 148"/>
    <path d="M200 168 Q202 163 200 158 Q198 153 200 148"/>
    <path d="M210 168 Q212 163 210 158 Q208 153 210 148"/>
  </g>
  
  <!-- Nautical Rope -->
  <g stroke="#8B4513" stroke-width="3" fill="none" opacity="0.6">
    <path d="M20 200 Q30 195 40 200 Q50 205 60 200"/>
    <path d="M340 200 Q350 195 360 200 Q370 205 380 200"/>
  </g>
  
  <!-- Title -->
  <text x="200" y="30" text-anchor="middle" fill="#1E90FF" font-family="Arial, sans-serif" font-size="24" font-weight="bold">
    Fresh Seafood Hibachi
  </text>
  
  <!-- Subtitle -->
  <text x="200" y="50" text-anchor="middle" fill="#008B8B" font-family="Arial, sans-serif" font-size="16">
    Ocean to Table • Premium Shellfish • Coastal Flavors
  </text>
  
  <!-- Coastal Message -->
  <text x="200" y="275" text-anchor="middle" fill="#4682B4" font-family="Arial, sans-serif" font-size="12">
    "Bringing the freshest catch to your hibachi experience"
  </text>
  
  <defs>
    <linearGradient id="seafoodGradient" x1="0%" y1="0%" x2="100%" y2="100%">
      <stop offset="0%" style="stop-color:#E0F6FF;stop-opacity:1" />
      <stop offset="50%" style="stop-color:#B0E0E6;stop-opacity:1" />
      <stop offset="100%" style="stop-color:#AFEEEE;stop-opacity:1" />
    </linearGradient>
  </defs>
</svg>
