<?xml version="1.0" encoding="UTF-8"?>
<svg viewBox="0 0 800 600" xmlns="http://www.w3.org/2000/svg">
  <!-- Hayward retirement party hibachi career achievements -->
  <defs>
    <linearGradient id="retirementSky" x1="0%" y1="0%" x2="0%" y2="100%">
      <stop offset="0%" style="stop-color:#F0F8FF"/>
      <stop offset="50%" style="stop-color:#4682B4"/>
      <stop offset="100%" style="stop-color:#191970"/>
    </linearGradient>
    <linearGradient id="haywardBuilding" x1="0%" y1="0%" x2="0%" y2="100%">
      <stop offset="0%" style="stop-color:#B0C4DE"/>
      <stop offset="100%" style="stop-color:#778899"/>
    </linearGradient>
    <radialGradient id="achievementGlow" cx="50%" cy="50%" r="50%">
      <stop offset="0%" style="stop-color:#FFD700; opacity:0.8"/>
      <stop offset="100%" style="stop-color:transparent"/>
    </radialGradient>
  </defs>
  
  <!-- Professional retirement celebration sky -->
  <rect width="800" height="600" fill="url(#retirementSky)"/>
  
  <!-- Achievement stars -->
  <circle cx="130" cy="50" r="3.5" fill="#FFD700"/>
  <circle cx="260" cy="35" r="3" fill="white"/>
  <circle cx="400" cy="65" r="3.5" fill="#FFD700"/>
  <circle cx="540" cy="40" r="3" fill="white"/>
  <circle cx="680" cy="70" r="3.5" fill="#FFD700"/>
  <circle cx="750" cy="55" r="3" fill="white"/>
  
  <!-- Hayward professional skyline -->
  <rect x="60" y="130" width="100" height="160" fill="url(#haywardBuilding)" rx="10"/>
  <rect x="180" y="110" width="120" height="180" fill="url(#haywardBuilding)" rx="10"/>
  <rect x="320" y="140" width="90" height="150" fill="url(#haywardBuilding)" rx="10"/>
  <rect x="430" y="120" width="110" height="170" fill="url(#haywardBuilding)" rx="10"/>
  <rect x="560" y="135" width="95" height="155" fill="url(#haywardBuilding)" rx="10"/>
  <rect x="675" y="150" width="115" height="140" fill="url(#haywardBuilding)" rx="10"/>
  
  <!-- Corporate building details -->
  <rect x="240" y="90" width="80" height="50" fill="url(#haywardBuilding)" rx="8"/>
  <rect x="270" y="85" width="20" height="15" fill="#FFD700"/> <!-- Corporate logo -->
  <text x="280" y="95" text-anchor="middle" fill="#191970" font-family="Arial, sans-serif" font-size="8" font-weight="bold">CORP</text>
  
  <!-- Retirement celebration venue -->
  <rect x="120" y="320" width="560" height="220" fill="#F5F5DC" opacity="0.95" rx="40"/>
  <text x="400" y="355" text-anchor="middle" fill="#191970" font-family="Arial, sans-serif" font-size="30" font-weight="bold">HAYWARD RETIREMENT PARTY</text>
  <text x="400" y="385" text-anchor="middle" fill="#4682B4" font-family="Arial, sans-serif" font-size="24">CAREER ACHIEVEMENT HIBACHI CELEBRATION</text>
  
  <!-- Professional hibachi setup -->
  <rect x="140" y="290" width="520" height="160" fill="#2F4F4F" rx="25"/>
  <rect x="150" y="285" width="500" height="40" fill="#191970"/>
  
  <!-- Professional hibachi arrangement -->
  <circle cx="170" cy="295" r="15" fill="#FFD700"/>
  <circle cx="210" cy="295" r="15" fill="#4682B4"/>
  <circle cx="250" cy="295" r="15" fill="#FFD700"/>
  <circle cx="290" cy="295" r="15" fill="#4682B4"/>
  <circle cx="330" cy="295" r="15" fill="#FFD700"/>
  <circle cx="370" cy="295" r="15" fill="#4682B4"/>
  <circle cx="410" cy="295" r="15" fill="#FFD700"/>
  <circle cx="450" cy="295" r="15" fill="#4682B4"/>
  <circle cx="490" cy="295" r="15" fill="#FFD700"/>
  <circle cx="530" cy="295" r="15" fill="#4682B4"/>
  <circle cx="570" cy="295" r="15" fill="#FFD700"/>
  <circle cx="610" cy="295" r="15" fill="#4682B4"/>
  <circle cx="650" cy="295" r="15" fill="#FFD700"/>
  
  <!-- Professional hibachi chef -->
  <circle cx="400" cy="220" r="24" fill="#FDBCB4"/>
  <rect x="381" y="244" width="38" height="40" fill="white"/>
  <rect x="376" y="284" width="48" height="48" fill="#191970"/> <!-- Professional navy outfit -->
  <rect x="380" y="332" width="16" height="34" fill="#FDBCB4"/>
  <rect x="404" y="332" width="16" height="34" fill="#FDBCB4"/>
  
  <!-- Professional chef hat -->
  <rect x="386" y="203" width="28" height="16" fill="white"/>
  <circle cx="400" cy="203" r="18" fill="white"/>
  <text x="400" y="207" text-anchor="middle" fill="#191970" font-family="Arial, sans-serif" font-size="10" font-weight="bold">CHEF</text>
  
  <!-- Retirement honoree -->
  <circle cx="300" cy="440" r="22" fill="#FDBCB4"/>
  <rect x="283" y="462" width="34" height="40" fill="#4682B4"/> <!-- Professional blue suit -->
  <rect x="285" y="502" width="30" height="34" fill="#4682B4"/>
  <rect x="287" y="536" width="26" height="26" fill="#000000"/> <!-- Dress shoes -->
  <!-- Retirement watch -->
  <rect x="270" y="475" width="6" height="4" fill="#FFD700"/>
  <circle cx="273" cy="477" r="2" fill="#FFFFFF"/>
  <!-- Service pin -->
  <circle cx="295" cy="470" r="2" fill="#FFD700"/>
  <text x="295" y="472" text-anchor="middle" fill="#191970" font-family="Arial, sans-serif" font-size="6" font-weight="bold">30</text>
  
  <!-- Colleague with presentation -->
  <circle cx="380" cy="450" r="20" fill="#FDBCB4"/>
  <rect x="365" y="470" width="30" height="36" fill="#8B008B"/> <!-- Purple business attire -->
  <rect x="367" y="506" width="26" height="30" fill="#000080"/>
  <rect x="369" y="536" width="22" height="24" fill="#8B4513"/>
  <!-- Presentation frame -->
  <rect x="340" y="485" width="12" height="10" fill="#8B4513"/>
  <rect x="341" y="486" width="10" height="8" fill="#FFD700"/>
  
  <!-- HR manager with plaque -->
  <circle cx="500" cy="450" r="20" fill="#FDBCB4"/>
  <rect x="485" y="470" width="30" height="36" fill="#006400"/> <!-- Green business suit -->
  <rect x="487" y="506" width="26" height="30" fill="#000080"/>
  <rect x="489" y="536" width="22" height="24" fill="#654321"/>
  <!-- Achievement plaque -->
  <rect x="520" y="480" width="10" height="12" fill="#8B4513"/>
  <rect x="521" y="481" width="8" height="10" fill="#FFD700"/>
  <text x="525" y="487" text-anchor="middle" fill="#191970" font-family="Arial, sans-serif" font-size="4" font-weight="bold">AWARD</text>
  
  <!-- Team members -->
  <circle cx="250" cy="470" r="18" fill="#FDBCB4"/>
  <rect x="237" y="488" width="26" height="32" fill="#FF6347"/> <!-- Coral business attire -->
  <rect x="239" y="520" width="22" height="28" fill="#000080"/>
  <rect x="241" y="548" width="18" height="22" fill="#8B4513"/>
  <!-- Business cards -->
  <rect x="220" y="495" width="8" height="6" fill="white"/>
  <rect x="221" y="496" width="6" height="2" fill="#4682B4"/>
  
  <circle cx="450" cy="470" r="18" fill="#FDBCB4"/>
  <rect x="437" y="488" width="26" height="32" fill="#4169E1"/> <!-- Blue business suit -->
  <rect x="439" y="520" width="22" height="28" fill="#4169E1"/>
  <rect x="441" y="548" width="18" height="22" fill="#000000"/>
  <!-- Retirement gift -->
  <rect x="470" y="495" width="8" height="8" fill="#FFD700"/>
  <rect x="471" y="496" width="6" height="2" fill="#191970"/>
  
  <!-- Professional dining table -->
  <ellipse cx="400" cy="580" rx="200" ry="60" fill="#8B4513"/>
  <ellipse cx="400" cy="575" rx="190" ry="55" fill="#4682B4" opacity="0.3"/>
  
  <!-- Executive place settings -->
  <circle cx="250" cy="575" r="18" fill="white"/>
  <circle cx="250" cy="575" r="14" fill="#FFD700"/>
  <circle cx="320" cy="575" r="18" fill="white"/>
  <circle cx="320" cy="575" r="14" fill="#4682B4"/>
  <circle cx="390" cy="575" r="18" fill="white"/>
  <circle cx="390" cy="575" r="14" fill="#FFD700"/>
  <circle cx="460" cy="575" r="18" fill="white"/>
  <circle cx="460" cy="575" r="14" fill="#4682B4"/>
  <circle cx="530" cy="575" r="18" fill="white"/>
  <circle cx="530" cy="575" r="14" fill="#FFD700"/>
  <circle cx="600" cy="575" r="18" fill="white"/>
  <circle cx="600" cy="575" r="14" fill="#4682B4"/>
  
  <!-- Professional beverages -->
  <rect x="244" y="563" width="6" height="18" fill="#8B008B"/> <!-- Premium wine -->
  <rect x="314" y="563" width="6" height="18" fill="#FFD700"/> <!-- Champagne -->
  <rect x="384" y="563" width="6" height="18" fill="#4682B4"/> <!-- Executive cocktail -->
  <rect x="454" y="563" width="6" height="18" fill="#8B008B"/> <!-- Premium wine -->
  <rect x="524" y="563" width="6" height="18" fill="#FFD700"/> <!-- Champagne -->
  <rect x="594" y="563" width="6" height="18" fill="#4682B4"/> <!-- Executive cocktail -->
  
  <!-- Career achievement title -->
  <text x="400" y="100" text-anchor="middle" fill="#FFD700" font-family="Arial, sans-serif" font-size="36" font-weight="bold">HAYWARD RETIREMENT</text>
  <text x="400" y="140" text-anchor="middle" fill="white" font-family="Arial, sans-serif" font-size="26">CAREER ACHIEVEMENT CELEBRATION</text>
  
  <!-- Professional zones -->
  <rect x="20" y="490" width="150" height="100" fill="#191970" opacity="0.8" rx="20"/>
  <text x="95" y="520" text-anchor="middle" fill="#FFD700" font-family="Arial, sans-serif" font-size="18" font-weight="bold">CAREER</text>
  <text x="95" y="540" text-anchor="middle" fill="white" font-family="Arial, sans-serif" font-size="16">ACHIEVEMENT</text>
  <text x="95" y="555" text-anchor="middle" fill="#FFD700" font-family="Arial, sans-serif" font-size="15">HIBACHI</text>
  <text x="95" y="570" text-anchor="middle" fill="white" font-family="Arial, sans-serif" font-size="14">CELEBRATION</text>
  <text x="95" y="585" text-anchor="middle" fill="#FFD700" font-family="Arial, sans-serif" font-size="13">HAYWARD</text>
  
  <rect x="630" y="490" width="150" height="100" fill="#FFD700" opacity="0.8" rx="20"/>
  <text x="705" y="520" text-anchor="middle" fill="#191970" font-family="Arial, sans-serif" font-size="18" font-weight="bold">RETIREMENT</text>
  <text x="705" y="540" text-anchor="middle" fill="white" font-family="Arial, sans-serif" font-size="16">MILESTONE</text>
  <text x="705" y="555" text-anchor="middle" fill="#191970" font-family="Arial, sans-serif" font-size="15">PROFESSIONAL</text>
  <text x="705" y="570" text-anchor="middle" fill="white" font-family="Arial, sans-serif" font-size="14">DINING</text>
  <text x="705" y="585" text-anchor="middle" fill="#191970" font-family="Arial, sans-serif" font-size="13">LEGACY</text>
  
  <!-- Professional hibachi specialties -->
  <ellipse cx="180" cy="293" rx="20" ry="14" fill="#FFD700"/>
  <ellipse cx="220" cy="293" rx="21" ry="14" fill="#4682B4"/>
  <ellipse cx="260" cy="293" rx="20" ry="14" fill="#FFD700"/>
  <ellipse cx="300" cy="293" rx="19" ry="13" fill="#4682B4"/>
  <ellipse cx="340" cy="293" rx="20" ry="14" fill="#FFD700"/>
  <ellipse cx="380" cy="293" rx="21" ry="14" fill="#4682B4"/>
  <ellipse cx="420" cy="293" rx="20" ry="14" fill="#FFD700"/>
  <ellipse cx="460" cy="293" rx="19" ry="13" fill="#4682B4"/>
  <ellipse cx="500" cy="293" rx="20" ry="14" fill="#FFD700"/>
  <ellipse cx="540" cy="293" rx="21" ry="14" fill="#4682B4"/>
  <ellipse cx="580" cy="293" rx="20" ry="14" fill="#FFD700"/>
  <ellipse cx="620" cy="293" rx="19" ry="13" fill="#4682B4"/>
  <ellipse cx="660" cy="293" rx="20" ry="14" fill="#FFD700"/>
  
  <!-- Professional achievement flames -->
  <polygon points="180,293 187,281 173,281" fill="#FFD700" opacity="0.9"/>
  <polygon points="220,293 227,281 213,281" fill="#4682B4" opacity="0.9"/>
  <polygon points="260,293 267,281 253,281" fill="#FFD700" opacity="0.9"/>
  <polygon points="300,293 307,281 293,281" fill="#4682B4" opacity="0.9"/>
  <polygon points="340,293 347,281 333,281" fill="#FFD700" opacity="0.9"/>
  <polygon points="380,293 387,281 373,281" fill="#4682B4" opacity="0.9"/>
  <polygon points="420,293 427,281 413,281" fill="#FFD700" opacity="0.9"/>
  <polygon points="460,293 467,281 453,281" fill="#4682B4" opacity="0.9"/>
  <polygon points="500,293 507,281 493,281" fill="#FFD700" opacity="0.9"/>
  <polygon points="540,293 547,281 533,281" fill="#4682B4" opacity="0.9"/>
  <polygon points="580,293 587,281 573,281" fill="#FFD700" opacity="0.9"/>
  <polygon points="620,293 627,281 613,281" fill="#4682B4" opacity="0.9"/>
  <polygon points="660,293 667,281 653,281" fill="#FFD700" opacity="0.9"/>
  
  <!-- Professional lighting -->
  <rect x="130" y="400" width="5" height="22" fill="#FFD700"/>
  <ellipse cx="132.5" cy="400" rx="4" ry="6" fill="#FF6347"/>
  
  <rect x="665" y="410" width="5" height="22" fill="#FFD700"/>
  <ellipse cx="667.5" cy="410" rx="4" ry="6" fill="#FF6347"/>
  
  <!-- Career milestone markers -->
  <circle cx="80" cy="350" r="25" fill="#FFD700"/>
  <text x="80" y="358" text-anchor="middle" fill="#191970" font-family="Arial, sans-serif" font-size="20" font-weight="bold">30</text>
  <text x="80" y="380" text-anchor="middle" fill="#4682B4" font-family="Arial, sans-serif" font-size="12" font-weight="bold">YEARS</text>
  
  <circle cx="720" cy="360" r="25" fill="#4682B4"/>
  <text x="720" y="365" text-anchor="middle" fill="#FFD700" font-family="Arial, sans-serif" font-size="16" font-weight="bold">CAREER</text>
  <text x="720" y="380" text-anchor="middle" fill="white" font-family="Arial, sans-serif" font-size="12" font-weight="bold">SUCCESS</text>
  
  <!-- Achievement atmosphere -->
  <circle cx="400" cy="410" r="280" fill="url(#achievementGlow)"/>
  
  <!-- Professional awards -->
  <rect x="50" y="420" width="15" height="20" fill="#8B4513"/>
  <rect x="52" y="422" width="11" height="16" fill="#FFD700"/>
  <polygon points="57,418 60,415 54,415" fill="#FFD700"/> <!-- Trophy top -->
  
  <rect x="735" y="430" width="15" height="20" fill="#8B4513"/>
  <rect x="737" y="432" width="11" height="16" fill="#FFD700"/>
  <polygon points="742,428 745,425 739,425" fill="#FFD700"/> <!-- Trophy top -->
  
  <!-- Professional subtitle -->
  <text x="400" y="75" text-anchor="middle" fill="#4682B4" font-family="Arial, sans-serif" font-size="22" font-weight="bold">HONORING CAREER ACHIEVEMENTS WITH STYLE</text>
</svg>
