<svg width="400" height="300" viewBox="0 0 400 300" fill="none" xmlns="http://www.w3.org/2000/svg">
  <!-- Background -->
  <rect width="400" height="300" fill="url(#houseWarmingGradient)"/>
  
  <!-- Housewarming Banner -->
  <path d="M50 30 Q200 40 350 30" stroke="#8B4513" stroke-width="4" fill="none"/>
  <g fill="#FF6347">
    <text x="200" y="25" text-anchor="middle" font-family="Arial" font-size="20" font-weight="bold">NEW HOME CELEBRATION</text>
  </g>
  
  <!-- New House Background -->
  <rect x="80" y="80" width="60" height="50" fill="#DEB887"/>
  <polygon points="80,80 110,60 140,80" fill="#8B4513"/>
  <rect x="95" y="100" width="12" height="20" fill="#654321"/>
  <circle cx="101" cy="110" r="1" fill="#FFD700"/>
  <rect x="115" y="95" width="15" height="15" fill="#87CEEB"/>
  <g stroke="#FFFFFF" stroke-width="1">
    <line x1="122" y1="95" x2="122" y2="110"/>
    <line x1="115" y1="102" x2="130" y2="102"/>
  </g>
  
  <!-- Welcome Mat -->
  <rect x="90" y="120" width="20" height="5" fill="#8B0000"/>
  <text x="100" y="124" text-anchor="middle" fill="#FFFFFF" font-family="Arial" font-size="4">WELCOME</text>
  
  <!-- Moving Boxes -->
  <rect x="50" y="200" width="15" height="15" fill="#DEB887"/>
  <rect x="52" y="202" width="11" height="11" fill="#F5DEB3"/>
  <text x="57" y="209" text-anchor="middle" fill="#8B4513" font-family="Arial" font-size="4">BOOKS</text>
  
  <rect x="70" y="195" width="18" height="18" fill="#DEB887"/>
  <rect x="72" y="197" width="14" height="14" fill="#F5DEB3"/>
  <text x="79" y="206" text-anchor="middle" fill="#8B4513" font-family="Arial" font-size="4">KITCHEN</text>
  
  <!-- Housewarming Table Setup -->
  <ellipse cx="200" cy="200" rx="110" ry="40" fill="#8B4513"/>
  <ellipse cx="200" cy="195" rx="105" ry="35" fill="#DEB887"/>
  <ellipse cx="200" cy="192" rx="100" ry="32" fill="#F5DEB3"/>
  
  <!-- House Keys Centerpiece -->
  <g fill="#FFD700">
    <circle cx="190" cy="155" r="3"/>
    <rect x="188" y="158" width="4" height="8"/>
    <rect x="190" y="160" width="6" height="2"/>
    <rect x="190" y="163" width="4" height="2"/>
  </g>
  
  <!-- New House Plant -->
  <rect x="205" y="150" width="4" height="20" fill="#8B4513"/>
  <circle cx="207" cy="145" r="8" fill="#228B22"/>
  <g fill="#32CD32">
    <ellipse cx="205" cy="142" rx="3" ry="6"/>
    <ellipse cx="209" cy="148" rx="4" ry="5"/>
    <ellipse cx="203" cy="149" rx="3" ry="4"/>
  </g>
  
  <!-- Hibachi Setup -->
  <rect x="170" y="170" width="60" height="35" rx="8" fill="#8B4513"/>
  <rect x="175" y="175" width="50" height="25" rx="6" fill="#2F4F4F"/>
  <rect x="180" y="180" width="40" height="15" rx="4" fill="#1C1C1C"/>
  
  <!-- New Homeowners (Couple) -->
  <circle cx="190" cy="130" r="18" fill="#F4C2A1"/>
  <rect x="177" y="146" width="26" height="32" fill="#4169E1"/>
  <ellipse cx="190" cy="116" rx="10" ry="5" fill="#8B4513"/>
  <circle cx="186" cy="128" r="1" fill="#000000"/>
  <circle cx="194" cy="128" r="1" fill="#000000"/>
  <path d="M190 135 Q185 140 190 145" stroke="#000000" stroke-width="1" fill="none"/>
  
  <circle cx="210" cy="135" r="16" fill="#F4C2A1"/>
  <rect x="198" y="149" width="24" height="28" fill="#8B008B"/>
  <ellipse cx="210" cy="122" rx="8" ry="4" fill="#FFD700"/>
  <circle cx="206" cy="133" r="1" fill="#000000"/>
  <circle cx="214" cy="133" r="1" fill="#000000"/>
  <path d="M210 140 Q205 145 210 150" stroke="#FF69B4" stroke-width="1" fill="none"/>
  
  <!-- House Keys in Hand -->
  <g fill="#FFD700">
    <circle cx="175" cy="155" r="2"/>
    <rect x="173" y="157" width="4" height="6"/>
  </g>
  
  <!-- Housewarming Guests -->
  
  <!-- Family Member -->
  <circle cx="120" cy="140" r="16" fill="#F4C2A1"/>
  <rect x="108" y="154" width="24" height="28" fill="#228B22"/>
  <ellipse cx="120" cy="127" rx="8" ry="4" fill="#D3D3D3"/>
  <circle cx="116" cy="138" r="1" fill="#000000"/>
  <circle cx="124" cy="138" r="1" fill="#000000"/>
  <path d="M120 145 Q115 150 120 155" stroke="#000000" stroke-width="1" fill="none"/>
  
  <!-- Housewarming Gift -->
  <rect x="110" y="175" width="12" height="10" fill="#FF6347"/>
  <rect x="111" y="176" width="10" height="8" fill="#FF7F50"/>
  <g stroke="#FFD700" stroke-width="1">
    <line x1="116" y1="170" x2="116" y2="175"/>
    <line x1="113" y1="172" x2="119" y2="172"/>
  </g>
  
  <!-- Neighbor -->
  <circle cx="280" cy="145" r="15" fill="#F4C2A1"/>
  <rect x="269" y="158" width="22" height="26" fill="#FF69B4"/>
  <ellipse cx="280" cy="133" rx="7" ry="4" fill="#8B4513"/>
  <circle cx="276" cy="143" r="1" fill="#000000"/>
  <circle cx="284" cy="143" r="1" fill="#000000"/>
  <path d="M280 150 Q275 155 280 160" stroke="#FF69B4" stroke-width="1" fill="none"/>
  
  <!-- Welcome Casserole -->
  <ellipse cx="290" cy="175" rx="8" ry="5" fill="#DEB887"/>
  <ellipse cx="290" cy="173" rx="6" ry="3" fill="#F5DEB3"/>
  <g fill="#FF6347">
    <circle cx="287" cy="172" r="1"/>
    <circle cx="293" cy="172" r="1"/>
  </g>
  
  <!-- Friend -->
  <circle cx="150" cy="220" r="13" fill="#F4C2A1"/>
  <rect x="140" y="231" width="20" height="24" fill="#9932CC"/>
  <ellipse cx="150" cy="210" rx="6" ry="3" fill="#FFD700"/>
  <circle cx="146" cy="218" r="1" fill="#000000"/>
  <circle cx="154" cy="218" r="1" fill="#000000"/>
  <ellipse cx="150" cy="223" rx="3" ry="2" fill="#FF69B4"/>
  
  <!-- Bottle of Wine -->
  <rect x="145" y="240" width="4" height="15" fill="#228B22"/>
  <ellipse cx="147" cy="238" rx="2" ry="3" fill="#228B22"/>
  <rect x="146" y="235" width="2" height="3" fill="#FFD700"/>
  
  <!-- Coworker -->
  <circle cx="250" cy="225" r="11" fill="#F4C2A1"/>
  <rect x="242" y="234" width="16" height="20" fill="#FF6347"/>
  <ellipse cx="250" cy="217" rx="5" ry="3" fill="#000000"/>
  <circle cx="246" cy="223" r="1" fill="#000000"/>
  <circle cx="254" cy="223" r="1" fill="#000000"/>
  <ellipse cx="250" cy="227" rx="2" ry="1" fill="#FF69B4"/>
  
  <!-- Housewarming Decorations -->
  
  <!-- Balloons in Home Colors -->
  <g>
    <!-- Blue Balloon (New) -->
    <ellipse cx="50" cy="90" rx="10" ry="15" fill="#4169E1"/>
    <ellipse cx="50" cy="87" rx="8" ry="13" fill="#6495ED"/>
    <line x1="50" y1="105" x2="50" y2="140" stroke="#8B4513" stroke-width="2"/>
    
    <!-- Gold Balloon (Prosperity) -->
    <ellipse cx="350" cy="80" rx="12" ry="18" fill="#FFD700"/>
    <ellipse cx="350" cy="77" rx="10" ry="16" fill="#FFA500"/>
    <line x1="350" y1="98" x2="350" y2="130" stroke="#8B4513" stroke-width="2"/>
    
    <!-- Green Balloon (Growth) -->
    <ellipse cx="380" cy="100" rx="8" ry="12" fill="#228B22"/>
    <ellipse cx="380" cy="98" rx="6" ry="10" fill="#32CD32"/>
    <line x1="380" y1="112" x2="380" y2="145" stroke="#8B4513" stroke-width="2"/>
  </g>
  
  <!-- Housewarming Flames -->
  <g opacity="0.9">
    <ellipse cx="185" cy="177" rx="5" ry="10" fill="#8B4513"/>
    <ellipse cx="200" cy="175" rx="6" ry="12" fill="#FF6347"/>
    <ellipse cx="215" cy="177" rx="5" ry="10" fill="#FFD700"/>
  </g>
  
  <!-- New Home Feast -->
  <!-- Prime Rib -->
  <ellipse cx="190" cy="185" rx="6" ry="4" fill="#8B0000"/>
  <ellipse cx="190" cy="184" rx="5" ry="3" fill="#B22222"/>
  
  <!-- Fresh Salmon -->
  <ellipse cx="210" cy="186" rx="5" ry="3" fill="#FFA07A"/>
  <ellipse cx="210" cy="185" rx="4" ry="2" fill="#FF7F50"/>
  
  <!-- Housewarming Traditions -->
  
  <!-- Bread and Salt -->
  <ellipse cx="320" cy="180" rx="8" ry="5" fill="#DEB887"/>
  <ellipse cx="320" cy="178" rx="6" ry="3" fill="#F5DEB3"/>
  <circle cx="315" cy="185" r="2" fill="#FFFFFF"/>
  <text x="320" y="195" text-anchor="middle" fill="#8B4513" font-family="Arial" font-size="5">BLESSING</text>
  
  <!-- House Blessing Candle -->
  <rect x="340" y="160" width="6" height="15" fill="#FFD700"/>
  <ellipse cx="343" cy="158" rx="3" ry="2" fill="#FF6347"/>
  <ellipse cx="343" cy="156" rx="1" ry="4" fill="#FFA500" opacity="0.8"/>
  
  <!-- New Address Sign -->
  <rect x="300" y="120" width="25" height="15" fill="#8B4513"/>
  <rect x="302" y="122" width="21" height="11" fill="#F5DEB3"/>
  <text x="312" y="128" text-anchor="middle" fill="#000000" font-family="Arial" font-size="6" font-weight="bold">123</text>
  <text x="312" y="134" text-anchor="middle" fill="#000000" font-family="Arial" font-size="4">NEW ST</text>
  
  <!-- Moving Truck -->
  <rect x="20" y="160" width="40" height="20" fill="#FFD700"/>
  <rect x="22" y="162" width="36" height="16" fill="#FFA500"/>
  <circle cx="30" cy="182" r="4" fill="#000000"/>
  <circle cx="50" cy="182" r="4" fill="#000000"/>
  <text x="40" y="172" text-anchor="middle" fill="#000000" font-family="Arial" font-size="6">MOVING</text>
  
  <!-- Home Sweet Home Sign -->
  <rect x="340" y="220" width="30" height="20" fill="#8B4513"/>
  <rect x="342" y="222" width="26" height="16" fill="#F5DEB3"/>
  <g fill="#FF6347" font-family="Arial" font-size="5">
    <text x="355" y="228" text-anchor="middle">Home</text>
    <text x="355" y="234" text-anchor="middle">Sweet</text>
    <text x="355" y="240" text-anchor="middle">Home</text>
  </g>
  
  <!-- Housewarming Steam -->
  <g stroke="#8B4513" stroke-width="2" fill="none" opacity="0.8">
    <path d="M185 170 Q187 165 185 160 Q183 155 185 150"/>
    <path d="M200 170 Q202 165 200 160 Q198 155 200 150"/>
    <path d="M215 170 Q217 165 215 160 Q213 155 215 150"/>
  </g>
  
  <!-- New Memories -->
  <ellipse cx="200" cy="80" rx="40" ry="15" fill="#FFFFFF" stroke="#8B4513" stroke-width="2"/>
  <text x="200" y="77" text-anchor="middle" fill="#FF6347" font-family="Arial" font-size="10" font-weight="bold">
    "Making new memories together!"
  </text>
  <text x="200" y="87" text-anchor="middle" fill="#8B4513" font-family="Arial" font-size="8">
    New Home Celebration
  </text>
  
  <!-- Property Deed -->
  <rect x="30" y="230" width="25" height="20" fill="#FFFACD"/>
  <rect x="32" y="232" width="21" height="16" fill="#FFF8DC"/>
  <g fill="#8B4513" font-family="Arial" font-size="4">
    <text x="42" y="238" text-anchor="middle">DEED</text>
    <text x="42" y="243" text-anchor="middle">OFFICIAL</text>
    <text x="42" y="248" text-anchor="middle">2025</text>
  </g>
  
  <!-- Garden Planning -->
  <rect x="330" y="250" width="20" height="15" fill="#228B22"/>
  <rect x="332" y="252" width="16" height="11" fill="#32CD32"/>
  <g fill="#FFFFFF" font-family="Arial" font-size="4">
    <text x="340" y="257" text-anchor="middle">GARDEN</text>
    <text x="340" y="262" text-anchor="middle">PLAN</text>
  </g>
  
  <!-- New Furniture -->
  <rect x="160" y="240" width="15" height="8" fill="#8B4513"/>
  <rect x="162" y="235" width="11" height="5" fill="#DEB887"/>
  <circle cx="163" cy="248" r="1" fill="#000000"/>
  <circle cx="173" cy="248" r="1" fill="#000000"/>
  
  <!-- Internet Installation -->
  <rect x="370" y="170" width="8" height="12" fill="#C0C0C0"/>
  <rect x="372" y="172" width="4" height="8" fill="#000000"/>
  <g fill="#00FF00">
    <circle cx="374" cy="175" r="0.5"/>
    <circle cx="374" cy="178" r="0.5"/>
  </g>
  
  <!-- Family Photos to Hang -->
  <rect x="280" y="240" width="15" height="12" fill="#8B4513"/>
  <rect x="282" y="242" width="11" height="8" fill="#FFFFFF"/>
  <g fill="#4169E1">
    <circle cx="286" cy="245" r="1"/>
    <circle cx="290" cy="245" r="1"/>
  </g>
  <path d="M287.5 247 Q287.5 249 290 249" stroke="#000000" stroke-width="0.5" fill="none"/>
  
  <!-- Title -->
  <text x="200" y="15" text-anchor="middle" fill="#8B4513" font-family="Arial, sans-serif" font-size="22" font-weight="bold">
    Housewarming Party Hibachi
  </text>
  
  <!-- Subtitle -->
  <text x="200" y="285" text-anchor="middle" fill="#8B4513" font-family="Arial, sans-serif" font-size="14">
    "Celebrating new beginnings and making a house into a home"
  </text>
  
  <defs>
    <linearGradient id="houseWarmingGradient" x1="0%" y1="0%" x2="100%" y2="100%">
      <stop offset="0%" style="stop-color:#FFFACD;stop-opacity:1" />
      <stop offset="50%" style="stop-color:#F5DEB3;stop-opacity:1" />
      <stop offset="100%" style="stop-color:#DEB887;stop-opacity:1" />
    </linearGradient>
  </defs>
</svg>
