<svg viewBox="0 0 800 600" xmlns="http://www.w3.org/2000/svg">
  <defs>
    <linearGradient id="executiveSkyGradient" x1="0%" y1="0%" x2="0%" y2="100%">
      <stop offset="0%" style="stop-color:#2F4F4F"/>
      <stop offset="50%" style="stop-color:#4682B4"/>
      <stop offset="100%" style="stop-color:#B0C4DE"/>
    </linearGradient>
    <linearGradient id="buildingGradient" x1="0%" y1="0%" x2="0%" y2="100%">
      <stop offset="0%" style="stop-color:#2F4F4F"/>
      <stop offset="100%" style="stop-color:#696969"/>
    </linearGradient>
    <linearGradient id="flameGradient" x1="0%" y1="100%" x2="0%" y2="0%">
      <stop offset="0%" style="stop-color:#2F4F4F"/>
      <stop offset="50%" style="stop-color:#4682B4"/>
      <stop offset="100%" style="stop-color:#FFD700"/>
    </linearGradient>
  </defs>

  <!-- Executive Sky Background -->
  <rect width="800" height="600" fill="url(#executiveSkyGradient)"/>
  
  <!-- Los Gatos Executive Retreat Center -->
  <rect x="100" y="200" width="600" height="200" fill="url(#buildingGradient)" stroke="#000" stroke-width="3"/>
  
  <!-- Executive Windows -->
  <rect x="130" y="240" width="40" height="50" fill="#FFD700" stroke="#B8860B" stroke-width="2"/>
  <rect x="190" y="240" width="40" height="50" fill="#FFD700" stroke="#B8860B" stroke-width="2"/>
  <rect x="250" y="240" width="40" height="50" fill="#FFD700" stroke="#B8860B" stroke-width="2"/>
  <rect x="310" y="240" width="40" height="50" fill="#FFD700" stroke="#B8860B" stroke-width="2"/>
  <rect x="470" y="240" width="40" height="50" fill="#FFD700" stroke="#B8860B" stroke-width="2"/>
  <rect x="530" y="240" width="40" height="50" fill="#FFD700" stroke="#B8860B" stroke-width="2"/>
  <rect x="590" y="240" width="40" height="50" fill="#FFD700" stroke="#B8860B" stroke-width="2"/>
  
  <!-- Executive Entrance -->
  <rect x="380" y="330" width="40" height="70" fill="#8B4513"/>
  <circle cx="415" cy="365" r="3" fill="#FFD700"/>

  <!-- Executive Ground -->
  <rect x="0" y="400" width="800" height="200" fill="#228B22"/>

  <!-- Hibachi Executive Setup -->
  <rect x="350" y="520" width="100" height="30" fill="#2F4F4F" stroke="#000" stroke-width="2"/>
  <circle cx="400" cy="535" r="25" fill="#1C1C1C" stroke="#000" stroke-width="2"/>
  
  <!-- Executive Flames -->
  <ellipse cx="400" cy="525" rx="15" ry="20" fill="url(#flameGradient)" opacity="0.9"/>
  <ellipse cx="395" cy="520" rx="10" ry="15" fill="#4682B4" opacity="0.8"/>
  <ellipse cx="405" cy="520" rx="10" ry="15" fill="#2F4F4F" opacity="0.8"/>
  <ellipse cx="400" cy="515" rx="8" ry="12" fill="#FFD700" opacity="0.7"/>

  <!-- Executive Hibachi Chef -->
  <circle cx="420" cy="555" r="12" fill="#FDBCB4"/>
  <rect x="415" y="567" width="10" height="25" fill="#FFFFFF"/>
  <rect x="410" y="592" width="20" height="8" fill="#000"/>
  <!-- Executive chef hat -->
  <ellipse cx="420" cy="550" rx="10" ry="6" fill="#FFFFFF"/>
  <rect x="415" y="538" width="10" height="12" fill="#FFFFFF"/>
  <rect x="415" y="540" width="10" height="3" fill="#FFD700"/>
  <!-- Chef with business card and spatula -->
  <line x1="435" y1="575" x2="445" y2="565" stroke="#C0C0C0" stroke-width="2"/>
  <rect x="405" y="570" width="8" height="5" fill="#FFFFFF" stroke="#000" stroke-width="1"/>

  <!-- C-Suite Executives -->
  <!-- CEO -->
  <circle cx="280" cy="555" r="12" fill="#FDBCB4"/>
  <rect x="275" y="567" width="10" height="25" fill="#000080"/>
  <rect x="273" y="592" width="14" height="8" fill="#000"/>
  <ellipse cx="280" cy="550" rx="8" ry="4" fill="#C0C0C0"/>
  <!-- Executive tie -->
  <polygon points="280,567 285,575 275,575" fill="#FFD700"/>
  <!-- Luxury watch -->
  <circle cx="285" cy="580" r="3" fill="#FFD700" stroke="#B8860B" stroke-width="1"/>
  <!-- Business portfolio -->
  <rect x="295" y="570" width="12" height="18" fill="#8B4513" stroke="#654321" stroke-width="1"/>

  <!-- CFO -->
  <circle cx="320" cy="560" r="11" fill="#FDBCB4"/>
  <rect x="315" y="571" width="10" height="22" fill="#2F4F4F"/>
  <rect x="313" y="593" width="14" height="8" fill="#8B4513"/>
  <ellipse cx="320" cy="555" rx="8" ry="4" fill="#8B4513"/>
  <!-- Executive glasses -->
  <circle cx="317" cy="553" r="3" fill="none" stroke="#000" stroke-width="1"/>
  <circle cx="323" cy="553" r="3" fill="none" stroke="#000" stroke-width="1"/>
  <line x1="320" y1="552" x2="320" y2="554" stroke="#000" stroke-width="1"/>
  <!-- Financial reports -->
  <rect x="335" y="575" width="10" height="12" fill="#FFFFFF" stroke="#000" stroke-width="1"/>

  <!-- CTO -->
  <circle cx="520" cy="550" r="11" fill="#D2B48C"/>
  <rect x="515" y="561" width="10" height="22" fill="#4B0082"/>
  <rect x="513" y="583" width="14" height="8" fill="#000"/>
  <ellipse cx="520" cy="545" rx="8" ry="4" fill="#000"/>
  <!-- Tech device -->
  <rect x="535" y="565" width="8" height="12" fill="#2F4F4F" stroke="#000" stroke-width="1"/>
  <circle cx="539" cy="571" r="2" fill="#00FF00"/>

  <!-- COO -->
  <circle cx="480" cy="565" r="10" fill="#FDBCB4"/>
  <rect x="475" y="575" width="10" height="20" fill="#8B0000"/>
  <rect x="473" y="595" width="14" height="8" fill="#000"/>
  <ellipse cx="480" cy="560" rx="7" ry="4" fill="#FFD700"/>
  <!-- Executive briefcase -->
  <rect x="465" y="575" width="8" height="12" fill="#8B4513" stroke="#000" stroke-width="1"/>
  <circle cx="469" cy="579" r="1" fill="#FFD700"/>

  <!-- Executive Conference Table -->
  <ellipse cx="400" cy="580" rx="100" ry="25" fill="#8B4513" stroke="#654321" stroke-width="2"/>
  <ellipse cx="400" cy="578" rx="100" ry="25" fill="#A0522D"/>

  <!-- Executive Documents -->
  <rect x="330" y="575" width="25" height="15" fill="#FFFFFF" stroke="#000" stroke-width="1"/>
  <text x="342" y="583" text-anchor="middle" font-family="serif" font-size="6" font-weight="bold" fill="#000">STRATEGY</text>
  
  <rect x="370" y="575" width="25" height="15" fill="#FFFFFF" stroke="#000" stroke-width="1"/>
  <text x="382" y="583" text-anchor="middle" font-family="serif" font-size="6" font-weight="bold" fill="#000">BUDGET</text>
  
  <rect x="410" y="575" width="25" height="15" fill="#FFFFFF" stroke="#000" stroke-width="1"/>
  <text x="422" y="583" text-anchor="middle" font-family="serif" font-size="6" font-weight="bold" fill="#000">ROADMAP</text>
  
  <rect x="450" y="575" width="25" height="15" fill="#FFFFFF" stroke="#000" stroke-width="1"/>
  <text x="462" y="583" text-anchor="middle" font-family="serif" font-size="6" font-weight="bold" fill="#000">GOALS</text>

  <!-- Executive Beverages -->
  <polygon points="350,575 355,575 353,585 352,585" fill="#E6E6FA" stroke="#C0C0C0" stroke-width="1"/>
  <ellipse cx="353" cy="573" rx="3" ry="1" fill="#8B4513"/>
  
  <polygon points="480,575 485,575 483,585 482,585" fill="#E6E6FA" stroke="#C0C0C0" stroke-width="1"/>
  <ellipse cx="483" cy="573" rx="3" ry="1" fill="#B8860B"/>

  <!-- Executive Banner -->
  <rect x="150" y="100" width="500" height="50" fill="#000080" stroke="#FFD700" stroke-width="3"/>
  <text x="400" y="125" text-anchor="middle" font-family="serif" font-size="18" font-weight="bold" fill="#FFD700">LOS GATOS EXECUTIVE RETREAT</text>
  <text x="400" y="142" text-anchor="middle" font-family="serif" font-size="12" fill="#FFFFFF">C-Suite Team Building Excellence</text>

  <!-- Executive Presentation Screen -->
  <rect x="360" y="300" width="80" height="50" fill="#000" stroke="#C0C0C0" stroke-width="2"/>
  <rect x="365" y="305" width="70" height="40" fill="#4682B4"/>
  <text x="400" y="320" text-anchor="middle" font-family="serif" font-size="8" font-weight="bold" fill="#FFFFFF">TEAM</text>
  <text x="400" y="330" text-anchor="middle" font-family="serif" font-size="8" font-weight="bold" fill="#FFFFFF">BUILDING</text>
  <text x="400" y="340" text-anchor="middle" font-family="serif" font-size="8" font-weight="bold" fill="#FFD700">SUCCESS</text>

  <!-- Executive Office Decor -->
  <rect x="50" y="450" width="20" height="30" fill="#8B4513"/>
  <circle cx="60" cy="445" r="8" fill="#228B22"/>
  
  <rect x="730" y="460" width="20" height="30" fill="#8B4513"/>
  <circle cx="740" cy="455" r="8" fill="#228B22"/>

  <!-- Success Metrics Charts -->
  <rect x="120" y="480" width="40" height="30" fill="#FFFFFF" stroke="#000" stroke-width="1"/>
  <line x1="125" y1="505" x2="155" y2="485" stroke="#00FF00" stroke-width="2"/>
  <text x="140" y="520" text-anchor="middle" font-family="serif" font-size="6" fill="#000">GROWTH</text>

  <rect x="640" y="470" width="40" height="30" fill="#FFFFFF" stroke="#000" stroke-width="1"/>
  <rect x="645" y="490" width="5" height="5" fill="#4682B4"/>
  <rect x="655" y="485" width="5" height="10" fill="#4682B4"/>
  <rect x="665" y="480" width="5" height="15" fill="#4682B4"/>
  <text x="660" y="515" text-anchor="middle" font-family="serif" font-size="6" fill="#000">PROFIT</text>

  <!-- Team Building Elements -->
  <circle cx="300" cy="520" r="40" fill="none" stroke="#FFD700" stroke-width="2" stroke-dasharray="5,5" opacity="0.7"/>
  <circle cx="500" cy="520" r="45" fill="none" stroke="#4682B4" stroke-width="2" stroke-dasharray="5,5" opacity="0.7"/>

  <!-- Executive Stars -->
  <polygon points="150,350 155,360 165,360 157,368 160,378 150,372 140,378 143,368 135,360 145,360" fill="#FFD700"/>
  <polygon points="650,320 655,330 665,330 657,338 660,348 650,342 640,348 643,338 635,330 645,330" fill="#FFD700"/>

  <!-- Innovation Icons -->
  <circle cx="200" cy="380" r="8" fill="#00FF00" opacity="0.7"/>
  <text x="200" y="385" text-anchor="middle" font-family="serif" font-size="6" font-weight="bold" fill="#000">AI</text>
  
  <circle cx="600" cy="360" r="8" fill="#FF6347" opacity="0.7"/>
  <text x="600" y="365" text-anchor="middle" font-family="serif" font-size="6" font-weight="bold" fill="#000">IOT</text>

  <!-- Executive Smoke -->
  <ellipse cx="400" cy="505" rx="20" ry="8" fill="#4682B4" opacity="0.6"/>
  <ellipse cx="405" cy="495" rx="25" ry="10" fill="#B0C4DE" opacity="0.4"/>
  <ellipse cx="395" cy="485" rx="30" ry="12" fill="#F5F5F5" opacity="0.3"/>
</svg>
