<svg viewBox="0 0 800 600" xmlns="http://www.w3.org/2000/svg">
  <defs>
    <linearGradient id="nightSkyGradient" x1="0%" y1="0%" x2="0%" y2="100%">
      <stop offset="0%" style="stop-color:#000033"/>
      <stop offset="100%" style="stop-color:#191970"/>
    </linearGradient>
    <linearGradient id="fireworksGradient" x1="0%" y1="0%" x2="100%" y2="100%">
      <stop offset="0%" style="stop-color:#FFD700"/>
      <stop offset="50%" style="stop-color:#FF6347"/>
      <stop offset="100%" style="stop-color:#FF1493"/>
    </linearGradient>
    <linearGradient id="champagneGradient" x1="0%" y1="0%" x2="0%" y2="100%">
      <stop offset="0%" style="stop-color:#F7E7CE"/>
      <stop offset="100%" style="stop-color:#DDD6C0"/>
    </linearGradient>
    <radialGradient id="clockGlow" cx="50%" cy="50%" r="50%">
      <stop offset="0%" style="stop-color:#FFD700" stop-opacity="0.8"/>
      <stop offset="100%" style="stop-color:#FFD700" stop-opacity="0"/>
    </radialGradient>
  </defs>

  <!-- Night Sky Background -->
  <rect width="800" height="600" fill="url(#nightSkyGradient)"/>
  
  <!-- Stars -->
  <circle cx="100" cy="80" r="2" fill="#FFD700"/>
  <circle cx="200" cy="60" r="1.5" fill="#FFFFFF"/>
  <circle cx="350" cy="90" r="2" fill="#FFD700"/>
  <circle cx="500" cy="70" r="1" fill="#FFFFFF"/>
  <circle cx="650" cy="100" r="1.5" fill="#FFD700"/>
  <circle cx="750" cy="50" r="2" fill="#FFFFFF"/>
  <circle cx="150" cy="150" r="1" fill="#FFD700"/>
  <circle cx="450" cy="120" r="1.5" fill="#FFFFFF"/>
  <circle cx="600" cy="140" r="1" fill="#FFD700"/>

  <!-- Los Altos Luxury Home Setting -->
  <rect x="50" y="350" width="700" height="250" fill="#2F4F4F" stroke="#000" stroke-width="2"/>
  
  <!-- Elegant Windows with Warm Light -->
  <rect x="100" y="380" width="80" height="120" fill="#FFF8DC" stroke="#DAA520" stroke-width="3"/>
  <rect x="200" y="380" width="80" height="120" fill="#FFF8DC" stroke="#DAA520" stroke-width="3"/>
  <rect x="300" y="380" width="80" height="120" fill="#FFF8DC" stroke="#DAA520" stroke-width="3"/>
  <rect x="500" y="380" width="80" height="120" fill="#FFF8DC" stroke="#DAA520" stroke-width="3"/>
  <rect x="600" y="380" width="80" height="120" fill="#FFF8DC" stroke="#DAA520" stroke-width="3"/>

  <!-- Elegant Entrance -->
  <rect x="390" y="420" width="20" height="80" fill="#8B4513"/>
  <circle cx="405" cy="460" r="2" fill="#FFD700"/>

  <!-- New Year's Clock (Center top) -->
  <circle cx="400" cy="150" r="60" fill="#FFD700" stroke="#B8860B" stroke-width="4"/>
  <circle cx="400" cy="150" r="50" fill="#FFFFFF"/>
  <circle cx="400" cy="150" r="40" fill="url(#clockGlow)" opacity="0.3"/>
  
  <!-- Clock Numbers -->
  <text x="400" y="120" text-anchor="middle" font-family="serif" font-size="16" font-weight="bold" fill="#000">12</text>
  <text x="435" y="158" text-anchor="middle" font-family="serif" font-size="12" fill="#000">3</text>
  <text x="400" y="185" text-anchor="middle" font-family="serif" font-size="12" fill="#000">6</text>
  <text x="365" y="158" text-anchor="middle" font-family="serif" font-size="12" fill="#000">9</text>
  
  <!-- Clock Hands pointing to almost midnight -->
  <line x1="400" y1="150" x2="400" y2="125" stroke="#000" stroke-width="4" stroke-linecap="round"/>
  <line x1="400" y1="150" x2="420" y2="140" stroke="#000" stroke-width="3" stroke-linecap="round"/>
  <circle cx="400" cy="150" r="5" fill="#000"/>

  <!-- 2026 Text -->
  <text x="400" y="250" text-anchor="middle" font-family="serif" font-size="36" font-weight="bold" fill="#FFD700" stroke="#B8860B" stroke-width="1">2026</text>

  <!-- Fireworks Displays -->
  <!-- Firework 1 (Left) -->
  <g transform="translate(150,100)">
    <circle cx="0" cy="0" r="3" fill="#FFD700"/>
    <line x1="0" y1="0" x2="15" y2="-10" stroke="#FFD700" stroke-width="2"/>
    <line x1="0" y1="0" x2="-15" y2="-10" stroke="#FF6347" stroke-width="2"/>
    <line x1="0" y1="0" x2="10" y2="15" stroke="#FF1493" stroke-width="2"/>
    <line x1="0" y1="0" x2="-10" y2="15" stroke="#00FF00" stroke-width="2"/>
    <line x1="0" y1="0" x2="20" y2="5" stroke="#FF6347" stroke-width="2"/>
    <line x1="0" y1="0" x2="-20" y2="5" stroke="#FFD700" stroke-width="2"/>
    <circle cx="15" cy="-10" r="2" fill="#FFD700"/>
    <circle cx="-15" cy="-10" r="2" fill="#FF6347"/>
    <circle cx="10" cy="15" r="2" fill="#FF1493"/>
    <circle cx="-10" cy="15" r="2" fill="#00FF00"/>
  </g>

  <!-- Firework 2 (Right) -->
  <g transform="translate(650,120)">
    <circle cx="0" cy="0" r="3" fill="#FF1493"/>
    <line x1="0" y1="0" x2="12" y2="-15" stroke="#FF1493" stroke-width="2"/>
    <line x1="0" y1="0" x2="-12" y2="-15" stroke="#00CED1" stroke-width="2"/>
    <line x1="0" y1="0" x2="18" y2="8" stroke="#FFD700" stroke-width="2"/>
    <line x1="0" y1="0" x2="-18" y2="8" stroke="#FF6347" stroke-width="2"/>
    <line x1="0" y1="0" x2="0" y2="20" stroke="#00FF00" stroke-width="2"/>
    <circle cx="12" cy="-15" r="2" fill="#FF1493"/>
    <circle cx="-12" cy="-15" r="2" fill="#00CED1"/>
    <circle cx="18" cy="8" r="2" fill="#FFD700"/>
    <circle cx="-18" cy="8" r="2" fill="#FF6347"/>
    <circle cx="0" cy="20" r="2" fill="#00FF00"/>
  </g>

  <!-- Hibachi Setup Area -->
  <rect x="350" y="520" width="100" height="30" fill="#2F4F4F" stroke="#000" stroke-width="2"/>
  <circle cx="400" cy="535" r="20" fill="#1C1C1C" stroke="#000" stroke-width="2"/>
  
  <!-- New Year's Hibachi Flames -->
  <ellipse cx="400" cy="525" rx="12" ry="18" fill="#FFD700" opacity="0.9"/>
  <ellipse cx="395" cy="520" rx="8" ry="14" fill="#FF6347" opacity="0.8"/>
  <ellipse cx="405" cy="520" rx="8" ry="14" fill="#FF1493" opacity="0.8"/>
  <ellipse cx="400" cy="515" rx="6" ry="10" fill="#FFFFFF" opacity="0.7"/>

  <!-- Celebratory Hibachi Chef -->
  <circle cx="420" cy="555" r="12" fill="#FDBCB4"/>
  <rect x="415" y="567" width="10" height="25" fill="#FFFFFF"/>
  <rect x="410" y="592" width="20" height="8" fill="#000"/>
  <!-- Chef Hat with 2026 -->
  <ellipse cx="420" cy="550" rx="10" ry="6" fill="#FFFFFF"/>
  <rect x="415" y="538" width="10" height="12" fill="#FFFFFF"/>
  <text x="420" y="545" text-anchor="middle" font-family="Arial, sans-serif" font-size="6" font-weight="bold" fill="#FFD700">2026</text>
  <!-- Chef holding champagne and spatula -->
  <line x1="435" y1="575" x2="445" y2="565" stroke="#C0C0C0" stroke-width="2"/>
  <ellipse cx="445" cy="563" rx="3" ry="8" fill="url(#champagneGradient)"/>

  <!-- Elegant Party Guests -->
  <!-- Couple 1 (Left) -->
  <circle cx="280" cy="555" r="10" fill="#FDBCB4"/>
  <rect x="275" y="565" width="10" height="20" fill="#000080"/>
  <rect x="273" y="585" width="14" height="8" fill="#000"/>
  <ellipse cx="280" cy="550" rx="7" ry="4" fill="#8B4513"/>
  <!-- Party hat -->
  <polygon points="280,540 285,528 275,528" fill="#FFD700"/>
  <circle cx="280" cy="528" r="2" fill="#FF1493"/>

  <circle cx="295" cy="560" r="9" fill="#FDBCB4"/>
  <rect x="291" y="569" width="8" height="18" fill="#8B008B"/>
  <rect x="289" y="587" width="12" height="6" fill="#000"/>
  <ellipse cx="295" cy="556" rx="6" ry="3" fill="#FFD700"/>
  <!-- Tiara -->
  <path d="M 289 552 Q 295 548 301 552" stroke="#FFD700" stroke-width="2" fill="none"/>
  <circle cx="295" cy="549" r="1" fill="#FFD700"/>

  <!-- Couple 2 (Right) -->
  <circle cx="520" cy="550" r="11" fill="#D2B48C"/>
  <rect x="515" y="561" width="10" height="22" fill="#8B4513"/>
  <rect x="513" y="583" width="14" height="8" fill="#000"/>
  <ellipse cx="520" cy="545" rx="8" ry="4" fill="#2F4F4F"/>
  <!-- Bow tie -->
  <polygon points="515,565 520,568 525,565 520,570" fill="#FFD700"/>

  <circle cx="535" cy="555" r="10" fill="#FDBCB4"/>
  <rect x="530" y="565" width="10" height="20" fill="#FF69B4"/>
  <rect x="528" y="585" width="14" height="8" fill="#8B4513"/>
  <ellipse cx="535" cy="550" rx="7" ry="4" fill="#B8860B"/>
  <!-- Pearl necklace -->
  <circle cx="530" cy="568" r="1" fill="#FFFFFF"/>
  <circle cx="535" cy="568" r="1" fill="#FFFFFF"/>
  <circle cx="540" cy="568" r="1" fill="#FFFFFF"/>

  <!-- Champagne Bottles and Glasses -->
  <ellipse cx="300" cy="580" rx="3" ry="8" fill="url(#champagneGradient)" stroke="#DAA520" stroke-width="1"/>
  <rect x="298" y="570" width="4" height="3" fill="#FFD700"/>
  
  <ellipse cx="480" cy="575" rx="3" ry="8" fill="url(#champagneGradient)" stroke="#DAA520" stroke-width="1"/>
  <rect x="478" y="565" width="4" height="3" fill="#FFD700"/>

  <!-- Champagne Glasses -->
  <polygon points="315,580 320,580 318,590 317,590" fill="#E6E6FA" stroke="#C0C0C0" stroke-width="1"/>
  <ellipse cx="318" cy="578" rx="3" ry="1" fill="url(#champagneGradient)"/>
  
  <polygon points="500,575 505,575 503,585 502,585" fill="#E6E6FA" stroke="#C0C0C0" stroke-width="1"/>
  <ellipse cx="503" cy="573" rx="3" ry="1" fill="url(#champagneGradient)"/>

  <!-- Elegant Dining Table -->
  <ellipse cx="400" cy="580" rx="60" ry="15" fill="#8B4513" stroke="#654321" stroke-width="2"/>
  <ellipse cx="400" cy="578" rx="60" ry="15" fill="#A0522D"/>

  <!-- Sophisticated Place Settings -->
  <ellipse cx="370" cy="575" rx="8" ry="4" fill="#FFFFFF" stroke="#C0C0C0" stroke-width="1"/>
  <ellipse cx="430" cy="575" rx="8" ry="4" fill="#FFFFFF" stroke="#C0C0C0" stroke-width="1"/>
  <circle cx="370" cy="574" r="3" fill="#FF6347"/>
  <circle cx="430" cy="574" r="3" fill="#FFD700"/>

  <!-- Confetti -->
  <rect x="200" y="300" width="3" height="3" fill="#FFD700" transform="rotate(45 200 300)"/>
  <rect x="250" y="280" width="3" height="3" fill="#FF1493" transform="rotate(30 250 280)"/>
  <rect x="350" y="290" width="3" height="3" fill="#00FF00" transform="rotate(60 350 290)"/>
  <rect x="550" y="270" width="3" height="3" fill="#FF6347" transform="rotate(45 550 270)"/>
  <rect x="600" y="310" width="3" height="3" fill="#FFD700" transform="rotate(30 600 310)"/>
  <circle cx="180" cy="320" r="2" fill="#FF1493"/>
  <circle cx="620" cy="290" r="2" fill="#00CED1"/>

  <!-- NYE Banner -->
  <rect x="150" y="320" width="500" height="40" fill="#000080" stroke="#FFD700" stroke-width="3"/>
  <text x="400" y="340" text-anchor="middle" font-family="serif" font-size="18" font-weight="bold" fill="#FFD700">HAPPY NEW YEAR</text>
  <text x="400" y="355" text-anchor="middle" font-family="serif" font-size="14" fill="#FFFFFF">LOS ALTOS 2026</text>

  <!-- Champagne Bubbles -->
  <circle cx="310" cy="570" r="1" fill="#FFFFFF" opacity="0.7"/>
  <circle cx="315" cy="565" r="0.5" fill="#FFFFFF" opacity="0.8"/>
  <circle cx="485" cy="565" r="1" fill="#FFFFFF" opacity="0.7"/>
  <circle cx="490" cy="560" r="0.5" fill="#FFFFFF" opacity="0.8"/>
</svg>
