<svg viewBox="0 0 800 600" xmlns="http://www.w3.org/2000/svg">
  <defs>
    <linearGradient id="romanticSkyGradient" x1="0%" y1="0%" x2="0%" y2="100%">
      <stop offset="0%" style="stop-color:#FF69B4"/>
      <stop offset="50%" style="stop-color:#FFB6C1"/>
      <stop offset="100%" style="stop-color:#FFC0CB"/>
    </linearGradient>
    <linearGradient id="vineyardGradient" x1="0%" y1="0%" x2="0%" y2="100%">
      <stop offset="0%" style="stop-color:#9ACD32"/>
      <stop offset="100%" style="stop-color:#8FBC8F"/>
    </linearGradient>
    <linearGradient id="flameGradient" x1="0%" y1="100%" x2="0%" y2="0%">
      <stop offset="0%" style="stop-color:#FF1493"/>
      <stop offset="50%" style="stop-color:#FF69B4"/>
      <stop offset="100%" style="stop-color:#FFD700"/>
    </linearGradient>
    <radialGradient id="sunGradient" cx="50%" cy="50%" r="50%">
      <stop offset="0%" style="stop-color:#FFD700"/>
      <stop offset="100%" style="stop-color:#FFA500"/>
    </radialGradient>
  </defs>

  <!-- Romantic Wedding Sky -->
  <rect width="800" height="600" fill="url(#romanticSkyGradient)"/>
  
  <!-- Romantic Sunset -->
  <circle cx="150" cy="120" r="40" fill="url(#sunGradient)" stroke="#FF8C00" stroke-width="2"/>
  
  <!-- Morgan Hill Vineyard Landscape -->
  <path d="M 0 300 Q 200 250 400 280 T 800 300 L 800 450 L 0 450 Z" fill="url(#vineyardGradient)"/>
  <path d="M 0 350 Q 300 300 600 330 T 800 350 L 800 450 L 0 450 Z" fill="#228B22"/>
  
  <!-- Vineyard Rows with Romance -->
  <g stroke="#8B008B" stroke-width="2" fill="none">
    <path d="M 50 380 Q 150 370 250 380 Q 350 390 450 380"/>
    <path d="M 80 400 Q 180 390 280 400 Q 380 410 480 400"/>
    <path d="M 110 420 Q 210 410 310 420 Q 410 430 510 420"/>
  </g>
  
  <!-- Romantic Grape Clusters -->
  <circle cx="120" cy="375" r="4" fill="#8B008B"/>
  <circle cx="125" cy="380" r="3" fill="#9370DB"/>
  <circle cx="180" cy="365" r="4" fill="#8B008B"/>
  <circle cx="185" cy="370" r="3" fill="#9370DB"/>
  <circle cx="240" cy="375" r="4" fill="#8B008B"/>
  
  <!-- Wedding Ceremony Arch -->
  <path d="M 300 200 Q 400 150 500 200" stroke="#FFFFFF" stroke-width="8" fill="none"/>
  <rect x="295" y="200" width="10" height="100" fill="#8B4513"/>
  <rect x="495" y="200" width="10" height="100" fill="#8B4513"/>
  
  <!-- Wedding Flowers on Arch -->
  <circle cx="320" cy="180" r="6" fill="#FF69B4"/>
  <circle cx="340" cy="170" r="5" fill="#FFFFFF"/>
  <circle cx="360" cy="165" r="6" fill="#FF1493"/>
  <circle cx="380" cy="160" r="5" fill="#FFFFFF"/>
  <circle cx="400" cy="158" r="7" fill="#FF69B4"/>
  <circle cx="420" cy="160" r="5" fill="#FFFFFF"/>
  <circle cx="440" cy="165" r="6" fill="#FF1493"/>
  <circle cx="460" cy="170" r="5" fill="#FFFFFF"/>
  <circle cx="480" cy="180" r="6" fill="#FF69B4"/>

  <!-- Winery Building -->
  <rect x="550" y="250" width="200" height="150" fill="#8B4513" stroke="#654321" stroke-width="3"/>
  <polygon points="530,250 570,200 730,200 770,250" fill="#A0522D"/>
  
  <!-- Winery Windows -->
  <rect x="580" y="280" width="30" height="40" fill="#FFD700" stroke="#B8860B" stroke-width="2"/>
  <rect x="630" y="280" width="30" height="40" fill="#FFD700" stroke="#B8860B" stroke-width="2"/>
  <rect x="680" y="280" width="30" height="40" fill="#FFD700" stroke="#B8860B" stroke-width="2"/>
  
  <!-- Winery Door -->
  <rect x="635" y="340" width="30" height="60" fill="#8B4513"/>
  <circle cx="655" cy="370" r="3" fill="#FFD700"/>

  <!-- Wedding Reception Area -->
  <rect x="0" y="450" width="800" height="150" fill="#90EE90"/>
  
  <!-- Hibachi Setup (Center of reception) -->
  <rect x="350" y="520" width="100" height="30" fill="#2F4F4F" stroke="#000" stroke-width="2"/>
  <circle cx="400" cy="535" r="25" fill="#1C1C1C" stroke="#000" stroke-width="2"/>
  
  <!-- Romantic Wedding Flames -->
  <ellipse cx="400" cy="525" rx="15" ry="20" fill="url(#flameGradient)" opacity="0.9"/>
  <ellipse cx="395" cy="520" rx="10" ry="15" fill="#FF69B4" opacity="0.8"/>
  <ellipse cx="405" cy="520" rx="10" ry="15" fill="#FF1493" opacity="0.8"/>
  <ellipse cx="400" cy="515" rx="8" ry="12" fill="#FFD700" opacity="0.7"/>

  <!-- Wedding Hibachi Chef -->
  <circle cx="420" cy="555" r="12" fill="#FDBCB4"/>
  <rect x="415" y="567" width="10" height="25" fill="#FFFFFF"/>
  <rect x="410" y="592" width="20" height="8" fill="#000"/>
  <!-- Wedding chef hat with rose -->
  <ellipse cx="420" cy="550" rx="10" ry="6" fill="#FFFFFF"/>
  <rect x="415" y="538" width="10" height="12" fill="#FFFFFF"/>
  <circle cx="420" cy="545" r="3" fill="#FF69B4"/>
  <circle cx="418" cy="543" r="1" fill="#FF1493"/>
  <!-- Chef with wedding ring and spatula -->
  <line x1="435" y1="575" x2="445" y2="565" stroke="#C0C0C0" stroke-width="2"/>
  <circle cx="425" cy="570" r="2" fill="#FFD700"/>

  <!-- Bride and Groom -->
  <!-- Bride -->
  <circle cx="280" cy="555" r="11" fill="#FDBCB4"/>
  <rect x="275" y="566" width="10" height="25" fill="#FFFFFF"/>
  <rect x="270" y="591" width="20" height="8" fill="#FFFFFF"/>
  <ellipse cx="280" cy="550" rx="8" ry="4" fill="#FFD700"/>
  <!-- Wedding veil -->
  <path d="M 272 548 Q 280 535 288 548 Q 285 560 275 560 Z" fill="#FFFFFF" opacity="0.8"/>
  <!-- Bouquet -->
  <circle cx="265" cy="575" r="4" fill="#FF69B4"/>
  <circle cx="268" cy="573" r="3" fill="#FFFFFF"/>
  <circle cx="262" cy="578" r="3" fill="#FF1493"/>

  <!-- Groom -->
  <circle cx="300" cy="560" r="11" fill="#FDBCB4"/>
  <rect x="295" y="571" width="10" height="25" fill="#000"/>
  <rect x="293" y="596" width="14" height="8" fill="#000"/>
  <ellipse cx="300" cy="555" rx="8" ry="4" fill="#2F4F4F"/>
  <!-- Bow tie -->
  <polygon points="295,574 300,577 305,574 300,580" fill="#FFFFFF"/>
  <!-- Boutonniere -->
  <circle cx="305" cy="575" r="2" fill="#FF69B4"/>

  <!-- Wedding Guests -->
  <!-- Guest Family 1 -->
  <circle cx="520" cy="555" r="10" fill="#FDBCB4"/>
  <rect x="515" y="565" width="10" height="20" fill="#8B008B"/>
  <rect x="513" y="585" width="14" height="8" fill="#8B4513"/>
  <ellipse cx="520" cy="550" rx="7" ry="4" fill="#8B4513"/>
  <!-- Wedding guest hat -->
  <ellipse cx="520" cy="545" rx="9" ry="4" fill="#FF69B4"/>

  <circle cx="540" cy="560" r="9" fill="#D2B48C"/>
  <rect x="536" y="569" width="8" height="18" fill="#000080"/>
  <rect x="534" y="587" width="12" height="7" fill="#000"/>
  <ellipse cx="540" cy="556" rx="6" ry="3" fill="#000"/>

  <!-- Guest Family 2 -->
  <circle cx="220" cy="560" r="10" fill="#D2B48C"/>
  <rect x="215" y="570" width="10" height="20" fill="#4B0082"/>
  <rect x="213" y="590" width="14" height="8" fill="#8B4513"/>
  <ellipse cx="220" cy="555" rx="7" ry="4" fill="#FFD700"/>
  <!-- Pearl necklace -->
  <circle cx="215" cy="573" r="1" fill="#FFFFFF"/>
  <circle cx="220" cy="573" r="1" fill="#FFFFFF"/>
  <circle cx="225" cy="573" r="1" fill="#FFFFFF"/>

  <circle cx="240" cy="565" r="9" fill="#FDBCB4"/>
  <rect x="236" y="574" width="8" height="18" fill="#8B0000"/>
  <rect x="234" y="592" width="12" height="7" fill="#000"/>
  <ellipse cx="240" cy="561" rx="6" ry="3" fill="#8B4513"/>

  <!-- Wedding Reception Table -->
  <ellipse cx="400" cy="580" rx="80" ry="20" fill="#FFFFFF" stroke="#C0C0C0" stroke-width="2"/>
  
  <!-- Wedding Cake -->
  <rect x="370" y="570" width="20" height="15" fill="#FFFFFF" stroke="#FFB6C1" stroke-width="2"/>
  <rect x="375" y="560" width="10" height="10" fill="#FFFFFF" stroke="#FFB6C1" stroke-width="2"/>
  <circle cx="380" cy="555" r="3" fill="#FF69B4"/>
  <circle cx="378" cy="553" r="1" fill="#FF1493"/>

  <!-- Wedding Champagne -->
  <ellipse cx="420" cy="575" rx="3" ry="8" fill="#F7E7CE" stroke="#DAA520" stroke-width="1"/>
  <rect x="418" y="565" width="4" height="3" fill="#FFD700"/>
  
  <ellipse cx="440" cy="575" rx="3" ry="8" fill="#F7E7CE" stroke="#DAA520" stroke-width="1"/>
  <rect x="438" y="565" width="4" height="3" fill="#FFD700"/>

  <!-- Wedding Gifts -->
  <rect x="480" y="570" width="15" height="10" fill="#FF69B4" stroke="#8B008B" stroke-width="1"/>
  <rect x="485" y="567" width="5" height="3" fill="#FFD700"/>
  
  <rect x="500" y="572" width="12" height="8" fill="#FFFFFF" stroke="#C0C0C0" stroke-width="1"/>
  <rect x="504" y="570" width="4" height="2" fill="#FF1493"/>

  <!-- Romantic Lighting -->
  <circle cx="250" cy="400" r="3" fill="#FFD700" opacity="0.8"/>
  <line x1="250" y1="395" x2="250" y2="370" stroke="#8B4513" stroke-width="2"/>
  
  <circle cx="550" cy="400" r="3" fill="#FFD700" opacity="0.8"/>
  <line x1="550" y1="395" x2="550" y2="370" stroke="#8B4513" stroke-width="2"/>

  <!-- Wedding Banner -->
  <rect x="200" y="180" width="400" height="50" fill="#FF1493" stroke="#FFD700" stroke-width="3"/>
  <text x="400" y="200" text-anchor="middle" font-family="serif" font-size="16" font-weight="bold" fill="#FFFFFF">MORGAN HILL WINERY WEDDING</text>
  <text x="400" y="218" text-anchor="middle" font-family="serif" font-size="12" fill="#FFD700">Vineyard Romance Hibachi Celebration</text>

  <!-- Rose Petals Scattered -->
  <ellipse cx="180" cy="500" rx="3" ry="2" fill="#FF69B4" transform="rotate(30 180 500)"/>
  <ellipse cx="620" cy="480" rx="3" ry="2" fill="#FF1493" transform="rotate(45 620 480)"/>
  <ellipse cx="350" cy="490" rx="3" ry="2" fill="#FFFFFF" transform="rotate(60 350 490)"/>
  <ellipse cx="450" cy="510" rx="3" ry="2" fill="#FF69B4" transform="rotate(15 450 510)"/>
  <ellipse cx="600" cy="520" rx="3" ry="2" fill="#FF1493" transform="rotate(75 600 520)"/>

  <!-- Wedding Hearts -->
  <path d="M 150 450 Q 145 445 140 450 Q 145 455 150 460 Q 155 455 160 450 Q 155 445 150 450 Z" fill="#FF1493"/>
  <path d="M 650 470 Q 645 465 640 470 Q 645 475 650 480 Q 655 475 660 470 Q 655 465 650 470 Z" fill="#FF69B4"/>

  <!-- Wine Barrels with Wedding Decorations -->
  <ellipse cx="100" cy="520" rx="15" ry="20" fill="#8B4513" stroke="#654321" stroke-width="2"/>
  <line x1="85" y1="520" x2="115" y2="520" stroke="#654321" stroke-width="2"/>
  <circle cx="100" cy="510" r="4" fill="#FF69B4"/>
  
  <ellipse cx="700" cy="540" rx="15" ry="20" fill="#8B4513" stroke="#654321" stroke-width="2"/>
  <line x1="685" y1="540" x2="715" y2="540" stroke="#654321" stroke-width="2"/>
  <circle cx="700" cy="530" r="4" fill="#FFFFFF"/>

  <!-- Romantic Smoke from Hibachi -->
  <ellipse cx="400" cy="505" rx="20" ry="8" fill="#FFB6C1" opacity="0.6"/>
  <ellipse cx="405" cy="495" rx="25" ry="10" fill="#FFC0CB" opacity="0.4"/>
  <ellipse cx="395" cy="485" rx="30" ry="12" fill="#FFFFFF" opacity="0.3"/>

  <!-- Wedding Doves -->
  <ellipse cx="600" cy="200" rx="8" ry="4" fill="#FFFFFF"/>
  <ellipse cx="605" cy="198" rx="3" ry="2" fill="#FFFFFF"/>
  <circle cx="608" cy="197" r="1" fill="#000"/>
  
  <ellipse cx="620" cy="180" rx="8" ry="4" fill="#FFFFFF"/>
  <ellipse cx="625" cy="178" rx="3" ry="2" fill="#FFFFFF"/>
  <circle cx="628" cy="177" r="1" fill="#000"/>
</svg>
