<svg width="400" height="300" viewBox="0 0 400 300" fill="none" xmlns="http://www.w3.org/2000/svg">
  <!-- Background -->
  <rect width="400" height="300" fill="url(#oaklandGradient)"/>
  
  <!-- Oakland Hills -->
  <polygon points="0,150 80,100 160,120 240,80 320,110 400,90 400,300 0,300" fill="#8FBC8F" opacity="0.6"/>
  <polygon points="50,180 130,130 210,150 290,110 370,140 400,120 400,300 0,300" fill="#9ACD32" opacity="0.4"/>
  
  <!-- Lake Merritt -->
  <ellipse cx="120" cy="210" rx="50" ry="20" fill="#4682B4"/>
  <ellipse cx="120" cy="208" rx="45" ry="18" fill="#87CEEB"/>
  <ellipse cx="120" cy="206" rx="40" ry="16" fill="#B0E0E6"/>
  
  <!-- Downtown Oakland Skyline -->
  <rect x="200" y="120" width="15" height="80" fill="#708090"/>
  <rect x="202" y="122" width="11" height="76" fill="#778899"/>
  
  <rect x="220" y="100" width="20" height="100" fill="#2F4F4F"/>
  <rect x="222" y="102" width="16" height="96" fill="#4682B4"/>
  
  <rect x="245" y="130" width="12" height="70" fill="#696969"/>
  <rect x="247" y="132" width="8" height="66" fill="#778899"/>
  
  <!-- Building Windows -->
  <g fill="#FFD700" opacity="0.8">
    <rect x="205" y="130" width="2" height="3"/>
    <rect x="209" y="130" width="2" height="3"/>
    <rect x="205" y="140" width="2" height="3"/>
    <rect x="209" y="140" width="2" height="3"/>
    
    <rect x="225" y="110" width="3" height="4"/>
    <rect x="230" y="110" width="3" height="4"/>
    <rect x="235" y="110" width="3" height="4"/>
    <rect x="225" y="120" width="3" height="4"/>
    <rect x="230" y="120" width="3" height="4"/>
    <rect x="235" y="120" width="3" height="4"/>
  </g>
  
  <!-- Oakland Hibachi Setup -->
  <rect x="180" y="170" width="80" height="35" rx="8" fill="#8B0000"/>
  <rect x="188" y="178" width="64" height="22" rx="5" fill="#2D1810"/>
  <rect x="195" y="185" width="50" height="12" rx="3" fill="#4A4A4A"/>
  
  <!-- Urban Table -->
  <ellipse cx="220" cy="210" rx="70" ry="25" fill="#2F4F4F"/>
  <ellipse cx="220" cy="205" rx="65" ry="20" fill="#4682B4"/>
  <ellipse cx="220" cy="202" rx="60" ry="17" fill="#5F9EA0"/>
  
  <!-- Oakland Chef -->
  <circle cx="140" cy="140" r="16" fill="#8B4513"/>
  <rect x="130" y="154" width="20" height="30" fill="#4169E1"/>
  <rect x="132" y="156" width="16" height="3" fill="#FFFFFF"/>
  
  <!-- Oakland A's Hat -->
  <ellipse cx="140" cy="125" rx="14" ry="6" fill="#228B22"/>
  <rect x="126" y="125" width="28" height="4" fill="#228B22"/>
  <text x="140" y="127" text-anchor="middle" fill="#FFD700" font-family="Arial" font-size="12" font-weight="bold">A</text>
  
  <!-- Diverse Oakland Customers -->
  <!-- Tech Worker -->
  <circle cx="280" cy="145" r="14" fill="#F4C2A1"/>
  <rect x="272" y="157" width="16" height="26" fill="#808080"/>
  <circle cx="276" cy="140" r="1" fill="#000000"/>
  <circle cx="284" cy="140" r="1" fill="#000000"/>
  <path d="M280 143 Q280 147 285 147" stroke="#000000" stroke-width="1" fill="none"/>
  
  <!-- Laptop -->
  <rect x="295" y="165" width="12" height="8" fill="#C0C0C0"/>
  <rect x="296" y="166" width="10" height="6" fill="#000000"/>
  <rect x="297" y="167" width="8" height="4" fill="#4169E1"/>
  
  <!-- Artist -->
  <circle cx="320" cy="155" r="12" fill="#D2691E"/>
  <rect x="314" y="165" width="12" height="22" fill="#800080"/>
  <rect x="315" y="166" width="10" height="2" fill="#FF69B4"/>
  
  <!-- Paint Palette -->
  <ellipse cx="335" cy="170" rx="4" ry="3" fill="#FFFFFF"/>
  <circle cx="333" cy="169" r="0.5" fill="#FF0000"/>
  <circle cx="337" cy="169" r="0.5" fill="#0000FF"/>
  <circle cx="335" cy="172" r="0.5" fill="#FFD700"/>
  
  <!-- Oakland Flames -->
  <ellipse cx="205" cy="187" rx="4" ry="8" fill="#FF6347" opacity="0.9"/>
  <ellipse cx="220" cy="185" rx="5" ry="10" fill="#FF4500" opacity="1.0"/>
  <ellipse cx="235" cy="187" rx="4" ry="8" fill="#FFA500" opacity="0.9"/>
  
  <!-- Oakland Food Specialties -->
  <!-- Soul Food Fusion -->
  <ellipse cx="210" cy="182" rx="5" ry="3" fill="#8B4513"/>
  <ellipse cx="210" cy="181" rx="4" ry="2" fill="#A0522D"/>
  <circle cx="208" cy="181" r="0.5" fill="#FF0000"/>
  
  <!-- Farm-to-Table Vegetables -->
  <circle cx="225" cy="183" r="2" fill="#32CD32"/>
  <circle cx="230" cy="184" r="1.5" fill="#FF6347"/>
  <circle cx="235" cy="182" r="2" fill="#FFD700"/>
  
  <!-- Oakland Port Elements -->
  <!-- Cranes -->
  <g stroke="#4A4A4A" stroke-width="3" fill="none">
    <line x1="350" y1="120" x2="350" y2="180"/>
    <line x1="350" y1="130" x2="380" y2="130"/>
    <line x1="370" y1="130" x2="370" y2="140"/>
  </g>
  <rect x="365" y="138" width="10" height="4" fill="#8B4513"/>
  
  <!-- Bay Bridge Inspiration -->
  <g stroke="#C0C0C0" stroke-width="2" fill="none">
    <path d="M50 160 Q100 140 150 160"/>
    <line x1="75" y1="150" x2="75" y2="160"/>
    <line x1="125" y1="150" x2="125" y2="160"/>
  </g>
  
  <!-- Oakland Trees -->
  <circle cx="80" cy="190" r="12" fill="#228B22"/>
  <circle cx="80" cy="188" r="10" fill="#32CD32"/>
  <rect x="78" y="200" width="4" height="15" fill="#8B4513"/>
  
  <circle cx="350" cy="200" r="10" fill="#228B22"/>
  <circle cx="350" cy="198" r="8" fill="#32CD32"/>
  <rect x="348" y="208" width="4" height="12" fill="#8B4513"/>
  
  <!-- BART Train -->
  <rect x="30" y="230" width="60" height="8" fill="#4169E1"/>
  <rect x="32" y="232" width="56" height="4" fill="#87CEEB"/>
  <g fill="#FFD700">
    <rect x="35" y="233" width="4" height="2"/>
    <rect x="45" y="233" width="4" height="2"/>
    <rect x="55" y="233" width="4" height="2"/>
    <rect x="65" y="233" width="4" height="2"/>
    <rect x="75" y="233" width="4" height="2"/>
  </g>
  
  <!-- Community Garden -->
  <rect x="300" y="220" width="30" height="20" fill="#9ACD32"/>
  <g fill="#228B22">
    <circle cx="305" cy="225" r="1"/>
    <circle cx="310" cy="227" r="1"/>
    <circle cx="315" cy="225" r="1"/>
    <circle cx="320" cy="228" r="1"/>
    <circle cx="325" cy="226" r="1"/>
  </g>
  
  <!-- Oakland Steam -->
  <g stroke="#4682B4" stroke-width="2" fill="none" opacity="0.8">
    <path d="M205 182 Q207 177 205 172 Q203 167 205 162"/>
    <path d="M220 182 Q222 177 220 172 Q218 167 220 162"/>
    <path d="M235 182 Q237 177 235 172 Q233 167 235 162"/>
  </g>
  
  <!-- Lake Merritt Geese -->
  <g fill="#FFFFFF">
    <ellipse cx="100" cy="220" rx="3" ry="2"/>
    <circle cx="98" cy="218" r="1"/>
    <path d="M95 218 Q93 216 91 218" stroke="#FFA500" stroke-width="1" fill="none"/>
    
    <ellipse cx="140" cy="225" rx="3" ry="2"/>
    <circle cx="138" cy="223" r="1"/>
    <path d="M135 223 Q133 221 131 223" stroke="#FFA500" stroke-width="1" fill="none"/>
  </g>
  
  <!-- Oakland Mural Art -->
  <rect x="160" y="100" width="25" height="20" fill="#FF69B4"/>
  <rect x="162" y="102" width="21" height="16" fill="#FFB6C1"/>
  <g fill="#FFFFFF">
    <circle cx="167" cy="107" r="2"/>
    <circle cx="178" cy="110" r="2"/>
    <rect x="170" y="113" width="6" height="2"/>
  </g>
  
  <!-- Food Truck -->
  <rect x="50" y="250" width="40" height="15" fill="#FF6347"/>
  <rect x="52" y="252" width="36" height="11" fill="#FFB6C1"/>
  <circle cx="60" cy="267" r="3" fill="#000000"/>
  <circle cx="80" cy="267" r="3" fill="#000000"/>
  <text x="70" y="258" text-anchor="middle" fill="#FFFFFF" font-family="Arial" font-size="8" font-weight="bold">
    EATS
  </text>
  
  <!-- Jack London Square -->
  <rect x="150" y="240" width="50" height="10" fill="#8B4513"/>
  <rect x="152" y="242" width="46" height="6" fill="#DEB887"/>
  <text x="175" y="247" text-anchor="middle" fill="#000000" font-family="Arial" font-size="6">
    Jack London Square
  </text>
  
  <!-- Oakland Pride -->
  <g fill="#FF69B4" opacity="0.6">
    <rect x="380" y="60" width="15" height="3"/>
  </g>
  <g fill="#FFA500" opacity="0.6">
    <rect x="380" y="63" width="15" height="3"/>
  </g>
  <g fill="#FFD700" opacity="0.6">
    <rect x="380" y="66" width="15" height="3"/>
  </g>
  <g fill="#32CD32" opacity="0.6">
    <rect x="380" y="69" width="15" height="3"/>
  </g>
  <g fill="#4169E1" opacity="0.6">
    <rect x="380" y="72" width="15" height="3"/>
  </g>
  <g fill="#800080" opacity="0.6">
    <rect x="380" y="75" width="15" height="3"/>
  </g>
  
  <!-- Title -->
  <text x="200" y="30" text-anchor="middle" fill="#2F4F4F" font-family="Arial, sans-serif" font-size="24" font-weight="bold">
    Oakland Hibachi Experience
  </text>
  
  <!-- Subtitle -->
  <text x="200" y="50" text-anchor="middle" fill="#4682B4" font-family="Arial, sans-serif" font-size="16">
    Urban • Diverse • Creative • Community Spirit
  </text>
  
  <!-- Oakland Message -->
  <text x="200" y="285" text-anchor="middle" fill="#2F4F4F" font-family="Arial, sans-serif" font-size="14">
    "Where cultures blend and flavors unite in the heart of the East Bay"
  </text>
  
  <defs>
    <linearGradient id="oaklandGradient" x1="0%" y1="0%" x2="100%" y2="100%">
      <stop offset="0%" style="stop-color:#E0F6FF;stop-opacity:1" />
      <stop offset="50%" style="stop-color:#B0E0E6;stop-opacity:1" />
      <stop offset="100%" style="stop-color:#87CEEB;stop-opacity:1" />
    </linearGradient>
  </defs>
</svg>
