<?xml version="1.0" encoding="UTF-8"?>
<svg viewBox="0 0 800 600" xmlns="http://www.w3.svg/2000/svg">
  <!-- Palo Alto Stanford corporate hibachi -->
  <defs>
    <linearGradient id="corporateSky" x1="0%" y1="0%" x2="0%" y2="100%">
      <stop offset="0%" style="stop-color:#4682B4"/>
      <stop offset="50%" style="stop-color:#87CEEB"/>
      <stop offset="100%" style="stop-color:#F0F8FF"/>
    </linearGradient>
    <linearGradient id="corporateBuilding" x1="0%" y1="0%" x2="0%" y2="100%">
      <stop offset="0%" style="stop-color:#F5F5DC"/>
      <stop offset="100%" style="stop-color:#D3D3D3"/>
    </linearGradient>
    <radialGradient id="businessGlow" cx="50%" cy="50%" r="50%">
      <stop offset="0%" style="stop-color:#FFD700; opacity:0.5"/>
      <stop offset="100%" style="stop-color:transparent"/>
    </radialGradient>
  </defs>
  
  <!-- Palo Alto professional sky -->
  <rect width="800" height="600" fill="url(#corporateSky)"/>
  
  <!-- Business excellence stars -->
  <circle cx="130" cy="70" r="2" fill="#FFD700"/>
  <circle cx="270" cy="55" r="1.5" fill="white"/>
  <circle cx="450" cy="80" r="2" fill="#8B0000"/>
  <circle cx="590" cy="60" r="1.5" fill="white"/>
  <circle cx="700" cy="45" r="2" fill="#FFD700"/>
  
  <!-- Stanford campus backdrop -->
  <rect x="50" y="180" width="120" height="160" fill="url(#corporateBuilding)" rx="8"/>
  <rect x="180" y="160" width="140" height="180" fill="url(#corporateBuilding)" rx="8"/>
  <rect x="540" y="170" width="130" height="170" fill="url(#corporateBuilding)" rx="8"/>
  <rect x="680" y="190" width="110" height="150" fill="url(#corporateBuilding)" rx="8"/>
  
  <!-- Hoover Tower -->
  <rect x="325" y="100" width="30" height="120" fill="#8B0000"/>
  <rect x="320" y="95" width="40" height="10" fill="#FFD700"/>
  <polygon points="315,95 365,95 340,85" fill="#8B0000"/>
  <circle cx="340" cy="90" r="3" fill="#FFD700"/>
  
  <!-- Stanford buildings -->
  <rect x="380" y="140" width="80" height="100" fill="url(#corporateBuilding)" rx="5"/>
  <polygon points="370,140 470,140 420,110" fill="#8B4513"/>
  <rect x="470" y="160" width="60" height="80" fill="url(#corporateBuilding)" rx="5"/>
  <polygon points="465,160 535,160 500,135" fill="#654321"/>
  
  <!-- Corporate venue -->
  <rect x="280" y="270" width="240" height="140" fill="#F0F8FF" opacity="0.95" rx="15"/>
  <text x="400" y="300" text-anchor="middle" fill="#8B0000" font-family="Arial, sans-serif" font-size="16" font-weight="bold">PALO ALTO CORPORATE</text>
  <text x="400" y="320" text-anchor="middle" fill="#4169E1" font-family="Arial, sans-serif" font-size="14">STANFORD AREA BUSINESS</text>
  
  <!-- Executive hibachi setup -->
  <rect x="300" y="240" width="200" height="70" fill="#2F4F4F" rx="10"/>
  <rect x="310" y="235" width="180" height="12" fill="#FF4500"/>
  
  <!-- Premium hibachi grills -->
  <circle cx="320" r="6" cy="238" fill="#8B0000"/>
  <circle cx="340" r="6" cy="238" fill="#FFD700"/>
  <circle cx="360" r="6" cy="238" fill="#4169E1"/>
  <circle cx="380" r="6" cy="238" fill="#32CD32"/>
  <circle cx="400" r="6" cy="238" fill="#8B0000"/>
  <circle cx="420" r="6" cy="238" fill="#FFD700"/>
  <circle cx="440" r="6" cy="238" fill="#4169E1"/>
  <circle cx="460" r="6" cy="238" fill="#32CD32"/>
  <circle cx="480" r="6" cy="238" fill="#8B0000"/>
  
  <!-- Executive hibachi chef -->
  <circle cx="400" cy="200" r="16" fill="#FDBCB4"/>
  <rect x="389" y="216" width="22" height="26" fill="white"/>
  <rect x="385" y="242" width="30" height="32" fill="#000080"/>
  <rect x="389" y="274" width="9" height="22" fill="#FDBCB4"/>
  <rect x="402" y="274" width="9" height="22" fill="#FDBCB4"/>
  
  <!-- Executive chef hat -->
  <rect x="393" y="187" width="14" height="10" fill="white"/>
  <ellipse cx="400" cy="180" rx="11" ry="7" fill="white"/>
  
  <!-- Business professionals -->
  <!-- Executive 1 -->
  <circle cx="330" cy="360" r="13" fill="#FDBCB4"/>
  <rect x="321" y="373" width="18" height="26" fill="#000080"/>
  <rect x="323" y="399" width="14" height="20" fill="#000080"/>
  <rect x="325" y="419" width="10" height="16" fill="#654321"/>
  <!-- Business tie -->
  <rect x="328" y="380" width="4" height="20" fill="#8B0000"/>
  
  <!-- Executive 2 -->
  <circle cx="470" cy="360" r="13" fill="#FDBCB4"/>
  <rect x="461" y="373" width="18" height="26" fill="#2F4F4F"/>
  <rect x="463" y="399" width="14" height="20" fill="#2F4F4F"/>
  <rect x="465" y="419" width="10" height="16" fill="#8B4513"/>
  <!-- Business tie -->
  <rect x="468" y="380" width="4" height="20" fill="#FFD700"/>
  
  <!-- Business team -->
  <circle cx="360" cy="370" r="12" fill="#FDBCB4"/>
  <rect x="353" y="382" width="14" height="22" fill="#8B008B"/>
  <rect x="355" y="404" width="10" height="18" fill="#654321"/>
  <!-- Professional attire -->
  <rect x="358" y="390" width="4" height="15" fill="white"/>
  
  <circle cx="440" cy="370" r="12" fill="#FDBCB4"/>
  <rect x="433" y="382" width="14" height="22" fill="#4169E1"/>
  <rect x="435" y="404" width="10" height="18" fill="#8B4513"/>
  <!-- Professional attire -->
  <rect x="438" y="390" width="4" height="15" fill="white"/>
  
  <!-- Corporate dining table -->
  <ellipse cx="400" cy="450" rx="110" ry="28" fill="#8B4513"/>
  
  <!-- Executive place settings -->
  <circle cx="330" cy="445" r="8" fill="white"/>
  <circle cx="365" cy="445" r="8" fill="white"/>
  <circle cx="400" cy="445" r="8" fill="white"/>
  <circle cx="435" cy="445" r="8" fill="white"/>
  <circle cx="470" cy="445" r="8" fill="white"/>
  
  <!-- Business meeting beverages -->
  <rect x="325" y="435" width="4" height="10" fill="#8B4513"/> <!-- Coffee -->
  <rect x="360" y="435" width="4" height="10" fill="#87CEEB"/> <!-- Water -->
  <rect x="395" y="435" width="4" height="10" fill="#8B0000"/> <!-- Wine -->
  <rect x="430" y="435" width="4" height="10" fill="#8B4513"/> <!-- Coffee -->
  <rect x="465" y="435" width="4" height="10" fill="#32CD32"/> <!-- Green tea -->
  
  <!-- Palo Alto corporate title -->
  <text x="400" y="150" text-anchor="middle" fill="#8B0000" font-family="Arial, sans-serif" font-size="24" font-weight="bold">PALO ALTO</text>
  <text x="400" y="175" text-anchor="middle" fill="#4169E1" font-family="Arial, sans-serif" font-size="16">CORPORATE EXCELLENCE</text>
  
  <!-- Stanford business prestige -->
  <rect x="100" y="420" width="150" height="100" fill="#8B0000" opacity="0.8" rx="12"/>
  <text x="175" y="445" text-anchor="middle" fill="#FFD700" font-family="Arial, sans-serif" font-size="14" font-weight="bold">STANFORD</text>
  <text x="175" y="460" text-anchor="middle" fill="white" font-family="Arial, sans-serif" font-size="13">BUSINESS</text>
  <text x="175" y="475" text-anchor="middle" fill="white" font-family="Arial, sans-serif" font-size="12">PRESTIGE</text>
  <text x="175" y="490" text-anchor="middle" fill="white" font-family="Arial, sans-serif" font-size="11">EXCELLENCE</text>
  <text x="175" y="505" text-anchor="middle" fill="#FFD700" font-family="Arial, sans-serif" font-size="10">PALO ALTO</text>
  
  <!-- Corporate advantages -->
  <rect x="550" y="420" width="150" height="100" fill="#4169E1" opacity="0.8" rx="12"/>
  <text x="625" y="445" text-anchor="middle" fill="white" font-family="Arial, sans-serif" font-size="14" font-weight="bold">CORPORATE</text>
  <text x="625" y="460" text-anchor="middle" fill="#FFD700" font-family="Arial, sans-serif" font-size="13">HIBACHI</text>
  <text x="625" y="475" text-anchor="middle" fill="white" font-family="Arial, sans-serif" font-size="12">TEAM BUILDING</text>
  <text x="625" y="490" text-anchor="middle" fill="white" font-family="Arial, sans-serif" font-size="11">CLIENT DINNERS</text>
  <text x="625" y="505" text-anchor="middle" fill="white" font-family="Arial, sans-serif" font-size="10">BUSINESS EVENTS</text>
  
  <!-- Executive hibachi specialties -->
  <ellipse cx="325" cy="236" rx="10" ry="6" fill="#8B0000"/>
  <ellipse cx="345" cy="236" rx="11" ry="6" fill="#FFD700"/>
  <ellipse cx="365" cy="236" rx="10" ry="6" fill="#4169E1"/>
  <ellipse cx="385" cy="236" rx="9" ry="5" fill="#32CD32"/>
  <ellipse cx="405" cy="236" rx="10" ry="6" fill="#8B0000"/>
  <ellipse cx="425" cy="236" rx="11" ry="6" fill="#FFD700"/>
  <ellipse cx="445" cy="236" rx="10" ry="6" fill="#4169E1"/>
  <ellipse cx="465" cy="236" rx="9" ry="5" fill="#32CD32"/>
  <ellipse cx="485" cy="236" rx="10" ry="6" fill="#8B0000"/>
  
  <!-- Business hibachi flames -->
  <polygon points="325,236 330,226 320,226" fill="#8B0000" opacity="0.9"/>
  <polygon points="345,236 350,226 340,226" fill="#FFD700" opacity="0.9"/>
  <polygon points="365,236 370,226 360,226" fill="#4169E1" opacity="0.9"/>
  <polygon points="385,236 390,226 380,226" fill="#32CD32" opacity="0.9"/>
  <polygon points="405,236 410,226 400,226" fill="#8B0000" opacity="0.9"/>
  <polygon points="425,236 430,226 420,226" fill="#FFD700" opacity="0.9"/>
  <polygon points="445,236 450,226 440,226" fill="#4169E1" opacity="0.9"/>
  <polygon points="465,236 470,226 460,226" fill="#32CD32" opacity="0.9"/>
  <polygon points="485,236 490,226 480,226" fill="#8B0000" opacity="0.9"/>
  
  <!-- Business cards -->
  <rect x="250" y="350" width="20" height="12" fill="white" rx="1"/>
  <text x="260" y="358" text-anchor="middle" fill="#4169E1" font-family="Arial, sans-serif" font-size="6">EXEC</text>
  
  <rect x="530" y="350" width="20" height="12" fill="white" rx="1"/>
  <text x="540" y="358" text-anchor="middle" fill="#8B0000" font-family="Arial, sans-serif" font-size="6">CEO</text>
  
  <!-- Laptops and tablets -->
  <rect x="200" y="470" width="40" height="25" fill="#C0C0C0" rx="2"/>
  <rect x="205" y="475" width="30" height="15" fill="#000080"/>
  <text x="220" y="485" text-anchor="middle" fill="white" font-family="Arial, sans-serif" font-size="8">BUSI</text>
  
  <rect x="560" y="470" width="30" height="20" fill="#000000" rx="2"/>
  <rect x="565" y="475" width="20" height="10" fill="#87CEEB"/>
  <text x="575" y="482" text-anchor="middle" fill="#000080" font-family="Arial, sans-serif" font-size="6">PAD</text>
  
  <!-- Stanford palm trees -->
  <rect x="120" y="340" width="6" height="40" fill="#8B4513"/>
  <circle cx="123" cy="330" r="12" fill="#32CD32"/>
  <ellipse cx="115" cy="320" rx="8" ry="4" fill="#228B22"/>
  <ellipse cx="131" cy="325" rx="8" ry="4" fill="#228B22"/>
  <ellipse cx="123" cy="315" rx="8" ry="4" fill="#228B22"/>
  
  <rect x="670" y="350" width="6" height="35" fill="#8B4513"/>
  <circle cx="673" cy="342" r="10" fill="#32CD32"/>
  <ellipse cx="667" cy="335" rx="6" ry="3" fill="#228B22"/>
  <ellipse cx="679" cy="338" rx="6" ry="3" fill="#228B22"/>
  <ellipse cx="673" cy="330" rx="6" ry="3" fill="#228B22"/>
  
  <!-- Business excellence glow -->
  <circle cx="400" cy="330" r="120" fill="url(#businessGlow)"/>
  
  <!-- Conference room windows -->
  <rect x="300" y="330" width="20" height="30" fill="#87CEEB" opacity="0.7" rx="2"/>
  <rect x="480" y="330" width="20" height="30" fill="#87CEEB" opacity="0.7" rx="2"/>
  
  <!-- Executive presentation screen -->
  <rect x="370" y="340" width="60" height="35" fill="#000000" rx="3"/>
  <rect x="375" y="345" width="50" height="25" fill="#87CEEB"/>
  <text x="400" y="360" text-anchor="middle" fill="#4169E1" font-family="Arial, sans-serif" font-size="10">RESULTS</text>
  
  <!-- Professional networking -->
  <text x="400" y="120" text-anchor="middle" fill="#4169E1" font-family="Arial, sans-serif" font-size="14" font-weight="bold">STANFORD AREA BUSINESS EXCELLENCE</text>
</svg>
