<svg width="400" height="300" viewBox="0 0 400 300" fill="none" xmlns="http://www.w3.org/2000/svg">
  <!-- Background -->
  <rect width="400" height="300" fill="url(#quickGradient)"/>
  
  <!-- Clock Background -->
  <circle cx="80" cy="80" r="35" fill="#FFFFFF" stroke="#FF6347" stroke-width="3"/>
  <circle cx="80" cy="80" r="30" fill="#F8F8FF"/>
  
  <!-- Clock Numbers -->
  <g fill="#FF6347" font-family="Arial" font-size="12" font-weight="bold">
    <text x="80" y="55" text-anchor="middle">12</text>
    <text x="105" y="85" text-anchor="middle">3</text>
    <text x="80" y="110" text-anchor="middle">6</text>
    <text x="55" y="85" text-anchor="middle">9</text>
  </g>
  
  <!-- Clock Hands -->
  <line x1="80" y1="80" x2="80" y2="65" stroke="#FF0000" stroke-width="3"/>
  <line x1="80" y1="80" x2="90" y2="80" stroke="#FF0000" stroke-width="2"/>
  <circle cx="80" cy="80" r="2" fill="#FF0000"/>
  
  <!-- Speed Lines -->
  <g stroke="#FF6347" stroke-width="2" opacity="0.7">
    <line x1="120" y1="70" x2="140" y2="65"/>
    <line x1="125" y1="80" x2="145" y2="80"/>
    <line x1="120" y1="90" x2="140" y2="95"/>
  </g>
  
  <!-- Express Hibachi Setup -->
  <rect x="200" y="120" width="120" height="60" rx="10" fill="#FF6347"/>
  <rect x="205" y="125" width="110" height="50" rx="8" fill="#2F4F4F"/>
  <rect x="210" y="130" width="100" height="40" rx="5" fill="#1C1C1C"/>
  
  <!-- Quick Grill -->
  <ellipse cx="260" cy="150" rx="35" ry="15" fill="#4A4A4A"/>
  <ellipse cx="260" cy="147" rx="30" ry="12" fill="#696969"/>
  
  <!-- Speed Chef -->
  <circle cx="160" cy="140" r="20" fill="#F4C2A1"/>
  <rect x="145" y="158" width="30" height="35" fill="#FFFFFF"/>
  <rect x="147" y="160" width="26" height="4" fill="#FF6347"/>
  
  <!-- Speed Chef Hat -->
  <ellipse cx="160" cy="123" rx="15" ry="10" fill="#FFFFFF"/>
  <rect x="145" y="123" width="30" height="12" fill="#FFFFFF"/>
  <path d="M145 123 Q160 115 175 123" fill="#FFFFFF"/>
  
  <!-- Speed Lines Around Chef -->
  <g stroke="#FFD700" stroke-width="2" opacity="0.8">
    <line x1="125" y1="130" x2="135" y2="125"/>
    <line x1="120" y1="150" x2="130" y2="150"/>
    <line x1="125" y1="170" x2="135" y2="175"/>
    <line x1="185" y1="125" x2="195" y2="130"/>
    <line x1="190" y1="150" x2="200" y2="150"/>
    <line x1="185" y1="175" x2="195" y2="170"/>
  </g>
  
  <!-- Super Fast Spatula Action -->
  <g stroke="#C0C0C0" stroke-width="3" opacity="0.6">
    <path d="M130 145 Q140 140 150 145 Q140 150 130 145"/>
    <path d="M135 150 Q145 145 155 150 Q145 155 135 150"/>
    <path d="M125 155 Q135 150 145 155 Q135 160 125 155"/>
  </g>
  
  <!-- Lightning Bolt -->
  <path d="M50 150 L60 130 L55 130 L65 110 L50 135 L55 135 Z" fill="#FFD700"/>
  <path d="M350 180 L360 160 L355 160 L365 140 L350 165 L355 165 Z" fill="#FFFF00"/>
  
  <!-- Quick Food Prep Station -->
  <rect x="70" y="200" width="80" height="40" fill="#DEB887"/>
  <rect x="75" y="205" width="70" height="30" fill="#F5DEB3"/>
  
  <!-- Pre-cut Vegetables (organized) -->
  <g fill="#32CD32">
    <rect x="80" y="210" width="8" height="8"/>
    <rect x="90" y="210" width="8" height="8"/>
    <rect x="100" y="210" width="8" height="8"/>
  </g>
  
  <g fill="#FF6347">
    <circle cx="85" cy="225" r="3"/>
    <circle cx="95" cy="225" r="3"/>
    <circle cx="105" cy="225" r="3"/>
  </g>
  
  <g fill="#FFD700">
    <ellipse cx="120" cy="215" rx="4" ry="2"/>
    <ellipse cx="130" cy="215" rx="4" ry="2"/>
    <ellipse cx="140" cy="215" rx="4" ry="2"/>
  </g>
  
  <!-- Express Flames -->
  <g opacity="1.0">
    <ellipse cx="240" cy="145" rx="5" ry="10" fill="#00BFFF"/>
    <ellipse cx="260" cy="142" rx="8" ry="15" fill="#1E90FF"/>
    <ellipse cx="280" cy="145" rx="5" ry="10" fill="#87CEEB"/>
  </g>
  
  <!-- High-Heat Indicators -->
  <g fill="#FF4500">
    <circle cx="245" cy="130" r="2"/>
    <circle cx="255" cy="128" r="3"/>
    <circle cx="265" cy="130" r="2"/>
    <circle cx="275" cy="128" r="3"/>
  </g>
  
  <!-- Speed Food Items -->
  <!-- Quick Shrimp -->
  <ellipse cx="250" cy="148" rx="3" ry="2" fill="#FFB6C1"/>
  <ellipse cx="250" cy="147" rx="2" ry="1" fill="#FFC0CB"/>
  
  <!-- Fast Chicken -->
  <ellipse cx="270" cy="149" rx="4" ry="3" fill="#DEB887"/>
  <ellipse cx="270" cy="148" rx="3" ry="2" fill="#F5DEB3"/>
  
  <!-- Instant Vegetables -->
  <circle cx="255" cy="152" r="1" fill="#32CD32"/>
  <circle cx="265" cy="151" r="1" fill="#FF6347"/>
  
  <!-- Steam Jets -->
  <g stroke="#FFFFFF" stroke-width="2" fill="none" opacity="0.9">
    <path d="M250 140 Q252 135 250 130 Q248 125 250 120"/>
    <path d="M260 138 Q262 133 260 128 Q258 123 260 118"/>
    <path d="M270 140 Q272 135 270 130 Q268 125 270 120"/>
  </g>
  
  <!-- Express Timer -->
  <rect x="330" y="200" width="30" height="20" fill="#000000"/>
  <rect x="332" y="202" width="26" height="16" fill="#00FF00"/>
  <text x="345" y="214" text-anchor="middle" fill="#000000" font-family="Arial" font-size="10" font-weight="bold">15:00</text>
  
  <!-- Countdown -->
  <g fill="#FF0000" font-family="Arial" font-size="12" font-weight="bold">
    <text x="345" y="190">⏰</text>
    <text x="345" y="235">FAST!</text>
  </g>
  
  <!-- Quick Service Setup -->
  <rect x="250" y="220" width="100" height="15" fill="#4169E1"/>
  <rect x="252" y="222" width="96" height="11" fill="#87CEEB"/>
  
  <!-- Plates Ready -->
  <g fill="#FFFFFF">
    <ellipse cx="265" cy="245" rx="12" ry="4"/>
    <ellipse cx="285" cy="245" rx="12" ry="4"/>
    <ellipse cx="305" cy="245" rx="12" ry="4"/>
    <ellipse cx="325" cy="245" rx="12" ry="4"/>
  </g>
  
  <!-- Food on Plates -->
  <g>
    <ellipse cx="265" cy="242" rx="4" ry="2" fill="#8B4513"/>
    <ellipse cx="285" cy="242" rx="4" ry="2" fill="#DEB887"/>
    <ellipse cx="305" cy="242" rx="4" ry="2" fill="#FFB6C1"/>
    <ellipse cx="325" cy="242" rx="4" ry="2" fill="#32CD32"/>
  </g>
  
  <!-- Express Delivery -->
  <rect x="180" y="250" width="25" height="15" fill="#FF6347"/>
  <rect x="182" y="252" width="21" height="11" fill="#FFFFFF"/>
  <circle cx="185" cy="267" r="3" fill="#000000"/>
  <circle cx="200" cy="267" r="3" fill="#000000"/>
  
  <!-- Speed Lines for Delivery -->
  <g stroke="#FF6347" stroke-width="1" opacity="0.6">
    <line x1="210" y1="255" x2="220" y2="250"/>
    <line x1="210" y1="260" x2="220" y2="260"/>
    <line x1="210" y1="265" x2="220" y2="270"/>
  </g>
  
  <!-- Stopwatch -->
  <circle cx="350" cy="100" r="20" fill="#FFD700"/>
  <circle cx="350" cy="100" r="15" fill="#FFFFFF"/>
  <line x1="350" y1="100" x2="350" y2="90" stroke="#FF0000" stroke-width="2"/>
  <line x1="350" y1="100" x2="360" y2="100" stroke="#FF0000" stroke-width="1"/>
  <circle cx="350" cy="100" r="1" fill="#FF0000"/>
  
  <!-- Stopwatch Button -->
  <rect x="348" y="82" width="4" height="3" fill="#C0C0C0"/>
  
  <!-- Speed Indicators -->
  <g fill="#FF6347" font-family="Arial" font-size="14" font-weight="bold">
    <text x="30" y="50">QUICK!</text>
    <text x="300" y="50">FAST!</text>
    <text x="150" y="280">EXPRESS!</text>
  </g>
  
  <!-- Efficiency Arrows -->
  <g stroke="#00FF00" stroke-width="3" fill="#00FF00">
    <path d="M100 170 L130 150 L125 155 L140 140 L130 150 L125 145 Z"/>
    <path d="M300 170 L270 150 L275 155 L260 140 L270 150 L275 145 Z"/>
  </g>
  
  <!-- Quick Order Tickets -->
  <rect x="20" y="120" width="20" height="30" fill="#FFFF99"/>
  <rect x="22" y="122" width="16" height="26" fill="#FFFACD"/>
  <g fill="#000000" font-family="Arial" font-size="6">
    <text x="24" y="130">ORDER</text>
    <text x="24" y="138">#001</text>
    <text x="24" y="146">READY!</text>
  </g>
  
  <rect x="45" y="115" width="20" height="30" fill="#FFFF99"/>
  <rect x="47" y="117" width="16" height="26" fill="#FFFACD"/>
  <g fill="#000000" font-family="Arial" font-size="6">
    <text x="49" y="125">ORDER</text>
    <text x="49" y="133">#002</text>
    <text x="49" y="141">5 MIN</text>
  </g>
  
  <!-- Turbo Boost Effect -->
  <g stroke="#FFD700" stroke-width="4" fill="none" opacity="0.5">
    <circle cx="160" cy="140" r="40"/>
    <circle cx="160" cy="140" r="50"/>
    <circle cx="160" cy="140" r="60"/>
  </g>
  
  <!-- Speed Meter -->
  <path d="M320 120 A 15 15 0 0 1 350 120" stroke="#FF0000" stroke-width="3" fill="none"/>
  <path d="M325 125 A 10 10 0 0 1 345 125" stroke="#FFFF00" stroke-width="2" fill="none"/>
  <path d="M330 130 A 5 5 0 0 1 340 130" stroke="#00FF00" stroke-width="2" fill="none"/>
  <circle cx="335" cy="135" r="2" fill="#000000"/>
  <line x1="335" y1="135" x2="340" y2="125" stroke="#FF0000" stroke-width="2"/>
  
  <!-- Rapid Fire Cooking -->
  <g fill="#FF4500" opacity="0.8">
    <circle cx="240" cy="135" r="1"/>
    <circle cx="280" cy="138" r="1"/>
    <circle cx="260" cy="133" r="1"/>
    <circle cx="245" cy="140" r="1"/>
    <circle cx="275" cy="135" r="1"/>
  </g>
  
  <!-- Title -->
  <text x="200" y="30" text-anchor="middle" fill="#FF6347" font-family="Arial, sans-serif" font-size="24" font-weight="bold">
    Quick Hibachi Meals
  </text>
  
  <!-- Subtitle -->
  <text x="200" y="50" text-anchor="middle" fill="#2F4F4F" font-family="Arial, sans-serif" font-size="16">
    Fast • Fresh • Delicious • Ready in 15 Minutes
  </text>
  
  <defs>
    <linearGradient id="quickGradient" x1="0%" y1="0%" x2="100%" y2="100%">
      <stop offset="0%" style="stop-color:#FFF5EE;stop-opacity:1" />
      <stop offset="50%" style="stop-color:#FFFAF0;stop-opacity:1" />
      <stop offset="100%" style="stop-color:#FDF5E6;stop-opacity:1" />
    </linearGradient>
  </defs>
</svg>
