<svg width="400" height="300" viewBox="0 0 400 300" fill="none" xmlns="http://www.w3.org/2000/svg">
  <!-- Background -->
  <rect width="400" height="300" fill="url(#sfGradient)"/>
  
  <!-- San Francisco Skyline -->
  <g opacity="0.6">
    <!-- Hills -->
    <path d="M0 150 Q50 130 100 140 Q150 120 200 135 Q250 115 300 130 Q350 110 400 125 L400 180 L0 180 Z" fill="#8FBC8F"/>
    
    <!-- Buildings -->
    <rect x="80" y="100" width="15" height="50" fill="#708090"/>
    <rect x="120" y="90" width="20" height="60" fill="#778899"/>
    <rect x="160" y="85" width="25" height="65" fill="#696969"/>
    <rect x="200" y="80" width="18" height="70" fill="#708090"/>
    <rect x="240" y="95" width="22" height="55" fill="#778899"/>
    <rect x="280" y="105" width="16" height="45" fill="#696969"/>
    <rect x="320" y="100" width="20" height="50" fill="#708090"/>
    
    <!-- Transamerica Pyramid -->
    <path d="M185 85 L195 85 L190 60 Z" fill="#C0C0C0"/>
    
    <!-- Golden Gate Bridge Elements -->
    <rect x="50" y="140" width="80" height="3" fill="#FF6347"/>
    <rect x="60" y="130" width="3" height="20" fill="#FF6347"/>
    <rect x="120" y="130" width="3" height="20" fill="#FF6347"/>
  </g>
  
  <!-- Bay Water -->
  <ellipse cx="200" cy="250" rx="200" ry="20" fill="#4682B4" opacity="0.5"/>
  
  <!-- Urban Rooftop Setting -->
  <rect x="50" y="180" width="300" height="20" fill="#2F4F4F"/>
  
  <!-- City Loft Table -->
  <ellipse cx="200" cy="210" rx="120" ry="40" fill="#D3D3D3"/>
  <ellipse cx="200" cy="205" rx="115" ry="35" fill="#E6E6FA"/>
  
  <!-- Modern Tablecloth -->
  <ellipse cx="200" cy="205" rx="110" ry="32" fill="#4169E1" opacity="0.7"/>
  <ellipse cx="200" cy="202" rx="105" ry="28" fill="#1E90FF" opacity="0.3"/>
  
  <!-- Urban Hibachi Setup -->
  <rect x="170" y="180" width="60" height="30" rx="8" fill="#1A1A1A"/>
  <rect x="178" y="188" width="44" height="18" rx="5" fill="#2D1810"/>
  <rect x="185" y="195" width="30" height="8" rx="3" fill="#4A4A4A"/>
  
  <!-- City Flames -->
  <ellipse cx="190" cy="197" rx="4" ry="7" fill="#0000FF" opacity="0.8"/>
  <ellipse cx="200" cy="195" rx="5" ry="9" fill="#4169E1" opacity="0.9"/>
  <ellipse cx="210" cy="197" rx="4" ry="7" fill="#1E90FF" opacity="0.8"/>
  
  <!-- Tech-Savvy Chef -->
  <circle cx="130" cy="135" r="16" fill="#F4C2A1"/>
  <rect x="120" y="149" width="20" height="30" fill="#FFFFFF"/>
  <rect x="122" y="151" width="16" height="3" fill="#000000"/>
  
  <!-- Modern Chef Hat -->
  <ellipse cx="130" cy="125" rx="10" ry="14" fill="#FFFFFF"/>
  <rect x="124" y="132" width="12" height="3" fill="#000000"/>
  
  <!-- SF Foodies -->
  <!-- Tech Professional -->
  <circle cx="280" cy="140" r="14" fill="#F4C2A1"/>
  <rect x="272" y="152" width="16" height="26" fill="#800080"/>
  <circle cx="278" cy="135" r="1" fill="#000000"/>
  <circle cx="282" cy="135" r="1" fill="#000000"/>
  
  <!-- Startup Executive -->
  <circle cx="120" cy="165" r="12" fill="#F4C2A1"/>
  <rect x="114" y="175" width="12" height="22" fill="#FF69B4"/>
  
  <!-- San Francisco Fusion Food -->
  <!-- California Roll Elements -->
  <circle cx="185" cy="192" r="3" fill="#000000"/>
  <circle cx="185" cy="192" r="2" fill="#FFFFFF"/>
  <circle cx="185" cy="192" r="1" fill="#FFA500"/>
  
  <!-- Dungeness Crab -->
  <ellipse cx="200" cy="190" rx="4" ry="3" fill="#FF6347"/>
  <ellipse cx="200" cy="189" rx="3" ry="2" fill="#FF4500"/>
  <path d="M195 188 Q193 186 197 186" stroke="#FF6347" stroke-width="1" fill="none"/>
  <path d="M203 188 Q205 186 201 186" stroke="#FF6347" stroke-width="1" fill="none"/>
  
  <!-- Sourdough Bread -->
  <ellipse cx="215" cy="193" rx="4" ry="2" fill="#F5DEB3"/>
  <ellipse cx="215" cy="192" rx="3" ry="1.5" fill="#DEB887"/>
  
  <!-- Tech Gadgets -->
  <!-- Smartphone -->
  <rect x="260" y="185" width="6" height="10" rx="1" fill="#000000"/>
  <rect x="261" y="186" width="4" height="8" rx="0.5" fill="#4169E1"/>
  
  <!-- Smartwatch -->
  <rect x="290" y="188" width="4" height="3" rx="1" fill="#C0C0C0"/>
  <circle cx="292" cy="189" r="1" fill="#000000"/>
  
  <!-- City Beverages -->
  <!-- Craft Beer -->
  <rect x="140" y="190" width="4" height="10" fill="#DAA520"/>
  <ellipse cx="142" cy="189" rx="2.5" ry="1.5" fill="#F5DEB3"/>
  
  <!-- Artisan Coffee -->
  <ellipse cx="320" cy="190" rx="3" ry="2" fill="#F5F5DC"/>
  <ellipse cx="320" cy="189" rx="2" ry="1.5" fill="#8B4513"/>
  <g stroke="#654321" stroke-width="0.5" fill="none">
    <path d="M323 188 Q326 185 329 188"/>
    <path d="M324 188 Q327 185 330 188"/>
  </g>
  
  <!-- Cable Car -->
  <rect x="350" y="120" width="30" height="15" fill="#8B0000"/>
  <rect x="352" y="122" width="26" height="11" fill="#FF6347"/>
  <circle cx="355" cy="135" r="2" fill="#2F4F4F"/>
  <circle cx="375" cy="135" r="2" fill="#2F4F4F"/>
  <rect x="365" y="115" width="2" height="8" fill="#FFD700"/>
  
  <!-- Fog Effect -->
  <g fill="#F5F5F5" opacity="0.4">
    <ellipse cx="80" cy="100" rx="25" ry="8"/>
    <ellipse cx="150" cy="90" rx="30" ry="10"/>
    <ellipse cx="250" cy="85" rx="35" ry="12"/>
    <ellipse cx="320" cy="95" rx="28" ry="9"/>
  </g>
  
  <!-- Urban Herbs -->
  <!-- Rooftop Garden -->
  <rect x="60" y="185" width="8" height="4" fill="#228B22"/>
  <ellipse cx="64" cy="183" rx="3" ry="2" fill="#32CD32"/>
  
  <rect x="330" y="185" width="8" height="4" fill="#228B22"/>
  <ellipse cx="334" cy="183" rx="3" ry="2" fill="#32CD32"/>
  
  <!-- City Steam -->
  <g stroke="#E6E6FA" stroke-width="1.5" fill="none" opacity="0.7">
    <path d="M190 190 Q192 185 190 180 Q188 175 190 170"/>
    <path d="M200 190 Q202 185 200 180 Q198 175 200 170"/>
    <path d="M210 190 Q212 185 210 180 Q208 175 210 170"/>
  </g>
  
  <!-- Street Art -->
  <g fill="#FF69B4" opacity="0.6">
    <path d="M30 160 Q35 155 40 160 Q35 165 30 160"/>
    <path d="M35 158 Q40 153 45 158 Q40 163 35 158"/>
  </g>
  
  <!-- Title -->
  <text x="200" y="30" text-anchor="middle" fill="#FF6347" font-family="Arial, sans-serif" font-size="24" font-weight="bold">
    San Francisco Hibachi
  </text>
  
  <!-- Subtitle -->
  <text x="200" y="50" text-anchor="middle" fill="#4169E1" font-family="Arial, sans-serif" font-size="16">
    City Views • Tech Culture • Bay Area Fusion
  </text>
  
  <!-- SF Message -->
  <text x="200" y="275" text-anchor="middle" fill="#2F4F4F" font-family="Arial, sans-serif" font-size="12">
    "Where innovation meets culinary tradition in the heart of SF"
  </text>
  
  <defs>
    <linearGradient id="sfGradient" x1="0%" y1="0%" x2="100%" y2="100%">
      <stop offset="0%" style="stop-color:#E0F6FF;stop-opacity:1" />
      <stop offset="50%" style="stop-color:#F0F8FF;stop-opacity:1" />
      <stop offset="100%" style="stop-color:#F5F5F5;stop-opacity:1" />
    </linearGradient>
  </defs>
</svg>
