<?xml version="1.0" encoding="UTF-8"?>
<svg viewBox="0 0 800 600" xmlns="http://www.w3.svg/2000/svg">
  <!-- San Jose backyard hibachi trend -->
  <defs>
    <linearGradient id="sanjoseSky" x1="0%" y1="0%" x2="0%" y2="100%">
      <stop offset="0%" style="stop-color:#87CEEB"/>
      <stop offset="50%" style="stop-color:#E0F6FF"/>
      <stop offset="100%" style="stop-color:#F0F8FF"/>
    </linearGradient>
    <linearGradient id="trendyHome" x1="0%" y1="0%" x2="0%" y2="100%">
      <stop offset="0%" style="stop-color:#F4A460"/>
      <stop offset="100%" style="stop-color:#DEB887"/>
    </linearGradient>
    <radialGradient id="trendGlow" cx="50%" cy="50%" r="50%">
      <stop offset="0%" style="stop-color:#00CED1; opacity:0.4"/>
      <stop offset="100%" style="stop-color:transparent"/>
    </radialGradient>
  </defs>
  
  <!-- Trendy San Jose sky -->
  <rect width="800" height="600" fill="url(#sanjoseSky)"/>
  <circle cx="600" cy="100" r="40" fill="#FFD700" opacity="0.7"/>
  
  <!-- Silicon Valley landscape -->
  <ellipse cx="200" cy="480" rx="150" ry="60" fill="#9ACD32"/>
  <ellipse cx="600" cy="500" rx="180" ry="50" fill="#8FBC8F"/>
  
  <!-- Modern San Jose neighborhood -->
  <rect x="0" y="450" width="800" height="150" fill="#228B22"/>
  
  <!-- Trendy Silicon Valley home -->
  <rect x="300" y="370" width="200" height="100" fill="url(#trendyHome)"/>
  <polygon points="300,370 400,330 500,370" fill="#8B4513"/>
  <rect x="320" y="400" width="15" height="20" fill="#8B4513"/>
  <rect x="350" y="390" width="20" height="15" fill="#4169E1"/>
  <rect x="430" y="390" width="20" height="15" fill="#4169E1"/>
  <rect x="460" y="400" width="15" height="20" fill="#8B4513"/>
  
  <!-- Tech worker's garage with Tesla -->
  <rect x="250" y="420" width="40" height="30" fill="#C0C0C0"/>
  <rect x="255" y="435" width="6" height="3" fill="#8B4513"/>
  <ellipse cx="270" cy="445" rx="20" ry="6" fill="#2F4F4F"/>
  <circle cx="255" cy="445" r="2" fill="#C0C0C0"/>
  <circle cx="285" cy="445" r="2" fill="#C0C0C0"/>
  
  <!-- Trendy backyard setup -->
  <ellipse cx="400" cy="500" rx="120" ry="40" fill="#32CD32"/>
  
  <!-- Modern hibachi station -->
  <rect x="350" y="460" width="100" height="60" fill="#2F4F4F" rx="10"/>
  <rect x="365" y="455" width="70" height="10" fill="#FF4500"/>
  
  <!-- Tech-inspired hibachi grills -->
  <circle cx="375" r="5" cy="458" fill="#00CED1"/>
  <circle cx="390" r="5" cy="458" fill="#FF6347"/>
  <circle cx="405" r="5" cy="458" fill="#32CD32"/>
  <circle cx="420" r="5" cy="458" fill="#FFD700"/>
  <circle cx="435" r="5" cy="458" fill="#FF69B4"/>
  
  <!-- Professional hibachi chef -->
  <circle cx="400" cy="420" r="14" fill="#FDBCB4"/>
  <rect x="391" y="434" width="18" height="24" fill="white"/>
  <rect x="388" y="458" width="24" height="28" fill="#000080"/>
  <rect x="391" y="486" width="7" height="20" fill="#FDBCB4"/>
  <rect x="402" y="486" width="7" height="20" fill="#FDBCB4"/>
  
  <!-- Modern chef hat -->
  <rect x="395" y="410" width="10" height="8" fill="white"/>
  <ellipse cx="400" cy="405" rx="8" ry="5" fill="white"/>
  
  <!-- High-tech cooking tools -->
  <rect x="420" y="415" width="20" height="3" fill="#C0C0C0"/>
  <rect x="437" y="412" width="12" height="9" fill="#C0C0C0"/>
  <circle cx="443" cy="416" r="2" fill="#00CED1"/>
  
  <!-- Tech workers hosting party -->
  <circle cx="320" cy="490" r="11" fill="#FDBCB4"/>
  <rect x="314" y="501" width="12" height="20" fill="#4169E1"/>
  <rect x="316" y="521" width="8" height="16" fill="#654321"/>
  <rect x="317" y="537" width="6" height="10" fill="#8B4513"/>
  <rect x="310" y="495" width="20" height="2" fill="#000"/>
  
  <circle cx="480" cy="490" r="11" fill="#FDBCB4"/>
  <rect x="474" y="501" width="12" height="20" fill="#FF69B4"/>
  <rect x="476" y="521" width="8" height="16" fill="#000080"/>
  <rect x="477" y="537" width="6" height="10" fill="#8B4513"/>
  
  <!-- Millennial tech couple -->
  <circle cx="360" cy="500" r="10" fill="#FDBCB4"/>
  <rect x="355" y="510" width="10" height="18" fill="#32CD32"/>
  <rect x="357" y="528" width="6" height="14" fill="#8B4513"/>
  
  <circle cx="440" cy="500" r="10" fill="#FDBCB4"/>
  <rect x="435" y="510" width="10" height="18" fill="#8B008B"/>
  <rect x="437" y="528" width="6" height="14" fill="#000080"/>
  
  <!-- Modern outdoor dining -->
  <rect x="320" y="530" width="160" height="25" fill="#8B4513" rx="8"/>
  <rect x="315" y="545" width="8" height="25" fill="#654321"/>
  <rect x="477" y="545" width="8" height="25" fill="#654321"/>
  
  <!-- Trendy place settings -->
  <circle cx="340" cy="528" r="6" fill="white"/>
  <circle cx="370" cy="528" r="6" fill="white"/>
  <circle cx="400" cy="528" r="6" fill="white"/>
  <circle cx="430" cy="528" r="6" fill="white"/>
  <circle cx="460" cy="528" r="6" fill="white"/>
  
  <!-- Craft beer and wine -->
  <rect x="335" y="520" width="3" height="8" fill="#8B4513"/>
  <rect x="365" y="520" width="3" height="8" fill="#8B0000"/>
  <rect x="395" y="520" width="3" height="8" fill="#32CD32"/>
  <rect x="425" y="520" width="3" height="8" fill="#FF6347"/>
  <rect x="455" y="520" width="3" height="8" fill="#FFD700"/>
  
  <!-- San Jose title -->
  <text x="400" y="260" text-anchor="middle" fill="#4B0082" font-family="Arial, sans-serif" font-size="22" font-weight="bold">SAN JOSE</text>
  <text x="400" y="285" text-anchor="middle" fill="#8B008B" font-family="Arial, sans-serif" font-size="16">BACKYARD HIBACHI TREND</text>
  
  <!-- Trending social media elements -->
  <rect x="150" y="300" width="120" height="100" fill="#00CED1" opacity="0.8" rx="15"/>
  <text x="210" y="325" text-anchor="middle" fill="white" font-family="Arial, sans-serif" font-size="14" font-weight="bold">TRENDING!</text>
  <text x="210" y="345" text-anchor="middle" fill="#FFD700" font-family="Arial, sans-serif" font-size="12">#BACKYARDHIBACHI</text>
  <text x="210" y="360" text-anchor="middle" fill="white" font-family="Arial, sans-serif" font-size="11">SILICON VALLEY</text>
  <text x="210" y="375" text-anchor="middle" fill="white" font-family="Arial, sans-serif" font-size="11">HOTTEST</text>
  <text x="210" y="390" text-anchor="middle" fill="white" font-family="Arial, sans-serif" font-size="11">CATERING TREND</text>
  
  <!-- Tech industry influence -->
  <rect x="530" y="300" width="120" height="100" fill="#8B008B" opacity="0.8" rx="15"/>
  <text x="590" y="325" text-anchor="middle" fill="#FFD700" font-family="Arial, sans-serif" font-size="12" font-weight="bold">TECH WORKERS</text>
  <text x="590" y="345" text-anchor="middle" fill="white" font-family="Arial, sans-serif" font-size="11">LOVE</text>
  <text x="590" y="360" text-anchor="middle" fill="white" font-family="Arial, sans-serif" font-size="11">INTERACTIVE</text>
  <text x="590" y="375" text-anchor="middle" fill="white" font-family="Arial, sans-serif" font-size="11">DINING</text>
  <text x="590" y="390" text-anchor="middle" fill="white" font-family="Arial, sans-serif" font-size="11">EXPERIENCE</text>
  
  <!-- Trendy hibachi food -->
  <ellipse cx="380" cy="455" rx="8" ry="5" fill="#FF69B4"/>
  <ellipse cx="395" cy="455" rx="9" ry="5" fill="#FFA500"/>
  <ellipse cx="410" cy="455" rx="8" ry="5" fill="#FF6347"/>
  <ellipse cx="425" cy="455" rx="7" ry="4" fill="#32CD32"/>
  
  <!-- Modern hibachi flames -->
  <polygon points="380,455 384,448 376,448" fill="#FF4500" opacity="0.8"/>
  <polygon points="395,455 399,448 391,448" fill="#00CED1" opacity="0.8"/>
  <polygon points="410,455 414,448 406,448" fill="#32CD32" opacity="0.8"/>
  <polygon points="425,455 429,448 421,448" fill="#FF69B4" opacity="0.8"/>
  
  <!-- Neighborhood houses showing trend spread -->
  <rect x="100" y="430" width="40" height="30" fill="#DEB887"/>
  <polygon points="100,430 120,415 140,430" fill="#8B0000"/>
  <rect x="110" y="445" width="6" height="8" fill="#8B4513"/>
  <rect x="125" y="440" width="8" height="6" fill="#4169E1"/>
  
  <rect x="550" y="440" width="45" height="35" fill="#F4A460"/>
  <polygon points="550,440 572.5,425 595,440" fill="#654321"/>
  <rect x="560" y="455" width="7" height="9" fill="#8B4513"/>
  <rect x="575" y="450" width="9" height="7" fill="#4169E1"/>
  
  <rect x="680" y="435" width="35" height="25" fill="#DEB887"/>
  <polygon points="680,435 697.5,425 715,435" fill="#8B4513"/>
  <rect x="688" y="445" width="5" height="7" fill="#8B4513"/>
  <rect x="700" y="442" width="7" height="5" fill="#4169E1"/>
  
  <!-- Tech company shuttle -->
  <rect x="50" y="540" width="60" height="20" fill="#4169E1" rx="10"/>
  <text x="80" y="555" text-anchor="middle" fill="white" font-family="Arial, sans-serif" font-size="10">TECH BUS</text>
  <circle cx="65" cy="555" r="4" fill="#C0C0C0"/>
  <circle cx="95" cy="555" r="4" fill="#C0C0C0"/>
  
  <!-- Social media buzz -->
  <circle cx="200" cy="200" r="3" fill="#FF69B4"/>
  <circle cx="250" cy="180" r="3" fill="#00CED1"/>
  <circle cx="300" cy="190" r="3" fill="#32CD32"/>
  <circle cx="500" cy="185" r="3" fill="#FFD700"/>
  <circle cx="550" cy="195" r="3" fill="#FF6347"/>
  <circle cx="600" cy="175" r="3" fill="#8B008B"/>
  
  <!-- WiFi signals and connectivity -->
  <path d="M 100 350 Q 110 340 120 350" stroke="#00CED1" stroke-width="2" fill="none"/>
  <path d="M 105 355 Q 110 350 115 355" stroke="#00CED1" stroke-width="2" fill="none"/>
  <circle cx="110" cy="360" r="1" fill="#00CED1"/>
  
  <!-- Smart home elements -->
  <rect x="480" y="360" width="8" height="5" fill="#32CD32"/>
  <circle cx="484" cy="362" r="1" fill="#FFD700"/>
  <text x="484" y="355" text-anchor="middle" fill="#32CD32" font-family="Arial, sans-serif" font-size="6">SMART</text>
  
  <!-- Trend glow effect -->
  <circle cx="400" cy="400" r="80" fill="url(#trendGlow)"/>
  
  <!-- Restaurant entertainment at home concept -->
  <text x="400" y="310" text-anchor="middle" fill="#00CED1" font-family="Arial, sans-serif" font-size="12" font-weight="bold">RESTAURANT ENTERTAINMENT AT HOME</text>
</svg>
