<?xml version="1.0" encoding="UTF-8"?>
<svg viewBox="0 0 800 600" xmlns="http://www.w3.org/2000/svg">
  <!-- Santa Clara corporate and backyard setting -->
  <defs>
    <linearGradient id="santaClaraSky" x1="0%" y1="0%" x2="0%" y2="100%">
      <stop offset="0%" style="stop-color:#87CEEB"/>
      <stop offset="50%" style="stop-color:#B0E0E6"/>
      <stop offset="100%" style="stop-color:#E0F6FF"/>
    </linearGradient>
    <linearGradient id="corporateBuilding" x1="0%" y1="0%" x2="0%" y2="100%">
      <stop offset="0%" style="stop-color:#D3D3D3"/>
      <stop offset="100%" style="stop-color:#A9A9A9"/>
    </linearGradient>
  </defs>
  
  <!-- Santa Clara sky -->
  <rect width="800" height="600" fill="url(#santaClaraSky)"/>
  
  <!-- Silicon Valley landscape -->
  <ellipse cx="200" cy="480" rx="150" ry="60" fill="#9ACD32"/>
  <ellipse cx="600" cy="500" rx="180" ry="50" fill="#8FBC8F"/>
  
  <!-- Corporate office buildings -->
  <rect x="50" y="320" width="70" height="180" fill="url(#corporateBuilding)" rx="5"/>
  <rect x="140" y="300" width="80" height="200" fill="url(#corporateBuilding)" rx="5"/>
  <rect x="640" y="340" width="90" height="160" fill="url(#corporateBuilding)" rx="5"/>
  
  <!-- Corporate logos -->
  <rect x="55" y="340" width="60" height="15" fill="#4169E1" rx="3"/>
  <text x="85" y="352" text-anchor="middle" fill="white" font-family="Arial, sans-serif" font-size="10" font-weight="bold">CORP HQ</text>
  
  <rect x="145" y="320" width="70" height="15" fill="#32CD32" rx="3"/>
  <text x="180" y="332" text-anchor="middle" fill="white" font-family="Arial, sans-serif" font-size="10" font-weight="bold">TECH CORP</text>
  
  <!-- Office windows -->
  <rect x="60" y="360" width="5" height="6" fill="#FFD700"/>
  <rect x="70" y="360" width="5" height="6" fill="#FFD700"/>
  <rect x="80" y="360" width="5" height="6" fill="#FFD700"/>
  <rect x="90" y="360" width="5" height="6" fill="#FFD700"/>
  <rect x="100" y="360" width="5" height="6" fill="#FFD700"/>
  
  <!-- Corporate outdoor event (left side) -->
  <rect x="250" y="380" width="120" height="80" fill="#F5F5DC" opacity="0.9" rx="8"/>
  <text x="310" y="400" text-anchor="middle" fill="#4B0082" font-family="Arial, sans-serif" font-size="12" font-weight="bold">CORPORATE EVENT</text>
  
  <!-- Corporate hibachi setup -->
  <rect x="270" y="340" width="80" height="50" fill="#2F4F4F" rx="6"/>
  <rect x="280" y="335" width="60" height="8" fill="#FF4500"/>
  <circle cx="290" r="4" cy="338" fill="#FFD700"/>
  <circle cx="305" r="4" cy="338" fill="#FF6347"/>
  <circle cx="320" r="4" cy="338" fill="#00CED1"/>
  <circle cx="335" r="4" cy="338" fill="#FFD700"/>
  
  <!-- Corporate chef -->
  <circle cx="310" cy="310" r="12" fill="#FDBCB4"/>
  <rect x="303" y="322" width="14" height="18" fill="white"/>
  <rect x="301" y="340" width="18" height="22" fill="#000080"/>
  <rect x="303" y="362" width="6" height="15" fill="#FDBCB4"/>
  <rect x="311" y="362" width="6" height="15" fill="#FDBCB4"/>
  
  <!-- Professional chef hat -->
  <rect x="306" y="302" width="8" height="6" fill="white"/>
  <ellipse cx="310" cy="298" rx="6" ry="4" fill="white"/>
  
  <!-- Corporate executives -->
  <circle cx="280" cy="370" r="9" fill="#FDBCB4"/>
  <rect x="276" y="379" width="8" height="16" fill="#000"/>
  <rect x="277" y="395" width="6" height="12" fill="#654321"/>
  
  <circle cx="340" cy="370" r="9" fill="#FDBCB4"/>
  <rect x="336" y="379" width="8" height="16" fill="#8B008B"/>
  <rect x="337" y="395" width="6" height="12" fill="#000080"/>
  
  <!-- Backyard residential setting (right side) -->
  <rect x="450" y="380" width="120" height="80" fill="#90EE90" opacity="0.8" rx="8"/>
  <text x="510" y="400" text-anchor="middle" fill="#006400" font-family="Arial, sans-serif" font-size="12" font-weight="bold">BACKYARD PARTY</text>
  
  <!-- Residential house -->
  <rect x="580" y="420" width="60" height="50" fill="#F4A460"/>
  <polygon points="580,420 610,400 640,420" fill="#8B4513"/>
  <rect x="590" y="440" width="8" height="12" fill="#8B4513"/>
  <rect x="610" y="440" width="8" height="12" fill="#8B4513"/>
  <rect x="585" y="430" width="6" height="8" fill="#654321"/>
  
  <!-- Backyard hibachi setup -->
  <rect x="470" y="340" width="80" height="50" fill="#2F4F4F" rx="6"/>
  <rect x="480" y="335" width="60" height="8" fill="#FF4500"/>
  <circle cx="490" r="4" cy="338" fill="#FFD700"/>
  <circle cx="505" r="4" cy="338" fill="#FF6347"/>
  <circle cx="520" r="4" cy="338" fill="#FFD700"/>
  <circle cx="535" r="4" cy="338" fill="#FF6347"/>
  
  <!-- Backyard hibachi chef -->
  <circle cx="510" cy="310" r="12" fill="#FDBCB4"/>
  <rect x="503" y="322" width="14" height="18" fill="white"/>
  <rect x="501" y="340" width="18" height="22" fill="#000080"/>
  <rect x="503" y="362" width="6" height="15" fill="#FDBCB4"/>
  <rect x="511" y="362" width="6" height="15" fill="#FDBCB4"/>
  
  <!-- Chef hat -->
  <rect x="506" y="302" width="8" height="6" fill="white"/>
  <ellipse cx="510" cy="298" rx="6" ry="4" fill="white"/>
  
  <!-- Backyard family -->
  <circle cx="480" cy="370" r="9" fill="#FDBCB4"/>
  <rect x="476" y="379" width="8" height="16" fill="#FF69B4"/>
  <rect x="477" y="395" width="6" height="12" fill="#000080"/>
  
  <circle cx="540" cy="370" r="9" fill="#FDBCB4"/>
  <rect x="536" y="379" width="8" height="16" fill="#4169E1"/>
  <rect x="537" y="395" width="6" height="12" fill="#8B4513"/>
  
  <!-- Child -->
  <circle cx="510" cy="380" r="7" fill="#FDBCB4"/>
  <rect x="506" y="387" width="8" height="13" fill="#32CD32"/>
  <rect x="507" y="400" width="6" height="10" fill="#000080"/>
  
  <!-- Santa Clara title -->
  <text x="400" y="250" text-anchor="middle" fill="#4B0082" font-family="Arial, sans-serif" font-size="20" font-weight="bold">SANTA CLARA</text>
  <text x="400" y="270" text-anchor="middle" fill="#8B008B" font-family="Arial, sans-serif" font-size="14">HIBACHI CATERING</text>
  
  <!-- Dining tables for both settings -->
  <rect x="260" y="410" width="100" height="18" fill="#8B4513" rx="4"/>
  <rect x="255" y="423" width="6" height="20" fill="#654321"/>
  <rect x="365" y="423" width="6" height="20" fill="#654321"/>
  
  <rect x="460" y="410" width="100" height="18" fill="#8B4513" rx="4"/>
  <rect x="455" y="423" width="6" height="20" fill="#654321"/>
  <rect x="565" y="423" width="6" height="20" fill="#654321"/>
  
  <!-- Food on grills -->
  <ellipse cx="295" cy="335" rx="6" ry="4" fill="#FF69B4"/>
  <ellipse cx="310" cy="335" rx="7" ry="4" fill="#FFA500"/>
  <ellipse cx="325" cy="335" rx="6" ry="4" fill="#FF6347"/>
  
  <ellipse cx="495" cy="335" rx="6" ry="4" fill="#FF69B4"/>
  <ellipse cx="510" cy="335" rx="7" ry="4" fill="#FFA500"/>
  <ellipse cx="525" cy="335" rx="6" ry="4" fill="#32CD32"/>
  
  <!-- Hibachi flames -->
  <polygon points="295,335 299,328 291,328" fill="#FF4500" opacity="0.8"/>
  <polygon points="310,335 314,328 306,328" fill="#FF6347" opacity="0.8"/>
  <polygon points="325,335 329,328 321,328" fill="#FFD700" opacity="0.8"/>
  
  <polygon points="495,335 499,328 491,328" fill="#FF4500" opacity="0.8"/>
  <polygon points="510,335 514,328 506,328" fill="#FF6347" opacity="0.8"/>
  <polygon points="525,335 529,328 521,328" fill="#FFD700" opacity="0.8"/>
  
  <!-- Tech company perks -->
  <rect x="380" y="310" width="60" height="50" fill="#00CED1" opacity="0.7" rx="8"/>
  <text x="410" y="325" text-anchor="middle" fill="white" font-family="Arial, sans-serif" font-size="9" font-weight="bold">SILICON</text>
  <text x="410" y="340" text-anchor="middle" fill="white" font-family="Arial, sans-serif" font-size="9" font-weight="bold">VALLEY</text>
  <text x="410" y="355" text-anchor="middle" fill="#FFD700" font-family="Arial, sans-serif" font-size="9">CATERING</text>
  
  <!-- Residential backyard features -->
  <ellipse cx="600" cy="480" rx="30" ry="15" fill="#32CD32"/>
  <circle cx="580" cy="475" r="8" fill="#FF69B4"/>
  <circle cx="620" cy="475" r="8" fill="#FFD700"/>
  
  <!-- Parking area -->
  <rect x="100" y="480" width="150" height="20" fill="#696969"/>
  <ellipse cx="130" cy="485" rx="20" ry="6" fill="#2F4F4F"/>
  <circle cx="115" cy="485" r="2" fill="#C0C0C0"/>
  <circle cx="145" cy="485" r="2" fill="#C0C0C0"/>
  
  <ellipse cx="200" cy="485" rx="20" ry="6" fill="#8B008B"/>
  <circle cx="185" cy="485" r="2" fill="#C0C0C0"/>
  <circle cx="215" cy="485" r="2" fill="#C0C0C0"/>
  
  <!-- Santa Clara University mission tower silhouette -->
  <rect x="750" y="300" width="15" height="150" fill="#8B4513"/>
  <polygon points="750,300 757.5,285 765,300" fill="#8B0000"/>
  <rect x="753" y="320" width="3" height="4" fill="#FFD700"/>
  <rect x="759" y="320" width="3" height="4" fill="#FFD700"/>
  
  <!-- Tech innovation symbols -->
  <circle cx="400" cy="200" r="30" fill="#00CED1" opacity="0.3"/>
  <text x="400" y="205" text-anchor="middle" fill="#4B0082" font-family="Arial, sans-serif" font-size="12" font-weight="bold">TECH HUB</text>
  
  <!-- Wine country influence (Napa nearby) -->
  <circle cx="100" cy="300" r="8" fill="#8B008B"/>
  <rect x="98" y="308" width="4" height="12" fill="#228B22"/>
  <text x="100" y="330" text-anchor="middle" fill="#8B008B" font-family="Arial, sans-serif" font-size="8">WINE</text>
</svg>
