<svg width="400" height="300" viewBox="0 0 400 300" fill="none" xmlns="http://www.w3.org/2000/svg">
  <!-- Background -->
  <rect width="400" height="300" fill="url(#siliconValleyGradient)"/>
  
  <!-- Tech Campus Background -->
  <g opacity="0.5">
    <!-- Modern Buildings -->
    <rect x="60" y="100" width="40" height="80" fill="#4169E1"/>
    <rect x="120" y="90" width="50" height="90" fill="#1E90FF"/>
    <rect x="190" y="85" width="45" height="95" fill="#0000CD"/>
    <rect x="250" y="95" width="40" height="85" fill="#4169E1"/>
    <rect x="310" y="105" width="35" height="75" fill="#1E90FF"/>
    
    <!-- Glass Windows -->
    <g fill="#E6E6FA" opacity="0.7">
      <rect x="65" y="110" width="6" height="8"/>
      <rect x="75" y="110" width="6" height="8"/>
      <rect x="85" y="110" width="6" height="8"/>
      <rect x="65" y="130" width="6" height="8"/>
      <rect x="75" y="130" width="6" height="8"/>
      <rect x="85" y="130" width="6" height="8"/>
      
      <rect x="130" y="100" width="8" height="10"/>
      <rect x="145" y="100" width="8" height="10"/>
      <rect x="160" y="100" width="8" height="10"/>
      <rect x="130" y="120" width="8" height="10"/>
      <rect x="145" y="120" width="8" height="10"/>
      <rect x="160" y="120" width="8" height="10"/>
    </g>
  </g>
  
  <!-- Silicon Valley Innovation Center -->
  <rect x="50" y="180" width="300" height="20" fill="#2F4F4F"/>
  
  <!-- High-Tech Table -->
  <ellipse cx="200" cy="210" rx="120" ry="40" fill="#E6E6FA"/>
  <ellipse cx="200" cy="205" rx="115" ry="35" fill="#F0F8FF"/>
  
  <!-- LED Strip Lighting -->
  <ellipse cx="200" cy="205" rx="110" ry="32" fill="none" stroke="#00FFFF" stroke-width="2"/>
  <ellipse cx="200" cy="202" rx="105" ry="28" fill="#0000FF" opacity="0.1"/>
  
  <!-- Smart Hibachi Setup -->
  <rect x="170" y="180" width="60" height="30" rx="8" fill="#1A1A1A"/>
  <rect x="178" y="188" width="44" height="18" rx="5" fill="#2D1810"/>
  <rect x="185" y="195" width="30" height="8" rx="3" fill="#4A4A4A"/>
  
  <!-- Digital Display -->
  <rect x="175" y="175" width="50" height="5" fill="#000000"/>
  <rect x="177" y="176" width="46" height="3" fill="#00FF00"/>
  <text x="200" y="178" text-anchor="middle" fill="#00FF00" font-family="monospace" font-size="6">TEMP: 425°F</text>
  
  <!-- High-Tech Flames -->
  <ellipse cx="190" cy="197" rx="4" ry="7" fill="#00FFFF" opacity="0.8"/>
  <ellipse cx="200" cy="195" rx="5" ry="9" fill="#0080FF" opacity="0.9"/>
  <ellipse cx="210" cy="197" rx="4" ry="7" fill="#00BFFF" opacity="0.8"/>
  
  <!-- Tech Industry Chef -->
  <circle cx="130" cy="135" r="16" fill="#F4C2A1"/>
  <rect x="120" y="149" width="20" height="30" fill="#FFFFFF"/>
  <rect x="122" y="151" width="16" height="3" fill="#000000"/>
  
  <!-- Smart Chef Hat -->
  <ellipse cx="130" cy="125" rx="10" ry="14" fill="#FFFFFF"/>
  <rect x="124" y="132" width="12" height="3" fill="#000000"/>
  <circle cx="130" cy="117" r="2" fill="#00FF00"/>
  
  <!-- Tech Workers -->
  <!-- Software Engineer -->
  <circle cx="280" cy="140" r="14" fill="#F4C2A1"/>
  <rect x="272" y="152" width="16" height="26" fill="#4169E1"/>
  <rect x="274" y="154" width="12" height="2" fill="#FFFFFF"/>
  <circle cx="278" cy="135" r="1" fill="#000000"/>
  <circle cx="282" cy="135" r="1" fill="#000000"/>
  
  <!-- Product Manager -->
  <circle cx="250" cy="165" r="12" fill="#F4C2A1"/>
  <rect x="244" y="175" width="12" height="22" fill="#800080"/>
  
  <!-- Startup Founder -->
  <circle cx="150" cy="165" r="12" fill="#F4C2A1"/>
  <rect x="144" y="175" width="12" height="22" fill="#FF69B4"/>
  
  <!-- Silicon Valley Fusion Cuisine -->
  <!-- Molecular Gastronomy Elements -->
  <circle cx="185" cy="192" r="2" fill="#00FFFF" opacity="0.8"/>
  <circle cx="195" cy="190" r="2.5" fill="#0080FF" opacity="0.7"/>
  <circle cx="205" cy="192" r="2" fill="#00BFFF" opacity="0.8"/>
  <circle cx="215" cy="190" r="2.5" fill="#4169E1" opacity="0.7"/>
  
  <!-- Liquid Nitrogen Effect -->
  <g fill="#F0F8FF" opacity="0.6">
    <circle cx="188" cy="188" r="1"/>
    <circle cx="192" cy="186" r="1.5"/>
    <circle cx="208" cy="188" r="1"/>
    <circle cx="212" cy="186" r="1.5"/>
  </g>
  
  <!-- Tech Gadgets on Table -->
  <!-- iPad for Menu -->
  <rect x="140" y="190" width="8" height="6" rx="1" fill="#000000"/>
  <rect x="141" y="191" width="6" height="4" rx="0.5" fill="#4169E1"/>
  
  <!-- Wireless Charging Pad -->
  <circle cx="260" cy="195" r="4" fill="#C0C0C0"/>
  <circle cx="260" cy="195" r="3" fill="#000000"/>
  <circle cx="260" cy="195" r="2" fill="#00FF00"/>
  
  <!-- Smart Phone -->
  <rect x="290" y="190" width="4" height="8" rx="1" fill="#000000"/>
  <rect x="291" y="191" width="2" height="6" rx="0.5" fill="#F0F8FF"/>
  
  <!-- Tech Company Logos Area -->
  <!-- Generic Tech Icons -->
  <circle cx="60" cy="120" r="8" fill="#4169E1"/>
  <text x="60" y="125" text-anchor="middle" fill="#FFFFFF" font-family="Arial" font-size="10" font-weight="bold">T</text>
  
  <circle cx="350" cy="130" r="8" fill="#1E90FF"/>
  <text x="350" y="135" text-anchor="middle" fill="#FFFFFF" font-family="Arial" font-size="10" font-weight="bold">S</text>
  
  <!-- Innovation Lab Equipment -->
  <!-- 3D Printer -->
  <rect x="320" y="160" width="15" height="12" fill="#808080"/>
  <rect x="322" y="162" width="11" height="8" fill="#C0C0C0"/>
  <rect x="325" y="158" width="5" height="4" fill="#000000"/>
  
  <!-- Drone -->
  <ellipse cx="80" cy="170" rx="6" ry="4" fill="#2F4F4F"/>
  <circle cx="76" cy="168" r="1.5" fill="#000000"/>
  <circle cx="84" cy="168" r="1.5" fill="#000000"/>
  <circle cx="76" cy="172" r="1.5" fill="#000000"/>
  <circle cx="84" cy="172" r="1.5" fill="#000000"/>
  
  <!-- Smart Beverages -->
  <!-- Energy Drink -->
  <rect x="160" y="190" width="4" height="10" fill="#FF6347"/>
  <ellipse cx="162" cy="189" rx="2.5" ry="1.5" fill="#FFD700"/>
  
  <!-- Kombucha -->
  <rect x="240" y="190" width="4" height="10" fill="#90EE90"/>
  <ellipse cx="242" cy="189" rx="2.5" ry="1.5" fill="#32CD32"/>
  
  <!-- Fiber Optic Decoration -->
  <g stroke="#00FFFF" stroke-width="1" fill="none" opacity="0.5">
    <path d="M100 200 Q120 190 140 200"/>
    <path d="M260 200 Q280 190 300 200"/>
  </g>
  
  <!-- Smart Home Integration -->
  <!-- Amazon Echo/Smart Speaker -->
  <cylinder cx="340" cy="180" r="4" height="8" fill="#000000"/>
  <circle cx="340" cy="176" r="3" fill="#4169E1"/>
  
  <!-- Digital Steam -->
  <g stroke="#00FFFF" stroke-width="1.5" fill="none" opacity="0.7">
    <path d="M190 190 Q192 185 190 180 Q188 175 190 170"/>
    <path d="M200 190 Q202 185 200 180 Q198 175 200 170"/>
    <path d="M210 190 Q212 185 210 180 Q208 175 210 170"/>
  </g>
  
  <!-- Code Elements -->
  <text x="320" y="120" text-anchor="middle" fill="#00FF00" font-family="monospace" font-size="8">&lt;hibachi/&gt;</text>
  <text x="80" y="140" text-anchor="middle" fill="#00FF00" font-family="monospace" font-size="8">chef.cook()</text>
  
  <!-- Title -->
  <text x="200" y="30" text-anchor="middle" fill="#0000CD" font-family="Arial, sans-serif" font-size="24" font-weight="bold">
    Silicon Valley Tech Hibachi
  </text>
  
  <!-- Subtitle -->
  <text x="200" y="50" text-anchor="middle" fill="#4169E1" font-family="Arial, sans-serif" font-size="16">
    Innovation • Disruption • Smart Dining Experience
  </text>
  
  <!-- Tech Message -->
  <text x="200" y="275" text-anchor="middle" fill="#2F4F4F" font-family="Arial, sans-serif" font-size="12">
    "Where culinary artistry meets cutting-edge technology"
  </text>
  
  <defs>
    <linearGradient id="siliconValleyGradient" x1="0%" y1="0%" x2="100%" y2="100%">
      <stop offset="0%" style="stop-color:#E6F3FF;stop-opacity:1" />
      <stop offset="50%" style="stop-color:#F0F8FF;stop-opacity:1" />
      <stop offset="100%" style="stop-color:#E0FFFF;stop-opacity:1" />
    </linearGradient>
  </defs>
</svg>
