<svg width="400" height="300" viewBox="0 0 400 300" fill="none" xmlns="http://www.w3.org/2000/svg">
  <!-- Background -->
  <rect width="400" height="300" fill="url(#sportsGradient)"/>
  
  <!-- Victory Banner -->
  <path d="M50 30 Q200 40 350 30" stroke="#FFD700" stroke-width="4" fill="none"/>
  <g fill="#FF4500">
    <text x="200" y="25" text-anchor="middle" font-family="Arial" font-size="20" font-weight="bold">CHAMPIONSHIP VICTORY</text>
  </g>
  
  <!-- Sports Table Setup -->
  <ellipse cx="200" cy="200" rx="110" ry="40" fill="#8B4513"/>
  <ellipse cx="200" cy="195" rx="105" ry="35" fill="#DEB887"/>
  <ellipse cx="200" cy="192" rx="100" ry="32" fill="#F5DEB3"/>
  
  <!-- Victory Trophy on Table -->
  <rect x="185" y="150" width="8" height="20" fill="#8B4513"/>
  <ellipse cx="189" cy="145" rx="8" ry="6" fill="#FFD700"/>
  <ellipse cx="189" cy="142" rx="6" ry="4" fill="#FFA500"/>
  <rect x="183" y="140" width="12" height="4" fill="#B8860B"/>
  <text x="189" y="144" text-anchor="middle" fill="#8B0000" font-family="Arial" font-size="6" font-weight="bold">#1</text>
  
  <!-- Second Trophy -->
  <rect x="205" y="155" width="6" height="15" fill="#8B4513"/>
  <ellipse cx="208" cy="150" rx="6" ry="5" fill="#C0C0C0"/>
  <ellipse cx="208" cy="148" rx="4" ry="3" fill="#D3D3D3"/>
  <rect x="204" y="146" width="8" height="3" fill="#A9A9A9"/>
  <text x="208" y="149" text-anchor="middle" fill="#000000" font-family="Arial" font-size="5" font-weight="bold">#2</text>
  
  <!-- Third Trophy -->
  <rect x="220" y="157" width="5" height="13" fill="#8B4513"/>
  <ellipse cx="222" cy="153" rx="5" ry="4" fill="#CD7F32"/>
  <ellipse cx="222" cy="151" rx="3" ry="2" fill="#DEB887"/>
  <rect x="219" y="149" width="6" height="2" fill="#B8860B"/>
  <text x="222" y="152" text-anchor="middle" fill="#FFFFFF" font-family="Arial" font-size="4" font-weight="bold">#3</text>
  
  <!-- Hibachi Setup -->
  <rect x="170" y="170" width="60" height="35" rx="8" fill="#4169E1"/>
  <rect x="175" y="175" width="50" height="25" rx="6" fill="#2F4F4F"/>
  <rect x="180" y="180" width="40" height="15" rx="4" fill="#1C1C1C"/>
  
  <!-- Team Captain (Center) -->
  <circle cx="200" cy="120" r="20" fill="#F4C2A1"/>
  <rect x="185" y="138" width="30" height="35" fill="#4169E1"/>
  <rect x="187" y="140" width="26" height="4" fill="#FFD700"/>
  <ellipse cx="200" cy="105" rx="12" ry="6" fill="#8B4513"/>
  
  <!-- Victory Medal -->
  <circle cx="200" cy="150" r="4" fill="#FFD700"/>
  <circle cx="200" cy="150" r="3" fill="#FFA500"/>
  <text x="200" y="152" text-anchor="middle" fill="#8B0000" font-family="Arial" font-size="4" font-weight="bold">★</text>
  
  <!-- Captain's Features -->
  <circle cx="195" cy="118" r="1" fill="#000000"/>
  <circle cx="205" cy="118" r="1" fill="#000000"/>
  <path d="M200 125 Q195 130 200 135" stroke="#000000" stroke-width="1" fill="none"/>
  
  <!-- Team Members -->
  
  <!-- Player 1 -->
  <circle cx="120" cy="130" r="18" fill="#F4C2A1"/>
  <rect x="107" y="146" width="26" height="32" fill="#FF4500"/>
  <rect x="109" y="148" width="22" height="3" fill="#FFD700"/>
  <ellipse cx="120" cy="116" rx="10" ry="5" fill="#FFD700"/>
  <circle cx="115" cy="128" r="1" fill="#000000"/>
  <circle cx="125" cy="128" r="1" fill="#000000"/>
  <path d="M120 135 Q115 140 120 145" stroke="#000000" stroke-width="1" fill="none"/>
  
  <!-- Player 2 -->
  <circle cx="280" cy="135" r="16" fill="#F4C2A1"/>
  <rect x="268" y="149" width="24" height="28" fill="#228B22"/>
  <rect x="270" y="151" width="20" height="3" fill="#FFD700"/>
  <ellipse cx="280" cy="122" rx="8" ry="4" fill="#000000"/>
  <circle cx="276" cy="133" r="1" fill="#000000"/>
  <circle cx="284" cy="133" r="1" fill="#000000"/>
  <path d="M280 140 Q275 145 280 150" stroke="#000000" stroke-width="1" fill="none"/>
  
  <!-- Younger Team Members -->
  <!-- Player 3 -->
  <circle cx="150" cy="220" r="14" fill="#F4C2A1"/>
  <rect x="139" y="232" width="22" height="26" fill="#8B008B"/>
  <rect x="141" y="234" width="18" height="2" fill="#FFD700"/>
  <ellipse cx="150" cy="209" rx="7" ry="4" fill="#8B4513"/>
  <circle cx="146" cy="218" r="1" fill="#000000"/>
  <circle cx="154" cy="218" r="1" fill="#000000"/>
  <ellipse cx="150" cy="223" rx="3" ry="2" fill="#FF69B4"/>
  
  <!-- Player 4 -->
  <circle cx="250" cy="225" r="12" fill="#F4C2A1"/>
  <rect x="241" y="235" width="18" height="22" fill="#FF6347"/>
  <rect x="243" y="237" width="14" height="2" fill="#FFD700"/>
  <ellipse cx="250" cy="216" rx="6" ry="3" fill="#FFD700"/>
  <circle cx="246" cy="223" r="1" fill="#000000"/>
  <circle cx="254" cy="223" r="1" fill="#000000"/>
  <ellipse cx="250" cy="227" rx="2" ry="1" fill="#FF69B4"/>
  
  <!-- Sports Equipment -->
  
  <!-- Basketball -->
  <circle cx="320" cy="160" r="12" fill="#FF8C00"/>
  <g stroke="#000000" stroke-width="1">
    <path d="M320 148 Q320 160 320 172"/>
    <path d="M308 160 Q320 160 332 160"/>
    <path d="M312 152 Q320 160 328 168"/>
    <path d="M328 152 Q320 160 312 168"/>
  </g>
  
  <!-- Football -->
  <ellipse cx="80" cy="170" rx="8" ry="12" fill="#8B4513"/>
  <line x1="80" y1="158" x2="80" y2="182" stroke="#FFFFFF" stroke-width="1"/>
  <g stroke="#FFFFFF" stroke-width="1">
    <line x1="75" y1="165" x2="85" y2="165"/>
    <line x1="75" y1="170" x2="85" y2="170"/>
    <line x1="75" y1="175" x2="85" y2="175"/>
  </g>
  
  <!-- Baseball -->
  <circle cx="340" cy="220" r="8" fill="#FFFFFF"/>
  <g stroke="#FF0000" stroke-width="1">
    <path d="M335 215 Q338 218 342 215"/>
    <path d="M335 225 Q338 222 342 225"/>
  </g>
  
  <!-- Soccer Ball -->
  <circle cx="60" cy="230" r="10" fill="#FFFFFF"/>
  <g stroke="#000000" stroke-width="1">
    <polygon points="60,225 65,228 63,233 57,233 55,228"/>
    <polygon points="60,235 57,230 62,228"/>
    <polygon points="60,235 63,230 68,232"/>
  </g>
  
  <!-- Championship Medals -->
  <g fill="#FFD700">
    <circle cx="110" cy="160" r="3"/>
    <circle cx="110" cy="160" r="2" fill="#FFA500"/>
    <text x="110" y="162" text-anchor="middle" fill="#8B0000" font-family="Arial" font-size="3">★</text>
    
    <circle cx="290" cy="165" r="3"/>
    <circle cx="290" cy="165" r="2" fill="#FFA500"/>
    <text x="290" y="167" text-anchor="middle" fill="#8B0000" font-family="Arial" font-size="3">★</text>
  </g>
  
  <!-- Victory Flames -->
  <g opacity="0.9">
    <ellipse cx="185" cy="177" rx="5" ry="10" fill="#FF4500"/>
    <ellipse cx="200" cy="175" rx="6" ry="12" fill="#FFD700"/>
    <ellipse cx="215" cy="177" rx="5" ry="10" fill="#FF6347"/>
  </g>
  
  <!-- Championship Food -->
  <!-- Victory Steak -->
  <ellipse cx="190" cy="185" rx="6" ry="4" fill="#8B0000"/>
  <ellipse cx="190" cy="184" rx="5" ry="3" fill="#B22222"/>
  
  <!-- Champion Chicken -->
  <ellipse cx="210" cy="186" rx="5" ry="3" fill="#DEB887"/>
  <ellipse cx="210" cy="185" rx="4" ry="2" fill="#F5DEB3"/>
  
  <!-- Victory Balloons -->
  <g>
    <!-- Blue Balloon (Team Color) -->
    <ellipse cx="50" cy="90" rx="10" ry="15" fill="#4169E1"/>
    <ellipse cx="50" cy="87" rx="8" ry="13" fill="#6495ED"/>
    <line x1="50" y1="105" x2="50" y2="140" stroke="#FFD700" stroke-width="2"/>
    
    <!-- Gold Balloon (Victory) -->
    <ellipse cx="350" cy="80" rx="12" ry="18" fill="#FFD700"/>
    <ellipse cx="350" cy="77" rx="10" ry="16" fill="#FFA500"/>
    <line x1="350" y1="98" x2="350" y2="130" stroke="#4169E1" stroke-width="2"/>
    
    <!-- Orange Balloon (Energy) -->
    <ellipse cx="380" cy="100" rx="8" ry="12" fill="#FF8C00"/>
    <ellipse cx="380" cy="98" rx="6" ry="10" fill="#FFA500"/>
    <line x1="380" y1="112" x2="380" y2="145" stroke="#FFD700" stroke-width="2"/>
  </g>
  
  <!-- Team Banner -->
  <rect x="300" y="100" width="30" height="20" fill="#4169E1"/>
  <rect x="302" y="102" width="26" height="16" fill="#6495ED"/>
  <text x="315" y="110" text-anchor="middle" fill="#FFFFFF" font-family="Arial" font-size="8" font-weight="bold">CHAMPS</text>
  <text x="315" y="118" text-anchor="middle" fill="#FFD700" font-family="Arial" font-size="6">2024</text>
  
  <!-- Scoreboard -->
  <rect x="30" y="100" width="40" height="25" fill="#000000"/>
  <rect x="32" y="102" width="36" height="21" fill="#006400"/>
  <text x="50" y="110" text-anchor="middle" fill="#FFFFFF" font-family="Arial" font-size="8" font-weight="bold">FINAL</text>
  <text x="40" y="118" text-anchor="middle" fill="#FFD700" font-family="Arial" font-size="10" font-weight="bold">21</text>
  <text x="60" y="118" text-anchor="middle" fill="#FFFFFF" font-family="Arial" font-size="8">14</text>
  
  <!-- Victory Confetti -->
  <g fill="#FFD700" opacity="0.8">
    <rect x="140" y="60" width="2" height="2" transform="rotate(45 140 60)"/>
    <rect x="160" y="70" width="2" height="2" transform="rotate(30 160 70)"/>
    <rect x="240" y="65" width="2" height="2" transform="rotate(60 240 65)"/>
    <rect x="260" y="75" width="2" height="2" transform="rotate(15 260 75)"/>
    <rect x="280" y="80" width="2" height="2" transform="rotate(75 280 80)"/>
  </g>
  
  <!-- More Confetti -->
  <g fill="#FF4500" opacity="0.7">
    <circle cx="130" cy="80" r="1"/>
    <circle cx="180" cy="85" r="1"/>
    <circle cx="220" cy="90" r="1"/>
    <circle cx="270" cy="95" r="1"/>
    <circle cx="310" cy="85" r="1"/>
  </g>
  
  <!-- Championship Ring -->
  <ellipse cx="120" cy="180" rx="4" ry="2" fill="#FFD700"/>
  <circle cx="120" cy="180" r="2" fill="#FF1493"/>
  <circle cx="120" cy="180" r="1" fill="#FFFFFF"/>
  
  <!-- Victory Steam -->
  <g stroke="#FFD700" stroke-width="2" fill="none" opacity="0.8">
    <path d="M185 170 Q187 165 185 160 Q183 155 185 150"/>
    <path d="M200 170 Q202 165 200 160 Q198 155 200 150"/>
    <path d="M215 170 Q217 165 215 160 Q213 155 215 150"/>
  </g>
  
  <!-- Team Cheer -->
  <ellipse cx="200" cy="80" rx="40" ry="15" fill="#FFFFFF" stroke="#4169E1" stroke-width="2"/>
  <text x="200" y="77" text-anchor="middle" fill="#FF4500" font-family="Arial" font-size="10" font-weight="bold">
    "WE ARE THE CHAMPIONS!"
  </text>
  <text x="200" y="87" text-anchor="middle" fill="#4169E1" font-family="Arial" font-size="8">
    Victory Celebration
  </text>
  
  <!-- Victory Wreath -->
  <g stroke="#228B22" stroke-width="2" fill="none">
    <circle cx="350" cy="200" r="15"/>
  </g>
  <g fill="#228B22">
    <ellipse cx="345" cy="190" rx="2" ry="1"/>
    <ellipse cx="355" cy="195" rx="1" ry="2"/>
    <ellipse cx="350" cy="215" rx="2" ry="1"/>
    <ellipse cx="340" cy="205" rx="1" ry="2"/>
  </g>
  <circle cx="350" cy="200" r="3" fill="#FFD700"/>
  
  <!-- Coach Recognition -->
  <circle cx="80" cy="240" r="8" fill="#F4C2A1"/>
  <rect x="75" y="246" width="10" height="15" fill="#000080"/>
  <rect x="76" y="248" width="8" height="2" fill="#FFD700"/>
  <ellipse cx="80" cy="234" rx="5" ry="3" fill="#D3D3D3"/>
  <!-- Coach Whistle -->
  <circle cx="78" cy="250" r="1" fill="#C0C0C0"/>
  
  <!-- MVP Crown -->
  <g fill="#FFD700">
    <path d="M190 95 L195 90 L200 95 L205 90 L210 95 L205 100 L195 100 Z"/>
  </g>
  <circle cx="200" cy="95" r="2" fill="#FF1493"/>
  
  <!-- Victory Playlist -->
  <rect x="340" y="130" width="20" height="15" fill="#000000"/>
  <rect x="342" y="132" width="16" height="11" fill="#4169E1"/>
  <g fill="#FFFFFF" font-family="Arial" font-size="4">
    <text x="350" y="137" text-anchor="middle">♪ We Are</text>
    <text x="350" y="141" text-anchor="middle">Champions</text>
  </g>
  
  <!-- Team Statistics -->
  <rect x="20" y="200" width="30" height="25" fill="#FFFFFF"/>
  <rect x="22" y="202" width="26" height="21" fill="#F0F8FF"/>
  <g fill="#000080" font-family="Arial" font-size="5">
    <text x="35" y="208" text-anchor="middle">STATS</text>
    <text x="35" y="214" text-anchor="middle">Wins: 15</text>
    <text x="35" y="220" text-anchor="middle">MVP: 3</text>
  </g>
  
  <!-- Title -->
  <text x="200" y="15" text-anchor="middle" fill="#FF4500" font-family="Arial, sans-serif" font-size="22" font-weight="bold">
    Sports Victory Celebration Hibachi
  </text>
  
  <!-- Subtitle -->
  <text x="200" y="285" text-anchor="middle" fill="#8B4513" font-family="Arial, sans-serif" font-size="14">
    "Celebrating championship victories and team achievements with champions"
  </text>
  
  <defs>
    <linearGradient id="sportsGradient" x1="0%" y1="0%" x2="100%" y2="100%">
      <stop offset="0%" style="stop-color:#E6F3FF;stop-opacity:1" />
      <stop offset="50%" style="stop-color:#F0F8FF;stop-opacity:1" />
      <stop offset="100%" style="stop-color:#FFFACD;stop-opacity:1" />
    </linearGradient>
  </defs>
</svg>
