<svg width="400" height="300" viewBox="0 0 400 300" fill="none" xmlns="http://www.w3.org/2000/svg">
  <!-- Background -->
  <rect width="400" height="300" fill="url(#innovationGradient)"/>
  
  <!-- Tech Innovation Banner -->
  <g fill="#4169E1">
    <text x="200" y="25" text-anchor="middle" font-family="Arial" font-size="20" font-weight="bold">INNOVATION HIBACHI</text>
  </g>
  
  <!-- Modern Office Setting -->
  <rect x="0" y="250" width="400" height="50" fill="#2F4F4F"/>
  <rect x="0" y="250" width="400" height="10" fill="#4169E1"/>
  
  <!-- High-Tech Table Setup -->
  <ellipse cx="200" cy="200" rx="110" ry="40" fill="#C0C0C0"/>
  <ellipse cx="200" cy="195" rx="105" ry="35" fill="#D3D3D3"/>
  <ellipse cx="200" cy="192" rx="100" ry="32" fill="#E6E6FA"/>
  
  <!-- Smart Hibachi Setup -->
  <rect x="170" y="170" width="60" height="35" rx="8" fill="#4169E1"/>
  <rect x="175" y="175" width="50" height="25" rx="6" fill="#2F4F4F"/>
  <rect x="180" y="180" width="40" height="15" rx="4" fill="#1C1C1C"/>
  
  <!-- Digital Temperature Display -->
  <rect x="240" y="170" width="25" height="15" fill="#000000"/>
  <rect x="242" y="172" width="21" height="11" fill="#00FF00"/>
  <text x="252" y="179" text-anchor="middle" fill="#000000" font-family="Arial" font-size="8" font-weight="bold">350°F</text>
  
  <!-- Tech CEO/Entrepreneur -->
  <circle cx="200" cy="130" r="20" fill="#F4C2A1"/>
  <rect x="185" y="148" width="30" height="35" fill="#000080"/>
  <rect x="187" y="150" width="26" height="4" fill="#C0C0C0"/>
  <ellipse cx="200" cy="115" rx="12" ry="6" fill="#8B4513"/>
  
  <!-- Smart Watch -->
  <rect x="175" y="155" width="8" height="6" fill="#000000"/>
  <rect x="176" y="156" width="6" height="4" fill="#00FF00"/>
  <circle cx="179" cy="158" r="1" fill="#FFFFFF"/>
  
  <!-- CEO Features -->
  <circle cx="195" cy="128" r="1" fill="#000000"/>
  <circle cx="205" cy="128" r="1" fill="#000000"/>
  <path d="M200 135 Q195 140 200 145" stroke="#000000" stroke-width="1" fill="none"/>
  
  <!-- Tech Team Members -->
  
  <!-- Software Developer -->
  <circle cx="120" cy="140" r="18" fill="#F4C2A1"/>
  <rect x="107" y="156" width="26" height="32" fill="#8B008B"/>
  <ellipse cx="120" cy="125" rx="10" ry="5" fill="#FFD700"/>
  <circle cx="115" cy="138" r="1" fill="#000000"/>
  <circle cx="125" cy="138" r="1" fill="#000000"/>
  <path d="M120 145 Q115 150 120 155" stroke="#000000" stroke-width="1" fill="none"/>
  
  <!-- Laptop -->
  <rect x="110" y="170" width="20" height="12" fill="#C0C0C0"/>
  <rect x="112" y="172" width="16" height="8" fill="#000000"/>
  <g fill="#00FF00" font-family="Arial" font-size="3">
    <text x="120" y="175">{'code'}</text>
    <text x="120" y="178">{'dev'}</text>
  </g>
  
  <!-- Data Scientist -->
  <circle cx="280" cy="145" r="16" fill="#F4C2A1"/>
  <rect x="268" y="159" width="24" height="28" fill="#228B22"/>
  <ellipse cx="280" cy="132" rx="8" ry="4" fill="#000000"/>
  <circle cx="276" cy="143" r="1" fill="#000000"/>
  <circle cx="284" cy="143" r="1" fill="#000000"/>
  <path d="M280 150 Q275 155 280 160" stroke="#000000" stroke-width="1" fill="none"/>
  
  <!-- Tablet with Charts -->
  <rect x="290" y="165" width="15" height="20" fill="#4169E1"/>
  <rect x="292" y="167" width="11" height="16" fill="#FFFFFF"/>
  <g stroke="#FF0000" stroke-width="1" fill="none">
    <path d="M294 170 L296 175 L298 172 L300 178 L302 175"/>
  </g>
  
  <!-- UX Designer -->
  <circle cx="150" cy="220" r="14" fill="#F4C2A1"/>
  <rect x="139" y="232" width="22" height="26" fill="#FF69B4"/>
  <ellipse cx="150" cy="209" rx="7" ry="4" fill="#8B4513"/>
  <circle cx="146" cy="218" r="1" fill="#000000"/>
  <circle cx="154" cy="218" r="1" fill="#000000"/>
  <ellipse cx="150" cy="223" rx="3" ry="2" fill="#FF69B4"/>
  
  <!-- Design Sketches -->
  <rect x="140" y="245" width="20" height="15" fill="#FFFFFF"/>
  <g stroke="#FF69B4" stroke-width="1" fill="none">
    <circle cx="150" cy="250" r="3"/>
    <rect x="145" y="255" width="10" height="3"/>
  </g>
  
  <!-- Product Manager -->
  <circle cx="250" cy="225" r="12" fill="#F4C2A1"/>
  <rect x="241" y="235" width="18" height="22" fill="#FF6347"/>
  <ellipse cx="250" cy="216" rx="6" ry="3" fill="#FFD700"/>
  <circle cx="246" cy="223" r="1" fill="#000000"/>
  <circle cx="254" cy="223" r="1" fill="#000000"/>
  <ellipse cx="250" cy="227" rx="2" ry="1" fill="#FF69B4"/>
  
  <!-- Innovation Technology -->
  
  <!-- AI Assistant -->
  <circle cx="80" cy="160" r="15" fill="#4169E1"/>
  <circle cx="80" cy="160" r="12" fill="#6495ED"/>
  <text x="80" y="165" text-anchor="middle" fill="#FFFFFF" font-family="Arial" font-size="12" font-weight="bold">AI</text>
  
  <!-- Voice Recognition -->
  <g fill="#00FF00">
    <circle cx="70" cy="180" r="1"/>
    <circle cx="75" cy="175" r="1.5"/>
    <circle cx="80" cy="185" r="1"/>
    <circle cx="85" cy="175" r="1.5"/>
    <circle cx="90" cy="180" r="1"/>
  </g>
  
  <!-- Blockchain -->
  <g stroke="#FFD700" stroke-width="2" fill="none">
    <rect x="320" y="160" width="8" height="8"/>
    <rect x="328" y="160" width="8" height="8"/>
    <rect x="336" y="160" width="8" height="8"/>
    <line x1="320" y1="164" x2="312" y2="164"/>
    <line x1="344" y1="164" x2="352" y2="164"/>
  </g>
  
  <!-- Cloud Computing -->
  <g fill="#87CEEB" opacity="0.8">
    <ellipse cx="350" cy="120" rx="15" ry="8"/>
    <ellipse cx="340" cy="125" rx="12" ry="6"/>
    <ellipse cx="360" cy="125" rx="10" ry="6"/>
  </g>
  <text x="350" y="125" text-anchor="middle" fill="#4169E1" font-family="Arial" font-size="6">CLOUD</text>
  
  <!-- IoT Sensors -->
  <g fill="#FF6347">
    <circle cx="60" cy="200" r="3"/>
    <circle cx="340" cy="200" r="3"/>
    <circle cx="60" cy="100" r="3"/>
    <circle cx="340" cy="100" r="3"/>
  </g>
  <g stroke="#FF6347" stroke-width="1" opacity="0.5">
    <line x1="60" y1="200" x2="200" y2="180"/>
    <line x1="340" y1="200" x2="200" y2="180"/>
    <line x1="60" y1="100" x2="200" y2="120"/>
    <line x1="340" y1="100" x2="200" y2="120"/>
  </g>
  
  <!-- Innovation Flames -->
  <g opacity="0.9">
    <ellipse cx="185" cy="177" rx="5" ry="10" fill="#4169E1"/>
    <ellipse cx="200" cy="175" rx="6" ry="12" fill="#00FF00"/>
    <ellipse cx="215" cy="177" rx="5" ry="10" fill="#FF6347"/>
  </g>
  
  <!-- Future Food -->
  <!-- Lab-Grown Meat -->
  <ellipse cx="190" cy="185" rx="6" ry="4" fill="#8B0000"/>
  <ellipse cx="190" cy="184" rx="5" ry="3" fill="#B22222"/>
  <circle cx="188" cy="183" r="0.5" fill="#00FF00"/>
  
  <!-- Smart Vegetables -->
  <ellipse cx="210" cy="186" rx="5" ry="3" fill="#32CD32"/>
  <ellipse cx="210" cy="185" rx="4" ry="2" fill="#90EE90"/>
  <circle cx="208" cy="184" r="0.5" fill="#0000FF"/>
  
  <!-- Innovation Equipment -->
  
  <!-- 3D Food Printer -->
  <rect x="300" y="180" width="20" height="25" fill="#C0C0C0"/>
  <rect x="302" y="182" width="16" height="21" fill="#4169E1"/>
  <rect x="304" y="195" width="12" height="8" fill="#FFFFFF"/>
  <text x="310" y="199" text-anchor="middle" fill="#000000" font-family="Arial" font-size="4">3D PRINT</text>
  
  <!-- Molecular Gastronomy Kit -->
  <g>
    <ellipse cx="80" cy="240" rx="6" ry="15" fill="#E6E6FA"/>
    <ellipse cx="80" cy="235" rx="4" ry="10" fill="#DDA0DD"/>
    <circle cx="80" cy="225" r="2" fill="#9400D3"/>
  </g>
  
  <!-- Precision Instruments -->
  <rect x="320" y="230" width="15" height="3" fill="#C0C0C0"/>
  <circle cx="335" cy="231" r="2" fill="#FFD700"/>
  
  <!-- Digital Innovation Display -->
  
  <!-- Holographic Interface -->
  <g stroke="#00FFFF" stroke-width="2" fill="none" opacity="0.7">
    <circle cx="200" cy="80" r="20"/>
    <circle cx="200" cy="80" r="15"/>
    <circle cx="200" cy="80" r="10"/>
  </g>
  <text x="200" y="85" text-anchor="middle" fill="#00FFFF" font-family="Arial" font-size="8" font-weight="bold">FUTURE</text>
  
  <!-- Data Visualization -->
  <rect x="30" y="80" width="40" height="30" fill="#000000"/>
  <rect x="32" y="82" width="36" height="26" fill="#001a33"/>
  <g stroke="#00FF00" stroke-width="1" fill="none">
    <path d="M35 100 L40 95 L45 98 L50 90 L55 92 L60 85 L65 88"/>
  </g>
  <g fill="#FFFF00">
    <circle cx="35" cy="100" r="1"/>
    <circle cx="45" cy="98" r="1"/>
    <circle cx="55" cy="92" r="1"/>
    <circle cx="65" cy="88" r="1"/>
  </g>
  
  <!-- Innovation Metrics -->
  <rect x="350" y="80" width="30" height="25" fill="#FFFFFF"/>
  <rect x="352" y="82" width="26" height="21" fill="#F0F8FF"/>
  <g fill="#4169E1" font-family="Arial" font-size="5">
    <text x="365" y="88" text-anchor="middle">METRICS</text>
    <text x="365" y="94" text-anchor="middle">ROI: 300%</text>
    <text x="365" y="100" text-anchor="middle">Users: 1M</text>
  </g>
  
  <!-- Startup Environment -->
  
  <!-- Venture Capital -->
  <rect x="20" y="200" width="25" height="20" fill="#228B22"/>
  <rect x="22" y="202" width="21" height="16" fill="#32CD32"/>
  <text x="32" y="208" text-anchor="middle" fill="#FFFFFF" font-family="Arial" font-size="6" font-weight="bold">VC</text>
  <text x="32" y="215" text-anchor="middle" fill="#FFFFFF" font-family="Arial" font-size="4">FUNDING</text>
  
  <!-- Patent Documents -->
  <rect x="340" y="240" width="20" height="25" fill="#FFFACD"/>
  <rect x="342" y="242" width="16" height="21" fill="#FFF8DC"/>
  <g fill="#8B4513" font-family="Arial" font-size="4">
    <text x="350" y="248" text-anchor="middle">PATENT</text>
    <text x="350" y="253" text-anchor="middle">PENDING</text>
    <text x="350" y="258" text-anchor="middle">#2025-123</text>
  </g>
  
  <!-- Innovation Steam -->
  <g stroke="#00FFFF" stroke-width="2" fill="none" opacity="0.8">
    <path d="M185 170 Q187 165 185 160 Q183 155 185 150"/>
    <path d="M200 170 Q202 165 200 160 Q198 155 200 150"/>
    <path d="M215 170 Q217 165 215 160 Q213 155 215 150"/>
  </g>
  
  <!-- Future Vision -->
  <g fill="#FFD700" opacity="0.6">
    <path d="M180 60 L185 50 L190 55 L195 45 L200 55 L205 45 L210 55 L215 50 L220 60 Z"/>
  </g>
  <text x="200" y="55" text-anchor="middle" fill="#4169E1" font-family="Arial" font-size="8" font-weight="bold">INNOVATION</text>
  
  <!-- Network Connections -->
  <g stroke="#4169E1" stroke-width="1" opacity="0.4">
    <line x1="120" y1="140" x2="200" y2="130"/>
    <line x1="200" y1="130" x2="280" y2="145"/>
    <line x1="280" y1="145" x2="150" y2="220"/>
    <line x1="150" y1="220" x2="250" y2="225"/>
    <line x1="250" y1="225" x2="200" y2="130"/>
  </g>
  
  <!-- Innovation Mindset Bubble -->
  <ellipse cx="200" cy="100" rx="35" ry="20" fill="#FFFFFF" stroke="#4169E1" stroke-width="2" opacity="0.9"/>
  <text x="200" y="95" text-anchor="middle" fill="#4169E1" font-family="Arial" font-size="8" font-weight="bold">
    "Think Different,
  </text>
  <text x="200" y="105" text-anchor="middle" fill="#4169E1" font-family="Arial" font-size="8" font-weight="bold">
    Cook Different"
  </text>
  
  <!-- Digital Currency -->
  <circle cx="380" cy="60" r="10" fill="#FFD700"/>
  <text x="380" y="65" text-anchor="middle" fill="#000000" font-family="Arial" font-size="8" font-weight="bold">₿</text>
  
  <!-- Innovation Lab Equipment -->
  <rect x="25" y="120" width="30" height="20" fill="#C0C0C0"/>
  <rect x="27" y="122" width="26" height="16" fill="#E6E6FA"/>
  <g fill="#FF0000">
    <circle cx="35" cy="128" r="1"/>
    <circle cx="40" cy="130" r="1"/>
    <circle cx="45" cy="128" r="1"/>
  </g>
  <text x="40" y="135" text-anchor="middle" fill="#000000" font-family="Arial" font-size="4">LAB</text>
  
  <!-- Tech Disruption Symbol -->
  <g stroke="#FF6347" stroke-width="3" fill="none">
    <path d="M350 180 Q360 190 350 200 Q340 190 350 180"/>
  </g>
  <text x="350" y="195" text-anchor="middle" fill="#FF6347" font-family="Arial" font-size="6" font-weight="bold">DISRUPT</text>
  
  <!-- Title -->
  <text x="200" y="15" text-anchor="middle" fill="#4169E1" font-family="Arial, sans-serif" font-size="22" font-weight="bold">
    Tech Innovation Hibachi Experience
  </text>
  
  <!-- Subtitle -->
  <text x="200" y="285" text-anchor="middle" fill="#2F4F4F" font-family="Arial, sans-serif" font-size="14">
    "Where cutting-edge technology meets culinary innovation"
  </text>
  
  <defs>
    <linearGradient id="innovationGradient" x1="0%" y1="0%" x2="100%" y2="100%">
      <stop offset="0%" style="stop-color:#E6F3FF;stop-opacity:1" />
      <stop offset="25%" style="stop-color:#F0F8FF;stop-opacity:1" />
      <stop offset="75%" style="stop-color:#F5F5F5;stop-opacity:1" />
      <stop offset="100%" style="stop-color:#E6E6FA;stop-opacity:1" />
    </linearGradient>
  </defs>
</svg>
