<svg width="400" height="300" viewBox="0 0 400 300" fill="none" xmlns="http://www.w3.org/2000/svg">
  <!-- Background -->
  <rect width="400" height="300" fill="url(#babyShowerGradient)"/>
  
  <!-- Baby Shower Banner -->
  <path d="M50 30 Q200 40 350 30" stroke="#FFB6C1" stroke-width="4" fill="none"/>
  <g fill="#FF69B4">
    <text x="200" y="25" text-anchor="middle" font-family="Arial" font-size="20" font-weight="bold">BABY SHOWER</text>
  </g>
  
  <!-- Baby-Themed Table Setup -->
  <ellipse cx="200" cy="200" rx="110" ry="40" fill="#8B4513"/>
  <ellipse cx="200" cy="195" rx="105" ry="35" fill="#DEB887"/>
  <ellipse cx="200" cy="192" rx="100" ry="32" fill="#F5DEB3"/>
  
  <!-- Baby Bottle Centerpiece -->
  <rect x="190" y="145" width="8" height="25" fill="#E6E6FA"/>
  <ellipse cx="194" cy="142" rx="5" ry="3" fill="#FFB6C1"/>
  <circle cx="194" cy="140" r="2" fill="#FF69B4"/>
  <rect x="192" y="155" width="4" height="8" fill="#87CEEB"/>
  
  <!-- Diaper Cake -->
  <ellipse cx="210" cy="160" rx="12" ry="8" fill="#FFFFFF"/>
  <ellipse cx="210" cy="155" rx="10" ry="6" fill="#F8F8FF"/>
  <ellipse cx="210" cy="152" rx="8" ry="4" fill="#E6E6FA"/>
  <circle cx="210" cy="150" r="2" fill="#FFB6C1"/>
  
  <!-- Hibachi Setup -->
  <rect x="170" y="170" width="60" height="35" rx="8" fill="#FFB6C1"/>
  <rect x="175" y="175" width="50" height="25" rx="6" fill="#2F4F4F"/>
  <rect x="180" y="180" width="40" height="15" rx="4" fill="#1C1C1C"/>
  
  <!-- Expecting Mother (Guest of Honor) -->
  <circle cx="200" cy="125" r="22" fill="#F4C2A1"/>
  <rect x="182" y="145" width="36" height="40" fill="#FFB6C1"/>
  <ellipse cx="200" cy="165" rx="20" ry="8" fill="#FFB6C1"/>
  <ellipse cx="200" cy="110" rx="15" ry="8" fill="#8B4513"/>
  
  <!-- Maternity Dress Details -->
  <g fill="#FFFFFF">
    <circle cx="195" cy="155" r="1"/>
    <circle cx="205" cy="155" r="1"/>
    <circle cx="200" cy="165" r="1"/>
  </g>
  
  <!-- Mother's Features -->
  <circle cx="195" cy="123" r="1" fill="#000000"/>
  <circle cx="205" cy="123" r="1" fill="#000000"/>
  <path d="M200 130 Q195 135 200 140" stroke="#FF69B4" stroke-width="1" fill="none"/>
  
  <!-- Pregnancy Glow -->
  <circle cx="200" cy="125" r="25" stroke="#FFD700" stroke-width="2" fill="none" opacity="0.3"/>
  
  <!-- Baby Shower Guests -->
  
  <!-- Best Friend -->
  <circle cx="120" cy="140" r="18" fill="#F4C2A1"/>
  <rect x="107" y="156" width="26" height="32" fill="#8A2BE2"/>
  <ellipse cx="120" cy="125" rx="10" ry="5" fill="#FFD700"/>
  <circle cx="115" cy="138" r="1" fill="#000000"/>
  <circle cx="125" cy="138" r="1" fill="#000000"/>
  <path d="M120 145 Q115 150 120 155" stroke="#FF69B4" stroke-width="1" fill="none"/>
  
  <!-- Gift Bag -->
  <rect x="110" y="180" width="12" height="15" fill="#FFB6C1"/>
  <rect x="111" y="181" width="10" height="13" fill="#FFC0CB"/>
  <g stroke="#FF1493" stroke-width="1">
    <line x1="116" y1="175" x2="116" y2="180"/>
    <line x1="113" y1="177" x2="119" y2="177"/>
  </g>
  
  <!-- Mother-in-Law -->
  <circle cx="280" cy="145" r="16" fill="#F4C2A1"/>
  <rect x="268" y="159" width="24" height="28" fill="#4B0082"/>
  <ellipse cx="280" cy="132" rx="8" ry="4" fill="#D3D3D3"/>
  <circle cx="276" cy="143" r="1" fill="#000000"/>
  <circle cx="284" cy="143" r="1" fill="#000000"/>
  <path d="M280 150 Q275 155 280 160" stroke="#000000" stroke-width="1" fill="none"/>
  
  <!-- Grandmother -->
  <circle cx="150" cy="220" r="14" fill="#F4C2A1"/>
  <rect x="139" y="232" width="22" height="26" fill="#800080"/>
  <ellipse cx="150" cy="209" rx="7" ry="4" fill="#FFFFFF"/>
  <circle cx="146" cy="218" r="1" fill="#000000"/>
  <circle cx="154" cy="218" r="1" fill="#000000"/>
  <ellipse cx="150" cy="223" rx="3" ry="2" fill="#FF69B4"/>
  
  <!-- Baby Blanket -->
  <rect x="140" y="245" width="20" height="15" fill="#87CEEB"/>
  <g fill="#FFFFFF">
    <circle cx="145" cy="250" r="1"/>
    <circle cx="155" cy="250" r="1"/>
    <circle cx="150" cy="255" r="1"/>
  </g>
  
  <!-- Sister -->
  <circle cx="250" cy="225" r="12" fill="#F4C2A1"/>
  <rect x="241" y="235" width="18" height="22" fill="#FF1493"/>
  <ellipse cx="250" cy="216" rx="6" ry="3" fill="#8B4513"/>
  <circle cx="246" cy="223" r="1" fill="#000000"/>
  <circle cx="254" cy="223" r="1" fill="#000000"/>
  <ellipse cx="250" cy="227" rx="2" ry="1" fill="#FF69B4"/>
  
  <!-- Baby Shower Decorations -->
  
  <!-- Pink and Blue Balloons -->
  <g>
    <!-- Pink Balloon -->
    <ellipse cx="50" cy="80" rx="10" ry="15" fill="#FFB6C1"/>
    <ellipse cx="50" cy="77" rx="8" ry="13" fill="#FFC0CB"/>
    <line x1="50" y1="95" x2="50" y2="130" stroke="#FF69B4" stroke-width="2"/>
    
    <!-- Blue Balloon -->
    <ellipse cx="350" cy="90" rx="12" ry="18" fill="#87CEEB"/>
    <ellipse cx="350" cy="87" rx="10" ry="16" fill="#ADD8E6"/>
    <line x1="350" y1="108" x2="350" y2="140" stroke="#4169E1" stroke-width="2"/>
    
    <!-- Yellow Balloon -->
    <ellipse cx="380" cy="110" rx="8" ry="12" fill="#FFD700"/>
    <ellipse cx="380" cy="108" rx="6" ry="10" fill="#FFFF00"/>
    <line x1="380" y1="122" x2="380" y2="155" stroke="#FFA500" stroke-width="2"/>
  </g>
  
  <!-- Baby Mobile -->
  <g stroke="#FFB6C1" stroke-width="2" fill="none">
    <line x1="180" y1="60" x2="220" y2="60"/>
    <line x1="190" y1="60" x2="190" y2="70"/>
    <line x1="200" y1="60" x2="200" y2="75"/>
    <line x1="210" y1="60" x2="210" y2="70"/>
  </g>
  <g fill="#87CEEB">
    <circle cx="190" cy="72" r="3"/>
    <circle cx="210" cy="72" r="3"/>
  </g>
  <circle cx="200" cy="77" r="4" fill="#FFD700"/>
  
  <!-- Baby Shower Games -->
  
  <!-- Guess the Baby Food -->
  <g>
    <rect x="80" y="190" width="8" height="12" fill="#DEB887"/>
    <ellipse cx="84" cy="188" rx="4" ry="2" fill="#FFA500"/>
    <text x="84" y="210" text-anchor="middle" fill="#8B4513" font-family="Arial" font-size="5">Carrots</text>
    
    <rect x="95" y="192" width="8" height="12" fill="#DEB887"/>
    <ellipse cx="99" cy="190" rx="4" ry="2" fill="#32CD32"/>
    <text x="99" y="212" text-anchor="middle" fill="#8B4513" font-family="Arial" font-size="5">Peas</text>
  </g>
  
  <!-- Baby Bingo Cards -->
  <rect x="320" y="180" width="20" height="25" fill="#FFFFFF"/>
  <rect x="322" y="182" width="16" height="21" fill="#F8F8FF"/>
  <g stroke="#FF69B4" stroke-width="1">
    <line x1="324" y1="185" x2="336" y2="185"/>
    <line x1="324" y1="190" x2="336" y2="190"/>
    <line x1="324" y1="195" x2="336" y2="195"/>
    <line x1="327" y1="182" x2="327" y2="203"/>
    <line x1="333" y1="182" x2="333" y2="203"/>
  </g>
  <text x="330" y="208" text-anchor="middle" fill="#FF69B4" font-family="Arial" font-size="5">BINGO</text>
  
  <!-- Baby Shower Flames -->
  <g opacity="0.9">
    <ellipse cx="185" cy="177" rx="5" ry="10" fill="#FFB6C1"/>
    <ellipse cx="200" cy="175" rx="6" ry="12" fill="#87CEEB"/>
    <ellipse cx="215" cy="177" rx="5" ry="10" fill="#FFD700"/>
  </g>
  
  <!-- Baby-Friendly Food -->
  <!-- Organic Vegetables -->
  <ellipse cx="190" cy="185" rx="6" ry="4" fill="#32CD32"/>
  <ellipse cx="190" cy="184" rx="5" ry="3" fill="#90EE90"/>
  
  <!-- Lean Protein -->
  <ellipse cx="210" cy="186" rx="5" ry="3" fill="#DEB887"/>
  <ellipse cx="210" cy="185" rx="4" ry="2" fill="#F5DEB3"/>
  
  <!-- Baby Footprints -->
  <g fill="#FFB6C1" opacity="0.6">
    <ellipse cx="140" cy="100" rx="3" ry="6"/>
    <circle cx="138" cy="95" r="1"/>
    <circle cx="140" cy="95" r="1"/>
    <circle cx="142" cy="95" r="1"/>
    <circle cx="139" cy="93" r="0.5"/>
    <circle cx="141" cy="93" r="0.5"/>
    
    <ellipse cx="260" cy="110" rx="3" ry="6"/>
    <circle cx="258" cy="105" r="1"/>
    <circle cx="260" cy="105" r="1"/>
    <circle cx="262" cy="105" r="1"/>
    <circle cx="259" cy="103" r="0.5"/>
    <circle cx="261" cy="103" r="0.5"/>
  </g>
  
  <!-- Baby Toys -->
  
  <!-- Rattle -->
  <circle cx="330" cy="220" r="4" fill="#FFD700"/>
  <rect x="328" y="224" width="4" height="12" fill="#8B4513"/>
  <circle cx="330" cy="236" r="3" fill="#87CEEB"/>
  
  <!-- Teddy Bear -->
  <circle cx="80" cy="240" r="6" fill="#8B4513"/>
  <circle cx="77" cy="237" r="2" fill="#8B4513"/>
  <circle cx="83" cy="237" r="2" fill="#8B4513"/>
  <circle cx="78" cy="238" r="0.5" fill="#000000"/>
  <circle cx="82" cy="238" r="0.5" fill="#000000"/>
  <ellipse cx="80" cy="241" rx="1" ry="0.5" fill="#000000"/>
  
  <!-- Pacifier -->
  <circle cx="370" cy="190" r="3" fill="#FFB6C1"/>
  <circle cx="370" cy="190" r="2" fill="#FF69B4"/>
  <rect x="369" y="193" width="2" height="5" fill="#87CEEB"/>
  
  <!-- Baby Shower Cards -->
  <rect x="300" y="240" width="15" height="20" fill="#FFB6C1"/>
  <rect x="302" y="242" width="11" height="16" fill="#FFC0CB"/>
  <g fill="#FF1493" font-family="Arial" font-size="4">
    <text x="307" y="248" text-anchor="middle">Welcome</text>
    <text x="307" y="253" text-anchor="middle">Baby!</text>
  </g>
  
  <!-- Baby Name Suggestions -->
  <rect x="30" y="150" width="25" height="30" fill="#FFFFFF"/>
  <rect x="32" y="152" width="21" height="26" fill="#F0F8FF"/>
  <g fill="#4169E1" font-family="Arial" font-size="5">
    <text x="42" y="158" text-anchor="middle">NAMES</text>
    <text x="42" y="164" text-anchor="middle">Emma</text>
    <text x="42" y="170" text-anchor="middle">Noah</text>
    <text x="42" y="176" text-anchor="middle">Olivia</text>
  </g>
  
  <!-- Baby Steam -->
  <g stroke="#FFB6C1" stroke-width="2" fill="none" opacity="0.8">
    <path d="M185 170 Q187 165 185 160 Q183 155 185 150"/>
    <path d="M200 170 Q202 165 200 160 Q198 155 200 150"/>
    <path d="M215 170 Q217 165 215 160 Q213 155 215 150"/>
  </g>
  
  <!-- Baby Shower Wishes -->
  <ellipse cx="200" cy="80" rx="40" ry="15" fill="#FFFFFF" stroke="#FFB6C1" stroke-width="2"/>
  <text x="200" y="77" text-anchor="middle" fill="#FF69B4" font-family="Arial" font-size="10" font-weight="bold">
    "Blessing this little miracle!"
  </text>
  <text x="200" y="87" text-anchor="middle" fill="#4169E1" font-family="Arial" font-size="8">
    Baby Love Celebration
  </text>
  
  <!-- Due Date Calendar -->
  <rect x="340" y="130" width="25" height="20" fill="#FFFFFF"/>
  <rect x="342" y="132" width="21" height="16" fill="#F0F8FF"/>
  <text x="352" y="140" text-anchor="middle" fill="#FF69B4" font-family="Arial" font-size="8" font-weight="bold">DUE</text>
  <text x="352" y="148" text-anchor="middle" fill="#4169E1" font-family="Arial" font-size="6">SEPT 15</text>
  
  <!-- Baby Measurements -->
  <rect x="20" y="230" width="30" height="20" fill="#87CEEB"/>
  <rect x="22" y="232" width="26" height="16" fill="#E0F6FF"/>
  <g fill="#4169E1" font-family="Arial" font-size="5">
    <text x="35" y="238" text-anchor="middle">SIZE</text>
    <text x="35" y="244" text-anchor="middle">6 lbs</text>
    <text x="35" y="250" text-anchor="middle">20 in</text>
  </g>
  
  <!-- Heart Confetti -->
  <g fill="#FF69B4" opacity="0.7">
    <path d="M160 65 Q162 63 164 65 Q166 63 168 65 Q168 69 164 73 Q160 69 160 65"/>
    <path d="M240 70 Q242 68 244 70 Q246 68 248 70 Q248 74 244 78 Q240 74 240 70"/>
    <path d="M320 65 Q322 63 324 65 Q326 63 328 65 Q328 69 324 73 Q320 69 320 65"/>
  </g>
  
  <!-- Title -->
  <text x="200" y="15" text-anchor="middle" fill="#FF69B4" font-family="Arial, sans-serif" font-size="22" font-weight="bold">
    Baby Shower Celebration Hibachi
  </text>
  
  <!-- Subtitle -->
  <text x="200" y="285" text-anchor="middle" fill="#8B4513" font-family="Arial, sans-serif" font-size="14">
    "Celebrating new life with love, laughter, and delicious food"
  </text>
  
  <defs>
    <linearGradient id="babyShowerGradient" x1="0%" y1="0%" x2="100%" y2="100%">
      <stop offset="0%" style="stop-color:#FFF0F5;stop-opacity:1" />
      <stop offset="50%" style="stop-color:#F8F8FF;stop-opacity:1" />
      <stop offset="100%" style="stop-color:#E6E6FA;stop-opacity:1" />
    </linearGradient>
  </defs>
</svg>
