<svg width="400" height="300" viewBox="0 0 400 300" fill="none" xmlns="http://www.w3.org/2000/svg">
  <!-- Background -->
  <rect width="400" height="300" fill="url(#businessGradient)"/>
  
  <!-- Office Building Backdrop -->
  <rect x="50" y="80" width="40" height="120" fill="#708090"/>
  <rect x="52" y="82" width="36" height="116" fill="#778899"/>
  
  <!-- Building Windows -->
  <g fill="#87CEEB">
    <rect x="55" y="90" width="6" height="8"/>
    <rect x="65" y="90" width="6" height="8"/>
    <rect x="75" y="90" width="6" height="8"/>
    <rect x="55" y="105" width="6" height="8"/>
    <rect x="65" y="105" width="6" height="8"/>
    <rect x="75" y="105" width="6" height="8"/>
    <rect x="55" y="120" width="6" height="8"/>
    <rect x="65" y="120" width="6" height="8"/>
    <rect x="75" y="120" width="6" height="8"/>
  </g>
  
  <!-- Conference Room Setup -->
  <rect x="150" y="160" width="120" height="40" rx="8" fill="#2F4F4F"/>
  <rect x="158" y="168" width="104" height="26" rx="5" fill="#1C3A1C"/>
  <rect x="165" y="175" width="90" height="15" rx="3" fill="#4A4A4A"/>
  
  <!-- Executive Table -->
  <ellipse cx="210" cy="210" rx="80" ry="25" fill="#8B4513"/>
  <ellipse cx="210" cy="205" rx="75" ry="20" fill="#A0522D"/>
  <ellipse cx="210" cy="202" rx="70" ry="17" fill="#DEB887"/>
  
  <!-- Professional Chef -->
  <circle cx="150" cy="135" r="16" fill="#F4C2A1"/>
  <rect x="140" y="149" width="20" height="30" fill="#000080"/>
  <rect x="142" y="151" width="16" height="3" fill="#FFFFFF"/>
  
  <!-- Chef's Professional Hat -->
  <ellipse cx="150" cy="120" rx="12" ry="8" fill="#FFFFFF"/>
  <rect x="138" y="120" width="24" height="8" fill="#FFFFFF"/>
  <rect x="140" y="118" width="20" height="4" fill="#E0E0E0"/>
  
  <!-- Chef's Bow Tie -->
  <ellipse cx="150" cy="151" rx="3" ry="1.5" fill="#FF0000"/>
  <rect x="148" y="150" width="4" height="1" fill="#8B0000"/>
  
  <!-- Business Executives -->
  <!-- Executive 1 -->
  <circle cx="280" cy="140" r="14" fill="#F4C2A1"/>
  <rect x="272" y="152" width="16" height="26" fill="#2F4F4F"/>
  <rect x="274" y="154" width="12" height="2" fill="#FF6347"/>
  <circle cx="276" cy="135" r="1" fill="#000000"/>
  <circle cx="284" cy="135" r="1" fill="#000000"/>
  <path d="M280 138 Q280 142 285 142" stroke="#000000" stroke-width="1" fill="none"/>
  
  <!-- Briefcase -->
  <rect x="295" y="170" width="12" height="8" fill="#654321"/>
  <rect x="296" y="171" width="10" height="6" fill="#8B4513"/>
  <rect x="300" y="169" width="2" height="2" fill="#FFD700"/>
  
  <!-- Executive 2 -->
  <circle cx="320" cy="150" r="12" fill="#F4C2A1"/>
  <rect x="314" y="160" width="12" height="22" fill="#000080"/>
  <rect x="315" y="161" width="10" height="2" fill="#0000FF"/>
  
  <!-- Laptop -->
  <rect x="325" y="165" width="15" height="10" fill="#C0C0C0"/>
  <rect x="326" y="166" width="13" height="8" fill="#000000"/>
  <rect x="327" y="167" width="11" height="6" fill="#4169E1"/>
  
  <!-- Corporate Food Setup -->
  <!-- Gourmet Appetizers -->
  <circle cx="190" cy="200" r="3" fill="#FFD700"/>
  <circle cx="190" cy="200" r="2" fill="#FFA500"/>
  <circle cx="189" cy="199" r="0.5" fill="#FF6347"/>
  
  <!-- Sushi Rolls -->
  <ellipse cx="210" cy="198" rx="4" ry="2" fill="#FFFFFF"/>
  <ellipse cx="210" cy="197" rx="3" ry="1.5" fill="#FF6347"/>
  <rect x="208" y="196" width="4" height="1" fill="#228B22"/>
  
  <!-- Executive Steak -->
  <ellipse cx="230" cy="200" rx="5" ry="3" fill="#8B4513"/>
  <ellipse cx="230" cy="199" rx="4" ry="2" fill="#A0522D"/>
  <g stroke="#FF0000" stroke-width="1" opacity="0.8">
    <line x1="227" y1="199" x2="233" y2="199"/>
  </g>
  
  <!-- Business Accessories -->
  <!-- Tablets/iPads -->
  <rect x="240" y="175" width="8" height="12" fill="#000000"/>
  <rect x="241" y="176" width="6" height="10" fill="#4169E1"/>
  <circle cx="244" cy="185" r="0.5" fill="#FFFFFF"/>
  
  <rect x="255" y="180" width="8" height="12" fill="#000000"/>
  <rect x="256" y="181" width="6" height="10" fill="#32CD32"/>
  
  <!-- Business Cards -->
  <rect x="180" y="185" width="10" height="6" fill="#FFFFFF"/>
  <rect x="181" y="186" width="8" height="4" fill="#F5F5F5"/>
  <line x1="182" y1="188" x2="188" y2="188" stroke="#000000" stroke-width="0.5"/>
  <line x1="182" y1="189" x2="185" y2="189" stroke="#000000" stroke-width="0.5"/>
  
  <!-- Water Bottles -->
  <rect x="350" y="175" width="4" height="12" fill="#87CEEB"/>
  <circle cx="352" cy="173" r="1" fill="#4169E1"/>
  <rect x="351" y="177" width="2" height="8" fill="#E0F6FF"/>
  
  <!-- Professional Equipment -->
  <!-- Projector Screen -->
  <rect x="300" y="90" width="60" height="40" fill="#FFFFFF"/>
  <rect x="305" y="95" width="50" height="30" fill="#F0F8FF"/>
  
  <!-- Presentation Content -->
  <text x="330" y="105" text-anchor="middle" fill="#8B0000" font-family="Arial" font-size="10" font-weight="bold">
    CATERING MENU
  </text>
  <rect x="310" y="110" width="40" height="2" fill="#228B22"/>
  <text x="315" y="118" fill="#000000" font-family="Arial" font-size="6">• Premium Options</text>
  <text x="315" y="124" fill="#000000" font-family="Arial" font-size="6">• Corporate Packages</text>
  
  <!-- Conference Phone -->
  <ellipse cx="210" cy="190" rx="8" ry="4" fill="#2F4F4F"/>
  <ellipse cx="210" cy="188" rx="6" ry="3" fill="#4A4A4A"/>
  <circle cx="210" cy="188" r="1" fill="#00FF00"/>
  <circle cx="206" cy="188" r="0.5" fill="#FF0000"/>
  <circle cx="214" cy="188" r="0.5" fill="#FFD700"/>
  
  <!-- Office Plants -->
  <rect x="30" y="170" width="6" height="30" fill="#8B4513"/>
  <ellipse cx="33" cy="165" rx="8" ry="12" fill="#228B22"/>
  <ellipse cx="33" cy="160" rx="6" ry="8" fill="#32CD32"/>
  
  <rect x="370" y="180" width="5" height="20" fill="#8B4513"/>
  <ellipse cx="372" cy="175" rx="6" ry="10" fill="#228B22"/>
  
  <!-- Corporate Flames -->
  <ellipse cx="180" cy="177" rx="4" ry="8" fill="#4169E1" opacity="0.8"/>
  <ellipse cx="210" cy="175" rx="5" ry="10" fill="#000080" opacity="0.9"/>
  <ellipse cx="240" cy="177" rx="4" ry="8" fill="#191970" opacity="0.8"/>
  
  <!-- Executive Steam -->
  <g stroke="#696969" stroke-width="2" fill="none" opacity="0.6">
    <path d="M180 172 Q182 167 180 162 Q178 157 180 152"/>
    <path d="M210 172 Q212 167 210 162 Q208 157 210 152"/>
    <path d="M240 172 Q242 167 240 162 Q238 157 240 152"/>
  </g>
  
  <!-- Corporate Logo -->
  <circle cx="350" cy="60" r="15" fill="#8B0000"/>
  <circle cx="350" cy="60" r="10" fill="#DC143C"/>
  <text x="350" y="55" text-anchor="middle" fill="#FFFFFF" font-family="Arial" font-size="8" font-weight="bold">MH</text>
  <text x="350" y="65" text-anchor="middle" fill="#FFFFFF" font-family="Arial" font-size="6">CATERING</text>
  
  <!-- Meeting Notes -->
  <rect x="120" y="170" width="20" height="15" fill="#FFFFFF"/>
  <rect x="121" y="171" width="18" height="13" fill="#F5F5F5"/>
  <g stroke="#000000" stroke-width="0.5">
    <line x1="123" y1="174" x2="137" y2="174"/>
    <line x1="123" y1="177" x2="137" y2="177"/>
    <line x1="123" y1="180" x2="134" y2="180"/>
  </g>
  <text x="130" y="168" text-anchor="middle" fill="#8B0000" font-family="Arial" font-size="6" font-weight="bold">AGENDA</text>
  
  <!-- Coffee Station -->
  <rect x="100" y="180" width="8" height="12" fill="#8B4513"/>
  <ellipse cx="104" cy="178" rx="3" ry="2" fill="#654321"/>
  <rect x="102" y="175" width="4" height="5" fill="#2F1B14"/>
  <g stroke="#FFFFFF" stroke-width="1" fill="none" opacity="0.8">
    <path d="M104 172 Q106 167 104 162"/>
  </g>
  
  <!-- Presentation Pointer -->
  <rect x="290" y="120" width="2" height="15" fill="#C0C0C0"/>
  <circle cx="291" cy="118" r="1" fill="#FF0000"/>
  
  <!-- Corporate Chairs -->
  <rect x="160" y="225" width="8" height="15" fill="#654321"/>
  <rect x="158" y="220" width="12" height="8" fill="#8B4513"/>
  <rect x="159" y="218" width="10" height="4" fill="#A0522D"/>
  
  <rect x="250" y="225" width="8" height="15" fill="#654321"/>
  <rect x="248" y="220" width="12" height="8" fill="#8B4513"/>
  <rect x="249" y="218" width="10" height="4" fill="#A0522D"/>
  
  <!-- Success Metrics -->
  <rect x="50" y="250" width="80" height="40" fill="#E6F3E6" stroke="#228B22" stroke-width="2"/>
  <text x="90" y="260" text-anchor="middle" fill="#228B22" font-family="Arial" font-size="10" font-weight="bold">
    SUCCESS METRICS
  </text>
  <text x="55" y="270" fill="#000000" font-family="Arial" font-size="8">• Client Satisfaction</text>
  <text x="55" y="278" fill="#000000" font-family="Arial" font-size="8">• Team Building</text>
  <text x="55" y="286" fill="#000000" font-family="Arial" font-size="8">• ROI Achievement</text>
  
  <!-- Title -->
  <text x="200" y="30" text-anchor="middle" fill="#000080" font-family="Arial, sans-serif" font-size="24" font-weight="bold">
    Corporate Team Building
  </text>
  
  <!-- Subtitle -->
  <text x="200" y="50" text-anchor="middle" fill="#2F4F4F" font-family="Arial, sans-serif" font-size="16">
    Executive • Professional • Team Unity • Success
  </text>
  
  <!-- Corporate Message -->
  <text x="200" y="285" text-anchor="middle" fill="#000080" font-family="Arial, sans-serif" font-size="14">
    "Building stronger teams through shared culinary experiences"
  </text>
  
  <defs>
    <linearGradient id="businessGradient" x1="0%" y1="0%" x2="100%" y2="100%">
      <stop offset="0%" style="stop-color:#F0F8FF;stop-opacity:1" />
      <stop offset="50%" style="stop-color:#E6E6FA;stop-opacity:1" />
      <stop offset="100%" style="stop-color:#F5F5F5;stop-opacity:1" />
    </linearGradient>
  </defs>
</svg>
