<svg width="400" height="300" viewBox="0 0 400 300" fill="none" xmlns="http://www.w3.org/2000/svg">
  <!-- Background -->
  <rect width="400" height="300" fill="url(#fremontGradient)"/>
  
  <!-- Fremont Hills -->
  <polygon points="0,140 60,90 120,110 180,80 240,100 300,70 360,90 400,80 400,300 0,300" fill="#8FBC8F" opacity="0.7"/>
  <polygon points="40,170 100,120 160,140 220,110 280,130 340,100 400,120 400,300 0,300" fill="#9ACD32" opacity="0.5"/>
  
  <!-- Tesla Factory -->
  <rect x="50" y="120" width="80" height="40" fill="#2F4F4F"/>
  <rect x="52" y="122" width="76" height="36" fill="#4682B4"/>
  <rect x="55" y="125" width="70" height="30" fill="#87CEEB"/>
  
  <!-- Tesla Logo -->
  <circle cx="90" cy="140" r="8" fill="#FFFFFF"/>
  <text x="90" y="145" text-anchor="middle" fill="#FF0000" font-family="Arial" font-size="10" font-weight="bold">T</text>
  
  <!-- Factory Windows -->
  <g fill="#FFD700">
    <rect x="60" y="130" width="4" height="6"/>
    <rect x="70" y="130" width="4" height="6"/>
    <rect x="80" y="130" width="4" height="6"/>
    <rect x="100" y="130" width="4" height="6"/>
    <rect x="110" y="130" width="4" height="6"/>
    <rect x="120" y="130" width="4" height="6"/>
  </g>
  
  <!-- Fremont Hibachi Setup -->
  <rect x="180" y="170" width="80" height="35" rx="8" fill="#FF6347"/>
  <rect x="188" y="178" width="64" height="22" rx="5" fill="#2D1810"/>
  <rect x="195" y="185" width="50" height="12" rx="3" fill="#4A4A4A"/>
  
  <!-- Tech-Inspired Table -->
  <ellipse cx="220" cy="210" rx="70" ry="25" fill="#4682B4"/>
  <ellipse cx="220" cy="205" rx="65" ry="20" fill="#87CEEB"/>
  <ellipse cx="220" cy="202" rx="60" ry="17" fill="#B0E0E6"/>
  
  <!-- Tech-Savvy Chef -->
  <circle cx="140" cy="140" r="16" fill="#F4C2A1"/>
  <rect x="130" y="154" width="20" height="30" fill="#4169E1"/>
  <rect x="132" y="156" width="16" height="3" fill="#FFFFFF"/>
  
  <!-- Smart Watch -->
  <rect x="125" y="160" width="6" height="4" fill="#000000"/>
  <rect x="126" y="161" width="4" height="2" fill="#00FF00"/>
  
  <!-- Tech Chef Hat -->
  <ellipse cx="140" cy="125" rx="12" ry="8" fill="#FFFFFF"/>
  <rect x="128" y="125" width="24" height="8" fill="#FFFFFF"/>
  <circle cx="140" cy="120" r="2" fill="#00FF00"/>
  
  <!-- Tech Workers -->
  <!-- Software Engineer -->
  <circle cx="280" cy="145" r="14" fill="#F4C2A1"/>
  <rect x="272" y="157" width="16" height="26" fill="#800080"/>
  <circle cx="276" cy="140" r="1" fill="#000000"/>
  <circle cx="284" cy="140" r="1" fill="#000000"/>
  <path d="M280 143 Q280 147 285 147" stroke="#000000" stroke-width="1" fill="none"/>
  
  <!-- Laptop -->
  <rect x="295" y="165" width="12" height="8" fill="#C0C0C0"/>
  <rect x="296" y="166" width="10" height="6" fill="#000000"/>
  <rect x="297" y="167" width="8" height="4" fill="#4169E1"/>
  <text x="301" y="170" text-anchor="middle" fill="#00FF00" font-family="Arial" font-size="4">CODE</text>
  
  <!-- Startup Founder -->
  <circle cx="320" cy="155" r="12" fill="#F4C2A1"/>
  <rect x="314" y="165" width="12" height="22" fill="#228B22"/>
  <rect x="315" y="166" width="10" height="2" fill="#32CD32"/>
  
  <!-- Smartphone -->
  <rect x="335" y="170" width="4" height="8" fill="#000000"/>
  <rect x="336" y="171" width="2" height="6" fill="#4169E1"/>
  
  <!-- Fremont Flames -->
  <ellipse cx="205" cy="187" rx="4" ry="8" fill="#00BFFF" opacity="0.9"/>
  <ellipse cx="220" cy="185" rx="5" ry="10" fill="#1E90FF" opacity="1.0"/>
  <ellipse cx="235" cy="187" rx="4" ry="8" fill="#87CEEB" opacity="0.9"/>
  
  <!-- Innovation Food -->
  <!-- Lab-Grown Meat -->
  <ellipse cx="210" cy="182" rx="4" ry="3" fill="#8B4513"/>
  <ellipse cx="210" cy="181" rx="3" ry="2" fill="#A0522D"/>
  <circle cx="208" cy="181" r="0.5" fill="#00FF00"/>
  
  <!-- Tech-Enhanced Vegetables -->
  <circle cx="225" cy="183" r="2" fill="#32CD32"/>
  <circle cx="225" cy="183" r="1" fill="#00FF00"/>
  
  <!-- Digital Display Seasoning -->
  <rect x="235" y="180" width="6" height="4" fill="#000000"/>
  <rect x="236" y="181" width="4" height="2" fill="#00FF00"/>
  <text x="238" y="183" text-anchor="middle" fill="#00FF00" font-family="Arial" font-size="3">MSG</text>
  
  <!-- Fremont Central Park -->
  <ellipse cx="100" cy="220" rx="30" ry="10" fill="#228B22"/>
  <ellipse cx="100" cy="218" rx="25" ry="8" fill="#32CD32"/>
  
  <!-- Park Trees -->
  <circle cx="80" cy="205" r="8" fill="#228B22"/>
  <circle cx="80" cy="203" r="6" fill="#32CD32"/>
  <rect x="78" y="210" width="4" height="12" fill="#8B4513"/>
  
  <circle cx="120" cy="210" r="6" fill="#228B22"/>
  <circle cx="120" cy="208" r="4" fill="#32CD32"/>
  <rect x="118" y="215" width="4" height="10" fill="#8B4513"/>
  
  <!-- Electric Cars -->
  <rect x="30" y="240" width="25" height="8" fill="#FFFFFF"/>
  <rect x="32" y="242" width="21" height="4" fill="#87CEEB"/>
  <circle cx="40" cy="250" r="2" fill="#000000"/>
  <circle cx="47" cy="250" r="2" fill="#000000"/>
  <circle cx="37" cy="238" r="1" fill="#00FF00"/>
  
  <rect x="350" y="235" width="20" height="6" fill="#FF0000"/>
  <circle cx="360" cy="243" r="2" fill="#000000"/>
  <circle cx="365" cy="243" r="2" fill="#000000"/>
  <circle cx="352" cy="233" r="1" fill="#00FF00"/>
  
  <!-- Solar Panels -->
  <rect x="160" y="100" width="20" height="15" fill="#000080"/>
  <rect x="162" y="102" width="16" height="11" fill="#4169E1"/>
  <g fill="#87CEEB">
    <rect x="164" y="104" width="3" height="2"/>
    <rect x="168" y="104" width="3" height="2"/>
    <rect x="172" y="104" width="3" height="2"/>
    <rect x="164" y="107" width="3" height="2"/>
    <rect x="168" y="107" width="3" height="2"/>
    <rect x="172" y="107" width="3" height="2"/>
  </g>
  
  <!-- Tech Steam -->
  <g stroke="#00BFFF" stroke-width="2" fill="none" opacity="0.8">
    <path d="M205 182 Q207 177 205 172 Q203 167 205 162"/>
    <path d="M220 182 Q222 177 220 172 Q218 167 220 162"/>
    <path d="M235 182 Q237 177 235 172 Q233 167 235 162"/>
  </g>
  
  <!-- Startup Office -->
  <rect x="300" y="100" width="40" height="25" fill="#F5F5F5"/>
  <rect x="302" y="102" width="36" height="21" fill="#FFFFFF"/>
  <g fill="#4169E1">
    <rect x="305" y="105" width="3" height="4"/>
    <rect x="310" y="105" width="3" height="4"/>
    <rect x="315" y="105" width="3" height="4"/>
    <rect x="305" y="115" width="3" height="4"/>
    <rect x="310" y="115" width="3" height="4"/>
    <rect x="315" y="115" width="3" height="4"/>
  </g>
  
  <!-- BART Line -->
  <rect x="0" y="260" width="400" height="4" fill="#4169E1"/>
  <rect x="0" y="261" width="400" height="2" fill="#87CEEB"/>
  <g fill="#FFD700">
    <rect x="50" y="258" width="8" height="8"/>
    <rect x="150" y="258" width="8" height="8"/>
    <rect x="250" y="258" width="8" height="8"/>
    <rect x="350" y="258" width="8" height="8"/>
  </g>
  
  <!-- Innovation Icons -->
  <!-- Lightbulb -->
  <circle cx="50" cy="80" r="8" fill="#FFD700"/>
  <circle cx="50" cy="80" r="6" fill="#FFFF99"/>
  <rect x="48" y="88" width="4" height="6" fill="#C0C0C0"/>
  <rect x="47" y="94" width="6" height="2" fill="#8B4513"/>
  
  <!-- Gear -->
  <circle cx="350" cy="60" r="10" fill="#C0C0C0"/>
  <circle cx="350" cy="60" r="6" fill="#808080"/>
  <circle cx="350" cy="60" r="3" fill="#4A4A4A"/>
  <g fill="#C0C0C0">
    <rect x="348" y="50" width="4" height="4"/>
    <rect x="348" y="66" width="4" height="4"/>
    <rect x="340" y="58" width="4" height="4"/>
    <rect x="356" y="58" width="4" height="4"/>
  </g>
  
  <!-- DNA Helix -->
  <g stroke="#00FF00" stroke-width="2" fill="none">
    <path d="M380 120 Q385 115 390 120 Q395 125 390 130 Q385 135 390 140"/>
    <path d="M390 120 Q385 125 380 130 Q375 135 380 140 Q385 145 380 150"/>
  </g>
  
  <!-- Code Symbols -->
  <text x="20" y="200" fill="#4169E1" font-family="monospace" font-size="12" font-weight="bold">&lt;/&gt;</text>
  <text x="370" y="180" fill="#228B22" font-family="monospace" font-size="10">{}</text>
  
  <!-- Drone -->
  <circle cx="200" cy="100" r="3" fill="#2F4F4F"/>
  <g fill="#4A4A4A">
    <circle cx="195" cy="95" r="1"/>
    <circle cx="205" cy="95" r="1"/>
    <circle cx="195" cy="105" r="1"/>
    <circle cx="205" cy="105" r="1"/>
  </g>
  
  <!-- WiFi Symbol -->
  <g stroke="#4169E1" stroke-width="2" fill="none">
    <path d="M120 80 Q130 70 140 80"/>
    <path d="M125 85 Q130 80 135 85"/>
    <circle cx="130" cy="90" r="1" fill="#4169E1"/>
  </g>
  
  <!-- Title -->
  <text x="200" y="30" text-anchor="middle" fill="#4169E1" font-family="Arial, sans-serif" font-size="24" font-weight="bold">
    Fremont Tech Hub Hibachi
  </text>
  
  <!-- Subtitle -->
  <text x="200" y="50" text-anchor="middle" fill="#2F4F4F" font-family="Arial, sans-serif" font-size="16">
    Innovation • Tesla • Startups • Silicon Valley Spirit
  </text>
  
  <!-- Fremont Message -->
  <text x="200" y="285" text-anchor="middle" fill="#4682B4" font-family="Arial, sans-serif" font-size="14">
    "Where innovation meets tradition in the heart of tech country"
  </text>
  
  <defs>
    <linearGradient id="fremontGradient" x1="0%" y1="0%" x2="100%" y2="100%">
      <stop offset="0%" style="stop-color:#E0F6FF;stop-opacity:1" />
      <stop offset="50%" style="stop-color:#F0F8FF;stop-opacity:1" />
      <stop offset="100%" style="stop-color:#E6F3FF;stop-opacity:1" />
    </linearGradient>
  </defs>
</svg>
