<svg width="400" height="250" viewBox="0 0 400 250" xmlns="http://www.w3.org/2000/svg">
  <!-- Background -->
  <defs>
    <linearGradient id="holidayGradient" x1="0%" y1="0%" x2="100%" y2="100%">
      <stop offset="0%" style="stop-color:#0f4c75;stop-opacity:1" />
      <stop offset="30%" style="stop-color:#3282b8;stop-opacity:1" />
      <stop offset="70%" style="stop-color:#bbe1fa;stop-opacity:1" />
      <stop offset="100%" style="stop-color:#e8f6ff;stop-opacity:1" />
    </linearGradient>
    <radialGradient id="grillGlow" cx="50%" cy="50%" r="40%">
      <stop offset="0%" style="stop-color:#ff6b35;stop-opacity:0.8" />
      <stop offset="60%" style="stop-color:#d4422a;stop-opacity:0.4" />
      <stop offset="100%" style="stop-color:#8b0000;stop-opacity:0.1" />
    </radialGradient>
    <linearGradient id="snowGradient" x1="0%" y1="0%" x2="100%" y2="100%">
      <stop offset="0%" style="stop-color:#ffffff;stop-opacity:1" />
      <stop offset="100%" style="stop-color:#e8f6ff;stop-opacity:0.8" />
    </linearGradient>
  </defs>
  
  <rect width="400" height="250" fill="url(#holidayGradient)"/>
  
  <!-- Snow-covered ground -->
  <ellipse cx="200" cy="230" rx="200" ry="30" fill="url(#snowGradient)" opacity="0.8"/>
  
  <!-- Falling snowflakes -->
  <g opacity="0.6">
    <circle cx="50" cy="40" r="2" fill="#fff"/>
    <circle cx="120" cy="80" r="1.5" fill="#fff"/>
    <circle cx="200" cy="60" r="2.5" fill="#fff"/>
    <circle cx="280" cy="90" r="1.8" fill="#fff"/>
    <circle cx="350" cy="50" r="2.2" fill="#fff"/>
    <circle cx="80" cy="120" r="1" fill="#fff"/>
    <circle cx="320" cy="140" r="1.5" fill="#fff"/>
    <circle cx="150" cy="35" r="1.2" fill="#fff"/>
    <circle cx="250" cy="25" r="1.8" fill="#fff"/>
    <circle cx="380" cy="100" r="1.3" fill="#fff"/>
  </g>
  
  <!-- Holiday decorated table -->
  <ellipse cx="200" cy="190" rx="120" ry="25" fill="#8b4513" opacity="0.9"/>
  
  <!-- Festive tablecloth -->
  <ellipse cx="200" cy="185" rx="115" ry="22" fill="#dc143c" opacity="0.8"/>
  <g opacity="0.4">
    <circle cx="150" cy="175" r="3" fill="#228b22"/>
    <circle cx="180" cy="185" r="2" fill="#ffd700"/>
    <circle cx="220" cy="175" r="2.5" fill="#dc143c"/>
    <circle cx="250" cy="185" r="2" fill="#228b22"/>
    <path d="M160 180 L165 175 L170 180" stroke="#ffd700" stroke-width="1.5" fill="none"/>
    <path d="M230 180 L235 175 L240 180" stroke="#228b22" stroke-width="1.5" fill="none"/>
  </g>
  
  <!-- Hibachi grill (center) with holiday warmth -->
  <ellipse cx="200" cy="155" rx="45" ry="20" fill="#2c2c2c"/>
  <ellipse cx="200" cy="153" rx="40" ry="18" fill="url(#grillGlow)"/>
  
  <!-- Grill grates -->
  <g stroke="#666" stroke-width="2" opacity="0.8">
    <line x1="170" y1="147" x2="230" y2="147"/>
    <line x1="170" y1="155" x2="230" y2="155"/>
    <line x1="170" y1="163" x2="230" y2="163"/>
  </g>
  
  <!-- Holiday feast on grill -->
  <circle cx="185" cy="152" r="6" fill="#8b4513"/> <!-- Roasted turkey portions -->
  <circle cx="200" cy="149" r="7" fill="#ff6347"/> <!-- Holiday ham -->
  <circle cx="215" cy="157" r="5" fill="#32cd32"/> <!-- Brussels sprouts -->
  <rect x="180" y="160" width="8" height="3" fill="#ffa500" rx="1"/> <!-- Sweet potato -->
  <rect x="210" y="160" width="8" height="3" fill="#228b22" rx="1"/> <!-- Green beans -->
  
  <!-- Festive steam with holiday shapes -->
  <g opacity="0.7">
    <path d="M190 135 Q185 125 190 115 Q195 120 190 110" stroke="#e6e6e6" stroke-width="2" fill="none"/>
    <path d="M205 133 Q200 123 205 113 Q210 118 205 108" stroke="#e6e6e6" stroke-width="2" fill="none"/>
    <path d="M220 137 Q215 127 220 117 Q225 122 220 112" stroke="#e6e6e6" stroke-width="2" fill="none"/>
    <!-- Holiday tree shape in steam -->
    <path d="M200 110 L195 105 L205 105 Z" fill="#e6e6e6" opacity="0.3"/>
    <path d="M200 107 L196 102 L204 102 Z" fill="#e6e6e6" opacity="0.3"/>
    <rect x="199" y="105" width="2" height="4" fill="#e6e6e6" opacity="0.3"/>
  </g>
  
  <!-- Family gathered for holiday celebration -->
  <!-- Grandmother in holiday attire -->
  <g transform="translate(120, 100)">
    <circle cx="0" cy="0" r="10" fill="#f4c2a1"/>
    <path d="M-8 -6 Q-2 -10 2 -10 Q8 -6 2 0" fill="#e6e6e6"/>
    <circle cx="-3" cy="-2" r="1.2" fill="#000"/>
    <circle cx="3" cy="-2" r="1.2" fill="#000"/>
    <path d="M-3 3 Q0 5 3 3" stroke="#000" stroke-width="0.5" fill="none"/>
    
    <!-- Holiday sweater -->
    <path d="M0 10 L-12 45 Q-12 48 -8 48 L8 48 Q12 48 12 45 L0 10" fill="#dc143c"/>
    <path d="M-10 25 Q0 22 10 25" stroke="#fff" stroke-width="1.5" fill="none"/>
    <circle cx="-6" cy="30" r="2" fill="#228b22"/>
    <circle cx="6" cy="30" r="2" fill="#ffd700"/>
    <path d="M-3 35 L0 30 L3 35 L0 40 Z" fill="#fff"/>
    
    <!-- Arms -->
    <circle cx="-12" cy="18" r="4" fill="#f4c2a1"/>
    <circle cx="12" cy="18" r="4" fill="#f4c2a1"/>
    <rect x="-14" y="15" width="6" height="15" fill="#dc143c" rx="3"/>
    <rect x="8" y="15" width="6" height="15" fill="#dc143c" rx="3"/>
    
    <!-- Holiday mittens -->
    <circle cx="-16" cy="28" r="3" fill="#228b22"/>
    <circle cx="16" cy="28" r="3" fill="#228b22"/>
  </g>
  
  <!-- Father in holiday spirit -->
  <g transform="translate(280, 105)">
    <circle cx="0" cy="0" r="9" fill="#f4c2a1"/>
    <path d="M-7 -5 Q0 -7 7 -5 Q7 0 0 0 Q-7 0 -7 -5" fill="#654321"/>
    <circle cx="-2" cy="-2" r="1.1" fill="#000"/>
    <circle cx="2" cy="-2" r="1.1" fill="#000"/>
    <path d="M-2 2 Q0 4 2 2" stroke="#000" stroke-width="0.5" fill="none"/>
    
    <!-- Holiday vest -->
    <rect x="-7" y="9" width="14" height="22" fill="#0f4c75" rx="2"/>
    <rect x="-6" y="11" width="12" height="18" fill="#228b22" rx="1"/>
    <circle cx="-4" cy="16" r="1.5" fill="#ffd700"/>
    <circle cx="4" cy="16" r="1.5" fill="#ffd700"/>
    <circle cx="0" cy="20" r="1.5" fill="#ffd700"/>
    
    <!-- Arms -->
    <circle cx="-9" cy="17" r="3.5" fill="#f4c2a1"/>
    <circle cx="9" cy="17" r="3.5" fill="#f4c2a1"/>
    <rect x="-11" y="14" width="5" height="15" fill="#0f4c75" rx="2.5"/>
    <rect x="6" y="14" width="5" height="15" fill="#0f4c75" rx="2.5"/>
    
    <!-- Holiday mug -->
    <g transform="translate(13, 20)">
      <rect x="0" y="0" width="6" height="8" fill="#dc143c" rx="1"/>
      <rect x="0.5" y="0.5" width="5" height="7" fill="#8b0000" rx="0.5"/>
      <circle cx="6" cy="4" r="2" fill="none" stroke="#dc143c" stroke-width="1"/>
      <path d="M1 2 L5 2" stroke="#ffd700" stroke-width="0.5"/>
      <path d="M1 4 L5 4" stroke="#ffd700" stroke-width="0.5"/>
      <path d="M1 6 L5 6" stroke="#ffd700" stroke-width="0.5"/>
      <!-- Steam -->
      <path d="M3 0 Q2 -3 3 -6" stroke="#e6e6e6" stroke-width="1" fill="none" opacity="0.7"/>
    </g>
  </g>
  
  <!-- Children excited for holiday feast -->
  <g transform="translate(50, 120)">
    <circle cx="0" cy="0" r="7" fill="#f4c2a1"/>
    <path d="M-5 -3 Q0 -5 5 -3 Q5 0 0 0 Q-5 0 -5 -3" fill="#8b4513"/>
    <circle cx="-1.5" cy="-1" r="0.8" fill="#000"/>
    <circle cx="1.5" cy="-1" r="0.8" fill="#000"/>
    <path d="M-1.5 1.5 Q0 3 1.5 1.5" stroke="#000" stroke-width="0.4" fill="none"/>
    
    <!-- Holiday pajamas -->
    <rect x="-6" y="7" width="12" height="20" fill="#228b22" rx="2"/>
    <circle cx="-3" cy="12" r="1" fill="#dc143c"/>
    <circle cx="3" cy="12" r="1" fill="#dc143c"/>
    <circle cx="0" cy="17" r="1" fill="#dc143c"/>
    <path d="M-4 22 L4 22" stroke="#ffd700" stroke-width="1"/>
    
    <!-- Arms -->
    <circle cx="-8" cy="15" r="2.5" fill="#f4c2a1"/>
    <circle cx="8" cy="15" r="2.5" fill="#f4c2a1"/>
    <rect x="-9" y="13" width="3" height="10" fill="#228b22" rx="1.5"/>
    <rect x="6" y="13" width="3" height="10" fill="#228b22" rx="1.5"/>
    
    <!-- Excitement gestures -->
    <circle cx="-10" cy="18" r="2" fill="#f4c2a1"/>
    <circle cx="10" cy="18" r="2" fill="#f4c2a1"/>
  </g>
  
  <!-- Second child -->
  <g transform="translate(350, 125)">
    <circle cx="0" cy="0" r="6" fill="#f4c2a1"/>
    <path d="M-4 -2 Q0 -4 4 -2 Q4 0 0 0 Q-4 0 -4 -2" fill="#2c2c54"/>
    <circle cx="-1.2" cy="-0.8" r="0.6" fill="#000"/>
    <circle cx="1.2" cy="-0.8" r="0.6" fill="#000"/>
    <path d="M-1.2 1 Q0 2 1.2 1" stroke="#000" stroke-width="0.3" fill="none"/>
    
    <!-- Holiday dress -->
    <rect x="-5" y="6" width="10" height="18" fill="#dc143c" rx="2"/>
    <circle cx="-2" cy="10" r="0.8" fill="#ffd700"/>
    <circle cx="2" cy="10" r="0.8" fill="#ffd700"/>
    <path d="M-3 15 Q0 13 3 15" stroke="#fff" stroke-width="1" fill="none"/>
    
    <!-- Arms -->
    <circle cx="-6" cy="12" r="2" fill="#f4c2a1"/>
    <circle cx="6" cy="12" r="2" fill="#f4c2a1"/>
    <rect x="-7" y="10" width="2.5" height="8" fill="#dc143c" rx="1.25"/>
    <rect x="4.5" y="10" width="2.5" height="8" fill="#dc143c" rx="1.25"/>
  </g>
  
  <!-- Professional holiday chef -->
  <g transform="translate(200, 110)">
    <circle cx="0" cy="0" r="8" fill="#f4c2a1"/>
    <rect x="-1" y="-6" width="2" height="4" fill="#000"/>
    <circle cx="-2" cy="-1.5" r="1" fill="#000"/>
    <circle cx="2" cy="-1.5" r="1" fill="#000"/>
    <path d="M-2 2 Q0 3.5 2 2" stroke="#000" stroke-width="0.5" fill="none"/>
    
    <!-- Holiday chef hat with decoration -->
    <ellipse cx="0" cy="-12" rx="10" ry="5" fill="#fff"/>
    <rect x="-8" y="-14" width="16" height="5" fill="#fff" rx="2"/>
    <circle cx="0" cy="-12" r="2" fill="#dc143c"/>
    <path d="M-2 -12 L0 -16 L2 -12" fill="#228b22"/>
    
    <!-- Holiday chef coat -->
    <rect x="-7" y="8" width="14" height="20" fill="#fff" rx="2"/>
    <line x1="-2" y1="10" x2="-2" y2="24" stroke="#ccc" stroke-width="0.5"/>
    <line x1="2" y1="10" x2="2" y2="24" stroke="#ccc" stroke-width="0.5"/>
    <circle cx="-3" cy="12" r="1" fill="#dc143c"/>
    <circle cx="3" cy="12" r="1" fill="#dc143c"/>
    <circle cx="-3" cy="16" r="1" fill="#228b22"/>
    <circle cx="3" cy="16" r="1" fill="#228b22"/>
    
    <!-- Arms with holiday cooking tools -->
    <rect x="-9" y="10" width="4" height="12" fill="#f4c2a1" rx="2"/>
    <rect x="5" y="10" width="4" height="12" fill="#f4c2a1" rx="2"/>
    
    <!-- Holiday-themed spatula -->
    <rect x="9" y="18" width="8" height="1" fill="#c0c0c0" rx="0.5"/>
    <rect x="15" y="16" width="3" height="4" fill="#dc143c" rx="1"/>
    <circle cx="16.5" cy="18" r="0.8" fill="#ffd700"/>
  </g>
  
  <!-- Holiday feast spread -->
  <!-- Hot chocolate station -->
  <g transform="translate(90, 180)">
    <rect x="0" y="0" width="8" height="12" fill="#8b4513" rx="2"/>
    <ellipse cx="4" cy="-1" rx="5" ry="2" fill="#654321"/>
    <rect x="1" y="2" width="6" height="8" fill="#3e2723" opacity="0.8"/>
    <!-- Steam -->
    <path d="M4 0 Q2 -4 4 -8" stroke="#e6e6e6" stroke-width="1" fill="none" opacity="0.6"/>
    <path d="M2 0 Q4 -4 2 -8" stroke="#e6e6e6" stroke-width="1" fill="none" opacity="0.6"/>
    <path d="M6 0 Q4 -4 6 -8" stroke="#e6e6e6" stroke-width="1" fill="none" opacity="0.6"/>
    
    <!-- Marshmallows -->
    <circle cx="2" cy="0" r="1" fill="#fff"/>
    <circle cx="6" cy="0" r="1" fill="#fff"/>
    <circle cx="4" cy="0" r="1" fill="#fff"/>
  </g>
  
  <!-- Holiday cookies -->
  <g transform="translate(110, 185)">
    <circle cx="0" cy="0" r="3" fill="#deb887"/>
    <circle cx="6" cy="0" r="3" fill="#8b4513"/>
    <circle cx="12" cy="0" r="3" fill="#deb887"/>
    <!-- Cookie decorations -->
    <circle cx="0" cy="0" r="1" fill="#dc143c"/>
    <circle cx="6" cy="0" r="1" fill="#228b22"/>
    <circle cx="12" cy="0" r="1" fill="#ffd700"/>
  </g>
  
  <!-- Holiday decorations -->
  <!-- Christmas tree -->
  <g transform="translate(30, 140)" opacity="0.8">
    <path d="M0 0 L-8 15 L8 15 Z" fill="#228b22"/>
    <path d="M0 5 L-6 18 L6 18 Z" fill="#228b22"/>
    <path d="M0 10 L-4 21 L4 21 Z" fill="#228b22"/>
    <rect x="-1" y="21" width="2" height="6" fill="#8b4513"/>
    <!-- Star on top -->
    <path d="M0 0 L-2 -4 L0 -6 L2 -4 Z" fill="#ffd700"/>
    <path d="M-3 -2 L0 -3 L3 -2" fill="#ffd700"/>
    <!-- Ornaments -->
    <circle cx="-3" cy="8" r="1" fill="#dc143c"/>
    <circle cx="3" cy="12" r="1" fill="#ffd700"/>
    <circle cx="0" cy="16" r="1" fill="#0f4c75"/>
  </g>
  
  <!-- Stockings -->
  <g transform="translate(340, 160)" opacity="0.7">
    <rect x="0" y="0" width="6" height="12" fill="#dc143c" rx="1"/>
    <rect x="3" y="12" width="8" height="4" fill="#dc143c" rx="1"/>
    <rect x="0.5" y="0.5" width="5" height="2" fill="#fff"/>
    <circle cx="3" cy="14" r="1" fill="#ffd700"/>
    
    <rect x="10" y="0" width="6" height="12" fill="#228b22" rx="1"/>
    <rect x="13" y="12" width="8" height="4" fill="#228b22" rx="1"/>
    <rect x="10.5" y="0.5" width="5" height="2" fill="#fff"/>
    <circle cx="17" cy="14" r="1" fill="#dc143c"/>
  </g>
  
  <!-- Holiday lights -->
  <g opacity="0.6">
    <circle cx="80" cy="60" r="2" fill="#dc143c"/>
    <circle cx="90" cy="65" r="2" fill="#228b22"/>
    <circle cx="100" cy="60" r="2" fill="#ffd700"/>
    <circle cx="110" cy="65" r="2" fill="#0f4c75"/>
    <circle cx="120" cy="60" r="2" fill="#dc143c"/>
    
    <circle cx="280" cy="50" r="2" fill="#228b22"/>
    <circle cx="290" cy="55" r="2" fill="#ffd700"/>
    <circle cx="300" cy="50" r="2" fill="#dc143c"/>
    <circle cx="310" cy="55" r="2" fill="#0f4c75"/>
    <circle cx="320" cy="50" r="2" fill="#228b22"/>
    
    <!-- Light strings -->
    <path d="M80 60 Q85 63 90 65 Q95 63 100 60 Q105 63 110 65 Q115 63 120 60" stroke="#666" stroke-width="1" fill="none"/>
    <path d="M280 50 Q285 53 290 55 Q295 53 300 50 Q305 53 310 55 Q315 53 320 50" stroke="#666" stroke-width="1" fill="none"/>
  </g>
  
  <!-- Holiday banner -->
  <g transform="translate(120, 15)" opacity="0.9">
    <rect x="0" y="0" width="160" height="15" fill="#dc143c" rx="3"/>
    <text x="80" y="10" text-anchor="middle" font-family="serif" font-size="9" fill="#fff">Holiday Hibachi Celebration</text>
  </g>
  
  <!-- Holly decoration -->
  <g transform="translate(360, 30)" opacity="0.7">
    <path d="M0 0 Q-3 -2 -6 0 Q-3 2 0 0 Q3 -2 6 0 Q3 2 0 0" fill="#228b22"/>
    <circle cx="-2" cy="0" r="1" fill="#dc143c"/>
    <circle cx="2" cy="0" r="1" fill="#dc143c"/>
    <circle cx="0" cy="1" r="1" fill="#dc143c"/>
  </g>
</svg>
