<svg width="400" height="250" viewBox="0 0 400 250" xmlns="http://www.w3.org/2000/svg">
  <!-- Background -->
  <defs>
    <linearGradient id="vineyardGradient" x1="0%" y1="0%" x2="100%" y2="100%">
      <stop offset="0%" style="stop-color:#8e4e99;stop-opacity:1" />
      <stop offset="30%" style="stop-color:#6b2f7a;stop-opacity:1" />
      <stop offset="70%" style="stop-color:#4a1a5c;stop-opacity:1" />
      <stop offset="100%" style="stop-color:#2d1b3d;stop-opacity:1" />
    </linearGradient>
    <radialGradient id="grillGlow" cx="50%" cy="50%" r="40%">
      <stop offset="0%" style="stop-color:#ff6b35;stop-opacity:0.8" />
      <stop offset="60%" style="stop-color:#d4422a;stop-opacity:0.5" />
      <stop offset="100%" style="stop-color:#8b0000;stop-opacity:0.2" />
    </radialGradient>
    <linearGradient id="wineGradient" x1="0%" y1="0%" x2="100%" y2="100%">
      <stop offset="0%" style="stop-color:#722f37;stop-opacity:1" />
      <stop offset="100%" style="stop-color:#8b1538;stop-opacity:1" />
    </linearGradient>
  </defs>
  
  <rect width="400" height="250" fill="url(#vineyardGradient)"/>
  
  <!-- Napa Valley vineyard hills in background -->
  <path d="M0 160 Q100 140 200 150 T400 145 L400 250 L0 250 Z" fill="#3d4a2e" opacity="0.7"/>
  <path d="M0 180 Q150 165 300 175 L400 170 L400 250 L0 250 Z" fill="#2a3520" opacity="0.9"/>
  
  <!-- Rolling vineyard rows -->
  <g opacity="0.8">
    <line x1="30" y1="160" x2="160" y2="170" stroke="#4a5c3a" stroke-width="3"/>
    <line x1="40" y1="165" x2="170" y2="175" stroke="#4a5c3a" stroke-width="3"/>
    <line x1="50" y1="170" x2="180" y2="180" stroke="#4a5c3a" stroke-width="3"/>
    
    <line x1="220" y1="155" x2="350" y2="165" stroke="#4a5c3a" stroke-width="3"/>
    <line x1="230" y1="160" x2="360" y2="170" stroke="#4a5c3a" stroke-width="3"/>
    <line x1="240" y1="165" x2="370" y2="175" stroke="#4a5c3a" stroke-width="3"/>
  </g>
  
  <!-- Grapevines on posts -->
  <g opacity="0.7">
    <rect x="80" y="145" width="3" height="25" fill="#8b4513"/>
    <rect x="120" y="150" width="3" height="20" fill="#8b4513"/>
    <rect x="280" y="140" width="3" height="25" fill="#8b4513"/>
    <rect x="320" y="145" width="3" height="20" fill="#8b4513"/>
    
    <!-- Grape clusters -->
    <g transform="translate(82, 150)">
      <circle cx="0" cy="0" r="2.5" fill="#800080"/>
      <circle cx="4" cy="2" r="2.5" fill="#800080"/>
      <circle cx="-3" cy="3" r="2.5" fill="#800080"/>
      <circle cx="1" cy="5" r="2.5" fill="#800080"/>
      <circle cx="5" cy="7" r="2.5" fill="#800080"/>
      <circle cx="-2" cy="8" r="2.5" fill="#800080"/>
    </g>
    
    <g transform="translate(282, 145)">
      <circle cx="0" cy="0" r="2" fill="#9acd32"/>
      <circle cx="3" cy="2" r="2" fill="#9acd32"/>
      <circle cx="-2" cy="3" r="2" fill="#9acd32"/>
      <circle cx="1" cy="5" r="2" fill="#9acd32"/>
      <circle cx="4" cy="6" r="2" fill="#9acd32"/>
    </g>
  </g>
  
  <!-- Elegant hibachi setup (center) -->
  <ellipse cx="200" cy="150" rx="50" ry="22" fill="#2c2c2c"/>
  <ellipse cx="200" cy="148" rx="45" ry="20" fill="url(#grillGlow)"/>
  
  <!-- Premium grill grates -->
  <g stroke="#666" stroke-width="3" opacity="0.9">
    <line x1="165" y1="140" x2="235" y2="140"/>
    <line x1="165" y1="148" x2="235" y2="148"/>
    <line x1="165" y1="156" x2="235" y2="156"/>
  </g>
  
  <!-- Premium ingredients on grill -->
  <ellipse cx="180" cy="145" rx="7" ry="5" fill="#ff6347"/> <!-- Grilled vegetables -->
  <ellipse cx="200" cy="142" rx="8" ry="6" fill="#8b4513"/> <!-- Premium steak -->
  <ellipse cx="220" cy="150" rx="6" ry="4" fill="#32cd32"/> <!-- Asparagus -->
  <rect x="175" y="153" width="8" height="3" fill="#ffa500" rx="1"/> <!-- Grilled corn -->
  <rect x="215" y="153" width="8" height="3" fill="#d2691e" rx="1"/> <!-- Grilled zucchini -->
  
  <!-- Sophisticated steam -->
  <g opacity="0.7">
    <path d="M185 125 Q180 110 185 95 Q190 105 185 90" stroke="#e6e6e6" stroke-width="3" fill="none"/>
    <path d="M200 123 Q195 108 200 93 Q205 103 200 88" stroke="#e6e6e6" stroke-width="3" fill="none"/>
    <path d="M220 127 Q215 112 220 97 Q225 107 220 92" stroke="#e6e6e6" stroke-width="3" fill="none"/>
  </g>
  
  <!-- Sophisticated wine tasting table -->
  <ellipse cx="100" cy="180" rx="40" ry="12" fill="#8b4513" opacity="0.9"/>
  
  <!-- Wine bottle collection -->
  <g transform="translate(80, 155)">
    <rect x="0" y="0" width="8" height="25" fill="#2d4a22" rx="1"/>
    <rect x="0" y="-3" width="8" height="6" fill="#1a1a1a" rx="2"/>
    <text x="4" y="30" text-anchor="middle" font-family="serif" font-size="4" fill="#8b4513">Cabernet</text>
    
    <rect x="12" y="2" width="8" height="23" fill="#722f37" rx="1"/>
    <rect x="12" y="-1" width="8" height="6" fill="#1a1a1a" rx="2"/>
    <text x="16" y="30" text-anchor="middle" font-family="serif" font-size="4" fill="#8b4513">Merlot</text>
    
    <rect x="24" y="1" width="8" height="24" fill="#8b4513" rx="1"/>
    <rect x="24" y="-2" width="8" height="6" fill="#1a1a1a" rx="2"/>
    <text x="28" y="30" text-anchor="middle" font-family="serif" font-size="4" fill="#8b4513">Pinot</text>
  </g>
  
  <!-- Wine glasses for tasting -->
  <g transform="translate(120, 170)">
    <circle cx="0" cy="0" r="8" fill="none" stroke="#d4d4d4" stroke-width="1.5"/>
    <line x1="0" y1="8" x2="0" y2="15" stroke="#d4d4d4" stroke-width="1.5"/>
    <ellipse cx="0" cy="15" rx="6" ry="2" fill="none" stroke="#d4d4d4" stroke-width="1.5"/>
    <ellipse cx="0" cy="-2" rx="6" ry="4" fill="url(#wineGradient)" opacity="0.8"/>
    <text x="0" y="20" text-anchor="middle" font-family="serif" font-size="3" fill="#8b4513">Red</text>
  </g>
  
  <g transform="translate(140, 172)">
    <circle cx="0" cy="0" r="7" fill="none" stroke="#d4d4d4" stroke-width="1.5"/>
    <line x1="0" y1="7" x2="0" y2="13" stroke="#d4d4d4" stroke-width="1.5"/>
    <ellipse cx="0" cy="13" rx="5" ry="1.5" fill="none" stroke="#d4d4d4" stroke-width="1.5"/>
    <ellipse cx="0" cy="-1" rx="5" ry="3" fill="#f4e4bc" opacity="0.9"/>
    <text x="0" y="18" text-anchor="middle" font-family="serif" font-size="3" fill="#8b4513">White</text>
  </g>
  
  <!-- Sophisticated diners at vineyard -->
  <!-- Wine country couple -->
  <g transform="translate(70, 115)">
    <circle cx="0" cy="0" r="9" fill="#f4c2a1"/>
    <path d="M-7 -5 Q-2 -9 2 -9 Q7 -5 2 0" fill="#d2691e"/>
    <circle cx="-2.5" cy="-2" r="1.2" fill="#000"/>
    <circle cx="2.5" cy="-2" r="1.2" fill="#000"/>
    <path d="M-2.5 2.5 Q0 4.5 2.5 2.5" stroke="#000" stroke-width="0.5" fill="none"/>
    
    <!-- Elegant vineyard attire -->
    <rect x="-8" y="9" width="16" height="25" fill="#8e4e99" rx="2"/>
    <rect x="-7" y="11" width="14" height="20" fill="#6b2f7a" rx="1"/>
    <circle cx="-5" cy="16" r="1.5" fill="#ffd700"/>
    <circle cx="5" cy="16" r="1.5" fill="#ffd700"/>
    
    <!-- Arms -->
    <circle cx="-10" cy="18" r="3.5" fill="#f4c2a1"/>
    <circle cx="10" cy="18" r="3.5" fill="#f4c2a1"/>
    <rect x="-12" y="15" width="5" height="15" fill="#f4c2a1" rx="2.5"/>
    <rect x="7" y="15" width="5" height="15" fill="#f4c2a1" rx="2.5"/>
    
    <!-- Wine glass -->
    <g transform="translate(14, 22)">
      <circle cx="0" cy="0" r="4" fill="none" stroke="#d4d4d4" stroke-width="1"/>
      <line x1="0" y1="4" x2="0" y2="8" stroke="#d4d4d4" stroke-width="1"/>
      <ellipse cx="0" cy="8" rx="3" ry="1" fill="none" stroke="#d4d4d4" stroke-width="1"/>
      <ellipse cx="0" cy="-1" rx="3" ry="2" fill="#722f37" opacity="0.8"/>
    </g>
  </g>
  
  <!-- Wine country gentleman -->
  <g transform="translate(330, 120)">
    <circle cx="0" cy="0" r="8" fill="#f4c2a1"/>
    <path d="M-6 -4 Q0 -6 6 -4 Q6 0 0 0 Q-6 0 -6 -4" fill="#654321"/>
    <circle cx="-2" cy="-1.5" r="1" fill="#000"/>
    <circle cx="2" cy="-1.5" r="1" fill="#000"/>
    <path d="M-2 2 Q0 3.5 2 2" stroke="#000" stroke-width="0.5" fill="none"/>
    
    <!-- Sophisticated wine country attire -->
    <rect x="-6" y="8" width="12" height="22" fill="#2d1b3d" rx="2"/>
    <rect x="-5" y="10" width="10" height="18" fill="#fff" rx="1"/>
    <rect x="-1" y="10" width="2" height="15" fill="#8e4e99"/>
    
    <!-- Arms -->
    <circle cx="-8" cy="16" r="3" fill="#f4c2a1"/>
    <circle cx="8" cy="16" r="3" fill="#f4c2a1"/>
    <rect x="-10" y="13" width="4" height="12" fill="#2d1b3d" rx="2"/>
    <rect x="6" y="13" width="4" height="12" fill="#2d1b3d" rx="2"/>
  </g>
  
  <!-- Professional sommelier/chef -->
  <g transform="translate(200, 105)">
    <circle cx="0" cy="0" r="8" fill="#f4c2a1"/>
    <rect x="-1" y="-6" width="2" height="4" fill="#000"/>
    <circle cx="-2" cy="-1.5" r="1" fill="#000"/>
    <circle cx="2" cy="-1.5" r="1" fill="#000"/>
    <path d="M-2 2 Q0 3.5 2 2" stroke="#000" stroke-width="0.5" fill="none"/>
    
    <!-- Professional chef attire -->
    <ellipse cx="0" cy="-12" rx="10" ry="5" fill="#fff"/>
    <rect x="-8" y="-14" width="16" height="5" fill="#fff" rx="2"/>
    <rect x="-7" y="8" width="14" height="20" fill="#fff" rx="2"/>
    <line x1="-2" y1="10" x2="-2" y2="24" stroke="#ccc" stroke-width="0.5"/>
    <line x1="2" y1="10" x2="2" y2="24" stroke="#ccc" stroke-width="0.5"/>
    
    <!-- Arms with professional tools -->
    <rect x="-9" y="10" width="4" height="12" fill="#f4c2a1" rx="2"/>
    <rect x="5" y="10" width="4" height="12" fill="#f4c2a1" rx="2"/>
    
    <!-- Professional spatula -->
    <rect x="9" y="18" width="8" height="1" fill="#c0c0c0" rx="0.5"/>
    <rect x="15" y="16" width="3" height="4" fill="#c0c0c0" rx="1"/>
  </g>
  
  <!-- Wine country cheese and charcuterie board -->
  <ellipse cx="300" cy="185" rx="35" ry="10" fill="#deb887" opacity="0.9"/>
  
  <!-- Artisanal cheese selection -->
  <g transform="translate(280, 175)">
    <circle cx="0" cy="0" r="4" fill="#fff8dc"/>
    <circle cx="8" cy="2" r="3" fill="#ffa500"/>
    <circle cx="15" cy="-1" r="3.5" fill="#8b0000"/>
    <rect x="20" y="-2" width="6" height="4" fill="#d2691e"/>
    <text x="10" y="12" text-anchor="middle" font-family="serif" font-size="4" fill="#8b4513">Artisan Board</text>
  </g>
  
  <!-- Premium grapes -->
  <g transform="translate(320, 175)">
    <circle cx="0" cy="0" r="2.5" fill="#800080"/>
    <circle cx="4" cy="2" r="2.5" fill="#800080"/>
    <circle cx="-3" cy="3" r="2.5" fill="#800080"/>
    <circle cx="1" cy="5" r="2.5" fill="#800080"/>
    <circle cx="6" cy="6" r="2.5" fill="#800080"/>
  </g>
  
  <!-- Vineyard atmosphere elements -->
  <!-- Wine barrel decoration -->
  <g transform="translate(350, 160)" opacity="0.7">
    <ellipse cx="0" cy="0" rx="12" ry="15" fill="#8b4513"/>
    <ellipse cx="0" cy="0" rx="10" ry="13" fill="#deb887"/>
    <line x1="-8" y1="0" x2="8" y2="0" stroke="#654321" stroke-width="2"/>
    <line x1="-6" y1="-8" x2="6" y2="-8" stroke="#654321" stroke-width="1"/>
    <line x1="-6" y1="8" x2="6" y2="8" stroke="#654321" stroke-width="1"/>
  </g>
  
  <!-- Vineyard tasting notes -->
  <g transform="translate(30, 80)" opacity="0.8">
    <rect x="0" y="0" width="25" height="30" fill="#f5f5dc" rx="2"/>
    <line x1="3" y1="4" x2="22" y2="4" stroke="#8b4513" stroke-width="0.8"/>
    <line x1="3" y1="8" x2="18" y2="8" stroke="#8b4513" stroke-width="0.5"/>
    <line x1="3" y1="12" x2="20" y2="12" stroke="#8b4513" stroke-width="0.5"/>
    <line x1="3" y1="16" x2="17" y2="16" stroke="#8b4513" stroke-width="0.5"/>
    <line x1="3" y1="20" x2="19" y2="20" stroke="#8b4513" stroke-width="0.5"/>
    <text x="12.5" y="26" text-anchor="middle" font-family="serif" font-size="6" fill="#8b4513">Tasting</text>
    <text x="12.5" y="32" text-anchor="middle" font-family="serif" font-size="6" fill="#8b4513">Notes</text>
  </g>
  
  <!-- Elegant vineyard atmosphere -->
  <g opacity="0.4">
    <circle cx="370" cy="40" r="2" fill="#ffd700"/>
    <circle cx="365" cy="55" r="1.5" fill="#e6e6e6"/>
    <circle cx="375" cy="70" r="1.8" fill="#ffd700"/>
    <circle cx="25" cy="35" r="1.5" fill="#e6e6e6"/>
    <circle cx="35" cy="45" r="2" fill="#ffd700"/>
    <circle cx="15" cy="60" r="1.2" fill="#e6e6e6"/>
  </g>
  
  <!-- Wine country hibachi sign -->
  <g transform="translate(140, 25)" opacity="0.9">
    <rect x="0" y="0" width="120" height="15" fill="#8b4513" rx="3"/>
    <text x="60" y="10" text-anchor="middle" font-family="serif" font-size="8" fill="#fff">Napa Valley Hibachi Experience</text>
  </g>
</svg>
