<?xml version="1.0" encoding="UTF-8"?>
<svg viewBox="0 0 800 600" xmlns="http://www.w3.svg/2000/svg">
  <!-- Oakland East Bay wedding reception hibachi -->
  <defs>
    <linearGradient id="eastBayWeddingSky" x1="0%" y1="0%" x2="0%" y2="100%">
      <stop offset="0%" style="stop-color:#FFB6C1"/>
      <stop offset="50%" style="stop-color:#FFA07A"/>
      <stop offset="100%" style="stop-color:#FF7F50"/>
    </linearGradient>
    <linearGradient id="oaklandVenue" x1="0%" y1="0%" x2="0%" y2="100%">
      <stop offset="0%" style="stop-color:#F5F5DC"/>
      <stop offset="100%" style="stop-color:#DEB887"/>
    </linearGradient>
    <radialGradient id="romanticWeddingGlow" cx="50%" cy="50%" r="50%">
      <stop offset="0%" style="stop-color:#FFB6C1; opacity:0.6"/>
      <stop offset="100%" style="stop-color:transparent"/>
    </radialGradient>
  </defs>
  
  <!-- East Bay romantic sunset -->
  <rect width="800" height="600" fill="url(#eastBayWeddingSky)"/>
  
  <!-- Wedding celebration stars -->
  <circle cx="130" cy="60" r="2" fill="#FFD700"/>
  <circle cx="250" cy="80" r="1.5" fill="white"/>
  <circle cx="400" cy="50" r="2" fill="#FFB6C1"/>
  <circle cx="550" cy="75" r="1.5" fill="white"/>
  <circle cx="680" cy="55" r="2" fill="#FFD700"/>
  <circle cx="750" cy="85" r="1.5" fill="white"/>
  
  <!-- Oakland hills backdrop -->
  <path d="M0,200 Q150,160 300,180 Q450,140 600,160 Q750,120 800,140 L800,280 L0,280 Z" fill="#8FBC8F" opacity="0.8"/>
  <path d="M0,240 Q200,200 400,220 Q600,180 800,200 L800,320 L0,320 Z" fill="#9ACD32" opacity="0.6"/>
  
  <!-- Oakland wedding venue -->
  <rect x="200" y="250" width="400" height="220" fill="url(#oaklandVenue)" rx="20"/>
  <polygon points="190,250 610,250 400,180" fill="#8B4513"/>
  <text x="400" y="290" text-anchor="middle" fill="#8B0000" font-family="Arial, sans-serif" font-size="18" font-weight="bold">OAKLAND WEDDING RECEPTION</text>
  <text x="400" y="315" text-anchor="middle" fill="#4B0082" font-family="Arial, sans-serif" font-size="14">EAST BAY INTERACTIVE DINING</text>
  
  <!-- Grand entrance with columns -->
  <rect x="370" y="220" width="60" height="30" fill="#F5F5DC" rx="8"/>
  <text x="400" y="240" text-anchor="middle" fill="#8B0000" font-family="Arial, sans-serif" font-size="12">ENTRANCE</text>
  <rect x="360" y="215" width="8" height="35" fill="#DEB887"/>
  <rect x="432" y="215" width="8" height="35" fill="#DEB887"/>
  
  <!-- Wedding hibachi spectacular setup -->
  <rect x="230" y="330" width="340" height="100" fill="#2F4F4F" rx="15"/>
  <rect x="240" y="325" width="320" height="18" fill="#FF4500"/>
  
  <!-- Multiple wedding hibachi stations -->
  <circle cx="260" r="8" cy="330" fill="#FF6347"/>
  <circle cx="285" r="8" cy="330" fill="#FFB6C1"/>
  <circle cx="310" r="8" cy="330" fill="#FFD700"/>
  <circle cx="335" r="8" cy="330" fill="#FF69B4"/>
  <circle cx="360" r="8" cy="330" fill="#FF6347"/>
  <circle cx="385" r="8" cy="330" fill="#FFB6C1"/>
  <circle cx="410" r="8" cy="330" fill="#FFD700"/>
  <circle cx="435" r="8" cy="330" fill="#FF69B4"/>
  <circle cx="460" r="8" cy="330" fill="#FF6347"/>
  <circle cx="485" r="8" cy="330" fill="#FFB6C1"/>
  <circle cx="510" r="8" cy="330" fill="#FFD700"/>
  <circle cx="535" r="8" cy="330" fill="#FF69B4"/>
  
  <!-- Wedding hibachi chef team -->
  <circle cx="350" cy="280" r="16" fill="#FDBCB4"/>
  <rect x="339" y="296" width="22" height="26" fill="white"/>
  <rect x="335" y="322" width="30" height="32" fill="#8B0000"/>
  <rect x="339" y="354" width="9" height="22" fill="#FDBCB4"/>
  <rect x="352" y="354" width="9" height="22" fill="#FDBCB4"/>
  
  <circle cx="450" cy="280" r="16" fill="#FDBCB4"/>
  <rect x="439" y="296" width="22" height="26" fill="white"/>
  <rect x="435" y="322" width="30" height="32" fill="#4B0082"/>
  <rect x="439" y="354" width="9" height="22" fill="#FDBCB4"/>
  <rect x="452" y="354" width="9" height="22" fill="#FDBCB4"/>
  
  <!-- Chef hats -->
  <rect x="343" y="267" width="14" height="10" fill="white"/>
  <ellipse cx="350" cy="260" rx="11" ry="7" fill="white"/>
  <rect x="443" y="267" width="14" height="10" fill="white"/>
  <ellipse cx="450" cy="260" rx="11" ry="7" fill="white"/>
  
  <!-- Bride and groom -->
  <!-- Bride -->
  <circle cx="300" cy="400" r="14" fill="#FDBCB4"/>
  <rect x="291" y="414" width="18" height="28" fill="white"/>
  <rect x="293" y="442" width="14" height="22" fill="white"/>
  <rect x="295" y="464" width="10" height="18" fill="#F0E68C"/>
  <!-- Wedding veil -->
  <ellipse cx="300" cy="385" rx="20" ry="8" fill="white" opacity="0.8"/>
  <!-- Tiara -->
  <rect x="296" y="382" width="8" height="3" fill="#FFD700"/>
  <circle cx="298" cy="380" r="1" fill="#FFD700"/>
  <circle cx="300" cy="379" r="1" fill="#FFD700"/>
  <circle cx="302" cy="380" r="1" fill="#FFD700"/>
  
  <!-- Groom -->
  <circle cx="500" cy="400" r="14" fill="#FDBCB4"/>
  <rect x="491" y="414" width="18" height="28" fill="#000000"/>
  <rect x="493" y="442" width="14" height="22" fill="#000000"/>
  <rect x="495" y="464" width="10" height="18" fill="#654321"/>
  <!-- Bow tie -->
  <polygon points="495,425 505,425 500,430 505,435 495,435 500,430" fill="white"/>
  <!-- Boutonniere -->
  <circle cx="488" cy="420" r="2" fill="#FF69B4"/>
  
  <!-- Wedding party -->
  <!-- Maid of honor -->
  <circle cx="330" cy="410" r="12" fill="#FDBCB4"/>
  <rect x="323" y="422" width="14" height="24" fill="#FF69B4"/>
  <rect x="325" y="446" width="10" height="20" fill="#FF69B4"/>
  <rect x="326" y="466" width="8" height="16" fill="#F0E68C"/>
  
  <!-- Best man -->
  <circle cx="470" cy="410" r="12" fill="#FDBCB4"/>
  <rect x="463" y="422" width="14" height="24" fill="#000000"/>
  <rect x="465" y="446" width="10" height="20" fill="#000000"/>
  <rect x="466" y="466" width="8" height="16" fill="#8B4513"/>
  
  <!-- Bridesmaids -->
  <circle cx="360" cy="420" r="11" fill="#FDBCB4"/>
  <rect x="354" y="431" width="12" height="22" fill="#FFB6C1"/>
  <rect x="356" y="453" width="8" height="18" fill="#FFB6C1"/>
  
  <circle cx="390" cy="420" r="11" fill="#FDBCB4"/>
  <rect x="384" y="431" width="12" height="22" fill="#9370DB"/>
  <rect x="386" y="453" width="8" height="18" fill="#9370DB"/>
  
  <!-- Groomsmen -->
  <circle cx="410" cy="420" r="11" fill="#FDBCB4"/>
  <rect x="404" y="431" width="12" height="22" fill="#2F4F4F"/>
  <rect x="406" y="453" width="8" height="18" fill="#2F4F4F"/>
  
  <circle cx="440" cy="420" r="11" fill="#FDBCB4"/>
  <rect x="434" y="431" width="12" height="22" fill="#2F4F4F"/>
  <rect x="436" y="453" width="8" height="18" fill="#2F4F4F"/>
  
  <!-- Wedding dining tables -->
  <ellipse cx="400" cy="510" rx="160" ry="40" fill="#8B4513"/>
  
  <!-- Elegant wedding chairs -->
  <rect x="280" y="520" width="14" height="35" fill="#F5F5DC"/>
  <circle cx="287" cy="517" r="7" fill="#FFB6C1"/>
  <rect x="310" y="520" width="14" height="35" fill="#F5F5DC"/>
  <circle cx="317" cy="517" r="7" fill="#FF69B4"/>
  <rect x="340" y="520" width="14" height="35" fill="#F5F5DC"/>
  <circle cx="347" cy="517" r="7" fill="#FFB6C1"/>
  <rect x="370" y="520" width="14" height="35" fill="#F5F5DC"/>
  <circle cx="377" cy="517" r="7" fill="#FF69B4"/>
  <rect x="400" y="520" width="14" height="35" fill="#F5F5DC"/>
  <circle cx="407" cy="517" r="7" fill="#FFB6C1"/>
  <rect x="430" y="520" width="14" height="35" fill="#F5F5DC"/>
  <circle cx="437" cy="517" r="7" fill="#FF69B4"/>
  <rect x="460" y="520" width="14" height="35" fill="#F5F5DC"/>
  <circle cx="467" cy="517" r="7" fill="#FFB6C1"/>
  <rect x="490" y="520" width="14" height="35" fill="#F5F5DC"/>
  <circle cx="497" cy="517" r="7" fill="#FF69B4"/>
  <rect x="520" y="520" width="14" height="35" fill="#F5F5DC"/>
  <circle cx="527" cy="517" r="7" fill="#FFB6C1"/>
  
  <!-- Wedding place settings -->
  <circle cx="290" cy="505" r="8" fill="white"/>
  <circle cx="320" cy="505" r="8" fill="white"/>
  <circle cx="350" cy="505" r="8" fill="white"/>
  <circle cx="380" cy="505" r="8" fill="white"/>
  <circle cx="410" cy="505" r="8" fill="white"/>
  <circle cx="440" cy="505" r="8" fill="white"/>
  <circle cx="470" cy="505" r="8" fill="white"/>
  <circle cx="500" cy="505" r="8" fill="white"/>
  <circle cx="530" cy="505" r="8" fill="white"/>
  
  <!-- Wedding champagne toasts -->
  <rect x="285" y="495" width="4" height="12" fill="#FFD700"/>
  <polygon points="285,495 289,495 287,492" fill="#FFD700"/>
  <rect x="315" y="495" width="4" height="12" fill="#FFD700"/>
  <polygon points="315,495 319,495 317,492" fill="#FFD700"/>
  <rect x="345" y="495" width="4" height="12" fill="#FFD700"/>
  <polygon points="345,495 349,495 347,492" fill="#FFD700"/>
  <rect x="375" y="495" width="4" height="12" fill="#FFD700"/>
  <polygon points="375,495 379,495 377,492" fill="#FFD700"/>
  <rect x="405" y="495" width="4" height="12" fill="#FFD700"/>
  <polygon points="405,495 409,495 407,492" fill="#FFD700"/>
  <rect x="435" y="495" width="4" height="12" fill="#FFD700"/>
  <polygon points="435,495 439,495 437,492" fill="#FFD700"/>
  <rect x="465" y="495" width="4" height="12" fill="#FFD700"/>
  <polygon points="465,495 469,495 467,492" fill="#FFD700"/>
  <rect x="495" y="495" width="4" height="12" fill="#FFD700"/>
  <polygon points="495,495 499,495 497,492" fill="#FFD700"/>
  <rect x="525" y="495" width="4" height="12" fill="#FFD700"/>
  <polygon points="525,495 529,495 527,492" fill="#FFD700"/>
  
  <!-- Oakland East Bay title -->
  <text x="400" y="150" text-anchor="middle" fill="#8B0000" font-family="Arial, sans-serif" font-size="26" font-weight="bold">OAKLAND WEDDING</text>
  <text x="400" y="175" text-anchor="middle" fill="#FF69B4" font-family="Arial, sans-serif" font-size="16">EAST BAY INTERACTIVE DINING</text>
  
  <!-- East Bay elegance -->
  <rect x="80" y="480" width="160" height="100" fill="#8B0000" opacity="0.8" rx="12"/>
  <text x="160" y="505" text-anchor="middle" fill="#FFD700" font-family="Arial, sans-serif" font-size="14" font-weight="bold">EAST BAY</text>
  <text x="160" y="520" text-anchor="middle" fill="white" font-family="Arial, sans-serif" font-size="13">WEDDING</text>
  <text x="160" y="535" text-anchor="middle" fill="white" font-family="Arial, sans-serif" font-size="12">ELEGANCE</text>
  <text x="160" y="550" text-anchor="middle" fill="#FFB6C1" font-family="Arial, sans-serif" font-size="11">INTERACTIVE</text>
  <text x="160" y="565" text-anchor="middle" fill="white" font-family="Arial, sans-serif" font-size="10">OAKLAND CHARM</text>
  
  <!-- Interactive dining -->
  <rect x="560" y="480" width="160" height="100" fill="#FF69B4" opacity="0.8" rx="12"/>
  <text x="640" y="505" text-anchor="middle" fill="white" font-family="Arial, sans-serif" font-size="14" font-weight="bold">INTERACTIVE</text>
  <text x="640" y="520" text-anchor="middle" fill="white" font-family="Arial, sans-serif" font-size="13">HIBACHI</text>
  <text x="640" y="535" text-anchor="middle" fill="#FFD700" font-family="Arial, sans-serif" font-size="12">WEDDING</text>
  <text x="640" y="550" text-anchor="middle" fill="white" font-family="Arial, sans-serif" font-size="11">ENTERTAINMENT</text>
  <text x="640" y="565" text-anchor="middle" fill="white" font-family="Arial, sans-serif" font-size="10">MEMORABLE</text>
  
  <!-- Wedding hibachi specialties -->
  <ellipse cx="265" cy="328" rx="12" ry="7" fill="#FF6347"/>
  <ellipse cx="290" cy="328" rx="13" ry="7" fill="#FFB6C1"/>
  <ellipse cx="315" cy="328" rx="12" ry="7" fill="#FFD700"/>
  <ellipse cx="340" cy="328" rx="11" ry="6" fill="#FF69B4"/>
  <ellipse cx="365" cy="328" rx="12" ry="7" fill="#FF6347"/>
  <ellipse cx="390" cy="328" rx="13" ry="7" fill="#FFB6C1"/>
  <ellipse cx="415" cy="328" rx="12" ry="7" fill="#FFD700"/>
  <ellipse cx="440" cy="328" rx="11" ry="6" fill="#FF69B4"/>
  <ellipse cx="465" cy="328" rx="12" ry="7" fill="#FF6347"/>
  <ellipse cx="490" cy="328" rx="13" ry="7" fill="#FFB6C1"/>
  <ellipse cx="515" cy="328" rx="12" ry="7" fill="#FFD700"/>
  <ellipse cx="540" cy="328" rx="11" ry="6" fill="#FF69B4"/>
  
  <!-- Romantic hibachi flames -->
  <polygon points="265,328 270,318 260,318" fill="#FF6347" opacity="0.9"/>
  <polygon points="290,328 295,318 285,318" fill="#FFB6C1" opacity="0.9"/>
  <polygon points="315,328 320,318 310,318" fill="#FFD700" opacity="0.9"/>
  <polygon points="340,328 345,318 335,318" fill="#FF69B4" opacity="0.9"/>
  <polygon points="365,328 370,318 360,318" fill="#FF6347" opacity="0.9"/>
  <polygon points="390,328 395,318 385,318" fill="#FFB6C1" opacity="0.9"/>
  <polygon points="415,328 420,318 410,318" fill="#FFD700" opacity="0.9"/>
  <polygon points="440,328 445,318 435,318" fill="#FF69B4" opacity="0.9"/>
  <polygon points="465,328 470,318 460,318" fill="#FF6347" opacity="0.9"/>
  <polygon points="490,328 495,318 485,318" fill="#FFB6C1" opacity="0.9"/>
  <polygon points="515,328 520,318 510,318" fill="#FFD700" opacity="0.9"/>
  <polygon points="540,328 545,318 535,318" fill="#FF69B4" opacity="0.9"/>
  
  <!-- Wedding flowers everywhere -->
  <circle cx="180" cy="300" r="18" fill="#FF69B4"/>
  <circle cx="185" cy="295" r="6" fill="#FFD700"/>
  <circle cx="175" cy="295" r="6" fill="white"/>
  <circle cx="180" cy="305" r="6" fill="#FFD700"/>
  <circle cx="180" cy="285" r="6" fill="white"/>
  <circle cx="190" cy="300" r="6" fill="#FFD700"/>
  <circle cx="170" cy="300" r="6" fill="white"/>
  
  <circle cx="620" cy="300" r="18" fill="#FF69B4"/>
  <circle cx="625" cy="295" r="6" fill="#FFD700"/>
  <circle cx="615" cy="295" r="6" fill="white"/>
  <circle cx="620" cy="305" r="6" fill="#FFD700"/>
  <circle cx="620" cy="285" r="6" fill="white"/>
  <circle cx="630" cy="300" r="6" fill="#FFD700"/>
  <circle cx="610" cy="300" r="6" fill="white"/>
  
  <!-- Wedding string lights -->
  <circle cx="220" cy="200" r="2" fill="#FFD700"/>
  <circle cx="240" cy="195" r="2" fill="white"/>
  <circle cx="260" cy="200" r="2" fill="#FFD700"/>
  <circle cx="280" cy="195" r="2" fill="white"/>
  <circle cx="300" cy="200" r="2" fill="#FFD700"/>
  <circle cx="320" cy="195" r="2" fill="white"/>
  <circle cx="340" cy="200" r="2" fill="#FFD700"/>
  <circle cx="360" cy="195" r="2" fill="white"/>
  <circle cx="380" cy="200" r="2" fill="#FFD700"/>
  <circle cx="400" cy="195" r="2" fill="white"/>
  <circle cx="420" cy="200" r="2" fill="#FFD700"/>
  <circle cx="440" cy="195" r="2" fill="white"/>
  <circle cx="460" cy="200" r="2" fill="#FFD700"/>
  <circle cx="480" cy="195" r="2" fill="white"/>
  <circle cx="500" cy="200" r="2" fill="#FFD700"/>
  <circle cx="520" cy="195" r="2" fill="white"/>
  <circle cx="540" cy="200" r="2" fill="#FFD700"/>
  <circle cx="560" cy="195" r="2" fill="white"/>
  <circle cx="580" cy="200" r="2" fill="#FFD700"/>
  
  <!-- Wedding arch -->
  <path d="M250,240 Q400,210 550,240" stroke="#FFB6C1" stroke-width="8" fill="none"/>
  <circle cx="270" cy="235" r="4" fill="#FF69B4"/>
  <circle cx="300" cy="225" r="4" fill="white"/>
  <circle cx="330" cy="220" r="4" fill="#FFD700"/>
  <circle cx="360" cy="218" r="4" fill="#FF69B4"/>
  <circle cx="390" cy="217" r="4" fill="white"/>
  <circle cx="410" cy="217" r="4" fill="#FFD700"/>
  <circle cx="440" cy="218" r="4" fill="#FF69B4"/>
  <circle cx="470" cy="220" r="4" fill="white"/>
  <circle cx="500" cy="225" r="4" fill="#FFD700"/>
  <circle cx="530" cy="235" r="4" fill="#FF69B4"/>
  
  <!-- Wedding cake table -->
  <rect x="650" y="350" width="100" height="60" fill="#F5F5DC" rx="10"/>
  <rect x="675" y="340" width="50" height="20" fill="white"/>
  <rect x="685" y="330" width="30" height="15" fill="white"/>
  <rect x="690" y="320" width="20" height="12" fill="white"/>
  <rect x="695" y="310" width="10" height="10" fill="white"/>
  
  <!-- Wedding cake decorations -->
  <circle cx="700" cy="305" r="3" fill="#FF69B4"/>
  <circle cx="695" cy="305" r="1" fill="#FFD700"/>
  <circle cx="705" cy="305" r="1" fill="#FFD700"/>
  <circle cx="698" cy="302" r="1" fill="white"/>
  <circle cx="702" cy="302" r="1" fill="white"/>
  
  <!-- Romantic wedding glow -->
  <circle cx="400" cy="380" r="150" fill="url(#romanticWeddingGlow)"/>
  
  <!-- Oakland Bay views -->
  <ellipse cx="120" cy="160" rx="50" ry="20" fill="#4682B4" opacity="0.6"/>
  <ellipse cx="680" cy="170" rx="60" ry="25" fill="#4682B4" opacity="0.5"/>
  
  <!-- Wedding celebration message -->
  <text x="400" y="120" text-anchor="middle" fill="#FF69B4" font-family="Arial, sans-serif" font-size="16" font-weight="bold">UNFORGETTABLE EAST BAY WEDDING RECEPTIONS</text>
</svg>
