<svg width="400" height="300" viewBox="0 0 400 300" fill="none" xmlns="http://www.w3.org/2000/svg">
  <!-- Background -->
  <rect width="400" height="300" fill="url(#outdoorGradient)"/>
  
  <!-- Sky and Clouds -->
  <ellipse cx="80" cy="60" rx="25" ry="12" fill="#FFFFFF" opacity="0.8"/>
  <ellipse cx="320" cy="70" rx="30" ry="15" fill="#FFFFFF" opacity="0.8"/>
  <ellipse cx="200" cy="50" rx="20" ry="10" fill="#FFFFFF" opacity="0.8"/>
  
  <!-- Outdoor Setting Banner -->
  <g fill="#228B22">
    <text x="200" y="25" text-anchor="middle" font-family="Arial" font-size="20" font-weight="bold">OUTDOOR HIBACHI PARTY</text>
  </g>
  
  <!-- Grass Ground -->
  <rect x="0" y="250" width="400" height="50" fill="#32CD32"/>
  <rect x="0" y="250" width="400" height="10" fill="#228B22"/>
  
  <!-- Outdoor Picnic Table -->
  <rect x="150" y="180" width="100" height="8" fill="#8B4513"/>
  <rect x="155" y="188" width="90" height="5" fill="#A0522D"/>
  
  <!-- Table Legs -->
  <rect x="160" y="188" width="4" height="20" fill="#654321"/>
  <rect x="180" y="188" width="4" height="20" fill="#654321"/>
  <rect x="220" y="188" width="4" height="20" fill="#654321"/>
  <rect x="240" y="188" width="4" height="20" fill="#654321"/>
  
  <!-- Portable Hibachi Grill -->
  <rect x="180" y="160" width="40" height="25" rx="5" fill="#2F4F4F"/>
  <rect x="185" y="165" width="30" height="15" rx="3" fill="#1C1C1C"/>
  <rect x="175" y="185" width="50" height="3" fill="#8B4513"/>
  
  <!-- Grill Legs -->
  <rect x="178" y="185" width="2" height="15" fill="#696969"/>
  <rect x="190" y="185" width="2" height="15" fill="#696969"/>
  <rect x="210" y="185" width="2" height="15" fill="#696969"/>
  <rect x="222" y="185" width="2" height="15" fill="#696969"/>
  
  <!-- Outdoor Chef -->
  <circle cx="200" cy="130" r="18" fill="#F4C2A1"/>
  <rect x="186" y="146" width="28" height="32" fill="#8B0000"/>
  <ellipse cx="200" cy="116" rx="10" ry="5" fill="#8B4513"/>
  
  <!-- Chef Hat -->
  <ellipse cx="200" cy="108" rx="12" ry="8" fill="#FFFFFF"/>
  <ellipse cx="200" cy="105" rx="10" ry="6" fill="#F8F8FF"/>
  
  <!-- Chef Features -->
  <circle cx="195" cy="128" r="1" fill="#000000"/>
  <circle cx="205" cy="128" r="1" fill="#000000"/>
  <path d="M200 135 Q195 140 200 145" stroke="#000000" stroke-width="1" fill="none"/>
  
  <!-- Barbecue Apron -->
  <rect x="190" y="150" width="20" height="25" fill="#FF6347"/>
  <text x="200" y="162" text-anchor="middle" fill="#FFFFFF" font-family="Arial" font-size="8" font-weight="bold">BBQ</text>
  <text x="200" y="170" text-anchor="middle" fill="#FFFFFF" font-family="Arial" font-size="6">MASTER</text>
  
  <!-- Outdoor Party Guests -->
  
  <!-- Guest 1 - Casual Summer Outfit -->
  <circle cx="120" cy="140" r="16" fill="#F4C2A1"/>
  <rect x="108" y="154" width="24" height="28" fill="#87CEEB"/>
  <ellipse cx="120" cy="127" rx="8" ry="4" fill="#FFD700"/>
  <circle cx="116" cy="138" r="1" fill="#000000"/>
  <circle cx="124" cy="138" r="1" fill="#000000"/>
  <path d="M120 145 Q115 150 120 155" stroke="#FF69B4" stroke-width="1" fill="none"/>
  
  <!-- Guest 2 - Khaki Shorts -->
  <circle cx="280" cy="145" r="15" fill="#F4C2A1"/>
  <rect x="269" y="158" width="22" height="26" fill="#F5DEB3"/>
  <ellipse cx="280" cy="133" rx="7" ry="4" fill="#8B4513"/>
  <circle cx="276" cy="143" r="1" fill="#000000"/>
  <circle cx="284" cy="143" r="1" fill="#000000"/>
  <path d="M280 150 Q275 155 280 160" stroke="#000000" stroke-width="1" fill="none"/>
  
  <!-- Kids Playing -->
  <!-- Child 1 -->
  <circle cx="150" cy="220" r="12" fill="#F4C2A1"/>
  <rect x="142" y="230" width="16" height="20" fill="#FF69B4"/>
  <ellipse cx="150" cy="211" rx="6" ry="3" fill="#8B4513"/>
  <circle cx="146" cy="218" r="1" fill="#000000"/>
  <circle cx="154" cy="218" r="1" fill="#000000"/>
  <ellipse cx="150" cy="223" rx="3" ry="2" fill="#FF69B4"/>
  
  <!-- Child 2 -->
  <circle cx="250" cy="225" r="10" fill="#F4C2A1"/>
  <rect x="244" y="233" width="12" height="17" fill="#32CD32"/>
  <ellipse cx="250" cy="218" rx="5" ry="2" fill="#FFD700"/>
  <circle cx="246" cy="223" r="1" fill="#000000"/>
  <circle cx="254" cy="223" r="1" fill="#000000"/>
  <ellipse cx="250" cy="227" rx="2" ry="1" fill="#FF69B4"/>
  
  <!-- Outdoor Equipment -->
  
  <!-- Cooler with Ice -->
  <rect x="80" y="200" width="25" height="20" fill="#4169E1"/>
  <rect x="82" y="202" width="21" height="16" fill="#6495ED"/>
  <rect x="84" y="204" width="17" height="3" fill="#FFFFFF"/>
  <g fill="#87CEEB">
    <circle cx="88" cy="210" r="1"/>
    <circle cx="93" cy="212" r="1"/>
    <circle cx="98" cy="210" r="1"/>
  </g>
  
  <!-- Outdoor Chairs -->
  <!-- Folding Chair 1 -->
  <rect x="300" y="190" width="15" height="20" fill="#228B22"/>
  <rect x="302" y="192" width="11" height="16" fill="#32CD32"/>
  <rect x="305" y="210" width="5" height="15" fill="#8B4513"/>
  
  <!-- Folding Chair 2 -->
  <rect x="320" y="195" width="15" height="20" fill="#FF6347"/>
  <rect x="322" y="197" width="11" height="16" fill="#FF7F50"/>
  <rect x="325" y="215" width="5" height="15" fill="#8B4513"/>
  
  <!-- Picnic Blanket -->
  <rect x="50" y="230" width="40" height="30" fill="#FF1493"/>
  <g fill="#FFB6C1">
    <rect x="52" y="232" width="8" height="8"/>
    <rect x="68" y="232" width="8" height="8"/>
    <rect x="84" y="232" width="6" height="8"/>
    <rect x="52" y="248" width="8" height="8"/>
    <rect x="68" y="248" width="8" height="8"/>
    <rect x="84" y="248" width="6" height="8"/>
  </g>
  
  <!-- Outdoor Hibachi Flames -->
  <g opacity="0.9">
    <ellipse cx="190" cy="157" rx="4" ry="8" fill="#FF4500"/>
    <ellipse cx="200" cy="155" rx="5" ry="10" fill="#FFD700"/>
    <ellipse cx="210" cy="157" rx="4" ry="8" fill="#FF6347"/>
  </g>
  
  <!-- Grilled Food -->
  <!-- Corn on the Cob -->
  <ellipse cx="185" cy="165" rx="3" ry="8" fill="#FFD700"/>
  <g fill="#FFFF00">
    <circle cx="185" cy="160" r="0.5"/>
    <circle cx="185" cy="163" r="0.5"/>
    <circle cx="185" cy="166" r="0.5"/>
    <circle cx="185" cy="169" r="0.5"/>
  </g>
  
  <!-- Burgers -->
  <ellipse cx="200" cy="167" rx="4" ry="3" fill="#8B4513"/>
  <ellipse cx="200" cy="166" rx="3" ry="2" fill="#A0522D"/>
  
  <!-- Hot Dogs -->
  <ellipse cx="215" cy="166" rx="5" ry="2" fill="#FF6347"/>
  <ellipse cx="215" cy="165" rx="4" ry="1" fill="#FF7F50"/>
  
  <!-- Outdoor Party Decorations -->
  
  <!-- String Lights -->
  <g stroke="#FFD700" stroke-width="2" fill="none">
    <path d="M30 120 Q80 130 130 120 Q180 110 230 120 Q280 130 330 120 Q370 110 390 120"/>
  </g>
  <g fill="#FFFF00">
    <circle cx="50" cy="125" r="2"/>
    <circle cx="100" cy="125" r="2"/>
    <circle cx="150" cy="115" r="2"/>
    <circle cx="200" cy="115" r="2"/>
    <circle cx="250" cy="125" r="2"/>
    <circle cx="300" cy="125" r="2"/>
    <circle cx="350" cy="115" r="2"/>
  </g>
  
  <!-- Citronella Candles -->
  <g>
    <!-- Candle 1 -->
    <rect x="340" y="170" width="6" height="12" fill="#FF6347"/>
    <ellipse cx="343" cy="168" rx="3" ry="2" fill="#FFD700"/>
    <ellipse cx="343" cy="166" rx="1" ry="3" fill="#FFA500" opacity="0.8"/>
    
    <!-- Candle 2 -->
    <rect x="360" y="175" width="6" height="12" fill="#32CD32"/>
    <ellipse cx="363" cy="173" rx="3" ry="2" fill="#FFD700"/>
    <ellipse cx="363" cy="171" rx="1" ry="3" fill="#FFA500" opacity="0.8"/>
  </g>
  
  <!-- Outdoor Music Speaker -->
  <rect x="340" y="210" width="15" height="20" fill="#000000"/>
  <rect x="342" y="212" width="11" height="16" fill="#4169E1"/>
  <circle cx="347" cy="218" r="3" fill="#C0C0C0"/>
  <circle cx="347" cy="224" r="2" fill="#C0C0C0"/>
  <g fill="#00FF00">
    <circle cx="345" cy="215" r="0.5"/>
    <circle cx="349" cy="215" r="0.5"/>
  </g>
  
  <!-- Outdoor Games -->
  
  <!-- Frisbee -->
  <circle cx="380" cy="180" r="8" fill="#FF69B4"/>
  <circle cx="380" cy="180" r="6" fill="#FFB6C1"/>
  <circle cx="380" cy="180" r="2" fill="#FFFFFF"/>
  
  <!-- Beach Ball -->
  <circle cx="30" cy="180" r="10" fill="#FFFFFF"/>
  <g fill="#FF0000">
    <path d="M30 170 Q35 175 30 180 Q25 175 30 170"/>
    <path d="M30 180 Q35 185 30 190 Q25 185 30 180"/>
  </g>
  <g fill="#0000FF">
    <path d="M20 180 Q25 175 30 180 Q25 185 20 180"/>
    <path d="M40 180 Q35 175 30 180 Q35 185 40 180"/>
  </g>
  
  <!-- Trees/Nature Background -->
  
  <!-- Tree 1 -->
  <rect x="25" y="90" width="8" height="40" fill="#8B4513"/>
  <circle cx="29" cy="85" r="15" fill="#228B22"/>
  <circle cx="29" cy="85" r="12" fill="#32CD32"/>
  
  <!-- Tree 2 -->
  <rect x="360" y="85" width="10" height="45" fill="#8B4513"/>
  <circle cx="365" cy="80" r="18" fill="#228B22"/>
  <circle cx="365" cy="80" r="15" fill="#32CD32"/>
  
  <!-- Bushes -->
  <ellipse cx="15" cy="140" rx="12" ry="8" fill="#228B22"/>
  <ellipse cx="385" cy="145" rx="10" ry="6" fill="#228B22"/>
  
  <!-- Outdoor Beverages -->
  
  <!-- Lemonade Pitcher -->
  <ellipse cx="110" cy="175" rx="5" ry="8" fill="#FFFF00"/>
  <ellipse cx="110" cy="172" rx="4" ry="6" fill="#FFF8DC"/>
  <rect x="114" y="172" width="3" height="6" fill="#8B4513"/>
  <g fill="#FFFF00">
    <circle cx="108" cy="174" r="0.5"/>
    <circle cx="112" cy="176" r="0.5"/>
    <circle cx="110" cy="178" r="0.5"/>
  </g>
  
  <!-- Beer Bottles -->
  <rect x="90" y="230" width="3" height="12" fill="#8B4513"/>
  <ellipse cx="91.5" cy="228" rx="1.5" ry="2" fill="#8B4513"/>
  
  <rect x="95" y="232" width="3" height="12" fill="#8B4513"/>
  <ellipse cx="96.5" cy="230" rx="1.5" ry="2" fill="#8B4513"/>
  
  <!-- Outdoor Steam -->
  <g stroke="#87CEEB" stroke-width="2" fill="none" opacity="0.7">
    <path d="M190 150 Q192 145 190 140 Q188 135 190 130"/>
    <path d="M200 150 Q202 145 200 140 Q198 135 200 130"/>
    <path d="M210 150 Q212 145 210 140 Q208 135 210 130"/>
  </g>
  
  <!-- Nature Sounds Indicator -->
  <g fill="#228B22" opacity="0.6">
    <circle cx="370" cy="60" r="1"/>
    <circle cx="375" cy="58" r="0.5"/>
    <circle cx="372" cy="55" r="0.7"/>
  </g>
  <text x="375" y="65" text-anchor="middle" fill="#228B22" font-family="Arial" font-size="6">birds</text>
  
  <!-- Outdoor Grill Tools -->
  
  <!-- Spatula -->
  <rect x="160" y="140" width="15" height="2" fill="#C0C0C0"/>
  <rect x="160" y="140" width="3" height="8" fill="#8B4513"/>
  
  <!-- Tongs -->
  <g stroke="#C0C0C0" stroke-width="2" fill="none">
    <path d="M240 142 Q245 140 250 142"/>
    <path d="M240 145 Q245 147 250 145"/>
  </g>
  <circle cx="240" cy="143" r="1" fill="#8B4513"/>
  
  <!-- Outdoor Thermometer -->
  <rect x="270" y="160" width="4" height="15" fill="#FFFFFF"/>
  <rect x="271" y="161" width="2" height="13" fill="#FF0000"/>
  <circle cx="272" cy="176" r="2" fill="#FF0000"/>
  <text x="276" y="168" fill="#000000" font-family="Arial" font-size="4">85°F</text>
  
  <!-- Outdoor Fun Elements -->
  
  <!-- Butterfly -->
  <g fill="#FF69B4">
    <ellipse cx="180" cy="100" rx="2" ry="1" transform="rotate(15 180 100)"/>
    <ellipse cx="184" cy="100" rx="2" ry="1" transform="rotate(-15 184 100)"/>
    <ellipse cx="180" cy="104" rx="1.5" ry="0.8" transform="rotate(15 180 104)"/>
    <ellipse cx="184" cy="104" rx="1.5" ry="0.8" transform="rotate(-15 184 104)"/>
  </g>
  <line x1="182" y1="98" x2="182" y2="106" stroke="#000000" stroke-width="0.5"/>
  
  <!-- Outdoor Eating Utensils -->
  <g stroke="#C0C0C0" stroke-width="1">
    <line x1="130" y1="185" x2="130" y2="195"/>
    <line x1="135" y1="185" x2="135" y2="195"/>
    <line x1="140" y1="185" x2="140" y2="195"/>
  </g>
  
  <!-- Napkins blowing in breeze -->
  <g fill="#FFFFFF">
    <path d="M160 200 Q165 195 170 200 Q165 205 160 200"/>
    <path d="M230 205 Q235 200 240 205 Q235 210 230 205"/>
  </g>
  
  <!-- Title -->
  <text x="200" y="15" text-anchor="middle" fill="#228B22" font-family="Arial, sans-serif" font-size="22" font-weight="bold">
    Outdoor Hibachi Party
  </text>
  
  <!-- Subtitle -->
  <text x="200" y="285" text-anchor="middle" fill="#8B4513" font-family="Arial, sans-serif" font-size="14">
    "Fresh air, great food, and outdoor fun with family and friends"
  </text>
  
  <defs>
    <linearGradient id="outdoorGradient" x1="0%" y1="0%" x2="100%" y2="100%">
      <stop offset="0%" style="stop-color:#87CEEB;stop-opacity:1" />
      <stop offset="30%" style="stop-color:#E0F6FF;stop-opacity:1" />
      <stop offset="70%" style="stop-color:#F0FFFF;stop-opacity:1" />
      <stop offset="100%" style="stop-color:#F5FFFA;stop-opacity:1" />
    </linearGradient>
  </defs>
</svg>
