<?xml version="1.0" encoding="UTF-8"?>
<svg viewBox="0 0 800 600" xmlns="http://www.w3.org/2000/svg">
  <!-- Palo Alto luxury hibachi Stanford corporate dining -->
  <defs>
    <linearGradient id="luxurySky" x1="0%" y1="0%" x2="0%" y2="100%">
      <stop offset="0%" style="stop-color:#4B0082"/>
      <stop offset="50%" style="stop-color:#663399"/>
      <stop offset="100%" style="stop-color:#8B008B"/>
    </linearGradient>
    <linearGradient id="stanfordBuilding" x1="0%" y1="0%" x2="0%" y2="100%">
      <stop offset="0%" style="stop-color:#B8860B"/>
      <stop offset="100%" style="stop-color:#DAA520"/>
    </linearGradient>
    <radialGradient id="luxuryGlow" cx="50%" cy="50%" r="50%">
      <stop offset="0%" style="stop-color:#FFD700; opacity:0.7"/>
      <stop offset="100%" style="stop-color:transparent"/>
    </radialGradient>
  </defs>
  
  <!-- Palo Alto luxury evening sky -->
  <rect width="800" height="600" fill="url(#luxurySky)"/>
  
  <!-- Luxury stars -->
  <circle cx="120" cy="50" r="2.5" fill="#FFD700"/>
  <circle cx="240" cy="35" r="2" fill="white"/>
  <circle cx="380" cy="60" r="2.5" fill="#FFD700"/>
  <circle cx="520" cy="40" r="2" fill="white"/>
  <circle cx="650" cy="55" r="2.5" fill="#FFD700"/>
  <circle cx="750" cy="70" r="2" fill="white"/>
  
  <!-- Stanford University and Palo Alto buildings -->
  <rect x="80" y="140" width="120" height="160" fill="url(#stanfordBuilding)" rx="10"/>
  <rect x="220" y="120" width="140" height="180" fill="url(#stanfordBuilding)" rx="10"/>
  <rect x="380" y="160" width="100" height="140" fill="url(#stanfordBuilding)" rx="10"/>
  <rect x="500" y="130" width="130" height="170" fill="url(#stanfordBuilding)" rx="10"/>
  <rect x="650" y="150" width="110" height="150" fill="url(#stanfordBuilding)" rx="10"/>
  
  <!-- Stanford Memorial Church -->
  <rect x="160" y="100" width="80" height="60" fill="url(#stanfordBuilding)" rx="8"/>
  <polygon points="155,100 245,100 200,70" fill="#8B4513"/>
  <rect x="195" y="85" width="10" height="15" fill="#654321"/>
  <polygon points="195,85 205,85 200,75" fill="#FFD700"/>
  <!-- Church tower -->
  <rect x="190" y="75" width="20" height="40" fill="#8B4513"/>
  <polygon points="185,75 215,75 200,60" fill="#654321"/>
  <circle cx="200" cy="68" r="3" fill="#FFD700"/>
  
  <!-- Stanford logos and branding -->
  <circle cx="140" cy="180" r="18" fill="#8B0000"/>
  <text x="140" y="186" text-anchor="middle" fill="#FFD700" font-family="Arial, sans-serif" font-size="10" font-weight="bold">STANFORD</text>
  
  <rect x="280" y="160" width="60" height="30" fill="#8B0000" rx="5"/>
  <text x="310" y="172" text-anchor="middle" fill="#FFD700" font-family="Arial, sans-serif" font-size="8">CARDINAL</text>
  <text x="310" y="182" text-anchor="middle" fill="white" font-family="Arial, sans-serif" font-size="8">EXCELLENCE</text>
  
  <circle cx="550" cy="190" r="16" fill="#8B0000"/>
  <text x="550" y="196" text-anchor="middle" fill="#FFD700" font-family="Arial, sans-serif" font-size="9">TREE</text>
  
  <!-- Luxury corporate venue -->
  <rect x="150" y="320" width="500" height="200" fill="#2F2F2F" opacity="0.95" rx="25"/>
  <text x="400" y="355" text-anchor="middle" fill="#FFD700" font-family="Arial, sans-serif" font-size="24" font-weight="bold">PALO ALTO LUXURY HIBACHI</text>
  <text x="400" y="385" text-anchor="middle" fill="white" font-family="Arial, sans-serif" font-size="18">STANFORD CORPORATE DINING</text>
  
  <!-- Luxury hibachi setup -->
  <rect x="170" y="290" width="460" height="140" fill="#2F4F4F" rx="18"/>
  <rect x="180" y="285" width="440" height="25" fill="#DAA520"/>
  
  <!-- Premium hibachi grills -->
  <circle cx="200" cy="295" r="11" fill="#FFD700"/>
  <circle cx="235" cy="295" r="11" fill="#B8860B"/>
  <circle cx="270" cy="295" r="11" fill="#FFD700"/>
  <circle cx="305" cy="295" r="11" fill="#B8860B"/>
  <circle cx="340" cy="295" r="11" fill="#FFD700"/>
  <circle cx="375" cy="295" r="11" fill="#B8860B"/>
  <circle cx="410" cy="295" r="11" fill="#FFD700"/>
  <circle cx="445" cy="295" r="11" fill="#B8860B"/>
  <circle cx="480" cy="295" r="11" fill="#FFD700"/>
  <circle cx="515" cy="295" r="11" fill="#B8860B"/>
  <circle cx="550" cy="295" r="11" fill="#FFD700"/>
  <circle cx="585" cy="295" r="11" fill="#B8860B"/>
  
  <!-- Executive hibachi chef -->
  <circle cx="400" cy="230" r="20" fill="#FDBCB4"/>
  <rect x="384" y="250" width="32" height="38" fill="white"/>
  <rect x="379" y="288" width="42" height="44" fill="#000000"/> <!-- Black executive outfit -->
  <rect x="383" y="332" width="12" height="34" fill="#FDBCB4"/>
  <rect x="405" y="332" width="12" height="34" fill="#FDBCB4"/>
  
  <!-- Executive chef hat -->
  <rect x="388" y="214" width="24" height="14" fill="white"/>
  <circle cx="400" cy="214" r="16" fill="white"/>
  <rect x="396" y="205" width="8" height="6" fill="#FFD700"/> <!-- Luxury accent -->
  
  <!-- Corporate executives -->
  <!-- CEO -->
  <circle cx="280" cy="450" r="17" fill="#FDBCB4"/>
  <rect x="267" y="467" width="26" height="36" fill="#000080"/> <!-- Navy executive suit -->
  <rect x="269" y="503" width="22" height="30" fill="#000080"/>
  <rect x="271" y="533" width="18" height="24" fill="#000000"/> <!-- Black dress shoes -->
  <!-- Executive briefcase -->
  <rect x="255" y="475" width="8" height="12" fill="#8B4513"/>
  <rect x="256" y="476" width="6" height="10" fill="#DAA520"/>
  
  <!-- Stanford Professor -->
  <circle cx="520" cy="450" r="17" fill="#FDBCB4"/>
  <rect x="507" y="467" width="26" height="36" fill="#8B0000"/> <!-- Cardinal red jacket -->
  <rect x="509" y="503" width="22" height="30" fill="#696969"/> <!-- Gray pants -->
  <rect x="511" y="533" width="18" height="24" fill="#8B4513"/> <!-- Brown shoes -->
  <!-- Academic papers -->
  <rect x="535" y="470" width="6" height="10" fill="white"/>
  <rect x="536" y="471" width="4" height="8" fill="#8B0000"/>
  
  <!-- VP Operations -->
  <circle cx="320" cy="460" r="16" fill="#FDBCB4"/>
  <rect x="308" y="476" width="24" height="34" fill="#4B0082"/> <!-- Purple executive -->
  <rect x="310" y="510" width="20" height="28" fill="#000080"/>
  <rect x="312" y="538" width="16" height="22" fill="#000000"/>
  <!-- Tablet -->
  <rect x="305" y="485" width="8" height="12" fill="#2F4F4F"/>
  <rect x="306" y="486" width="6" height="10" fill="#FFD700"/>
  
  <!-- Stanford Alumni Executive -->
  <circle cx="480" cy="460" r="16" fill="#FDBCB4"/>
  <rect x="468" y="476" width="24" height="34" fill="#DAA520"/> <!-- Gold executive -->
  <rect x="470" y="510" width="20" height="28" fill="#000080"/>
  <rect x="472" y="538" width="16" height="22" fill="#654321"/>
  <!-- Stanford ring -->
  <circle cx="476" cy="485" r="2" fill="#8B0000"/>
  <circle cx="476" cy="485" r="1" fill="#FFD700"/>
  
  <!-- Senior Partners -->
  <circle cx="360" cy="470" r="15" fill="#FDBCB4"/>
  <rect x="349" y="485" width="22" height="32" fill="#8B008B"/> <!-- Luxury purple -->
  <rect x="351" y="517" width="18" height="26" fill="#000080"/>
  <rect x="353" y="543" width="14" height="20" fill="#000000"/>
  
  <circle cx="440" cy="470" r="15" fill="#FDBCB4"/>
  <rect x="429" y="485" width="22" height="32" fill="#2F4F4F"/> <!-- Charcoal executive -->
  <rect x="431" y="517" width="18" height="26" fill="#696969"/>
  <rect x="433" y="543" width="14" height="20" fill="#000000"/>
  
  <!-- Luxury dining table -->
  <ellipse cx="400" cy="580" rx="200" ry="55" fill="#8B4513"/>
  <ellipse cx="400" cy="575" rx="190" ry="50" fill="#DAA520"/>
  
  <!-- Premium place settings -->
  <circle cx="250" cy="575" r="14" fill="white"/>
  <circle cx="250" cy="575" r="10" fill="#FFD700"/>
  <circle cx="300" cy="575" r="14" fill="white"/>
  <circle cx="300" cy="575" r="10" fill="#FFD700"/>
  <circle cx="350" cy="575" r="14" fill="white"/>
  <circle cx="350" cy="575" r="10" fill="#FFD700"/>
  <circle cx="400" cy="575" r="14" fill="white"/>
  <circle cx="400" cy="575" r="10" fill="#FFD700"/>
  <circle cx="450" cy="575" r="14" fill="white"/>
  <circle cx="450" cy="575" r="10" fill="#FFD700"/>
  <circle cx="500" cy="575" r="14" fill="white"/>
  <circle cx="500" cy="575" r="10" fill="#FFD700"/>
  <circle cx="550" cy="575" r="14" fill="white"/>
  <circle cx="550" cy="575" r="10" fill="#FFD700"/>
  
  <!-- Executive beverages -->
  <rect x="245" y="565" width="6" height="14" fill="#8B0000"/> <!-- Premium wine -->
  <rect x="295" y="565" width="6" height="14" fill="#DAA520"/> <!-- Champagne -->
  <rect x="345" y="565" width="6" height="14" fill="#4B0082"/> <!-- Premium spirits -->
  <rect x="395" y="565" width="6" height="14" fill="#8B0000"/> <!-- Vintage wine -->
  <rect x="445" y="565" width="6" height="14" fill="#FFD700"/> <!-- Luxury champagne -->
  <rect x="495" y="565" width="6" height="14" fill="#654321"/> <!-- Aged whiskey -->
  <rect x="545" y="565" width="6" height="14" fill="#B8860B"/> <!-- Premium sake -->
  
  <!-- Luxury title -->
  <text x="400" y="110" text-anchor="middle" fill="#FFD700" font-family="Arial, sans-serif" font-size="30" font-weight="bold">PALO ALTO LUXURY</text>
  <text x="400" y="145" text-anchor="middle" fill="white" font-family="Arial, sans-serif" font-size="20">STANFORD CORPORATE HIBACHI</text>
  
  <!-- Premium zones -->
  <rect x="30" y="480" width="120" height="90" fill="#DAA520" opacity="0.8" rx="12"/>
  <text x="90" y="505" text-anchor="middle" fill="#2F2F2F" font-family="Arial, sans-serif" font-size="14" font-weight="bold">STANFORD</text>
  <text x="90" y="520" text-anchor="middle" fill="#8B0000" font-family="Arial, sans-serif" font-size="13">EXCELLENCE</text>
  <text x="90" y="535" text-anchor="middle" fill="#2F2F2F" font-family="Arial, sans-serif" font-size="12">EXECUTIVE</text>
  <text x="90" y="550" text-anchor="middle" fill="#2F2F2F" font-family="Arial, sans-serif" font-size="11">DINING</text>
  <text x="90" y="565" text-anchor="middle" fill="#2F2F2F" font-family="Arial, sans-serif" font-size="10">PALO ALTO</text>
  
  <rect x="650" y="480" width="120" height="90" fill="#8B0000" opacity="0.8" rx="12"/>
  <text x="710" y="505" text-anchor="middle" fill="white" font-family="Arial, sans-serif" font-size="14" font-weight="bold">LUXURY</text>
  <text x="710" y="520" text-anchor="middle" fill="#FFD700" font-family="Arial, sans-serif" font-size="13">CORPORATE</text>
  <text x="710" y="535" text-anchor="middle" fill="white" font-family="Arial, sans-serif" font-size="12">HIBACHI</text>
  <text x="710" y="550" text-anchor="middle" fill="white" font-family="Arial, sans-serif" font-size="11">PREMIUM</text>
  <text x="710" y="565" text-anchor="middle" fill="white" font-family="Arial, sans-serif" font-size="10">EXPERIENCE</text>
  
  <!-- Premium hibachi specialties -->
  <ellipse cx="210" cy="293" rx="15" ry="10" fill="#FFD700"/>
  <ellipse cx="245" cy="293" rx="16" ry="10" fill="#B8860B"/>
  <ellipse cx="280" cy="293" rx="15" ry="10" fill="#FFD700"/>
  <ellipse cx="315" cy="293" rx="14" ry="9" fill="#B8860B"/>
  <ellipse cx="350" cy="293" rx="15" ry="10" fill="#FFD700"/>
  <ellipse cx="385" cy="293" rx="16" ry="10" fill="#B8860B"/>
  <ellipse cx="420" cy="293" rx="15" ry="10" fill="#FFD700"/>
  <ellipse cx="455" cy="293" rx="14" ry="9" fill="#B8860B"/>
  <ellipse cx="490" cy="293" rx="15" ry="10" fill="#FFD700"/>
  <ellipse cx="525" cy="293" rx="16" ry="10" fill="#B8860B"/>
  <ellipse cx="560" cy="293" rx="15" ry="10" fill="#FFD700"/>
  <ellipse cx="595" cy="293" rx="14" ry="9" fill="#B8860B"/>
  
  <!-- Luxury flames -->
  <polygon points="210,293 215,283 205,283" fill="#FFD700" opacity="0.9"/>
  <polygon points="245,293 250,283 240,283" fill="#B8860B" opacity="0.9"/>
  <polygon points="280,293 285,283 275,283" fill="#FFD700" opacity="0.9"/>
  <polygon points="315,293 320,283 310,283" fill="#B8860B" opacity="0.9"/>
  <polygon points="350,293 355,283 345,283" fill="#FFD700" opacity="0.9"/>
  <polygon points="385,293 390,283 380,283" fill="#B8860B" opacity="0.9"/>
  <polygon points="420,293 425,283 415,283" fill="#FFD700" opacity="0.9"/>
  <polygon points="455,293 460,283 450,283" fill="#B8860B" opacity="0.9"/>
  <polygon points="490,293 495,283 485,283" fill="#FFD700" opacity="0.9"/>
  <polygon points="525,293 530,283 520,283" fill="#B8860B" opacity="0.9"/>
  <polygon points="560,293 565,283 555,283" fill="#FFD700" opacity="0.9"/>
  <polygon points="595,293 600,283 590,283" fill="#B8860B" opacity="0.9"/>
  
  <!-- Stanford palm trees -->
  <rect x="70" y="230" width="8" height="70" fill="#8B4513"/>
  <ellipse cx="74" cy="230" rx="12" ry="20" fill="#32CD32"/>
  <ellipse cx="68" cy="220" rx="8" ry="12" fill="#32CD32"/>
  <ellipse cx="80" cy="225" rx="6" ry="10" fill="#32CD32"/>
  
  <rect x="722" y="240" width="8" height="60" fill="#8B4513"/>
  <ellipse cx="726" cy="240" rx="10" ry="16" fill="#32CD32"/>
  <ellipse cx="720" cy="232" rx="6" ry="10" fill="#32CD32"/>
  <ellipse cx="732" cy="235" rx="5" ry="8" fill="#32CD32"/>
  
  <!-- Luxury atmosphere -->
  <circle cx="400" cy="400" r="250" fill="url(#luxuryGlow)"/>
  
  <!-- Executive parking -->
  <rect x="50" y="350" width="60" height="30" fill="#2F2F2F" rx="5"/>
  <text x="80" y="370" text-anchor="middle" fill="#FFD700" font-family="Arial, sans-serif" font-size="10">TESLA</text>
  
  <rect x="690" y="360" width="60" height="30" fill="#2F2F2F" rx="5"/>
  <text x="720" y="380" text-anchor="middle" fill="#FFD700" font-family="Arial, sans-serif" font-size="10">PORSCHE</text>
  
  <!-- Premium subtitle -->
  <text x="400" y="80" text-anchor="middle" fill="#DAA520" font-family="Arial, sans-serif" font-size="16" font-weight="bold">WHERE EXCELLENCE MEETS CULINARY ART</text>
</svg>
