<svg width="400" height="300" viewBox="0 0 400 300" fill="none" xmlns="http://www.w3.org/2000/svg">
  <!-- Background -->
  <rect width="400" height="300" fill="url(#summerGradient)"/>
  
  <!-- Sun -->
  <circle cx="350" cy="50" r="25" fill="#FFD700"/>
  <circle cx="350" cy="50" r="20" fill="#FFFF00"/>
  
  <!-- Sun Rays -->
  <g stroke="#FFD700" stroke-width="3">
    <line x1="320" y1="30" x2="325" y2="35"/>
    <line x1="375" y1="35" x2="380" y2="30"/>
    <line x1="330" y1="70" x2="325" y2="75"/>
    <line x1="370" y1="75" x2="375" y2="70"/>
    <line x1="315" y1="50" x2="310" y2="50"/>
    <line x1="385" y1="50" x2="390" y2="50"/>
    <line x1="335" y1="15" x2="340" y2="10"/>
    <line x1="360" y1="10" x2="365" y2="15"/>
  </g>
  
  <!-- Pool Area -->
  <ellipse cx="200" cy="220" rx="120" ry="50" fill="#00BFFF"/>
  <ellipse cx="200" cy="215" rx="115" ry="45" fill="#87CEEB"/>
  <ellipse cx="200" cy="210" rx="110" ry="40" fill="#B0E0E6"/>
  
  <!-- Pool Deck -->
  <rect x="50" y="190" width="300" height="20" fill="#DEB887"/>
  <rect x="52" y="192" width="296" height="16" fill="#F5DEB3"/>
  
  <!-- Poolside Hibachi Setup -->
  <rect x="160" y="160" width="80" height="40" rx="8" fill="#FF6347"/>
  <rect x="165" y="165" width="70" height="30" rx="6" fill="#2F4F4F"/>
  <rect x="170" y="170" width="60" height="20" rx="4" fill="#1C1C1C"/>
  
  <!-- Hibachi Grill -->
  <ellipse cx="200" cy="180" rx="25" ry="8" fill="#4A4A4A"/>
  <ellipse cx="200" cy="177" rx="20" ry="6" fill="#696969"/>
  
  <!-- Pool Party Chef -->
  <circle cx="130" cy="150" r="18" fill="#F4C2A1"/>
  <rect x="117" y="166" width="26" height="30" fill="#00BFFF"/>
  <rect x="119" y="168" width="22" height="4" fill="#FFFFFF"/>
  
  <!-- Chef's Pool Hat -->
  <ellipse cx="130" cy="135" rx="12" ry="8" fill="#FFFFFF"/>
  <rect x="118" y="135" width="24" height="10" fill="#FFFFFF"/>
  <circle cx="130" cy="130" r="3" fill="#FF6347"/>
  
  <!-- Sunglasses -->
  <ellipse cx="125" cy="148" rx="4" ry="2" fill="#000000"/>
  <ellipse cx="135" cy="148" rx="4" ry="2" fill="#000000"/>
  <line x1="129" y1="148" x2="131" y2="148" stroke="#000000" stroke-width="1"/>
  
  <!-- Pool Float Guests -->
  
  <!-- Guest 1 on Flamingo Float -->
  <ellipse cx="120" cy="220" rx="20" ry="8" fill="#FF69B4"/>
  <ellipse cx="120" cy="218" rx="18" ry="6" fill="#FFB6C1"/>
  <circle cx="105" cy="215" r="6" fill="#FF69B4"/>
  <ellipse cx="103" cy="212" rx="2" ry="4" fill="#FF1493"/>
  
  <!-- Person on Float -->
  <circle cx="120" cy="205" r="12" fill="#F4C2A1"/>
  <rect x="112" y="215" width="16" height="20" fill="#FF8C00"/>
  <ellipse cx="120" cy="195" rx="6" ry="4" fill="#FFD700"/>
  
  <!-- Sunglasses on Guest -->
  <ellipse cx="116" cy="203" rx="3" ry="1" fill="#000000"/>
  <ellipse cx="124" cy="203" rx="3" ry="1" fill="#000000"/>
  
  <!-- Guest 2 on Unicorn Float -->
  <ellipse cx="280" cy="225" rx="22" ry="10" fill="#DDA0DD"/>
  <ellipse cx="280" cy="223" rx="20" ry="8" fill="#E6E6FA"/>
  <polygon points="265,218 270,208 275,218" fill="#FFD700"/>
  <circle cx="270" cy="215" r="1" fill="#FF69B4"/>
  
  <!-- Person on Unicorn -->
  <circle cx="280" cy="210" r="14" fill="#F4C2A1"/>
  <rect x="271" y="222" width="18" height="22" fill="#800080"/>
  <ellipse cx="280" cy="198" rx="7" ry="5" fill="#8B4513"/>
  
  <!-- Pool Noodles -->
  <ellipse cx="150" cy="230" rx="30" ry="3" fill="#32CD32" transform="rotate(15 150 230)"/>
  <ellipse cx="250" cy="235" rx="25" ry="3" fill="#FF6347" transform="rotate(-20 250 235)"/>
  
  <!-- Beach Balls -->
  <circle cx="80" cy="240" r="8" fill="#FF0000"/>
  <path d="M80 232 A 8 8 0 0 1 80 248" fill="#FFFFFF"/>
  <path d="M72 240 A 8 8 0 0 1 88 240" fill="#0000FF"/>
  
  <circle cx="320" cy="245" r="6" fill="#FFD700"/>
  <path d="M320 239 A 6 6 0 0 1 320 251" fill="#FF69B4"/>
  <path d="M314 245 A 6 6 0 0 1 326 245" fill="#32CD32"/>
  
  <!-- Summer Drinks -->
  <!-- Tropical Drink 1 -->
  <rect x="50" y="170" width="6" height="12" fill="#00BFFF"/>
  <ellipse cx="53" cy="170" rx="3" ry="1" fill="#FFD700"/>
  <rect x="50" y="168" width="6" height="2" fill="#32CD32"/>
  <line x1="56" y1="165" x2="60" y2="160" stroke="#FF6347" stroke-width="2"/>
  <ellipse cx="60" cy="158" rx="2" ry="1" fill="#FF69B4"/>
  
  <!-- Tropical Drink 2 -->
  <rect x="340" y="175" width="8" height="15" fill="#FF69B4"/>
  <ellipse cx="344" cy="175" rx="4" ry="1" fill="#FFFFFF"/>
  <line x1="348" y1="172" x2="352" y2="167" stroke="#32CD32" stroke-width="2"/>
  <circle cx="352" cy="165" r="1" fill="#FF6347"/>
  
  <!-- Pool Umbrellas -->
  <!-- Umbrella 1 -->
  <line x1="70" y1="120" x2="70" y2="180" stroke="#8B4513" stroke-width="4"/>
  <path d="M45 120 Q70 100 95 120 Q70 125 45 120" fill="#FF6347"/>
  <path d="M47 120 Q70 105 93 120 Q70 123 47 120" fill="#FF7F50"/>
  
  <!-- Umbrella 2 -->
  <line x1="330" y1="115" x2="330" y2="175" stroke="#8B4513" stroke-width="4"/>
  <path d="M305 115 Q330 95 355 115 Q330 120 305 115" fill="#32CD32"/>
  <path d="M307 115 Q330 100 353 115 Q330 118 307 115" fill="#9ACD32"/>
  
  <!-- Pool Chairs -->
  <rect x="100" y="175" width="25" height="4" fill="#FFD700"/>
  <rect x="105" y="179" width="15" height="8" fill="#FF6347"/>
  <rect x="100" y="187" width="4" height="8" fill="#8B4513"/>
  <rect x="121" y="187" width="4" height="8" fill="#8B4513"/>
  
  <rect x="270" y="170" width="25" height="4" fill="#FF69B4"/>
  <rect x="275" y="174" width="15" height="8" fill="#9400D3"/>
  <rect x="270" y="182" width="4" height="8" fill="#8B4513"/>
  <rect x="291" y="182" width="4" height="8" fill="#8B4513"/>
  
  <!-- Summer Flames -->
  <g opacity="0.9">
    <ellipse cx="190" cy="175" rx="4" ry="8" fill="#FFA500"/>
    <ellipse cx="200" cy="173" rx="5" ry="10" fill="#FF6347"/>
    <ellipse cx="210" cy="175" rx="4" ry="8" fill="#FFD700"/>
  </g>
  
  <!-- Grilled Summer Food -->
  <!-- Corn on the Cob -->
  <ellipse cx="195" cy="180" rx="2" ry="5" fill="#FFD700"/>
  <ellipse cx="195" cy="180" rx="1" ry="4" fill="#FFA500"/>
  
  <!-- Burgers -->
  <ellipse cx="205" cy="181" rx="3" ry="2" fill="#8B4513"/>
  <ellipse cx="205" cy="180" rx="2" ry="1" fill="#A0522D"/>
  
  <!-- Hot Dogs -->
  <ellipse cx="185" cy="182" rx="4" ry="1" fill="#8B4513"/>
  <ellipse cx="185" cy="181" rx="3" ry="0.5" fill="#DEB887"/>
  
  <!-- Pool Water Effects -->
  <g stroke="#FFFFFF" stroke-width="2" fill="none" opacity="0.6">
    <circle cx="150" cy="220" r="8"/>
    <circle cx="250" cy="230" r="6"/>
    <circle cx="180" cy="240" r="4"/>
    <circle cx="220" cy="235" r="5"/>
  </g>
  
  <!-- Pool Splashes -->
  <g fill="#87CEEB" opacity="0.7">
    <ellipse cx="160" cy="210" rx="3" ry="8"/>
    <ellipse cx="240" cy="215" rx="2" ry="6"/>
    <ellipse cx="200" cy="245" rx="4" ry="10"/>
  </g>
  
  <!-- Palm Trees -->
  <!-- Palm Tree 1 -->
  <rect x="25" y="80" width="6" height="80" fill="#8B4513"/>
  <ellipse cx="28" cy="75" rx="12" ry="8" fill="#228B22"/>
  <ellipse cx="28" cy="73" rx="10" ry="6" fill="#32CD32"/>
  <g fill="#228B22">
    <ellipse cx="18" cy="70" rx="8" ry="3" transform="rotate(-30 18 70)"/>
    <ellipse cx="38" cy="70" rx="8" ry="3" transform="rotate(30 38 70)"/>
    <ellipse cx="15" cy="80" rx="8" ry="3" transform="rotate(-45 15 80)"/>
    <ellipse cx="41" cy="80" rx="8" ry="3" transform="rotate(45 41 80)"/>
  </g>
  
  <!-- Coconuts -->
  <circle cx="25" cy="78" r="2" fill="#8B4513"/>
  <circle cx="30" cy="76" r="2" fill="#A0522D"/>
  
  <!-- Pool Steam from Hibachi -->
  <g stroke="#87CEEB" stroke-width="2" fill="none" opacity="0.8">
    <path d="M190 168 Q192 163 190 158 Q188 153 190 148"/>
    <path d="M200 168 Q202 163 200 158 Q198 153 200 148"/>
    <path d="M210 168 Q212 163 210 158 Q208 153 210 148"/>
  </g>
  
  <!-- Pool Party Decorations -->
  <path d="M20 40 Q200 50 380 40" stroke="#FF69B4" stroke-width="3" fill="none"/>
  <g fill="#FFD700">
    <circle cx="50" cy="43" r="3"/>
    <circle cx="100" cy="46" r="3"/>
    <circle cx="150" cy="48" r="3"/>
    <circle cx="200" cy="49" r="3"/>
    <circle cx="250" cy="48" r="3"/>
    <circle cx="300" cy="46" r="3"/>
    <circle cx="350" cy="43" r="3"/>
  </g>
  
  <!-- Pool Ladder -->
  <rect x="35" y="200" width="4" height="40" fill="#C0C0C0"/>
  <rect x="45" y="200" width="4" height="40" fill="#C0C0C0"/>
  <g fill="#C0C0C0">
    <rect x="35" y="210" width="14" height="2"/>
    <rect x="35" y="220" width="14" height="2"/>
    <rect x="35" y="230" width="14" height="2"/>
  </g>
  
  <!-- Pool Side Towels -->
  <rect x="360" y="185" width="15" height="20" fill="#FF69B4"/>
  <rect x="362" y="187" width="11" height="16" fill="#FFB6C1"/>
  
  <rect x="375" y="180" width="15" height="20" fill="#32CD32"/>
  <rect x="377" y="182" width="11" height="16" fill="#9ACD32"/>
  
  <!-- Summer Fun Indicators -->
  <text x="50" y="120" fill="#FFD700" font-family="Arial" font-size="12" font-weight="bold">SPLASH!</text>
  <text x="320" y="130" fill="#FF6347" font-family="Arial" font-size="10" font-weight="bold">SUMMER FUN!</text>
  
  <!-- Title -->
  <text x="200" y="25" text-anchor="middle" fill="#FF6347" font-family="Arial, sans-serif" font-size="24" font-weight="bold">
    Summer Pool Party Hibachi
  </text>
  
  <!-- Subtitle -->
  <text x="200" y="285" text-anchor="middle" fill="#0000FF" font-family="Arial, sans-serif" font-size="14">
    "Making a splash with delicious hibachi by the pool"
  </text>
  
  <defs>
    <linearGradient id="summerGradient" x1="0%" y1="0%" x2="100%" y2="100%">
      <stop offset="0%" style="stop-color:#87CEEB;stop-opacity:1" />
      <stop offset="50%" style="stop-color:#B0E0E6;stop-opacity:1" />
      <stop offset="100%" style="stop-color:#E0F6FF;stop-opacity:1" />
    </linearGradient>
  </defs>
</svg>
