<?xml version="1.0" encoding="UTF-8"?>
<svg viewBox="0 0 800 600" xmlns="http://www.w3.org/2000/svg">
  <!-- Redwood City executive networking hibachi business relationships -->
  <defs>
    <linearGradient id="networkingSky" x1="0%" y1="0%" x2="0%" y2="100%">
      <stop offset="0%" style="stop-color:#E0E6FF"/>
      <stop offset="50%" style="stop-color:#4169E1"/>
      <stop offset="100%" style="stop-color:#000080"/>
    </linearGradient>
    <linearGradient id="redwoodBuilding" x1="0%" y1="0%" x2="0%" y2="100%">
      <stop offset="0%" style="stop-color:#D2B48C"/>
      <stop offset="100%" style="stop-color:#8B7355"/>
    </linearGradient>
    <radialGradient id="businessGlow" cx="50%" cy="50%" r="50%">
      <stop offset="0%" style="stop-color:#4169E1; opacity:0.8"/>
      <stop offset="100%" style="stop-color:transparent"/>
    </radialGradient>
  </defs>
  
  <!-- Executive networking sky -->
  <rect width="800" height="600" fill="url(#networkingSky)"/>
  
  <!-- Business achievement stars -->
  <circle cx="120" cy="45" r="4" fill="#FFD700"/>
  <circle cx="280" cy="30" r="3.5" fill="white"/>
  <circle cx="420" cy="55" r="4" fill="#FFD700"/>
  <circle cx="560" cy="35" r="3.5" fill="white"/>
  <circle cx="700" cy="60" r="4" fill="#FFD700"/>
  
  <!-- Redwood City tech skyline -->
  <rect x="50" y="120" width="110" height="170" fill="url(#redwoodBuilding)" rx="12"/>
  <rect x="180" y="100" width="130" height="190" fill="url(#redwoodBuilding)" rx="12"/>
  <rect x="330" y="130" width="100" height="160" fill="url(#redwoodBuilding)" rx="12"/>
  <rect x="450" y="110" width="120" height="180" fill="url(#redwoodBuilding)" rx="12"/>
  <rect x="590" y="125" width="105" height="165" fill="url(#redwoodBuilding)" rx="12"/>
  <rect x="715" y="140" width="85" height="150" fill="url(#redwoodBuilding)" rx="12"/>
  
  <!-- Redwood tech companies -->
  <rect x="245" y="80" width="90" height="55" fill="url(#redwoodBuilding)" rx="10"/>
  <rect x="275" y="75" width="30" height="20" fill="#4169E1"/> <!-- Tech company logo -->
  <text x="290" y="88" text-anchor="middle" fill="white" font-family="Arial, sans-serif" font-size="10" font-weight="bold">TECH</text>
  
  <!-- Executive networking venue -->
  <rect x="110" y="310" width="580" height="230" fill="#F8F8FF" opacity="0.95" rx="45"/>
  <text x="400" y="345" text-anchor="middle" fill="#000080" font-family="Arial, sans-serif" font-size="32" font-weight="bold">REDWOOD CITY EXECUTIVE</text>
  <text x="400" y="375" text-anchor="middle" fill="#4169E1" font-family="Arial, sans-serif" font-size="26">NETWORKING HIBACHI</text>
  <text x="400" y="405" text-anchor="middle" fill="#000080" font-family="Arial, sans-serif" font-size="20">BUILDING BUSINESS RELATIONSHIPS</text>
  
  <!-- Executive hibachi setup -->
  <rect x="130" y="280" width="540" height="170" fill="#2F4F4F" rx="28"/>
  <rect x="140" y="275" width="520" height="45" fill="#000080"/>
  
  <!-- Business networking hibachi arrangement -->
  <circle cx="160" cy="285" r="16" fill="#4169E1"/>
  <circle cx="200" cy="285" r="16" fill="#FFD700"/>
  <circle cx="240" cy="285" r="16" fill="#4169E1"/>
  <circle cx="280" cy="285" r="16" fill="#FFD700"/>
  <circle cx="320" cy="285" r="16" fill="#4169E1"/>
  <circle cx="360" cy="285" r="16" fill="#FFD700"/>
  <circle cx="400" cy="285" r="16" fill="#4169E1"/>
  <circle cx="440" cy="285" r="16" fill="#FFD700"/>
  <circle cx="480" cy="285" r="16" fill="#4169E1"/>
  <circle cx="520" cy="285" r="16" fill="#FFD700"/>
  <circle cx="560" cy="285" r="16" fill="#4169E1"/>
  <circle cx="600" cy="285" r="16" fill="#FFD700"/>
  <circle cx="640" cy="285" r="16" fill="#4169E1"/>
  
  <!-- Executive hibachi chef -->
  <circle cx="400" cy="210" r="26" fill="#FDBCB4"/>
  <rect x="379" y="236" width="42" height="44" fill="white"/>
  <rect x="374" y="280" width="52" height="52" fill="#000080"/> <!-- Executive navy outfit -->
  <rect x="378" y="332" width="18" height="36" fill="#FDBCB4"/>
  <rect x="404" y="332" width="18" height="36" fill="#FDBCB4"/>
  
  <!-- Executive chef hat -->
  <rect x="384" y="191" width="32" height="18" fill="white"/>
  <circle cx="400" cy="191" r="20" fill="white"/>
  <text x="400" y="195" text-anchor="middle" fill="#000080" font-family="Arial, sans-serif" font-size="12" font-weight="bold">EXEC</text>
  
  <!-- Tech CEO -->
  <circle cx="280" cy="440" r="24" fill="#FDBCB4"/>
  <rect x="261" y="464" width="38" height="44" fill="#000080"/> <!-- Navy executive suit -->
  <rect x="263" y="508" width="34" height="38" fill="#000080"/>
  <rect x="265" y="546" width="30" height="28" fill="#000000"/> <!-- Executive shoes -->
  <!-- Smartwatch -->
  <rect x="250" y="480" width="8" height="6" fill="#4169E1"/>
  <circle cx="254" cy="483" r="2" fill="white"/>
  <!-- Business card holder -->
  <rect x="300" y="485" width="12" height="8" fill="#000080"/>
  <rect x="301" y="486" width="10" height="2" fill="#FFD700"/>
  
  <!-- VP of Sales -->
  <circle cx="380" cy="450" r="22" fill="#FDBCB4"/>
  <rect x="363" y="472" width="34" height="40" fill="#8B008B"/> <!-- Purple executive suit -->
  <rect x="365" y="512" width="30" height="34" fill="#000080"/>
  <rect x="367" y="546" width="26" height="24" fill="#654321"/>
  <!-- Portfolio -->
  <rect x="350" y="490" width="14" height="12" fill="#8B4513"/>
  <rect x="351" y="491" width="12" height="10" fill="#4169E1"/>
  <!-- Executive pen -->
  <rect x="347" y="495" width="2" height="8" fill="#FFD700"/>
  
  <!-- CTO -->
  <circle cx="520" cy="450" r="22" fill="#FDBCB4"/>
  <rect x="503" y="472" width="34" height="40" fill="#006400"/> <!-- Green tech executive suit -->
  <rect x="505" y="512" width="30" height="34" fill="#000080"/>
  <rect x="507" y="546" width="26" height="24" fill="#8B4513"/>
  <!-- Tablet -->
  <rect x="540" y="485" width="10" height="14" fill="#2F4F4F"/>
  <rect cx="545" cy="492" r="3" fill="#4169E1"/>
  <!-- Tech device -->
  <rect x="537" y="490" width="4" height="6" fill="#FFD700"/>
  
  <!-- Business Development Manager -->
  <circle cx="320" cy="470" r="20" fill="#FDBCB4"/>
  <rect x="305" y="490" width="30" height="36" fill="#FF6347"/> <!-- Coral business attire -->
  <rect x="307" y="526" width="26" height="30" fill="#000080"/>
  <rect x="309" y="556" width="22" height="22" fill="#8B4513"/>
  <!-- Networking materials -->
  <rect x="290" y="505" width="10" height="8" fill="white"/>
  <rect x="291" y="506" width="8" height="2" fill="#4169E1"/>
  <!-- Business presentation -->
  <rect x="286" y="510" width="6" height="4" fill="#FFD700"/>
  
  <!-- Marketing Director -->
  <circle cx="480" cy="470" r="20" fill="#FDBCB4"/>
  <rect x="465" y="490" width="30" height="36" fill="#4169E1"/> <!-- Blue executive attire -->
  <rect x="467" y="526" width="26" height="30" fill="#4169E1"/>
  <rect x="469" y="556" width="22" height="22" fill="#000000"/>
  <!-- Marketing materials -->
  <rect x="500" y="505" width="12" height="10" fill="white"/>
  <rect x="501" y="506" width="10" height="2" fill="#4169E1"/>
  <!-- Brand guidelines -->
  <rect x="505" y="510" width="4" height="6" fill="#FFD700"/>
  
  <!-- Executive dining table -->
  <ellipse cx="400" cy="585" rx="220" ry="65" fill="#8B4513"/>
  <ellipse cx="400" cy="580" rx="210" ry="60" fill="#000080" opacity="0.3"/>
  
  <!-- Executive place settings -->
  <circle cx="230" cy="580" r="20" fill="white"/>
  <circle cx="230" cy="580" r="16" fill="#4169E1"/>
  <circle cx="310" cy="580" r="20" fill="white"/>
  <circle cx="310" cy="580" r="16" fill="#FFD700"/>
  <circle cx="390" cy="580" r="20" fill="white"/>
  <circle cx="390" cy="580" r="16" fill="#4169E1"/>
  <circle cx="470" cy="580" r="20" fill="white"/>
  <circle cx="470" cy="580" r="16" fill="#FFD700"/>
  <circle cx="550" cy="580" r="20" fill="white"/>
  <circle cx="550" cy="580" r="16" fill="#4169E1"/>
  <circle cx="630" cy="580" r="20" fill="white"/>
  <circle cx="630" cy="580" r="16" fill="#FFD700"/>
  
  <!-- Executive beverages -->
  <rect x="223" y="566" width="7" height="20" fill="#8B008B"/> <!-- Premium wine -->
  <rect x="303" y="566" width="7" height="20" fill="#FFD700"/> <!-- Champagne -->
  <rect x="383" y="566" width="7" height="20" fill="#4169E1"/> <!-- Executive cocktail -->
  <rect x="463" y="566" width="7" height="20" fill="#8B008B"/> <!-- Premium wine -->
  <rect x="543" y="566" width="7" height="20" fill="#FFD700"/> <!-- Champagne -->
  <rect x="623" y="566" width="7" height="20" fill="#4169E1"/> <!-- Executive cocktail -->
  
  <!-- Business networking title -->
  <text x="400" y="90" text-anchor="middle" fill="#FFD700" font-family="Arial, sans-serif" font-size="38" font-weight="bold">REDWOOD CITY EXECUTIVE</text>
  <text x="400" y="130" text-anchor="middle" fill="white" font-family="Arial, sans-serif" font-size="28">NETWORKING HIBACHI</text>
  
  <!-- Business zones -->
  <rect x="15" y="490" width="160" height="105" fill="#000080" opacity="0.8" rx="22"/>
  <text x="95" y="520" text-anchor="middle" fill="#FFD700" font-family="Arial, sans-serif" font-size="20" font-weight="bold">BUSINESS</text>
  <text x="95" y="540" text-anchor="middle" fill="white" font-family="Arial, sans-serif" font-size="18">NETWORKING</text>
  <text x="95" y="555" text-anchor="middle" fill="#FFD700" font-family="Arial, sans-serif" font-size="17">EXECUTIVE</text>
  <text x="95" y="570" text-anchor="middle" fill="white" font-family="Arial, sans-serif" font-size="16">HIBACHI</text>
  <text x="95" y="585" text-anchor="middle" fill="#FFD700" font-family="Arial, sans-serif" font-size="15">REDWOOD CITY</text>
  
  <rect x="625" y="490" width="160" height="105" fill="#4169E1" opacity="0.8" rx="22"/>
  <text x="705" y="520" text-anchor="middle" fill="white" font-family="Arial, sans-serif" font-size="20" font-weight="bold">RELATIONSHIPS</text>
  <text x="705" y="540" text-anchor="middle" fill="#FFD700" font-family="Arial, sans-serif" font-size="18">BUILDING</text>
  <text x="705" y="555" text-anchor="middle" fill="white" font-family="Arial, sans-serif" font-size="17">PROFESSIONAL</text>
  <text x="705" y="570" text-anchor="middle" fill="#FFD700" font-family="Arial, sans-serif" font-size="16">DINING</text>
  <text x="705" y="585" text-anchor="middle" fill="white" font-family="Arial, sans-serif" font-size="15">CONNECTIONS</text>
  
  <!-- Executive hibachi specialties -->
  <ellipse cx="170" cy="283" rx="22" ry="16" fill="#4169E1"/>
  <ellipse cx="210" cy="283" rx="23" ry="16" fill="#FFD700"/>
  <ellipse cx="250" cy="283" rx="22" ry="16" fill="#4169E1"/>
  <ellipse cx="290" cy="283" rx="21" ry="15" fill="#FFD700"/>
  <ellipse cx="330" cy="283" rx="22" ry="16" fill="#4169E1"/>
  <ellipse cx="370" cy="283" rx="23" ry="16" fill="#FFD700"/>
  <ellipse cx="410" cy="283" rx="22" ry="16" fill="#4169E1"/>
  <ellipse cx="450" cy="283" rx="21" ry="15" fill="#FFD700"/>
  <ellipse cx="490" cy="283" rx="22" ry="16" fill="#4169E1"/>
  <ellipse cx="530" cy="283" rx="23" ry="16" fill="#FFD700"/>
  <ellipse cx="570" cy="283" rx="22" ry="16" fill="#4169E1"/>
  <ellipse cx="610" cy="283" rx="21" ry="15" fill="#FFD700"/>
  <ellipse cx="650" cy="283" rx="22" ry="16" fill="#4169E1"/>
  
  <!-- Executive business flames -->
  <polygon points="170,283 178,270 162,270" fill="#4169E1" opacity="0.9"/>
  <polygon points="210,283 218,270 202,270" fill="#FFD700" opacity="0.9"/>
  <polygon points="250,283 258,270 242,270" fill="#4169E1" opacity="0.9"/>
  <polygon points="290,283 298,270 282,270" fill="#FFD700" opacity="0.9"/>
  <polygon points="330,283 338,270 322,270" fill="#4169E1" opacity="0.9"/>
  <polygon points="370,283 378,270 362,270" fill="#FFD700" opacity="0.9"/>
  <polygon points="410,283 418,270 402,270" fill="#4169E1" opacity="0.9"/>
  <polygon points="450,283 458,270 442,270" fill="#FFD700" opacity="0.9"/>
  <polygon points="490,283 498,270 482,270" fill="#4169E1" opacity="0.9"/>
  <polygon points="530,283 538,270 522,270" fill="#FFD700" opacity="0.9"/>
  <polygon points="570,283 578,270 562,270" fill="#4169E1" opacity="0.9"/>
  <polygon points="610,283 618,270 602,270" fill="#FFD700" opacity="0.9"/>
  <polygon points="650,283 658,270 642,270" fill="#4169E1" opacity="0.9"/>
  
  <!-- Executive lighting -->
  <rect x="120" y="410" width="6" height="25" fill="#FFD700"/>
  <ellipse cx="123" cy="410" rx="5" ry="7" fill="#FF6347"/>
  
  <rect x="674" y="420" width="6" height="25" fill="#FFD700"/>
  <ellipse cx="677" cy="420" rx="5" ry="7" fill="#FF6347"/>
  
  <!-- Business achievement markers -->
  <circle cx="70" cy="340" r="28" fill="#4169E1"/>
  <text x="70" y="345" text-anchor="middle" fill="#FFD700" font-family="Arial, sans-serif" font-size="18" font-weight="bold">TECH</text>
  <text x="70" y="365" text-anchor="middle" fill="white" font-family="Arial, sans-serif" font-size="14" font-weight="bold">LEADERS</text>
  
  <circle cx="730" cy="350" r="28" fill="#FFD700"/>
  <text x="730" y="350" text-anchor="middle" fill="#000080" font-family="Arial, sans-serif" font-size="16" font-weight="bold">BUSINESS</text>
  <text x="730" y="365" text-anchor="middle" fill="#000080" font-family="Arial, sans-serif" font-size="14" font-weight="bold">GROWTH</text>
  
  <!-- Business networking atmosphere -->
  <circle cx="400" cy="420" r="300" fill="url(#businessGlow)"/>
  
  <!-- Business cards floating -->
  <rect x="45" cy="380" width="12" height="8" fill="white"/>
  <rect x="46" cy="381" width="10" height="2" fill="#4169E1"/>
  <rect x="46" cy="384" width="8" height="1" fill="#000080"/>
  
  <rect x="743" cy="390" width="12" height="8" fill="white"/>
  <rect x="744" cy="391" width="10" height="2" fill="#4169E1"/>
  <rect x="744" cy="394" width="8" height="1" fill="#000080"/>
  
  <!-- Connection lines between executives -->
  <line x1="280" y1="440" x2="380" y2="450" stroke="#4169E1" stroke-width="2" opacity="0.6"/>
  <line x1="380" y1="450" x2="520" y2="450" stroke="#FFD700" stroke-width="2" opacity="0.6"/>
  <line x1="520" y1="450" x2="480" y2="470" stroke="#4169E1" stroke-width="2" opacity="0.6"/>
  <line x1="320" y1="470" x2="480" y2="470" stroke="#FFD700" stroke-width="2" opacity="0.6"/>
  
  <!-- Executive subtitle -->
  <text x="400" y="70" text-anchor="middle" fill="#4169E1" font-family="Arial, sans-serif" font-size="24" font-weight="bold">BUILDING POWERFUL BUSINESS RELATIONSHIPS</text>
</svg>
