<?xml version="1.0" encoding="UTF-8"?>
<svg viewBox="0 0 800 600" xmlns="http://www.w3.org/2000/svg">
  <!-- Sacramento engagement party hibachi romantic celebration -->
  <defs>
    <linearGradient id="romanticSky" x1="0%" y1="0%" x2="0%" y2="100%">
      <stop offset="0%" style="stop-color:#FFB6C1"/>
      <stop offset="50%" style="stop-color:#FF69B4"/>
      <stop offset="100%" style="stop-color:#DC143C"/>
    </linearGradient>
    <linearGradient id="sacBuilding" x1="0%" y1="0%" x2="0%" y2="100%">
      <stop offset="0%" style="stop-color:#DEB887"/>
      <stop offset="100%" style="stop-color:#D2B48C"/>
    </linearGradient>
    <radialGradient id="loveGlow" cx="50%" cy="50%" r="50%">
      <stop offset="0%" style="stop-color:#FFB6C1; opacity:0.8"/>
      <stop offset="100%" style="stop-color:transparent"/>
    </radialGradient>
  </defs>
  
  <!-- Sacramento romantic evening sky -->
  <rect width="800" height="600" fill="url(#romanticSky)"/>
  
  <!-- Romantic stars -->
  <circle cx="130" cy="50" r="2.5" fill="#FFD700"/>
  <circle cx="250" cy="35" r="2" fill="white"/>
  <circle cx="390" cy="60" r="2.5" fill="#FFD700"/>
  <circle cx="540" cy="40" r="2" fill="white"/>
  <circle cx="670" cy="55" r="2.5" fill="#FFD700"/>
  <circle cx="750" cy="70" r="2" fill="white"/>
  
  <!-- Sacramento skyline -->
  <rect x="60" y="150" width="100" height="140" fill="url(#sacBuilding)" rx="8"/>
  <rect x="180" y="130" width="120" height="160" fill="url(#sacBuilding)" rx="8"/>
  <rect x="320" y="160" width="80" height="130" fill="url(#sacBuilding)" rx="8"/>
  <rect x="420" y="140" width="110" height="150" fill="url(#sacBuilding)" rx="8"/>
  <rect x="550" y="155" width="90" height="135" fill="url(#sacBuilding)" rx="8"/>
  <rect x="660" y="165" width="100" height="125" fill="url(#sacBuilding)" rx="8"/>
  
  <!-- Sacramento Capitol building -->
  <rect x="240" y="110" width="80" height="50" fill="url(#sacBuilding)" rx="6"/>
  <polygon points="235,110 325,110 280,80" fill="#8B4513"/>
  <rect x="275" y="95" width="10" height="15" fill="#654321"/>
  <circle cx="280" cy="87" r="8" fill="#FFD700"/>
  <!-- Capitol dome -->
  <circle cx="280" cy="80" r="15" fill="#DAA520"/>
  <polygon points="275,65 285,65 280,55" fill="#FFD700"/>
  
  <!-- Engagement celebration venue -->
  <rect x="150" y="310" width="500" height="190" fill="#FFF0F5" opacity="0.95" rx="25"/>
  <text x="400" y="345" text-anchor="middle" fill="#DC143C" font-family="Arial, sans-serif" font-size="24" font-weight="bold">SACRAMENTO ENGAGEMENT</text>
  <text x="400" y="375" text-anchor="middle" fill="#FF69B4" font-family="Arial, sans-serif" font-size="18">ROMANTIC HIBACHI CELEBRATION</text>
  
  <!-- Romantic hibachi setup -->
  <rect x="170" y="280" width="460" height="130" fill="#2F4F4F" rx="18"/>
  <rect x="180" y="275" width="440" height="25" fill="#DC143C"/>
  
  <!-- Heart-shaped hibachi arrangement -->
  <circle cx="200" cy="285" r="10" fill="#FF69B4"/>
  <circle cx="220" cy="285" r="10" fill="#FFB6C1"/>
  <circle cx="240" cy="285" r="10" fill="#FF1493"/>
  <circle cx="260" cy="285" r="10" fill="#FFB6C1"/>
  <circle cx="280" cy="285" r="10" fill="#FF69B4"/>
  <circle cx="300" cy="285" r="10" fill="#FF1493"/>
  <circle cx="320" cy="285" r="10" fill="#FFB6C1"/>
  <circle cx="340" cy="285" r="10" fill="#FF69B4"/>
  <circle cx="360" cy="285" r="10" fill="#FF1493"/>
  <circle cx="380" cy="285" r="10" fill="#FFB6C1"/>
  <circle cx="400" cy="285" r="10" fill="#FF69B4"/>
  <circle cx="420" cy="285" r="10" fill="#FF1493"/>
  <circle cx="440" cy="285" r="10" fill="#FFB6C1"/>
  <circle cx="460" cy="285" r="10" fill="#FF69B4"/>
  <circle cx="480" cy="285" r="10" fill="#FF1493"/>
  <circle cx="500" cy="285" r="10" fill="#FFB6C1"/>
  <circle cx="520" cy="285" r="10" fill="#FF69B4"/>
  <circle cx="540" cy="285" r="10" fill="#FF1493"/>
  <circle cx="560" cy="285" r="10" fill="#FFB6C1"/>
  <circle cx="580" cy="285" r="10" fill="#FF69B4"/>
  <circle cx="600" cy="285" r="10" fill="#FF1493"/>
  
  <!-- Romantic hibachi chef -->
  <circle cx="400" cy="220" r="18" fill="#FDBCB4"/>
  <rect x="387" y="238" width="26" height="32" fill="white"/>
  <rect x="382" y="270" width="36" height="38" fill="#DC143C"/> <!-- Romantic red outfit -->
  <rect x="386" y="308" width="10" height="28" fill="#FDBCB4"/>
  <rect x="404" y="308" width="10" height="28" fill="#FDBCB4"/>
  
  <!-- Romantic chef hat -->
  <rect x="391" y="207" width="18" height="10" fill="white"/>
  <circle cx="400" cy="207" r="12" fill="white"/>
  <polygon points="396,202 404,202 400,197" fill="#FF69B4"/> <!-- Heart accent -->
  
  <!-- Engaged couple -->
  <!-- Bride-to-be -->
  <circle cx="320" cy="430" r="16" fill="#FDBCB4"/>
  <rect x="308" y="446" width="24" height="32" fill="#FFB6C1"/> <!-- Pink dress -->
  <rect x="310" y="478" width="20" height="26" fill="#FFB6C1"/>
  <rect x="312" y="504" width="16" height="20" fill="#FFD700"/> <!-- Gold shoes -->
  <!-- Engagement ring -->
  <circle cx="305" cy="455" r="2" fill="#FFD700"/>
  <circle cx="305" cy="455" r="1" fill="#FFFFFF"/>
  <!-- Bouquet -->
  <circle cx="335" cy="460" r="4" fill="#FF69B4"/>
  <circle cx="338" cy="457" r="3" fill="#FFB6C1"/>
  <circle cx="332" cy="463" r="3" fill="#FF1493"/>
  
  <!-- Groom-to-be -->
  <circle cx="480" cy="430" r="16" fill="#FDBCB4"/>
  <rect x="468" y="446" width="24" height="32" fill="#000080"/> <!-- Navy suit -->
  <rect x="470" y="478" width="20" height="26" fill="#000080"/>
  <rect x="472" y="504" width="16" height="20" fill="#000000"/> <!-- Black shoes -->
  <!-- Boutonniere -->
  <circle cx="475" cy="455" r="2" fill="#FF69B4"/>
  <!-- Ring box -->
  <rect x="495" y="455" width="4" height="3" fill="#8B4513"/>
  <circle cx="497" cy="456" r="1" fill="#FFD700"/>
  
  <!-- Engagement party guests -->
  <!-- Best friend -->
  <circle cx="280" cy="450" r="15" fill="#FDBCB4"/>
  <rect x="269" y="465" width="22" height="30" fill="#9370DB"/> <!-- Purple dress -->
  <rect x="271" y="495" width="18" height="24" fill="#9370DB"/>
  <rect x="273" y="519" width="14" height="18" fill="#8B4513"/>
  <!-- Camera for photos -->
  <rect x="265" y="470" width="8" height="6" fill="#2F4F4F"/>
  <circle cx="268" cy="473" r="2" fill="#FFD700"/>
  
  <!-- Family members -->
  <circle cx="520" cy="450" r="15" fill="#FDBCB4"/>
  <rect x="509" y="465" width="22" height="30" fill="#32CD32"/> <!-- Green outfit -->
  <rect x="511" y="495" width="18" height="24" fill="#000080"/>
  <rect x="513" y="519" width="14" height="18" fill="#654321"/>
  <!-- Gift -->
  <rect x="535" y="470" width="6" height="8" fill="#FFD700"/>
  <rect x="536" y="471" width="4" height="2" fill="#FF69B4"/>
  
  <!-- Celebration guests -->
  <circle cx="350" cy="460" r="14" fill="#FDBCB4"/>
  <rect x="340" y="474" width="20" height="28" fill="#FF6347"/> <!-- Coral dress -->
  <rect x="342" y="502" width="16" height="22" fill="#FF6347"/>
  <rect x="344" y="524" width="12" height="16" fill="#FFD700"/>
  
  <circle cx="450" cy="460" r="14" fill="#FDBCB4"/>
  <rect x="440" y="474" width="20" height="28" fill="#4169E1"/> <!-- Blue suit -->
  <rect x="442" y="502" width="16" height="22" fill="#4169E1"/>
  <rect x="444" y="524" width="12" height="16" fill="#000000"/>
  
  <!-- Romantic dining table -->
  <ellipse cx="400" cy="550" rx="170" ry="45" fill="#8B4513"/>
  <ellipse cx="400" cy="545" rx="160" ry="40" fill="#FFB6C1" opacity="0.3"/>
  
  <!-- Romantic place settings -->
  <circle cx="280" cy="545" r="12" fill="white"/>
  <circle cx="280" cy="545" r="8" fill="#FF69B4"/>
  <circle cx="320" cy="545" r="12" fill="white"/>
  <circle cx="320" cy="545" r="8" fill="#FF69B4"/>
  <circle cx="360" cy="545" r="12" fill="white"/>
  <circle cx="360" cy="545" r="8" fill="#FF69B4"/>
  <circle cx="400" cy="545" r="12" fill="white"/>
  <circle cx="400" cy="545" r="8" fill="#FF69B4"/>
  <circle cx="440" cy="545" r="12" fill="white"/>
  <circle cx="440" cy="545" r="8" fill="#FF69B4"/>
  <circle cx="480" cy="545" r="12" fill="white"/>
  <circle cx="480" cy="545" r="8" fill="#FF69B4"/>
  <circle cx="520" cy="545" r="12" fill="white"/>
  <circle cx="520" cy="545" r="8" fill="#FF69B4"/>
  
  <!-- Romantic beverages -->
  <rect x="275" y="535" width="5" height="12" fill="#DC143C"/> <!-- Red wine -->
  <rect x="315" y="535" width="5" height="12" fill="#FFD700"/> <!-- Champagne -->
  <rect x="355" y="535" width="5" height="12" fill="#FF69B4"/> <!-- Rosé -->
  <rect x="395" y="535" width="5" height="12" fill="#FFD700"/> <!-- Champagne -->
  <rect x="435" y="535" width="5" height="12" fill="#DC143C"/> <!-- Red wine -->
  <rect x="475" y="535" width="5" height="12" fill="#FF69B4"/> <!-- Rosé -->
  <rect x="515" y="535" width="5" height="12" fill="#FFD700"/> <!-- Champagne -->
  
  <!-- Engagement title -->
  <text x="400" y="120" text-anchor="middle" fill="#FFD700" font-family="Arial, sans-serif" font-size="30" font-weight="bold">SACRAMENTO ENGAGEMENT</text>
  <text x="400" y="155" text-anchor="middle" fill="white" font-family="Arial, sans-serif" font-size="20">ROMANTIC HIBACHI CELEBRATION</text>
  
  <!-- Love zones -->
  <rect x="30" y="480" width="120" height="90" fill="#FF69B4" opacity="0.8" rx="12"/>
  <text x="90" y="505" text-anchor="middle" fill="white" font-family="Arial, sans-serif" font-size="14" font-weight="bold">LOVE</text>
  <text x="90" y="520" text-anchor="middle" fill="#FFD700" font-family="Arial, sans-serif" font-size="13">CELEBRATION</text>
  <text x="90" y="535" text-anchor="middle" fill="white" font-family="Arial, sans-serif" font-size="12">ROMANTIC</text>
  <text x="90" y="550" text-anchor="middle" fill="white" font-family="Arial, sans-serif" font-size="11">HIBACHI</text>
  <text x="90" y="565" text-anchor="middle" fill="white" font-family="Arial, sans-serif" font-size="10">SACRAMENTO</text>
  
  <rect x="650" y="480" width="120" height="90" fill="#DC143C" opacity="0.8" rx="12"/>
  <text x="710" y="505" text-anchor="middle" fill="white" font-family="Arial, sans-serif" font-size="14" font-weight="bold">ENGAGEMENT</text>
  <text x="710" y="520" text-anchor="middle" fill="#FFD700" font-family="Arial, sans-serif" font-size="13">PARTY</text>
  <text x="710" y="535" text-anchor="middle" fill="white" font-family="Arial, sans-serif" font-size="12">INTERACTIVE</text>
  <text x="710" y="550" text-anchor="middle" fill="white" font-family="Arial, sans-serif" font-size="11">DINING</text>
  <text x="710" y="565" text-anchor="middle" fill="white" font-family="Arial, sans-serif" font-size="10">MEMORIES</text>
  
  <!-- Romantic hibachi specialties -->
  <ellipse cx="210" cy="283" rx="14" ry="9" fill="#FF69B4"/>
  <ellipse cx="230" cy="283" rx="15" ry="9" fill="#FFB6C1"/>
  <ellipse cx="250" cy="283" rx="14" ry="9" fill="#FF1493"/>
  <ellipse cx="270" cy="283" rx="13" ry="8" fill="#FFB6C1"/>
  <ellipse cx="290" cy="283" rx="14" ry="9" fill="#FF69B4"/>
  <ellipse cx="310" cy="283" rx="15" ry="9" fill="#FF1493"/>
  <ellipse cx="330" cy="283" rx="14" ry="9" fill="#FFB6C1"/>
  <ellipse cx="350" cy="283" rx="13" ry="8" fill="#FF69B4"/>
  <ellipse cx="370" cy="283" rx="14" ry="9" fill="#FF1493"/>
  <ellipse cx="390" cy="283" rx="15" ry="9" fill="#FFB6C1"/>
  <ellipse cx="410" cy="283" rx="14" ry="9" fill="#FF69B4"/>
  <ellipse cx="430" cy="283" rx="13" ry="8" fill="#FF1493"/>
  <ellipse cx="450" cy="283" rx="14" ry="9" fill="#FFB6C1"/>
  <ellipse cx="470" cy="283" rx="15" ry="9" fill="#FF69B4"/>
  <ellipse cx="490" cy="283" rx="14" ry="9" fill="#FF1493"/>
  <ellipse cx="510" cy="283" rx="13" ry="8" fill="#FFB6C1"/>
  <ellipse cx="530" cy="283" rx="14" ry="9" fill="#FF69B4"/>
  <ellipse cx="550" cy="283" rx="15" ry="9" fill="#FF1493"/>
  <ellipse cx="570" cy="283" rx="14" ry="9" fill="#FFB6C1"/>
  <ellipse cx="590" cy="283" rx="13" ry="8" fill="#FF69B4"/>
  
  <!-- Love flames -->
  <polygon points="210,283 215,273 205,273" fill="#FF69B4" opacity="0.9"/>
  <polygon points="230,283 235,273 225,273" fill="#FFB6C1" opacity="0.9"/>
  <polygon points="250,283 255,273 245,273" fill="#FF1493" opacity="0.9"/>
  <polygon points="270,283 275,273 265,273" fill="#FFB6C1" opacity="0.9"/>
  <polygon points="290,283 295,273 285,273" fill="#FF69B4" opacity="0.9"/>
  <polygon points="310,283 315,273 305,273" fill="#FF1493" opacity="0.9"/>
  <polygon points="330,283 335,273 325,273" fill="#FFB6C1" opacity="0.9"/>
  <polygon points="350,283 355,273 345,273" fill="#FF69B4" opacity="0.9"/>
  <polygon points="370,283 375,273 365,273" fill="#FF1493" opacity="0.9"/>
  <polygon points="390,283 395,273 385,273" fill="#FFB6C1" opacity="0.9"/>
  <polygon points="410,283 415,273 405,273" fill="#FF69B4" opacity="0.9"/>
  <polygon points="430,283 435,273 425,273" fill="#FF1493" opacity="0.9"/>
  <polygon points="450,283 455,273 445,273" fill="#FFB6C1" opacity="0.9"/>
  <polygon points="470,283 475,273 465,273" fill="#FF69B4" opacity="0.9"/>
  <polygon points="490,283 495,273 485,273" fill="#FF1493" opacity="0.9"/>
  <polygon points="510,283 515,273 505,273" fill="#FFB6C1" opacity="0.9"/>
  <polygon points="530,283 535,273 525,273" fill="#FF69B4" opacity="0.9"/>
  <polygon points="550,283 555,273 545,273" fill="#FF1493" opacity="0.9"/>
  <polygon points="570,283 575,273 565,273" fill="#FFB6C1" opacity="0.9"/>
  <polygon points="590,283 595,273 585,273" fill="#FF69B4" opacity="0.9"/>
  
  <!-- Romantic candles -->
  <rect x="160" y="380" width="3" height="15" fill="#FFD700"/>
  <ellipse cx="161.5" cy="380" rx="2" ry="3" fill="#FF6347"/>
  
  <rect x="640" y="390" width="3" height="15" fill="#FFD700"/>
  <ellipse cx="641.5" cy="390" rx="2" ry="3" fill="#FF6347"/>
  
  <!-- Heart decorations -->
  <polygon points="120,350 125,345 130,350 125,360" fill="#FF69B4"/>
  <polygon points="670,360 675,355 680,360 675,370" fill="#FF1493"/>
  
  <!-- Love atmosphere -->
  <circle cx="400" cy="380" r="220" fill="url(#loveGlow)"/>
  
  <!-- Engagement flowers -->
  <circle cx="100" cy="400" r="8" fill="#32CD32"/>
  <circle cx="105" cy="395" r="3" fill="#FF69B4"/>
  <circle cx="95" cy="395" r="3" fill="#FFB6C1"/>
  <circle cx="100" cy="405" r="3" fill="#FF1493"/>
  <circle cx="90" cy="400" r="3" fill="#9370DB"/>
  <circle cx="110" cy="400" r="3" fill="#FFD700"/>
  
  <circle cx="700" cy="410" r="8" fill="#32CD32"/>
  <circle cx="705" cy="405" r="3" fill="#FF69B4"/>
  <circle cx="695" cy="405" r="3" fill="#FFB6C1"/>
  <circle cx="700" cy="415" r="3" fill="#FF1493"/>
  <circle cx="690" cy="410" r="3" fill="#9370DB"/>
  <circle cx="710" cy="410" r="3" fill="#FFD700"/>
  
  <!-- Romantic subtitle -->
  <text x="400" y="80" text-anchor="middle" fill="#FF69B4" font-family="Arial, sans-serif" font-size="16" font-weight="bold">CELEBRATING LOVE WITH INTERACTIVE DINING</text>
</svg>
