<?xml version="1.0" encoding="UTF-8"?>
<svg viewBox="0 0 800 600" xmlns="http://www.w3.svg/2000/svg">
  <!-- Santa Clara University graduation celebration -->
  <defs>
    <linearGradient id="scuGraduationSky" x1="0%" y1="0%" x2="0%" y2="100%">
      <stop offset="0%" style="stop-color:#8B0000"/>
      <stop offset="50%" style="stop-color:#B22222"/>
      <stop offset="100%" style="stop-color:#DC143C"/>
    </linearGradient>
    <linearGradient id="scuBuilding" x1="0%" y1="0%" x2="0%" y2="100%">
      <stop offset="0%" style="stop-color:#F5F5DC"/>
      <stop offset="100%" style="stop-color:#DEB887"/>
    </linearGradient>
    <radialGradient id="academicAchievementGlow" cx="50%" cy="50%" r="50%">
      <stop offset="0%" style="stop-color:#FFD700; opacity:0.6"/>
      <stop offset="100%" style="stop-color:transparent"/>
    </radialGradient>
  </defs>
  
  <!-- SCU cardinal red sky -->
  <rect width="800" height="600" fill="url(#scuGraduationSky)"/>
  
  <!-- Academic excellence stars -->
  <circle cx="140" cy="70" r="2" fill="#FFD700"/>
  <circle cx="260" cy="55" r="1.5" fill="white"/>
  <circle cx="420" cy="80" r="2" fill="#FFD700"/>
  <circle cx="580" cy="60" r="1.5" fill="white"/>
  <circle cx="700" cy="45" r="2" fill="#FFD700"/>
  <circle cx="750" cy="85" r="1.5" fill="white"/>
  
  <!-- Santa Clara University campus -->
  <rect x="100" y="180" width="140" height="200" fill="url(#scuBuilding)" rx="12"/>
  <rect x="260" y="160" width="160" height="220" fill="url(#scuBuilding)" rx="12"/>
  <rect x="440" y="200" width="120" height="180" fill="url(#scuBuilding)" rx="12"/>
  <rect x="580" y="170" width="150" height="210" fill="url(#scuBuilding)" rx="12"/>
  
  <!-- Mission Santa Clara Church -->
  <rect x="180" y="140" width="100" height="80" fill="url(#scuBuilding)" rx="8"/>
  <polygon points="170,140 290,140 230,100" fill="#8B4513"/>
  <rect x="225" y="120" width="10" height="20" fill="#654321"/>
  <polygon points="225,120 235,120 230,110" fill="#FFD700"/>
  <!-- Mission bell tower -->
  <rect x="215" y="100" width="8" height="30" fill="#8B4513"/>
  <polygon points="210,100 228,100 219,90" fill="#654321"/>
  <circle cx="219" cy="95" r="2" fill="#FFD700"/>
  
  <!-- SCU main building -->
  <rect x="320" y="120" width="120" height="100" fill="url(#scuBuilding)" rx="10"/>
  <polygon points="310,120 450,120 380,80" fill="#8B4513"/>
  <rect x="375" y="100" width="10" height="20" fill="#654321"/>
  
  <!-- SCU clock tower -->
  <rect x="475" y="80" width="20" height="60" fill="#8B0000"/>
  <circle cx="485" cy="90" r="8" fill="#FFD700"/>
  <rect x="481" y="86" width="2" height="6" fill="#8B0000"/>
  <rect x="483" y="88" width="4" height="2" fill="#8B0000"/>
  
  <!-- SCU logos and branding -->
  <circle cx="170" cy="220" r="15" fill="#8B0000"/>
  <text x="170" y="227" text-anchor="middle" fill="#FFD700" font-family="Arial, sans-serif" font-size="12" font-weight="bold">SCU</text>
  
  <rect x="500" y="240" width="30" height="30" fill="#8B0000" rx="5"/>
  <text x="515" y="252" text-anchor="middle" fill="#FFD700" font-family="Arial, sans-serif" font-size="8">SANTA</text>
  <text x="515" y="262" text-anchor="middle" fill="#FFD700" font-family="Arial, sans-serif" font-size="8">CLARA</text>
  
  <circle cx="650" cy="220" r="15" fill="#8B0000"/>
  <text x="650" y="225" text-anchor="middle" fill="#FFD700" font-family="Arial, sans-serif" font-size="10">BRONCOS</text>
  
  <!-- SCU graduation celebration venue -->
  <rect x="250" y="290" width="300" height="160" fill="#F5F5DC" opacity="0.95" rx="18"/>
  <text x="400" y="320" text-anchor="middle" fill="#8B0000" font-family="Arial, sans-serif" font-size="18" font-weight="bold">SCU GRADUATION PARTY</text>
  <text x="400" y="345" text-anchor="middle" fill="#B22222" font-family="Arial, sans-serif" font-size="14">CELEBRATING ACADEMIC SUCCESS</text>
  
  <!-- Academic hibachi setup -->
  <rect x="270" y="260" width="260" height="80" fill="#2F4F4F" rx="12"/>
  <rect x="280" y="255" width="240" height="15" fill="#FF4500"/>
  
  <!-- SCU-themed hibachi grills -->
  <circle cx="295" r="7" cy="260" fill="#8B0000"/>
  <circle cx="320" r="7" cy="260" fill="#FFD700"/>
  <circle cx="345" r="7" cy="260" fill="#8B0000"/>
  <circle cx="370" r="7" cy="260" fill="#FFD700"/>
  <circle cx="395" r="7" cy="260" fill="#8B0000"/>
  <circle cx="420" r="7" cy="260" fill="#FFD700"/>
  <circle cx="445" r="7" cy="260" fill="#8B0000"/>
  <circle cx="470" r="7" cy="260" fill="#FFD700"/>
  <circle cx="495" r="7" cy="260" fill="#8B0000"/>
  <circle cx="520" r="7" cy="260" fill="#FFD700"/>
  
  <!-- SCU hibachi chef -->
  <circle cx="400" cy="210" r="16" fill="#FDBCB4"/>
  <rect x="389" y="226" width="22" height="28" fill="white"/>
  <rect x="385" y="254" width="30" height="34" fill="#8B0000"/>
  <rect x="389" y="288" width="9" height="24" fill="#FDBCB4"/>
  <rect x="402" y="288" width="9" height="24" fill="#FDBCB4"/>
  
  <!-- Chef graduation cap -->
  <rect x="393" y="197" width="14" height="8" fill="#000000"/>
  <rect x="390" y="194" width="20" height="3" fill="#000000"/>
  <rect x="409" y="190" width="6" height="6" fill="#FFD700"/>
  
  <!-- SCU graduates -->
  <!-- Graduate 1 -->
  <circle cx="320" cy="380" r="14" fill="#FDBCB4"/>
  <rect x="310" y="394" width="20" height="28" fill="#000000"/>
  <rect x="312" y="422" width="16" height="22" fill="#000000"/>
  <rect x="314" y="444" width="12" height="18" fill="#8B4513"/>
  <!-- Graduation cap -->
  <rect x="314" y="371" width="12" height="7" fill="#000000"/>
  <rect x="311" y="369" width="18" height="2" fill="#000000"/>
  <rect x="319" y="366" width="4" height="4" fill="#FFD700"/>
  <!-- Diploma -->
  <rect x="308" y="385" width="6" height="12" fill="white" rx="1"/>
  <rect x="309" y="387" width="4" height="8" fill="#FFD700" opacity="0.3"/>
  
  <!-- Graduate 2 -->
  <circle cx="480" cy="380" r="14" fill="#FDBCB4"/>
  <rect x="470" y="394" width="20" height="28" fill="#000000"/>
  <rect x="472" y="422" width="16" height="22" fill="#000000"/>
  <rect x="474" y="444" width="12" height="18" fill="#654321"/>
  <!-- Graduation cap -->
  <rect x="474" y="371" width="12" height="7" fill="#000000"/>
  <rect x="471" y="369" width="18" height="2" fill="#000000"/>
  <rect x="479" y="366" width="4" height="4" fill="#FFD700"/>
  <!-- Diploma -->
  <rect x="488" y="385" width="6" height="12" fill="white" rx="1"/>
  <rect x="489" y="387" width="4" height="8" fill="#FFD700" opacity="0.3"/>
  
  <!-- Proud families -->
  <!-- Parents -->
  <circle cx="350" cy="390" r="13" fill="#FDBCB4"/>
  <rect x="342" y="403" width="16" height="24" fill="#4B0082"/>
  <rect x="344" y="427" width="12" height="20" fill="#654321"/>
  
  <circle cx="450" cy="390" r="13" fill="#FDBCB4"/>
  <rect x="442" y="403" width="16" height="24" fill="#8B008B"/>
  <rect x="444" y="427" width="12" height="20" fill="#8B4513"/>
  
  <!-- Siblings -->
  <circle cx="380" cy="400" r="11" fill="#FDBCB4"/>
  <rect x="374" y="411" width="12" height="20" fill="#32CD32"/>
  <rect x="376" y="431" width="8" height="16" fill="#8B4513"/>
  
  <circle cx="420" cy="400" r="11" fill="#FDBCB4"/>
  <rect x="414" y="411" width="12" height="20" fill="#FF69B4"/>
  <rect x="416" y="431" width="8" height="16" fill="#654321"/>
  
  <!-- Academic dining table -->
  <ellipse cx="400" cy="490" rx="130" ry="35" fill="#8B4513"/>
  
  <!-- SCU place settings -->
  <circle cx="300" cy="485" r="9" fill="white"/>
  <circle cx="335" cy="485" r="9" fill="white"/>
  <circle cx="370" cy="485" r="9" fill="white"/>
  <circle cx="405" cy="485" r="9" fill="white"/>
  <circle cx="440" cy="485" r="9" fill="white"/>
  <circle cx="475" cy="485" r="9" fill="white"/>
  <circle cx="510" cy="485" r="9" fill="white"/>
  
  <!-- Graduation celebration drinks -->
  <rect x="295" y="475" width="4" height="12" fill="#8B0000"/> <!-- Red wine -->
  <rect x="330" y="475" width="4" height="12" fill="#FFD700"/> <!-- Champagne -->
  <rect x="365" y="475" width="4" height="12" fill="#8B4513"/> <!-- Coffee -->
  <rect x="400" y="475" width="4" height="12" fill="#FFD700"/> <!-- Champagne -->
  <rect x="435" y="475" width="4" height="12" fill="#8B0000"/> <!-- Red wine -->
  <rect x="470" y="475" width="4" height="12" fill="#87CEEB"/> <!-- Water -->
  <rect x="505" y="475" width="4" height="12" fill="#32CD32"/> <!-- Sparkling cider -->
  
  <!-- SCU graduation title -->
  <text x="400" y="150" text-anchor="middle" fill="#FFD700" font-family="Arial, sans-serif" font-size="26" font-weight="bold">SANTA CLARA UNIVERSITY</text>
  <text x="400" y="175" text-anchor="middle" fill="white" font-family="Arial, sans-serif" font-size="16">GRADUATION CELEBRATIONS</text>
  
  <!-- Academic excellence -->
  <rect x="100" y="450" width="160" height="100" fill="#8B0000" opacity="0.8" rx="12"/>
  <text x="180" y="475" text-anchor="middle" fill="#FFD700" font-family="Arial, sans-serif" font-size="14" font-weight="bold">ACADEMIC</text>
  <text x="180" y="490" text-anchor="middle" fill="white" font-family="Arial, sans-serif" font-size="13">EXCELLENCE</text>
  <text x="180" y="505" text-anchor="middle" fill="white" font-family="Arial, sans-serif" font-size="12">SCU PRIDE</text>
  <text x="180" y="520" text-anchor="middle" fill="white" font-family="Arial, sans-serif" font-size="11">BRONCOS</text>
  <text x="180" y="535" text-anchor="middle" fill="#FFD700" font-family="Arial, sans-serif" font-size="10">SANTA CLARA</text>
  
  <!-- Graduation celebration -->
  <rect x="540" y="450" width="160" height="100" fill="#B22222" opacity="0.8" rx="12"/>
  <text x="620" y="475" text-anchor="middle" fill="white" font-family="Arial, sans-serif" font-size="14" font-weight="bold">GRADUATION</text>
  <text x="620" y="490" text-anchor="middle" fill="#FFD700" font-family="Arial, sans-serif" font-size="13">HIBACHI</text>
  <text x="620" y="505" text-anchor="middle" fill="white" font-family="Arial, sans-serif" font-size="12">CELEBRATION</text>
  <text x="620" y="520" text-anchor="middle" fill="white" font-family="Arial, sans-serif" font-size="11">SUCCESS</text>
  <text x="620" y="535" text-anchor="middle" fill="white" font-family="Arial, sans-serif" font-size="10">ACHIEVEMENT</text>
  
  <!-- Academic hibachi specialties -->
  <ellipse cx="300" cy="258" rx="11" ry="6" fill="#8B0000"/>
  <ellipse cx="325" cy="258" rx="12" ry="6" fill="#FFD700"/>
  <ellipse cx="350" cy="258" rx="11" ry="6" fill="#8B0000"/>
  <ellipse cx="375" cy="258" rx="10" ry="5" fill="#FFD700"/>
  <ellipse cx="400" cy="258" rx="11" ry="6" fill="#8B0000"/>
  <ellipse cx="425" cy="258" rx="12" ry="6" fill="#FFD700"/>
  <ellipse cx="450" cy="258" rx="11" ry="6" fill="#8B0000"/>
  <ellipse cx="475" cy="258" rx="10" ry="5" fill="#FFD700"/>
  <ellipse cx="500" cy="258" rx="11" ry="6" fill="#8B0000"/>
  <ellipse cx="525" cy="258" rx="12" ry="6" fill="#FFD700"/>
  
  <!-- Academic achievement flames -->
  <polygon points="300,258 305,248 295,248" fill="#8B0000" opacity="0.9"/>
  <polygon points="325,258 330,248 320,248" fill="#FFD700" opacity="0.9"/>
  <polygon points="350,258 355,248 345,248" fill="#8B0000" opacity="0.9"/>
  <polygon points="375,258 380,248 370,248" fill="#FFD700" opacity="0.9"/>
  <polygon points="400,258 405,248 395,248" fill="#8B0000" opacity="0.9"/>
  <polygon points="425,258 430,248 420,248" fill="#FFD700" opacity="0.9"/>
  <polygon points="450,258 455,248 445,248" fill="#8B0000" opacity="0.9"/>
  <polygon points="475,258 480,248 470,248" fill="#FFD700" opacity="0.9"/>
  <polygon points="500,258 505,248 495,248" fill="#8B0000" opacity="0.9"/>
  <polygon points="525,258 530,248 520,248" fill="#FFD700" opacity="0.9"/>
  
  <!-- Graduation balloons -->
  <circle cx="180" cy="320" r="16" fill="#8B0000"/>
  <rect x="179" y="336" width="2" height="28" fill="#654321"/>
  <circle cx="200" cy="305" r="14" fill="#FFD700"/>
  <rect x="199" y="319" width="2" height="25" fill="#654321"/>
  <circle cx="220" cy="315" r="15" fill="#8B0000"/>
  <rect x="219" y="330" width="2" height="27" fill="#654321"/>
  
  <circle cx="580" cy="320" r="16" fill="#FFD700"/>
  <rect x="579" y="336" width="2" height="28" fill="#654321"/>
  <circle cx="600" cy="305" r="14" fill="#8B0000"/>
  <rect x="599" y="319" width="2" height="25" fill="#654321"/>
  <circle cx="620" cy="315" r="15" fill="#FFD700"/>
  <rect x="619" y="330" width="2" height="27" fill="#654321"/>
  
  <!-- Academic books -->
  <rect x="150" y="380" width="30" height="40" fill="#8B0000" rx="3"/>
  <rect x="180" y="385" width="30" height="35" fill="#B22222" rx="3"/>
  <rect x="210" y="390" width="30" height="30" fill="#DC143C" rx="3"/>
  <text x="165" y="405" text-anchor="middle" fill="#FFD700" font-family="Arial, sans-serif" font-size="8">ENG</text>
  <text x="195" y="407" text-anchor="middle" fill="white" font-family="Arial, sans-serif" font-size="8">BUS</text>
  <text x="225" y="408" text-anchor="middle" fill="white" font-family="Arial, sans-serif" font-size="8">CS</text>
  
  <!-- SCU seal -->
  <circle cx="400" cy="50" r="25" fill="#8B0000"/>
  <circle cx="400" cy="50" r="20" fill="#FFD700"/>
  <text x="400" y="52" text-anchor="middle" fill="#8B0000" font-family="Arial, sans-serif" font-size="8">SANTA</text>
  <text x="400" y="62" text-anchor="middle" fill="#8B0000" font-family="Arial, sans-serif" font-size="8">CLARA</text>
  
  <!-- Mission gardens -->
  <circle cx="120" cy="350" r="10" fill="#32CD32"/>
  <circle cx="125" cy="345" r="4" fill="#FF69B4"/>
  <circle cx="115" cy="345" r="4" fill="#FFD700"/>
  <circle cx="120" cy="355" r="4" fill="#FF6347"/>
  <circle cx="110" cy="350" r="4" fill="#9370DB"/>
  <circle cx="130" cy="350" r="4" fill="#FF1493"/>
  
  <circle cx="680" cy="360" r="10" fill="#32CD32"/>
  <circle cx="685" cy="355" r="4" fill="#FF69B4"/>
  <circle cx="675" cy="355" r="4" fill="#FFD700"/>
  <circle cx="680" cy="365" r="4" fill="#FF6347"/>
  <circle cx="670" cy="360" r="4" fill="#9370DB"/>
  <circle cx="690" cy="360" r="4" fill="#FF1493"/>
  
  <!-- Achievement glow -->
  <circle cx="400" cy="340" r="140" fill="url(#academicAchievementGlow)"/>
  
  <!-- SCU diploma ceremony -->
  <rect x="50" y="500" width="80" height="50" fill="#8B0000" opacity="0.8" rx="8"/>
  <text x="90" y="520" text-anchor="middle" fill="#FFD700" font-family="Arial, sans-serif" font-size="10">DIPLOMA</text>
  <text x="90" y="535" text-anchor="middle" fill="white" font-family="Arial, sans-serif" font-size="10">CEREMONY</text>
  
  <!-- Academic success message -->
  <text x="400" y="120" text-anchor="middle" fill="#FFD700" font-family="Arial, sans-serif" font-size="16" font-weight="bold">CELEBRATING SCU ACADEMIC SUCCESS</text>
</svg>
