<?xml version="1.0" encoding="UTF-8"?>
<svg viewBox="0 0 800 600" xmlns="http://www.w3.org/2000/svg">
  <!-- Summer dining and seasonal hibachi experience -->
  <defs>
    <linearGradient id="summerSky" x1="0%" y1="0%" x2="0%" y2="100%">
      <stop offset="0%" style="stop-color:#87CEEB"/>
      <stop offset="50%" style="stop-color:#00BFFF"/>
      <stop offset="100%" style="stop-color:#4169E1"/>
    </linearGradient>
    <linearGradient id="summerGround" x1="0%" y1="0%" x2="0%" y2="100%">
      <stop offset="0%" style="stop-color:#32CD32"/>
      <stop offset="100%" style="stop-color:#228B22"/>
    </linearGradient>
    <radialGradient id="summerSunshine" cx="50%" cy="50%" r="50%">
      <stop offset="0%" style="stop-color:#FFD700; opacity:0.8"/>
      <stop offset="100%" style="stop-color:transparent"/>
    </radialGradient>
  </defs>
  
  <!-- Summer sky -->
  <rect width="800" height="400" fill="url(#summerSky)"/>
  <rect x="0" y="400" width="800" height="200" fill="url(#summerGround)"/>
  
  <!-- Summer sun -->
  <circle cx="150" cy="80" r="35" fill="#FFD700"/>
  <rect x="120" y="65" width="60" height="10" fill="#FFD700" opacity="0.6"/>
  <rect x="135" y="50" width="30" height="10" fill="#FFD700" opacity="0.6"/>
  <rect x="135" y="110" width="30" height="10" fill="#FFD700" opacity="0.6"/>
  <rect x="120" y="95" width="60" height="10" fill="#FFD700" opacity="0.6"/>
  
  <!-- Summer clouds -->
  <ellipse cx="400" cy="60" rx="45" ry="20" fill="white" opacity="0.8"/>
  <ellipse cx="420" cy="50" rx="35" ry="15" fill="white" opacity="0.8"/>
  <ellipse cx="380" cy="45" rx="25" ry="12" fill="white" opacity="0.8"/>
  
  <ellipse cx="650" cy="90" rx="40" ry="18" fill="white" opacity="0.7"/>
  <ellipse cx="670" cy="80" rx="30" ry="12" fill="white" opacity="0.7"/>
  <ellipse cx="630" cy="75" rx="20" ry="10" fill="white" opacity="0.7"/>
  
  <!-- Summer outdoor dining setup -->
  <rect x="200" y="300" width="400" height="200" fill="#8B4513" opacity="0.9" rx="20"/>
  <text x="400" y="330" text-anchor="middle" fill="white" font-family="Arial, sans-serif" font-size="22" font-weight="bold">SUMMER HIBACHI DINING</text>
  <text x="400" y="355" text-anchor="middle" fill="#FFD700" font-family="Arial, sans-serif" font-size="16">SEASONAL OUTDOOR EXPERIENCE</text>
  
  <!-- Outdoor hibachi setup -->
  <rect x="220" y="360" width="360" height="100" fill="#2F4F4F" rx="15"/>
  <rect x="230" y="355" width="340" height="20" fill="#FF4500"/>
  
  <!-- Summer hibachi grills -->
  <circle cx="250" cy="365" r="8" fill="#FFD700"/>
  <circle cx="280" cy="365" r="8" fill="#FF6347"/>
  <circle cx="310" cy="365" r="8" fill="#FFD700"/>
  <circle cx="340" cy="365" r="8" fill="#FF6347"/>
  <circle cx="370" cy="365" r="8" fill="#FFD700"/>
  <circle cx="400" cy="365" r="8" fill="#FF6347"/>
  <circle cx="430" cy="365" r="8" fill="#FFD700"/>
  <circle cx="460" cy="365" r="8" fill="#FF6347"/>
  <circle cx="490" cy="365" r="8" fill="#FFD700"/>
  <circle cx="520" cy="365" r="8" fill="#FF6347"/>
  <circle cx="550" cy="365" r="8" fill="#FFD700"/>
  
  <!-- Summer hibachi chef -->
  <circle cx="400" cy="280" r="18" fill="#FDBCB4"/>
  <rect x="387" y="298" width="26" height="32" fill="white"/>
  <rect x="382" y="330" width="36" height="38" fill="#000080"/>
  <rect x="386" y="368" width="10" height="28" fill="#FDBCB4"/>
  <rect x="404" y="368" width="10" height="28" fill="#FDBCB4"/>
  
  <!-- Summer chef hat -->
  <rect x="391" y="267" width="18" height="10" fill="white"/>
  <circle cx="400" cy="267" r="12" fill="white"/>
  <rect x="397" y="260" width="6" height="4" fill="#FFD700"/> <!-- Summer chef accent -->
  
  <!-- Summer dining guests -->
  <!-- Guest 1 - Summer outfit -->
  <circle cx="280" cy="450" r="15" fill="#FDBCB4"/>
  <rect x="268" y="465" width="24" height="30" fill="#FF69B4"/> <!-- Summer pink -->
  <rect x="270" y="495" width="20" height="24" fill="#87CEEB"/> <!-- Light blue shorts -->
  <rect x="272" y="519" width="16" height="20" fill="#DEB887"/> <!-- Sandals -->
  <!-- Sun hat -->
  <circle cx="280" cy="440" r="18" fill="#FFD700" opacity="0.8"/>
  <circle cx="280" cy="440" r="12" fill="#87CEEB"/>
  
  <!-- Guest 2 - Summer casual -->
  <circle cx="520" cy="450" r="15" fill="#FDBCB4"/>
  <rect x="508" y="465" width="24" height="30" fill="#32CD32"/> <!-- Lime green -->
  <rect x="510" y="495" width="20" height="24" fill="#F0E68C"/> <!-- Khaki shorts -->
  <rect x="512" y="519" width="16" height="20" fill="#8B4513"/> <!-- Summer shoes -->
  <!-- Baseball cap -->
  <ellipse cx="520" cy="440" rx="12" ry="8" fill="#FF4500"/>
  <ellipse cx="525" cy="437" rx="8" ry="3" fill="#FF4500"/>
  
  <!-- Summer dining family -->
  <!-- Parent 1 -->
  <circle cx="320" cy="460" r="14" fill="#FDBCB4"/>
  <rect x="309" y="474" width="22" height="28" fill="#FF6347"/> <!-- Coral summer top -->
  <rect x="311" y="502" width="18" height="22" fill="white"/> <!-- White summer pants -->
  <rect x="313" y="524" width="14" height="18" fill="#FFD700"/> <!-- Summer sandals -->
  
  <!-- Parent 2 -->
  <circle cx="480" cy="460" r="14" fill="#FDBCB4"/>
  <rect x="469" y="474" width="22" height="28" fill="#00CED1"/> <!-- Turquoise -->
  <rect x="471" y="502" width="18" height="22" fill="#F5DEB3"/> <!-- Wheat colored pants -->
  <rect x="473" y="524" width="14" height="18" fill="#8B4513"/> <!-- Brown sandals -->
  
  <!-- Summer children -->
  <circle cx="350" cy="470" r="12" fill="#FDBCB4"/>
  <rect x="342" y="482" width="16" height="22" fill="#FFD700"/> <!-- Bright yellow -->
  <rect x="344" y="504" width="12" height="18" fill="#FF69B4"/> <!-- Pink shorts -->
  <rect x="346" y="522" width="8" height="14" fill="#00FF00"/> <!-- Bright sneakers -->
  
  <circle cx="450" cy="470" r="12" fill="#FDBCB4"/>
  <rect x="442" y="482" width="16" height="22" fill="#00BFFF"/> <!-- Bright blue -->
  <rect x="444" y="504" width="12" height="18" fill="#32CD32"/> <!-- Green shorts -->
  <rect x="446" y="522" width="8" height="14" fill="#FF4500"/> <!-- Orange sneakers -->
  
  <!-- Summer outdoor dining table -->
  <ellipse cx="400" cy="530" rx="140" ry="40" fill="#DEB887"/>
  
  <!-- Summer place settings -->
  <circle cx="290" cy="525" r="10" fill="white"/>
  <circle cx="330" cy="525" r="10" fill="white"/>
  <circle cx="370" cy="525" r="10" fill="white"/>
  <circle cx="410" cy="525" r="10" fill="white"/>
  <circle cx="450" cy="525" r="10" fill="white"/>
  <circle cx="490" cy="525" r="10" fill="white"/>
  <circle cx="530" cy="525" r="10" fill="white"/>
  
  <!-- Summer beverages -->
  <rect x="285" y="515" width="5" height="12" fill="#FF69B4"/> <!-- Pink lemonade -->
  <rect x="325" y="515" width="5" height="12" fill="#FFD700"/> <!-- Iced tea -->
  <rect x="365" y="515" width="5" height="12" fill="#00BFFF"/> <!-- Blue sports drink -->
  <rect x="405" y="515" width="5" height="12" fill="#32CD32"/> <!-- Green smoothie -->
  <rect x="445" y="515" width="5" height="12" fill="#FF6347"/> <!-- Fruit punch -->
  <rect x="485" y="515" width="5" height="12" fill="#87CEEB"/> <!-- Ice water -->
  <rect x="525" y="515" width="5" height="12" fill="#DDA0DD"/> <!-- Purple drink -->
  
  <!-- Summer title -->
  <text x="400" y="150" text-anchor="middle" fill="#FF6347" font-family="Arial, sans-serif" font-size="28" font-weight="bold">SUMMER HIBACHI</text>
  <text x="400" y="180" text-anchor="middle" fill="#FFD700" font-family="Arial, sans-serif" font-size="18">SEASONAL OUTDOOR DINING</text>
  
  <!-- Summer outdoor elements -->
  <rect x="50" y="420" width="120" height="80" fill="#32CD32" opacity="0.8" rx="12"/>
  <text x="110" y="445" text-anchor="middle" fill="white" font-family="Arial, sans-serif" font-size="14" font-weight="bold">FRESH</text>
  <text x="110" y="460" text-anchor="middle" fill="#FFD700" font-family="Arial, sans-serif" font-size="13">SUMMER</text>
  <text x="110" y="475" text-anchor="middle" fill="white" font-family="Arial, sans-serif" font-size="12">INGREDIENTS</text>
  <text x="110" y="490" text-anchor="middle" fill="white" font-family="Arial, sans-serif" font-size="11">SEASONAL</text>
  
  <rect x="630" y="420" width="120" height="80" fill="#FF6347" opacity="0.8" rx="12"/>
  <text x="690" y="445" text-anchor="middle" fill="white" font-family="Arial, sans-serif" font-size="14" font-weight="bold">OUTDOOR</text>
  <text x="690" y="460" text-anchor="middle" fill="#FFD700" font-family="Arial, sans-serif" font-size="13">HIBACHI</text>
  <text x="690" y="475" text-anchor="middle" fill="white" font-family="Arial, sans-serif" font-size="12">DINING</text>
  <text x="690" y="490" text-anchor="middle" fill="white" font-family="Arial, sans-serif" font-size="11">EXPERIENCE</text>
  
  <!-- Summer hibachi specialties -->
  <ellipse cx="260" cy="363" rx="12" ry="7" fill="#FF6347"/>
  <ellipse cx="290" cy="363" rx="13" ry="7" fill="#FFD700"/>
  <ellipse cx="320" cy="363" rx="12" ry="7" fill="#32CD32"/>
  <ellipse cx="350" cy="363" rx="11" ry="6" fill="#FF69B4"/>
  <ellipse cx="380" cy="363" rx="12" ry="7" fill="#00BFFF"/>
  <ellipse cx="410" cy="363" rx="13" ry="7" fill="#FF6347"/>
  <ellipse cx="440" cy="363" rx="12" ry="7" fill="#FFD700"/>
  <ellipse cx="470" cy="363" rx="11" ry="6" fill="#32CD32"/>
  <ellipse cx="500" cy="363" rx="12" ry="7" fill="#FF69B4"/>
  <ellipse cx="530" cy="363" rx="13" ry="7" fill="#00BFFF"/>
  
  <!-- Summer cooking flames -->
  <polygon points="260,363 265,353 255,353" fill="#FF6347" opacity="0.9"/>
  <polygon points="290,363 295,353 285,353" fill="#FFD700" opacity="0.9"/>
  <polygon points="320,363 325,353 315,353" fill="#32CD32" opacity="0.9"/>
  <polygon points="350,363 355,353 345,353" fill="#FF69B4" opacity="0.9"/>
  <polygon points="380,363 385,353 375,353" fill="#00BFFF" opacity="0.9"/>
  <polygon points="410,363 415,353 405,353" fill="#FF6347" opacity="0.9"/>
  <polygon points="440,363 445,353 435,353" fill="#FFD700" opacity="0.9"/>
  <polygon points="470,363 475,353 465,353" fill="#32CD32" opacity="0.9"/>
  <polygon points="500,363 505,353 495,353" fill="#FF69B4" opacity="0.9"/>
  <polygon points="530,363 535,353 525,353" fill="#00BFFF" opacity="0.9"/>
  
  <!-- Summer flowers and garden -->
  <circle cx="80" cy="250" r="12" fill="#32CD32"/>
  <circle cx="85" cy="245" r="5" fill="#FF69B4"/>
  <circle cx="75" cy="245" r="5" fill="#FFD700"/>
  <circle cx="80" cy="255" r="5" fill="#FF6347"/>
  <circle cx="70" cy="250" r="5" fill="#9370DB"/>
  <circle cx="90" cy="250" r="5" fill="#FF1493"/>
  
  <circle cx="720" cy="260" r="12" fill="#32CD32"/>
  <circle cx="725" cy="255" r="5" fill="#FF69B4"/>
  <circle cx="715" cy="255" r="5" fill="#FFD700"/>
  <circle cx="720" cy="265" r="5" fill="#FF6347"/>
  <circle cx="710" cy="260" r="5" fill="#9370DB"/>
  <circle cx="730" cy="260" r="5" fill="#FF1493"/>
  
  <!-- Summer trees -->
  <rect x="70" y="180" width="10" height="80" fill="#8B4513"/>
  <circle cx="75" cy="180" r="25" fill="#32CD32"/>
  <circle cx="68" cy="170" r="8" fill="#FF69B4"/> <!-- Summer blossoms -->
  <circle cx="82" cy="175" r="6" fill="#FFD700"/>
  <circle cx="75" cy="160" r="7" fill="#FF6347"/>
  
  <rect x="720" y="190" width="10" height="70" fill="#8B4513"/>
  <circle cx="725" cy="190" r="20" fill="#32CD32"/>
  <circle cx="718" cy="182" r="6" fill="#FF69B4"/>
  <circle cx="732" cy="185" r="5" fill="#FFD700"/>
  <circle cx="725" cy="175" r="6" fill="#FF6347"/>
  
  <!-- Summer atmosphere -->
  <circle cx="400" cy="360" r="180" fill="url(#summerSunshine)"/>
  
  <!-- Summer patio umbrellas -->
  <rect x="170" y="260" width="4" height="40" fill="#8B4513"/>
  <ellipse cx="172" cy="260" rx="20" ry="8" fill="#FF6347"/>
  
  <rect x="626" y="270" width="4" height="35" fill="#8B4513"/>
  <ellipse cx="628" cy="270" rx="18" ry="7" fill="#00BFFF"/>
  
  <!-- Summer butterflies -->
  <ellipse cx="250" cy="200" rx="8" ry="4" fill="#FFD700" opacity="0.8"/>
  <ellipse cx="254" cy="198" rx="6" ry="3" fill="#FF69B4" opacity="0.8"/>
  <circle cx="252" cy="199" r="1" fill="#000000"/>
  
  <ellipse cx="550" cy="220" rx="7" ry="3" fill="#9370DB" opacity="0.8"/>
  <ellipse cx="553" cy="218" rx="5" ry="2" fill="#FF1493" opacity="0.8"/>
  <circle cx="551" cy="219" r="1" fill="#000000"/>
  
  <!-- Summer dining subtitle -->
  <text x="400" y="210" text-anchor="middle" fill="white" font-family="Arial, sans-serif" font-size="14">FRESH • VIBRANT • SEASONAL</text>
</svg>
