<svg viewBox="0 0 800 600" xmlns="http://www.w3.org/2000/svg">
  <defs>
    <linearGradient id="globalSkyGradient" x1="0%" y1="0%" x2="0%" y2="100%">
      <stop offset="0%" style="stop-color:#FF69B4"/>
      <stop offset="25%" style="stop-color:#32CD32"/>
      <stop offset="50%" style="stop-color:#FFD700"/>
      <stop offset="75%" style="stop-color:#00CED1"/>
      <stop offset="100%" style="stop-color:#FF6347"/>
    </linearGradient>
    <linearGradient id="flameGradient" x1="0%" y1="100%" x2="0%" y2="0%">
      <stop offset="0%" style="stop-color:#FF4500"/>
      <stop offset="33%" style="stop-color:#32CD32"/>
      <stop offset="66%" style="stop-color:#4169E1"/>
      <stop offset="100%" style="stop-color:#FFD700"/>
    </linearGradient>
  </defs>

  <!-- Global Rainbow Sky -->
  <rect width="800" height="600" fill="url(#globalSkyGradient)"/>

  <!-- International Festival Banner -->
  <rect x="100" y="30" width="600" height="70" fill="#4169E1" stroke="#FFD700" stroke-width="4"/>
  <text x="400" y="60" text-anchor="middle" font-family="serif" font-size="18" font-weight="bold" fill="#FFFFFF">SUNNYVALE INTERNATIONAL FESTIVAL</text>
  <text x="400" y="80" text-anchor="middle" font-family="serif" font-size="12" fill="#FFD700">Global Celebrations in Silicon Valley</text>
  <text x="400" y="95" text-anchor="middle" font-family="serif" font-size="10" fill="#32CD32">Unity Through Diversity</text>

  <!-- Festival Ground -->
  <rect x="0" y="350" width="800" height="250" fill="#90EE90"/>

  <!-- Global Cultural Pavilions -->
  <!-- Asia Pavilion -->
  <polygon points="50,300 150,300 100,200" fill="#FF0000" stroke="#FFD700" stroke-width="2"/>
  <rect x="75" y="300" width="50" height="50" fill="#FFD700"/>
  <circle cx="100" cy="325" r="15" fill="#FF0000"/>
  <text x="100" y="330" text-anchor="middle" font-family="serif" font-size="8" font-weight="bold" fill="#FFFFFF">ASIA</text>

  <!-- Europe Pavilion -->
  <polygon points="200,290 300,290 250,190" fill="#0000FF" stroke="#FFFFFF" stroke-width="2"/>
  <rect x="225" y="290" width="50" height="60" fill="#FFFFFF"/>
  <circle cx="250" cy="320" r="15" fill="#0000FF"/>
  <text x="250" y="325" text-anchor="middle" font-family="serif" font-size="8" font-weight="bold" fill="#FFFFFF">EUROPE</text>

  <!-- Africa Pavilion -->
  <polygon points="500,290 600,290 550,190" fill="#228B22" stroke="#FFD700" stroke-width="2"/>
  <rect x="525" y="290" width="50" height="60" fill="#FFD700"/>
  <circle cx="550" cy="320" r="15" fill="#228B22"/>
  <text x="550" y="325" text-anchor="middle" font-family="serif" font-size="8" font-weight="bold" fill="#FFFFFF">AFRICA</text>

  <!-- Americas Pavilion -->
  <polygon points="650,300 750,300 700,200" fill="#8B008B" stroke="#FF69B4" stroke-width="2"/>
  <rect x="675" y="300" width="50" height="50" fill="#FF69B4"/>
  <circle cx="700" cy="325" r="15" fill="#8B008B"/>
  <text x="700" y="330" text-anchor="middle" font-family="serif" font-size="7" font-weight="bold" fill="#FFFFFF">AMERICAS</text>

  <!-- International Hibachi Setup -->
  <rect x="350" y="520" width="100" height="30" fill="#2F4F4F" stroke="#000" stroke-width="2"/>
  <circle cx="400" cy="535" r="25" fill="#1C1C1C" stroke="#000" stroke-width="2"/>
  
  <!-- Multicultural Flames -->
  <ellipse cx="400" cy="525" rx="15" ry="20" fill="url(#flameGradient)" opacity="0.9"/>
  <ellipse cx="395" cy="520" rx="10" ry="15" fill="#32CD32" opacity="0.8"/>
  <ellipse cx="405" cy="520" rx="10" ry="15" fill="#4169E1" opacity="0.8"/>
  <ellipse cx="400" cy="515" rx="8" ry="12" fill="#FFD700" opacity="0.7"/>

  <!-- Global Fusion Chef -->
  <circle cx="420" cy="555" r="12" fill="#FDBCB4"/>
  <rect x="415" y="567" width="10" height="25" fill="#FFFFFF"/>
  <rect x="410" y="592" width="20" height="8" fill="#000"/>
  <!-- United Nations flag chef hat -->
  <ellipse cx="420" cy="550" rx="10" ry="6" fill="#FFFFFF"/>
  <rect x="415" y="538" width="10" height="12" fill="#FFFFFF"/>
  <rect x="415" y="540" width="2" height="10" fill="#FF0000"/>
  <rect x="417" y="540" width="2" height="10" fill="#32CD32"/>
  <rect x="419" y="540" width="2" height="10" fill="#0000FF"/>
  <rect x="421" y="540" width="2" height="10" fill="#FFD700"/>
  <rect x="423" y="540" width="2" height="10" fill="#FF69B4"/>
  <!-- Chef with globe and spatula -->
  <circle cx="435" cy="575" r="4" fill="#4169E1"/>
  <circle cx="435" cy="575" r="3" fill="#32CD32" opacity="0.5"/>
  <line x1="440" y1="580" x2="450" y2="570" stroke="#C0C0C0" stroke-width="2"/>

  <!-- International Festival Crowd -->
  <!-- Asian Delegation -->
  <circle cx="150" cy="480" r="10" fill="#FDBCB4"/>
  <rect x="145" y="490" width="10" height="20" fill="#FF0000"/>
  <rect x="143" y="510" width="14" height="8" fill="#000"/>
  <ellipse cx="150" cy="475" rx="7" ry="4" fill="#000"/>
  <!-- Traditional kimono pattern -->
  <circle cx="150" cy="500" r="2" fill="#FFD700"/>

  <circle cx="170" cy="485" r="8" fill="#FDBCB4"/>
  <rect x="166" y="493" width="8" height="17" fill="#FF69B4"/>
  <rect x="164" y="510" width="12" height="7" fill="#8B4513"/>
  <ellipse cx="170" cy="481" rx="6" ry="3" fill="#000"/>

  <!-- European Delegation -->
  <circle cx="280" cy="475" r="11" fill="#FDBCB4"/>
  <rect x="275" y="486" width="10" height="22" fill="#0000FF"/>
  <rect x="273" y="508" width="14" height="8" fill="#8B4513"/>
  <ellipse cx="280" cy="470" rx="8" ry="4" fill="#FFD700"/>
  <!-- Lederhosen/dirndl -->
  <rect x="275" y="486" width="10" height="5" fill="#228B22"/>

  <circle cx="300" cy="480" r="9" fill="#FDBCB4"/>
  <rect x="296" y="489" width="8" height="19" fill="#8B0000"/>
  <rect x="294" y="508" width="12" height="7" fill="#000"/>
  <ellipse cx="300" cy="476" rx="6" ry="3" fill="#8B4513"/>

  <!-- African Delegation -->
  <circle cx="580" cy="475" r="11" fill="#8B4513"/>
  <rect x="575" y="486" width="10" height="22" fill="#228B22"/>
  <rect x="573" y="508" width="14" height="8" fill="#000"/>
  <ellipse cx="580" cy="470" rx="8" ry="4" fill="#000"/>
  <!-- Traditional patterns -->
  <circle cx="580" cy="495" r="3" fill="#FFD700"/>
  <circle cx="575" cy="500" r="2" fill="#FF0000"/>
  <circle cx="585" cy="500" r="2" fill="#32CD32"/>

  <circle cx="600" cy="480" r="9" fill="#8B4513"/>
  <rect x="596" y="489" width="8" height="19" fill="#FF4500"/>
  <rect x="594" y="508" width="12" height="7" fill="#8B4513"/>
  <ellipse cx="600" cy="476" rx="6" ry="3" fill="#000"/>

  <!-- Americas Delegation -->
  <circle cx="720" cy="480" r="10" fill="#D2B48C"/>
  <rect x="715" y="490" width="10" height="20" fill="#8B008B"/>
  <rect x="713" y="510" width="14" height="8" fill="#8B4513"/>
  <ellipse cx="720" cy="475" rx="7" ry="4" fill="#8B4513"/>
  <!-- Poncho pattern -->
  <rect x="715" y="490" width="10" height="3" fill="#FFD700"/>
  <rect x="715" y="496" width="10" height="3" fill="#FF6347"/>

  <circle cx="740" cy="485" r="8" fill="#D2B48C"/>
  <rect x="736" y="493" width="8" height="17" fill="#32CD32"/>
  <rect x="734" y="510" width="12" height="7" fill="#000"/>
  <ellipse cx="740" cy="481" rx="6" ry="3" fill="#000"/>

  <!-- International Food Festival Table -->
  <ellipse cx="400" cy="580" rx="120" ry="25" fill="#8B4513" stroke="#654321" stroke-width="2"/>
  <ellipse cx="400" cy="578" rx="120" ry="25" fill="#A0522D"/>

  <!-- Global Cuisine Displays -->
  <ellipse cx="320" cy="575" rx="15" ry="8" fill="#FFFFFF" stroke="#000" stroke-width="1"/>
  <circle cx="315" cy="573" r="3" fill="#FF0000"/>
  <circle cx="320" cy="571" r="3" fill="#32CD32"/>
  <circle cx="325" cy="573" r="3" fill="#FFD700"/>
  <text x="320" y="590" text-anchor="middle" font-family="serif" font-size="6" fill="#000">SUSHI</text>

  <ellipse cx="360" cy="575" rx="15" ry="8" fill="#FFFFFF" stroke="#000" stroke-width="1"/>
  <circle cx="355" cy="573" r="3" fill="#8B008B"/>
  <circle cx="360" cy="571" r="3" fill="#FF6347"/>
  <circle cx="365" cy="573" r="3" fill="#32CD32"/>
  <text x="360" y="590" text-anchor="middle" font-family="serif" font-size="6" fill="#000">PASTA</text>

  <ellipse cx="440" cy="575" rx="15" ry="8" fill="#FFFFFF" stroke="#000" stroke-width="1"/>
  <circle cx="435" cy="573" r="3" fill="#FF4500"/>
  <circle cx="440" cy="571" r="3" fill="#FFD700"/>
  <circle cx="445" cy="573" r="3" fill="#228B22"/>
  <text x="440" y="590" text-anchor="middle" font-family="serif" font-size="6" fill="#000">CURRY</text>

  <ellipse cx="480" cy="575" rx="15" ry="8" fill="#FFFFFF" stroke="#000" stroke-width="1"/>
  <circle cx="475" cy="573" r="3" fill="#8B0000"/>
  <circle cx="480" cy="571" r="3" fill="#FFD700"/>
  <circle cx="485" cy="573" r="3" fill="#32CD32"/>
  <text x="480" y="590" text-anchor="middle" font-family="serif" font-size="6" fill="#000">TACOS</text>

  <!-- International Flags -->
  <rect x="80" y="250" width="25" height="15" fill="#FF0000"/>
  <circle cx="87" cy="257" r="3" fill="#FFD700"/>
  <line x1="80" y1="250" x2="80" y2="280" stroke="#8B4513" stroke-width="2"/>

  <rect x="230" y="240" width="25" height="15" fill="#0000FF"/>
  <rect x="230" y="250" width="25" height="5" fill="#FFFFFF"/>
  <line x1="230" y1="240" x2="230" y2="270" stroke="#8B4513" stroke-width="2"/>

  <rect x="530" y="240" width="25" height="15" fill="#228B22"/>
  <rect x="530" y="250" width="25" height="5" fill="#FFD700"/>
  <rect x="530" y="255" width="25" height="5" fill="#FF0000"/>
  <line x1="530" y1="240" x2="530" y2="270" stroke="#8B4513" stroke-width="2"/>

  <rect x="680" y="250" width="25" height="15" fill="#8B008B"/>
  <polygon points="680,257 690,250 690,265" fill="#FFFFFF"/>
  <line x1="680" y1="250" x2="680" y2="280" stroke="#8B4513" stroke-width="2"/>

  <!-- Cultural Music Notes -->
  <circle cx="120" cy="380" r="3" fill="#FF0000"/>
  <line x1="123" y1="380" x2="123" y2="365" stroke="#FF0000" stroke-width="2"/>
  
  <circle cx="680" cy="360" r="3" fill="#0000FF"/>
  <line x1="683" y1="360" x2="683" y2="345" stroke="#0000FF" stroke-width="2"/>

  <!-- Unity Circle -->
  <circle cx="400" cy="450" r="60" fill="none" stroke="#FFFFFF" stroke-width="3" stroke-dasharray="10,10" opacity="0.8"/>
  <text x="400" y="455" text-anchor="middle" font-family="serif" font-size="12" font-weight="bold" fill="#FFFFFF">UNITY</text>

  <!-- Global Smoke -->
  <ellipse cx="400" cy="505" rx="20" ry="8" fill="#FF69B4" opacity="0.6"/>
  <ellipse cx="405" cy="495" rx="25" ry="10" fill="#32CD32" opacity="0.4"/>
  <ellipse cx="395" cy="485" rx="30" ry="12" fill="#FFD700" opacity="0.3"/>
</svg>
