<?xml version="1.0" encoding="UTF-8"?>
<svg viewBox="0 0 800 600" xmlns="http://www.w3.org/2000/svg">
  <!-- Tech startup team building hibachi event -->
  <defs>
    <linearGradient id="techStartupSky" x1="0%" y1="0%" x2="0%" y2="100%">
      <stop offset="0%" style="stop-color:#4169E1"/>
      <stop offset="50%" style="stop-color:#1E90FF"/>
      <stop offset="100%" style="stop-color:#87CEEB"/>
    </linearGradient>
    <linearGradient id="startupBuilding" x1="0%" y1="0%" x2="0%" y2="100%">
      <stop offset="0%" style="stop-color:#2F4F4F"/>
      <stop offset="100%" style="stop-color:#708090"/>
    </linearGradient>
    <radialGradient id="innovationGlow" cx="50%" cy="50%" r="50%">
      <stop offset="0%" style="stop-color:#00BFFF; opacity:0.7"/>
      <stop offset="100%" style="stop-color:transparent"/>
    </radialGradient>
  </defs>
  
  <!-- Silicon Valley tech sky -->
  <rect width="800" height="600" fill="url(#techStartupSky)"/>
  
  <!-- Silicon Valley innovation stars -->
  <circle cx="120" cy="60" r="2" fill="#FFD700"/>
  <circle cx="240" cy="45" r="1.5" fill="white"/>
  <circle cx="380" cy="70" r="2" fill="#00BFFF"/>
  <circle cx="560" cy="50" r="1.5" fill="white"/>
  <circle cx="680" cy="35" r="2" fill="#FFD700"/>
  <circle cx="720" cy="75" r="1.5" fill="white"/>
  
  <!-- Tech startup office buildings -->
  <rect x="80" y="160" width="120" height="180" fill="url(#startupBuilding)" rx="10"/>
  <rect x="220" y="140" width="140" height="200" fill="url(#startupBuilding)" rx="10"/>
  <rect x="380" y="180" width="100" height="160" fill="url(#startupBuilding)" rx="10"/>
  <rect x="500" y="150" width="130" height="190" fill="url(#startupBuilding)" rx="10"/>
  <rect x="650" y="170" width="110" height="170" fill="url(#startupBuilding)" rx="10"/>
  
  <!-- Startup company logos -->
  <rect x="100" y="180" width="80" height="30" fill="#FF6347" rx="5"/>
  <text x="140" y="200" text-anchor="middle" fill="white" font-family="Arial, sans-serif" font-size="12" font-weight="bold">STARTUP</text>
  
  <rect x="240" y="160" width="100" height="35" fill="#32CD32" rx="5"/>
  <text x="290" y="182" text-anchor="middle" fill="white" font-family="Arial, sans-serif" font-size="13" font-weight="bold">TECH CO</text>
  
  <rect x="400" y="200" width="60" height="25" fill="#FF69B4" rx="5"/>
  <text x="430" y="217" text-anchor="middle" fill="white" font-family="Arial, sans-serif" font-size="10">APP</text>
  
  <rect x="520" y="170" width="90" height="30" fill="#9370DB" rx="5"/>
  <text x="565" y="190" text-anchor="middle" fill="white" font-family="Arial, sans-serif" font-size="11">INNOVATE</text>
  
  <rect x="670" y="190" width="70" height="25" fill="#FF8C00" rx="5"/>
  <text x="705" y="207" text-anchor="middle" fill="white" font-family="Arial, sans-serif" font-size="10">DISRUPT</text>
  
  <!-- Team building venue -->
  <rect x="180" y="280" width="440" height="200" fill="#F5F5F5" opacity="0.95" rx="20"/>
  <text x="400" y="310" text-anchor="middle" fill="#2F4F4F" font-family="Arial, sans-serif" font-size="20" font-weight="bold">STARTUP TEAM BUILDING</text>
  <text x="400" y="335" text-anchor="middle" fill="#4169E1" font-family="Arial, sans-serif" font-size="16">SILICON VALLEY HIBACHI</text>
  
  <!-- Startup hibachi setup -->
  <rect x="200" y="250" width="400" height="120" fill="#2F4F4F" rx="15"/>
  <rect x="210" y="245" width="380" height="20" fill="#FF6347"/>
  
  <!-- Innovation hibachi grills -->
  <circle cx="230" cy="255" r="9" fill="#32CD32"/>
  <circle cx="260" cy="255" r="9" fill="#FF69B4"/>
  <circle cx="290" cy="255" r="9" fill="#FFD700"/>
  <circle cx="320" cy="255" r="9" fill="#00BFFF"/>
  <circle cx="350" cy="255" r="9" fill="#FF6347"/>
  <circle cx="380" cy="255" r="9" fill="#9370DB"/>
  <circle cx="410" cy="255" r="9" fill="#32CD32"/>
  <circle cx="440" cy="255" r="9" fill="#FF69B4"/>
  <circle cx="470" cy="255" r="9" fill="#FFD700"/>
  <circle cx="500" cy="255" r="9" fill="#00BFFF"/>
  <circle cx="530" cy="255" r="9" fill="#FF6347"/>
  <circle cx="560" cy="255" r="9" fill="#9370DB"/>
  
  <!-- Startup hibachi chef -->
  <circle cx="400" cy="200" r="18" fill="#FDBCB4"/>
  <rect x="386" y="218" width="28" height="32" fill="white"/>
  <rect x="381" y="250" width="38" height="38" fill="#2F4F4F"/>
  <rect x="385" y="288" width="10" height="28" fill="#FDBCB4"/>
  <rect x="405" y="288" width="10" height="28" fill="#FDBCB4"/>
  
  <!-- Tech chef hat -->
  <rect x="390" y="186" width="20" height="12" fill="white"/>
  <circle cx="400" cy="186" r="14" fill="white"/>
  <rect x="396" y="178" width="8" height="5" fill="#00BFFF"/> <!-- Tech accent -->
  
  <!-- Startup team members -->
  <!-- Developer 1 -->
  <circle cx="300" cy="400" r="16" fill="#FDBCB4"/>
  <rect x="288" y="416" width="24" height="32" fill="#00BFFF"/> <!-- Tech blue hoodie -->
  <rect x="290" y="448" width="20" height="26" fill="#000080"/> <!-- Dark jeans -->
  <rect x="292" y="474" width="16" height="20" fill="#8B4513"/> <!-- Casual shoes -->
  <!-- Laptop -->
  <rect x="285" y="405" width="12" height="8" fill="#2F4F4F"/>
  <rect x="286" y="406" width="10" height="6" fill="#00BFFF"/>
  
  <!-- Developer 2 -->
  <circle cx="500" cy="400" r="16" fill="#FDBCB4"/>
  <rect x="488" y="416" width="24" height="32" fill="#32CD32"/> <!-- Green startup t-shirt -->
  <rect x="490" y="448" width="20" height="26" fill="#696969"/> <!-- Gray pants -->
  <rect x="492" y="474" width="16" height="20" fill="white"/> <!-- White sneakers -->
  <!-- Tablet -->
  <rect x="505" y="408" width="8" height="10" fill="#2F4F4F"/>
  <rect x="506" y="409" width="6" height="8" fill="white"/>
  
  <!-- Product Manager -->
  <circle cx="350" cy="410" r="15" fill="#FDBCB4"/>
  <rect x="339" y="425" width="22" height="30" fill="#FF69B4"/> <!-- Pink blazer -->
  <rect x="341" y="455" width="18" height="24" fill="#000080"/> <!-- Business pants -->
  <rect x="343" y="479" width="14" height="18" fill="#654321"/> <!-- Professional shoes -->
  <!-- Phone -->
  <rect x="347" y="415" width="3" height="6" fill="#2F4F4F"/>
  <rect x="347" y="416" width="3" height="4" fill="#FFD700"/>
  
  <!-- Designer -->
  <circle cx="450" cy="410" r="15" fill="#FDBCB4"/>
  <rect x="439" y="425" width="22" height="30" fill="#9370DB"/> <!-- Purple creative shirt -->
  <rect x="441" y="455" width="18" height="24" fill="#8B4513"/> <!-- Brown pants -->
  <rect x="443" y="479" width="14" height="18" fill="#FF6347"/> <!-- Creative shoes -->
  <!-- Design tools -->
  <circle cx="447" cy="418" r="2" fill="#FFD700"/>
  <circle cx="452" cy="420" r="1.5" fill="#FF69B4"/>
  
  <!-- Marketing Lead -->
  <circle cx="380" cy="420" r="14" fill="#FDBCB4"/>
  <rect x="370" y="434" width="20" height="28" fill="#FF8C00"/> <!-- Orange marketing shirt -->
  <rect x="372" y="462" width="16" height="22" fill="#000080"/> <!-- Navy pants -->
  <rect x="374" y="484" width="12" height="16" fill="#8B4513"/> <!-- Brown shoes -->
  
  <!-- CTO -->
  <circle cx="420" cy="420" r="14" fill="#FDBCB4"/>
  <rect x="410" y="434" width="20" height="28" fill="#2F4F4F"/> <!-- Tech leadership shirt -->
  <rect x="412" y="462" width="16" height="22" fill="#696969"/> <!-- Gray pants -->
  <rect x="414" y="484" width="12" height="16" fill="#000000"/> <!-- Black shoes -->
  
  <!-- Team dining table -->
  <ellipse cx="400" cy="520" rx="150" ry="45" fill="#8B4513"/>
  
  <!-- Startup place settings -->
  <circle cx="280" cy="515" r="11" fill="white"/>
  <circle cx="320" cy="515" r="11" fill="white"/>
  <circle cx="360" cy="515" r="11" fill="white"/>
  <circle cx="400" cy="515" r="11" fill="white"/>
  <circle cx="440" cy="515" r="11" fill="white"/>
  <circle cx="480" cy="515" r="11" fill="white"/>
  <circle cx="520" cy="515" r="11" fill="white"/>
  
  <!-- Innovation drinks -->
  <rect x="275" y="505" width="5" height="12" fill="#32CD32"/> <!-- Green juice -->
  <rect x="315" y="505" width="5" height="12" fill="#FF69B4"/> <!-- Energy drink -->
  <rect x="355" y="505" width="5" height="12" fill="#00BFFF"/> <!-- Blue sports drink -->
  <rect x="395" y="505" width="5" height="12" fill="#FFD700"/> <!-- Coffee -->
  <rect x="435" y="505" width="5" height="12" fill="#FF6347"/> <!-- Kombucha -->
  <rect x="475" y="505" width="5" height="12" fill="#9370DB"/> <!-- Protein shake -->
  <rect x="515" y="505" width="5" height="12" fill="#87CEEB"/> <!-- Water -->
  
  <!-- Startup title -->
  <text x="400" y="130" text-anchor="middle" fill="#FFD700" font-family="Arial, sans-serif" font-size="28" font-weight="bold">SILICON VALLEY STARTUP</text>
  <text x="400" y="160" text-anchor="middle" fill="white" font-family="Arial, sans-serif" font-size="18">TEAM BUILDING HIBACHI</text>
  
  <!-- Innovation zones -->
  <rect x="50" y="450" width="120" height="100" fill="#32CD32" opacity="0.8" rx="12"/>
  <text x="110" y="475" text-anchor="middle" fill="white" font-family="Arial, sans-serif" font-size="14" font-weight="bold">INNOVATION</text>
  <text x="110" y="490" text-anchor="middle" fill="#FFD700" font-family="Arial, sans-serif" font-size="13">TEAM</text>
  <text x="110" y="505" text-anchor="middle" fill="white" font-family="Arial, sans-serif" font-size="12">BUILDING</text>
  <text x="110" y="520" text-anchor="middle" fill="white" font-family="Arial, sans-serif" font-size="11">STARTUP</text>
  <text x="110" y="535" text-anchor="middle" fill="white" font-family="Arial, sans-serif" font-size="10">CULTURE</text>
  
  <rect x="630" y="450" width="120" height="100" fill="#FF6347" opacity="0.8" rx="12"/>
  <text x="690" y="475" text-anchor="middle" fill="white" font-family="Arial, sans-serif" font-size="14" font-weight="bold">TECH</text>
  <text x="690" y="490" text-anchor="middle" fill="#FFD700" font-family="Arial, sans-serif" font-size="13">COMPANY</text>
  <text x="690" y="505" text-anchor="middle" fill="white" font-family="Arial, sans-serif" font-size="12">BONDING</text>
  <text x="690" y="520" text-anchor="middle" fill="white" font-family="Arial, sans-serif" font-size="11">SILICON</text>
  <text x="690" y="535" text-anchor="middle" fill="white" font-family="Arial, sans-serif" font-size="10">VALLEY</text>
  
  <!-- Tech hibachi specialties -->
  <ellipse cx="240" cy="253" rx="13" ry="8" fill="#32CD32"/>
  <ellipse cx="270" cy="253" rx="14" ry="8" fill="#FF69B4"/>
  <ellipse cx="300" cy="253" rx="13" ry="8" fill="#FFD700"/>
  <ellipse cx="330" cy="253" rx="12" ry="7" fill="#00BFFF"/>
  <ellipse cx="360" cy="253" rx="13" ry="8" fill="#FF6347"/>
  <ellipse cx="390" cy="253" rx="14" ry="8" fill="#9370DB"/>
  <ellipse cx="420" cy="253" rx="13" ry="8" fill="#32CD32"/>
  <ellipse cx="450" cy="253" rx="12" ry="7" fill="#FF69B4"/>
  <ellipse cx="480" cy="253" rx="13" ry="8" fill="#FFD700"/>
  <ellipse cx="510" cy="253" rx="14" ry="8" fill="#00BFFF"/>
  <ellipse cx="540" cy="253" rx="13" ry="8" fill="#FF6347"/>
  <ellipse cx="570" cy="253" rx="12" ry="7" fill="#9370DB"/>
  
  <!-- Innovation flames -->
  <polygon points="240,253 245,243 235,243" fill="#32CD32" opacity="0.9"/>
  <polygon points="270,253 275,243 265,243" fill="#FF69B4" opacity="0.9"/>
  <polygon points="300,253 305,243 295,243" fill="#FFD700" opacity="0.9"/>
  <polygon points="330,253 335,243 325,243" fill="#00BFFF" opacity="0.9"/>
  <polygon points="360,253 365,243 355,243" fill="#FF6347" opacity="0.9"/>
  <polygon points="390,253 395,243 385,243" fill="#9370DB" opacity="0.9"/>
  <polygon points="420,253 425,243 415,243" fill="#32CD32" opacity="0.9"/>
  <polygon points="450,253 455,243 445,243" fill="#FF69B4" opacity="0.9"/>
  <polygon points="480,253 485,243 475,243" fill="#FFD700" opacity="0.9"/>
  <polygon points="510,253 515,243 505,243" fill="#00BFFF" opacity="0.9"/>
  <polygon points="540,253 545,243 535,243" fill="#FF6347" opacity="0.9"/>
  <polygon points="570,253 575,243 565,243" fill="#9370DB" opacity="0.9"/>
  
  <!-- Tech devices -->
  <!-- Smartphones -->
  <rect x="120" y="380" width="6" height="12" fill="#2F4F4F"/>
  <rect x="121" y="381" width="4" height="10" fill="#00BFFF"/>
  
  <rect x="580" y="390" width="6" height="12" fill="#2F4F4F"/>
  <rect x="581" y="391" width="4" height="10" fill="#32CD32"/>
  
  <!-- Laptops -->
  <rect x="100" y="410" width="20" height="12" fill="#2F4F4F"/>
  <rect x="102" y="412" width="16" height="8" fill="#FFD700"/>
  
  <rect x="680" y="420" width="20" height="12" fill="#2F4F4F"/>
  <rect x="682" y="422" width="16" height="8" fill="#FF69B4"/>
  
  <!-- Startup workspace elements -->
  <circle cx="160" cy="320" r="12" fill="#32CD32"/>
  <text x="160" y="327" text-anchor="middle" fill="white" font-family="Arial, sans-serif" font-size="8">AGILE</text>
  
  <circle cx="640" cy="330" r="12" fill="#FF6347"/>
  <text x="640" y="337" text-anchor="middle" fill="white" font-family="Arial, sans-serif" font-size="8">SCRUM</text>
  
  <!-- Innovation glow -->
  <circle cx="400" cy="350" r="200" fill="url(#innovationGlow)"/>
  
  <!-- Startup funding celebration -->
  <rect x="50" y="510" width="100" height="60" fill="#FFD700" opacity="0.8" rx="10"/>
  <text x="100" y="530" text-anchor="middle" fill="#2F4F4F" font-family="Arial, sans-serif" font-size="12">SERIES A</text>
  <text x="100" y="545" text-anchor="middle" fill="#2F4F4F" font-family="Arial, sans-serif" font-size="11">FUNDING</text>
  <text x="100" y="560" text-anchor="middle" fill="#2F4F4F" font-family="Arial, sans-serif" font-size="10">CELEBRATION</text>
  
  <!-- Product launch -->
  <rect x="650" y="510" width="100" height="60" fill="#9370DB" opacity="0.8" rx="10"/>
  <text x="700" y="530" text-anchor="middle" fill="white" font-family="Arial, sans-serif" font-size="12">PRODUCT</text>
  <text x="700" y="545" text-anchor="middle" fill="white" font-family="Arial, sans-serif" font-size="11">LAUNCH</text>
  <text x="700" y="560" text-anchor="middle" fill="white" font-family="Arial, sans-serif" font-size="10">SUCCESS</text>
  
  <!-- Tech startup message -->
  <text x="400" y="100" text-anchor="middle" fill="#00BFFF" font-family="Arial, sans-serif" font-size="16" font-weight="bold">BUILDING TEAMS THAT BUILD THE FUTURE</text>
</svg>
