<svg width="400" height="300" viewBox="0 0 400 300" fill="none" xmlns="http://www.w3.org/2000/svg">
  <!-- Background -->
  <rect width="400" height="300" fill="url(#weddingGradient)"/>
  
  <!-- Wedding Arch -->
  <path d="M50 80 Q200 50 350 80 L350 120 Q200 90 50 120 Z" fill="#FFFFFF" stroke="#FFD700" stroke-width="3"/>
  <path d="M50 85 Q200 55 350 85 L350 115 Q200 85 50 115 Z" fill="#FFF8DC"/>
  
  <!-- Wedding Banner -->
  <text x="200" y="20" text-anchor="middle" fill="#8B008B" font-family="Arial" font-size="18" font-weight="bold">WEDDING HIBACHI CELEBRATION</text>
  <text x="200" y="35" text-anchor="middle" fill="#DC143C" font-family="Arial" font-size="12">Unforgettable Reception Entertainment</text>
  
  <!-- Hibachi Station for Wedding -->
  <rect x="160" y="220" width="80" height="60" fill="#8B4513"/>
  <rect x="162" y="222" width="76" height="56" fill="#DEB887"/>
  <rect x="165" y="225" width="70" height="50" fill="#F5DEB3"/>
  
  <!-- Wedding Hibachi Setup -->
  <rect x="180" y="190" width="40" height="30" rx="6" fill="#2F4F4F"/>
  <rect x="185" y="195" width="30" height="20" rx="4" fill="#1C1C1C"/>
  
  <!-- Bride and Groom -->
  
  <!-- Bride -->
  <g>
    <circle cx="170" cy="140" r="18" fill="#F4C2A1"/>
    <rect x="152" y="156" width="36" height="40" fill="#FFFFFF"/>
    <ellipse cx="170" cy="127" rx="10" ry="5" fill="#FFD700"/>
    <circle cx="166" cy="138" r="1" fill="#000000"/>
    <circle cx="174" cy="138" r="1" fill="#000000"/>
    <path d="M170 145 Q165 150 170 155" stroke="#FF69B4" stroke-width="1" fill="none"/>
    
    <!-- Wedding Dress Details -->
    <ellipse cx="170" cy="170" rx="18" ry="15" fill="#FFFFFF"/>
    <ellipse cx="170" cy="185" rx="20" ry="12" fill="#FFF8DC"/>
    
    <!-- Bridal Veil -->
    <path d="M160 125 Q170 120 180 125 Q185 130 180 140 Q175 145 170 140 Q165 145 160 140 Q155 130 160 125" fill="#FFFFFF" opacity="0.8"/>
    
    <!-- Bridal Bouquet -->
    <g fill="#FF69B4">
      <circle cx="155" cy="165" r="3"/>
      <circle cx="159" cy="162" r="2.5"/>
      <circle cx="152" cy="168" r="2"/>
      <circle cx="157" cy="168" r="2.5"/>
    </g>
    <rect x="156" y="170" width="2" height="8" fill="#228B22"/>
    
    <!-- Tiara -->
    <path d="M162 122 L164 119 L166 122 L168 120 L170 118 L172 120 L174 122 L176 119 L178 122" stroke="#FFD700" stroke-width="2" fill="none"/>
    <g fill="#FFD700">
      <circle cx="170" cy="118" r="1"/>
      <circle cx="164" cy="119" r="0.5"/>
      <circle cx="176" cy="119" r="0.5"/>
    </g>
  </g>
  
  <!-- Groom -->
  <g>
    <circle cx="230" cy="145" r="18" fill="#F4C2A1"/>
    <rect x="217" y="161" width="26" height="35" fill="#000000"/>
    <rect x="219" y="163" width="22" height="4" fill="#FFFFFF"/>
    <ellipse cx="230" cy="132" rx="9" ry="4" fill="#8B4513"/>
    <circle cx="226" cy="143" r="1" fill="#000000"/>
    <circle cx="234" cy="143" r="1" fill="#000000"/>
    <path d="M230 150 Q225 155 230 160" stroke="#000000" stroke-width="1" fill="none"/>
    
    <!-- Tuxedo Details -->
    <rect x="228" y="170" width="4" height="15" fill="#FFFFFF"/>
    <circle cx="230" cy="175" r="1" fill="#000000"/>
    <circle cx="230" cy="180" r="1" fill="#000000"/>
    
    <!-- Bow Tie -->
    <path d="M225 163 Q230 161 235 163 Q230 165 225 163" fill="#8B008B"/>
    
    <!-- Boutonniere -->
    <circle cx="222" cy="168" r="1.5" fill="#DC143C"/>
    <rect x="221" y="170" width="1" height="3" fill="#228B22"/>
  </g>
  
  <!-- Wedding Party -->
  
  <!-- Bridesmaids -->
  <g>
    <!-- Bridesmaid 1 -->
    <circle cx="120" cy="150" r="14" fill="#F4C2A1"/>
    <rect x="109" y="162" width="22" height="25" fill="#FF69B4"/>
    <ellipse cx="120" cy="138" rx="7" ry="3" fill="#8B4513"/>
    <circle cx="117" cy="148" r="1" fill="#000000"/>
    <circle cx="123" cy="148" r="1" fill="#000000"/>
    
    <!-- Bridesmaid 2 -->
    <circle cx="320" cy="155" r="14" fill="#F4C2A1"/>
    <rect x="309" y="167" width="22" height="25" fill="#FF69B4"/>
    <ellipse cx="320" cy="143" rx="7" ry="3" fill="#FFD700"/>
    <circle cx="317" cy="153" r="1" fill="#000000"/>
    <circle cx="323" cy="153" r="1" fill="#000000"/>
  </g>
  
  <!-- Groomsmen -->
  <g>
    <!-- Groomsman 1 -->
    <circle cx="280" cy="150" r="14" fill="#F4C2A1"/>
    <rect x="269" y="162" width="22" height="25" fill="#2F4F4F"/>
    <rect x="271" y="164" width="18" height="3" fill="#FFFFFF"/>
    <ellipse cx="280" cy="138" rx="7" ry="3" fill="#8B4513"/>
    
    <!-- Groomsman 2 -->
    <circle cx="80" cy="155" r="14" fill="#F4C2A1"/>
    <rect x="69" y="167" width="22" height="25" fill="#2F4F4F"/>
    <rect x="71" y="169" width="18" height="3" fill="#FFFFFF"/>
    <ellipse cx="80" cy="143" rx="7" ry="3" fill="#000000"/>
  </g>
  
  <!-- Wedding Feast -->
  
  <!-- Premium Wedding Menu -->
  <g>
    <!-- Filet Mignon -->
    <ellipse cx="185" cy="200" rx="6" ry="4" fill="#8B0000"/>
    <ellipse cx="185" cy="199" rx="5" ry="3" fill="#B22222"/>
    
    <!-- Lobster Tail -->
    <ellipse cx="200" cy="202" rx="5" ry="3" fill="#FF6347"/>
    <ellipse cx="200" cy="201" rx="4" ry="2" fill="#FF7F50"/>
    
    <!-- Wedding Cake Dessert -->
    <ellipse cx="215" cy="200" rx="4" ry="3" fill="#FFFACD"/>
    <ellipse cx="215" cy="199" rx="3" ry="2" fill="#FFF8DC"/>
  </g>
  
  <!-- Wedding Decorations -->
  
  <!-- Floral Centerpieces -->
  <g>
    <!-- Centerpiece 1 -->
    <circle cx="140" cy="200" r="8" fill="#FFD700"/>
    <g fill="#FF69B4">
      <circle cx="137" cy="197" r="2"/>
      <circle cx="143" cy="197" r="2"/>
      <circle cx="140" cy="194" r="2"/>
      <circle cx="137" cy="203" r="2"/>
      <circle cx="143" cy="203" r="2"/>
    </g>
    
    <!-- Centerpiece 2 -->
    <circle cx="260" cy="200" r="8" fill="#FFD700"/>
    <g fill="#FFFFFF">
      <circle cx="257" cy="197" r="2"/>
      <circle cx="263" cy="197" r="2"/>
      <circle cx="260" cy="194" r="2"/>
      <circle cx="257" cy="203" r="2"/>
      <circle cx="263" cy="203" r="2"/>
    </g>
  </g>
  
  <!-- Wedding Candles -->
  <g>
    <!-- Unity Candle -->
    <rect x="195" y="160" width="10" height="15" fill="#FFD700"/>
    <ellipse cx="200" cy="158" rx="5" ry="2" fill="#FF6347"/>
    <ellipse cx="200" cy="155" rx="2" ry="5" fill="#FFA500" opacity="0.8"/>
    
    <!-- Side Candles -->
    <rect x="175" y="165" width="6" height="12" fill="#FFFFFF"/>
    <ellipse cx="178" cy="163" rx="3" ry="1" fill="#FF6347"/>
    
    <rect x="219" y="165" width="6" height="12" fill="#FFFFFF"/>
    <ellipse cx="222" cy="163" rx="3" ry="1" fill="#FF6347"/>
  </g>
  
  <!-- Wedding Music -->
  <rect x="30" y="120" width="25" height="30" fill="#8B4513"/>
  <rect x="32" y="122" width="21" height="26" fill="#DEB887"/>
  <g fill="#000000" font-family="Arial" font-size="5">
    <text x="42" y="130" text-anchor="middle">LIVE</text>
    <text x="42" y="137" text-anchor="middle">MUSIC</text>
    <text x="42" y="144" text-anchor="middle">🎵</text>
  </g>
  
  <!-- Wedding Photography -->
  <rect x="345" y="120" width="25" height="20" fill="#000000"/>
  <rect x="347" y="122" width="21" height="16" fill="#C0C0C0"/>
  <circle cx="357" cy="130" r="4" fill="#000000"/>
  <circle cx="357" cy="130" r="2" fill="#87CEEB"/>
  
  <!-- Wedding Rings -->
  <g stroke="#FFD700" stroke-width="2" fill="none">
    <circle cx="190" cy="180" r="3"/>
    <circle cx="210" cy="180" r="3"/>
  </g>
  <g fill="#FFD700">
    <circle cx="190" cy="177" r="0.5"/>
    <circle cx="210" cy="177" r="0.5"/>
  </g>
  
  <!-- Wedding Champagne -->
  <g>
    <rect x="120" y="180" width="6" height="15" fill="#228B22"/>
    <ellipse cx="123" cy="178" rx="3" ry="2" fill="#228B22"/>
    <rect x="122" y="185" width="2" height="8" fill="#FFFF00"/>
    
    <rect x="280" y="182" width="6" height="15" fill="#228B22"/>
    <ellipse cx="283" cy="180" rx="3" ry="2" fill="#228B22"/>
    <rect x="282" y="187" width="2" height="8" fill="#FFFF00"/>
  </g>
  
  <!-- Wedding Dance Floor -->
  <rect x="100" y="260" width="200" height="20" fill="#8B4513"/>
  <rect x="102" y="262" width="196" height="16" fill="#DEB887"/>
  <g fill="#FFD700" opacity="0.7">
    <circle cx="130" cy="270" r="2"/>
    <circle cx="160" cy="272" r="2"/>
    <circle cx="200" cy="270" r="2"/>
    <circle cx="240" cy="272" r="2"/>
    <circle cx="270" cy="270" r="2"/>
  </g>
  
  <!-- Wedding Entertainment -->
  
  <!-- Hibachi Chef Performance -->
  <circle cx="200" cy="170" r="12" fill="#F4C2A1"/>
  <rect x="190" y="180" width="20" height="20" fill="#FFFFFF"/>
  <rect x="192" y="182" width="16" height="3" fill="#000000"/>
  <ellipse cx="200" cy="162" rx="6" ry="3" fill="#000000"/>
  <circle cx="197" cy="168" r="1" fill="#000000"/>
  <circle cx="203" cy="168" r="1" fill="#000000"/>
  
  <!-- Chef Hat -->
  <rect x="196" y="155" width="8" height="10" fill="#FFFFFF"/>
  <ellipse cx="200" cy="154" rx="4" ry="3" fill="#FFFFFF"/>
  
  <!-- Cooking Utensils -->
  <rect x="175" y="175" width="2" height="12" fill="#C0C0C0"/>
  <ellipse cx="176" cy="173" rx="1" ry="2" fill="#C0C0C0"/>
  
  <rect x="223" y="175" width="2" height="12" fill="#C0C0C0"/>
  <ellipse cx="224" cy="173" rx="1" ry="2" fill="#C0C0C0"/>
  
  <!-- Wedding Favors -->
  <rect x="50" y="240" width="15" height="10" fill="#FF69B4"/>
  <rect x="52" y="242" width="11" height="6" fill="#FFB6C1"/>
  <text x="57" y="247" text-anchor="middle" fill="#FFFFFF" font-family="Arial" font-size="3">FAVOR</text>
  
  <rect x="335" y="240" width="15" height="10" fill="#FF69B4"/>
  <rect x="337" y="242" width="11" height="6" fill="#FFB6C1"/>
  <text x="342" y="247" text-anchor="middle" fill="#FFFFFF" font-family="Arial" font-size="3">FAVOR</text>
  
  <!-- Wedding Confetti -->
  <g fill="#FF69B4" opacity="0.7">
    <ellipse cx="90" cy="100" rx="1" ry="2" transform="rotate(30 90 100)"/>
    <ellipse cx="130" cy="95" rx="1" ry="2" transform="rotate(60 130 95)"/>
    <ellipse cx="270" cy="98" rx="1" ry="2" transform="rotate(15 270 98)"/>
    <ellipse cx="310" cy="102" rx="1" ry="2" transform="rotate(45 310 102)"/>
  </g>
  
  <!-- Wedding Steam Effects -->
  <g stroke="#FFD700" stroke-width="2" fill="none" opacity="0.8">
    <path d="M185 185 Q187 180 185 175 Q183 170 185 165"/>
    <path d="M200 185 Q202 180 200 175 Q198 170 200 165"/>
    <path d="M215 185 Q217 180 215 175 Q213 170 215 165"/>
  </g>
  
  <!-- Wedding Memories -->
  <ellipse cx="200" cy="100" rx="70" ry="20" fill="#FFFFFF" stroke="#FFD700" stroke-width="2" opacity="0.9"/>
  <text x="200" y="95" text-anchor="middle" fill="#8B008B" font-family="Arial" font-size="10" font-weight="bold">
    "A Perfect Day to Remember"
  </text>
  <text x="200" y="106" text-anchor="middle" fill="#DC143C" font-family="Arial" font-size="8">
    Culinary Excellence • Entertainment • Romance
  </text>
  
  <!-- Wedding Toast -->
  <rect x="320" y="190" width="30" height="20" fill="#FFFACD"/>
  <rect x="322" y="192" width="26" height="16" fill="#FFF8DC"/>
  <g fill="#8B4513" font-family="Arial" font-size="4">
    <text x="335" y="197" text-anchor="middle">WEDDING</text>
    <text x="335" y="202" text-anchor="middle">TOAST</text>
    <text x="335" y="207" text-anchor="middle">CHEERS!</text>
  </g>
  
  <!-- Love Hearts -->
  <g fill="#FF1493" opacity="0.8">
    <path d="M80 80 Q82 78 84 80 Q86 78 88 80 Q88 84 84 88 Q80 84 80 80"/>
    <path d="M312 85 Q314 83 316 85 Q318 83 320 85 Q320 89 316 93 Q312 89 312 85"/>
  </g>
  
  <!-- Wedding Celebration Icons -->
  <g fill="#FFD700" opacity="0.7">
    <text x="60" y="90" text-anchor="middle" font-family="Arial" font-size="14">💒</text>
    <text x="340" y="95" text-anchor="middle" font-family="Arial" font-size="14">💍</text>
    <text x="30" y="200" text-anchor="middle" font-family="Arial" font-size="12">🥂</text>
    <text x="370" y="205" text-anchor="middle" font-family="Arial" font-size="12">🎊</text>
  </g>
  
  <!-- Subtitle -->
  <text x="200" y="290" text-anchor="middle" fill="#8B4513" font-family="Arial, sans-serif" font-size="12">
    "Creating magical moments with exceptional cuisine and unforgettable entertainment"
  </text>
  
  <defs>
    <linearGradient id="weddingGradient" x1="0%" y1="0%" x2="100%" y2="100%">
      <stop offset="0%" style="stop-color:#FFF0F5;stop-opacity:1" />
      <stop offset="50%" style="stop-color:#FFE4E1;stop-opacity:1" />
      <stop offset="100%" style="stop-color:#FFFACD;stop-opacity:1" />
    </linearGradient>
  </defs>
</svg>
